<svg width="3840" height="519" viewBox="0 0 3840 519" fill="none" xmlns="http://www.w3.org/2000/svg">
<rect x="4" y="4" width="3832" height="511" rx="60" fill="white"/>
<rect x="4" y="4" width="3832" height="511" rx="60" stroke="#F1F2F4" stroke-width="8"/>
<path d="M250.328 306.055C263.828 306.055 272.74 299.99 272.74 289.496C272.74 281.428 267.625 275.627 256.604 273.148L249.062 271.461C241.891 269.879 238.463 267.242 238.463 262.391C238.463 257.223 243.209 254.375 250.486 254.375C257.184 254.375 261.824 257.434 262.879 262.391H271.527C270.42 252.846 262.51 246.992 250.645 246.992C238.094 246.992 229.551 253.109 229.551 262.971C229.551 271.092 234.666 276.84 244.949 279.107L252.596 280.795C258.924 282.219 263.459 285.172 263.459 290.287C263.459 295.613 258.502 298.461 250.697 298.461C243.314 298.461 238.305 295.455 237.039 290.287H227.916C228.971 300.096 237.25 306.055 250.328 306.055ZM293.887 325.25H302.746V295.139H303.379C306.068 301.572 312.449 306.055 321.467 306.055C332.91 306.055 342.297 297.881 342.297 284.434V268.613C342.297 255.166 332.91 246.992 321.467 246.992C312.449 246.992 305.963 251.475 303.273 257.908H302.43V248.047H293.887V325.25ZM302.852 282.219V270.828C302.852 261.02 310.445 255.166 319.094 255.166C327.531 255.166 333.332 261.072 333.332 270.459V282.588C333.332 291.975 327.531 297.881 319.094 297.881C310.445 297.881 302.852 292.027 302.852 282.219ZM360.438 305H369.402V270.828C369.402 261.02 376.205 255.166 384.854 255.166C393.291 255.166 398.406 261.072 398.406 270.459V305H407.371V268.613C407.371 255.166 398.67 246.992 387.227 246.992C378.209 246.992 372.408 251.475 369.719 257.908H368.98V227.375H360.438V305ZM428.043 305H475.715V297.512H457.152V248.047H430.574V255.535H448.188V297.512H428.043V305ZM444.707 228.008C444.707 232.121 447.924 235.18 452.09 235.18C456.256 235.18 459.473 232.121 459.473 228.008C459.473 223.895 456.256 220.836 452.09 220.836C447.924 220.836 444.707 223.895 444.707 228.008ZM493.961 305H502.926V270.828C502.926 261.02 509.729 255.166 518.377 255.166C526.814 255.166 531.93 261.072 531.93 270.459V305H540.895V268.613C540.895 255.166 532.193 246.992 520.75 246.992C511.732 246.992 506.037 251.475 503.348 257.908H502.504V248.047H493.961V305ZM559.932 305H570.215L583.873 283.273H584.506L598.164 305H608.447L589.621 276.523L608.447 248.047H598.164L584.506 270.828H583.873L570.215 248.047H559.932L578.441 276.523L559.932 305ZM717.713 306.055C732.848 306.055 742.445 296.932 742.445 281.375V271.619C742.445 256.062 732.848 246.992 717.713 246.992C702.578 246.992 692.98 256.062 692.98 271.619V281.375C692.98 296.932 702.578 306.055 717.713 306.055ZM701.84 280.531V272.41C701.84 261.072 707.904 254.797 717.713 254.797C727.521 254.797 733.586 261.072 733.586 272.41V280.531C733.586 291.922 727.521 298.25 717.713 298.25C707.904 298.25 701.84 291.922 701.84 280.531ZM777.672 305H786.531V255.641H808.891V248.047H786.637V243.037C786.637 237.025 790.697 235.18 795.18 235.18H807.625V227.375H794.652C785.16 227.375 777.672 231.963 777.672 242.615V248.047H761.43V255.641H777.672V305ZM922.322 306.055C933.766 306.055 943.152 297.881 943.152 284.434V268.613C943.152 255.166 933.766 246.992 922.322 246.992C913.305 246.992 907.029 251.475 904.34 257.908H903.707V227.375H894.742V305H903.285V295.139H904.129C906.818 301.572 913.305 306.055 922.322 306.055ZM903.707 282.219V270.828C903.707 261.02 911.301 255.166 919.949 255.166C928.387 255.166 934.188 261.072 934.188 270.459V282.588C934.188 291.975 928.387 297.881 919.949 297.881C911.301 297.881 903.707 292.027 903.707 282.219ZM962.137 305H1009.81V297.512H991.246V227.375H964.668V234.863H982.281V297.512H962.137V305ZM1046.83 306.055C1057.27 306.055 1063.23 299.832 1065.29 295.139H1066.13V305H1074.36V267.295C1074.36 255.271 1066.29 246.992 1052.84 246.992C1040.55 246.992 1032.48 253.32 1029.95 263.129H1038.6C1040.08 258.172 1045.46 254.744 1051.52 254.744C1060.64 254.744 1065.92 259.543 1065.92 267.453V271.461H1049.46C1035.44 271.461 1027.32 278.896 1027.32 289.602C1027.32 298.619 1034.49 306.055 1046.83 306.055ZM1036.07 288.494C1036.07 282.113 1042.24 278.527 1050.26 278.527H1065.92V284.539C1065.92 292.396 1056.69 298.566 1049.57 298.566C1042.03 298.566 1036.07 295.086 1036.07 288.494ZM1118.28 306.055C1131.57 306.055 1140.38 299.305 1142.7 287.703H1133.52C1131.41 294.611 1126.14 298.25 1118.28 298.25C1108.47 298.25 1102.41 291.922 1102.41 280.531V272.41C1102.41 261.072 1108.47 254.797 1118.28 254.797C1126.14 254.797 1131.47 258.541 1133.52 265.555H1142.7C1140.38 253.9 1131.57 246.992 1118.28 246.992C1103.15 246.992 1093.55 256.062 1093.55 271.619V281.375C1093.55 296.932 1103.15 306.055 1118.28 306.055ZM1164.74 305H1173.71V284.223L1179.77 278.211L1200.92 305H1212.04L1186.31 272.463L1210.41 248.047H1199.34L1174.66 273.043H1173.71V229.062H1164.74V305ZM1332.96 325.25H1341.82V248.047H1333.28V257.908H1332.44C1329.75 251.475 1323.26 246.992 1314.24 246.992C1302.8 246.992 1293.41 255.166 1293.41 268.613V284.434C1293.41 297.881 1302.8 306.055 1314.24 306.055C1323.26 306.055 1329.64 301.572 1332.33 295.139H1332.96V325.25ZM1302.38 282.588V270.459C1302.38 261.072 1308.18 255.166 1316.62 255.166C1325.27 255.166 1332.86 261.02 1332.86 270.828V282.219C1332.86 292.027 1325.27 297.881 1316.62 297.881C1308.18 297.881 1302.38 291.975 1302.38 282.588ZM1382.01 306.055C1391.03 306.055 1396.72 301.572 1399.41 295.139H1400.25V305H1408.8V248.047H1399.83V282.219C1399.83 292.027 1393.03 297.881 1384.38 297.881C1375.94 297.881 1370.83 291.975 1370.83 282.588V248.047H1361.86V284.434C1361.86 297.881 1370.56 306.055 1382.01 306.055ZM1447.4 306.055C1457.84 306.055 1463.8 299.832 1465.86 295.139H1466.7V305H1474.93V267.295C1474.93 255.271 1466.86 246.992 1453.41 246.992C1441.12 246.992 1433.05 253.32 1430.52 263.129H1439.17C1440.65 258.172 1446.03 254.744 1452.09 254.744C1461.21 254.744 1466.49 259.543 1466.49 267.453V271.461H1450.04C1436.01 271.461 1427.89 278.896 1427.89 289.602C1427.89 298.619 1435.06 306.055 1447.4 306.055ZM1436.64 288.494C1436.64 282.113 1442.81 278.527 1450.83 278.527H1466.49V284.539C1466.49 292.396 1457.26 298.566 1450.14 298.566C1442.6 298.566 1436.64 295.086 1436.64 288.494ZM1496.02 305H1533.25V297.512H1514.69V274.836C1514.69 261.02 1524.5 255.852 1534.09 255.852C1538.1 255.852 1542.43 256.801 1545.85 258.436V249.471C1542.85 247.678 1539.95 246.992 1535.31 246.992C1524.07 246.992 1518.01 252.266 1515.53 260.703H1514.69V248.047H1497.29V255.535H1505.72V297.512H1496.02V305ZM1594.11 305.211H1607.08V297.406H1594.63C1590.15 297.406 1586.09 295.561 1586.09 289.549V255.641H1608.34V248.047H1585.98V231.805H1577.12V248.047H1560.88V255.641H1577.12V289.971C1577.12 300.623 1584.61 305.211 1594.11 305.211ZM1630.18 305.053H1675.53V297.248H1641.36V296.615L1674.26 254.85V248.047H1631.44V255.852H1663.71V256.484L1630.18 298.619V305.053ZM1716.4 319.713L1727.42 287.967H1715.66L1708.43 319.713H1716.4ZM1828.56 325.25H1844.59C1858.94 325.25 1867.27 318.5 1867.27 305.105V248.047H1831.09V255.535H1858.3V304.42C1858.3 313.701 1853.88 317.445 1844.59 317.445H1828.56V325.25ZM1854.82 228.008C1854.82 232.121 1858.04 235.18 1862.21 235.18C1866.37 235.18 1869.59 232.121 1869.59 228.008C1869.59 223.895 1866.37 220.836 1862.21 220.836C1858.04 220.836 1854.82 223.895 1854.82 228.008ZM1916.1 306.055C1925.12 306.055 1930.81 301.572 1933.5 295.139H1934.35V305H1942.89V248.047H1933.93V282.219C1933.93 292.027 1927.12 297.881 1918.47 297.881C1910.04 297.881 1904.92 291.975 1904.92 282.588V248.047H1895.96V284.434C1895.96 297.881 1904.66 306.055 1916.1 306.055ZM1981.86 306.055C1990.88 306.055 1997.37 301.572 2000.05 295.139H2000.9V305H2009.44V227.375H2000.48V257.908H1999.84C1997.15 251.475 1990.88 246.992 1981.86 246.992C1970.42 246.992 1961.03 255.166 1961.03 268.613V284.434C1961.03 297.881 1970.42 306.055 1981.86 306.055ZM1970 282.588V270.459C1970 261.072 1975.8 255.166 1984.23 255.166C1992.88 255.166 2000.48 261.02 2000.48 270.828V282.219C2000.48 292.027 1992.88 297.881 1984.23 297.881C1975.8 297.881 1970 291.975 1970 282.588ZM2035.18 325.25H2053.53C2067.87 325.25 2076.2 318.5 2076.2 305.105V248.047H2067.66V257.908H2066.82C2064.13 251.475 2057.64 246.992 2048.62 246.992C2037.18 246.992 2027.79 255.166 2027.79 268.613V279.582C2027.79 293.029 2037.18 301.203 2048.62 301.203C2057.64 301.203 2064.02 296.721 2066.71 290.287H2067.34V304.42C2067.34 313.701 2062.81 317.445 2053.53 317.445H2035.18V325.25ZM2036.76 277.736V270.459C2036.76 261.072 2042.56 255.166 2051 255.166C2059.64 255.166 2067.24 261.02 2067.24 270.828V277.367C2067.24 287.176 2059.64 293.029 2051 293.029C2042.56 293.029 2036.76 287.123 2036.76 277.736ZM2119.71 306.055C2132.31 306.055 2141.49 299.516 2144.02 288.441H2134.69C2132.73 294.506 2126.99 298.355 2119.71 298.355C2109.9 298.355 2103.84 291.922 2103.84 280.531V278.633H2144.44V272.199C2144.44 256.484 2134.9 246.992 2119.71 246.992C2104.57 246.992 2094.98 256.379 2094.98 272.146V281.375C2094.98 296.668 2104.57 306.055 2119.71 306.055ZM2103.84 271.355C2104.21 260.545 2110.22 254.691 2119.71 254.691C2129.2 254.691 2135.21 260.545 2135.58 271.355H2103.84ZM2226.18 305H2234.2V266.82C2234.2 259.754 2237.25 255.166 2242.11 255.166C2247.38 255.166 2249.33 259.016 2249.33 265.871V305H2257.35V266.82C2257.35 259.754 2260.35 255.166 2265.2 255.166C2270.58 255.166 2272.27 258.963 2272.27 265.924V305H2280.29V263.076C2280.29 252.688 2275.59 246.992 2268.1 246.992C2262.36 246.992 2258.19 250.789 2256.77 256.168H2255.92C2254.71 250.789 2250.7 246.992 2245.38 246.992C2240 246.992 2236.09 250.895 2234.99 256.326H2234.14V248.047H2226.18V305ZM2298.43 325.25H2306.07C2313.46 325.25 2318.46 321.137 2322 311.592L2345.41 248.047H2336.03L2320.26 293.346H2319.68L2303.96 248.047H2294.58L2315.51 304.947L2313.46 310.59C2311.93 314.861 2309.18 317.445 2304.23 317.445H2298.43V325.25ZM2449.04 305H2458L2479.04 248.047H2469.6L2453.78 293.451H2453.25L2437.43 248.047H2427.99L2449.04 305ZM2520.28 306.055C2535.41 306.055 2545.01 296.932 2545.01 281.375V271.619C2545.01 256.062 2535.41 246.992 2520.28 246.992C2505.14 246.992 2495.55 256.062 2495.55 271.619V281.375C2495.55 296.932 2505.14 306.055 2520.28 306.055ZM2504.41 280.531V272.41C2504.41 261.072 2510.47 254.797 2520.28 254.797C2530.09 254.797 2536.15 261.072 2536.15 272.41V280.531C2536.15 291.922 2530.09 298.25 2520.28 298.25C2510.47 298.25 2504.41 291.922 2504.41 280.531ZM2568 305H2576.55L2586.62 260.809H2587.46L2597.54 305H2606.08L2617.89 248.047H2609.14L2601.44 293.398H2600.59L2591.26 248.1H2582.82L2573.49 293.398H2572.64L2564.95 248.047H2556.19L2568 305ZM2653.8 306.002C2658.81 306.002 2662.61 302.152 2662.61 297.248C2662.61 292.344 2658.81 288.494 2653.8 288.494C2648.85 288.494 2645 292.344 2645 297.248C2645 302.152 2648.85 306.002 2653.8 306.002Z" fill="#032137"/>
</svg>
