<?xml version="1.0" encoding="UTF-8"?><svg id="_图层_1" xmlns="http://www.w3.org/2000/svg" viewBox="0 0 1123.4 959.3"><rect width="1123.4" height="959.3" rx="12" ry="12" style="fill:#fff;"/><g><path d="M162.2,57.4h9.2l21.7,74.5h-9.4l-4.9-18.6h-24.2l-4.8,18.6h-9.4l21.7-74.5Zm14.8,48.8l-10.1-38.6h-.4l-9.9,38.6h20.4Z"/><path d="M210.1,57.4h24.9c13.4,0,20.5,6.1,20.5,19.5s-5.8,14.5-12.9,16.5v.7c7.9,1.7,14.8,7,14.8,17.4s-7.2,20.3-20.9,20.3h-17.7c0,0-8.7,0-8.7,0V57.4Zm23,33.3c8.1,0,13.2-3.5,13.2-12.7s-5.1-13.2-13.2-13.2h-14.3v25.9h14.3Zm1.4,33.7c8.2,0,13.5-3.4,13.5-12.9s-5.2-13.5-13.5-13.5h-15.7v26.4h15.7Z"/><path d="M273.1,108.8v-28.8c0-15.3,9.6-24.2,24.7-24.2s24,8.2,24.7,22.3h-8.9c-.9-9.4-6.7-14.6-15.8-14.6s-15.9,6.2-15.9,17.3v27.2c0,11.2,6.1,17.4,15.9,17.4s14.6-5,15.7-14.1h9c-1,13.8-10.3,21.7-24.6,21.7s-24.7-9-24.7-24.2Z"/><path d="M341.4,57.4h20.9c15.2,0,25.8,9.1,25.8,24.2v27c0,15.3-10.6,23.4-25.8,23.4h-20.9V57.4Zm20.9,66.9c9.8,0,16.9-5.4,16.9-16.6v-25.4c0-11-7.1-17.3-16.9-17.3h-12.1v59.3h12.1Z"/><path d="M452.1,64.8h-36.3v25.8h33.4v7.4h-33.4v26.3h36.3v7.7h-45.1V57.4h45.1v7.4Z"/><path d="M517.6,64.8h-36.2v25.8h33.7v7.4h-33.7v34h-8.8V57.4h45v7.4Z"/><path d="M535.2,108.8v-28.8c0-15.3,9.6-24.2,24.7-24.2s24,8.2,24.7,22.4h-8.9c-.9-9.5-6.7-14.8-15.8-14.8s-15.9,6.2-15.9,17.3v27.2c0,11.2,6.1,17.4,15.9,17.4s15.9-6.2,15.9-17.4v-8.3h-19.3v-7.4h28.2v16.5c0,15.3-9.6,24.2-24.7,24.2s-24.7-9-24.7-24.2Z"/><path d="M601,57.4h8.8v33.2h31.4V57.4h8.8v74.5h-8.8v-34h-31.4v34h-8.8V57.4Z"/><path d="M712.8,57.4v7.4h-17.3v59.5h17.8v7.7h-43.5v-7.7h16.9v-59.5h-17.3v-7.4h43.5Z"/><path d="M756.1,133c-13.3,0-21.7-7.4-23.2-20.1h8.7c1.3,7.7,6.4,11.9,14.5,11.9s14-4.6,14-15v-45.1h-22.1v-7.4h30.9v53.2c0,14.2-8.9,22.4-22.8,22.4Z"/><path d="M799.8,57.4h8.8v35.7l27.6-35.7h10.9l-27.2,33.2,28.8,41.3h-10.9l-23.4-36-5.7,6.8v29.2h-8.8V57.4Z"/><path d="M865.4,57.4h8.8V124.3h38v7.7h-46.8V57.4Z"/><path d="M928.1,57.4h8.9l15.9,43.9h.9l15.6-43.9h8.9v74.5h-7.9v-55.1h-1.4l-12.2,36.6h-7.4l-12.2-36.6h-1.4v55.1h-7.9V57.4Z"/><path d="M142.3,184.6h9.1l30.7,59.2h.8v-59.2h8.3v74.5h-9.1l-30.7-59.6h-.8v59.6h-8.3v-74.5Z"/><path d="M207.6,236v-28.8c0-15.3,9.6-24.2,24.7-24.2s24.7,8.9,24.7,24.2v28.8c0,15.3-9.6,24.2-24.7,24.2s-24.7-9-24.7-24.2Zm24.7,16.6c9.8,0,15.9-6.2,15.9-17.4v-27.2c0-11.1-6.1-17.3-15.9-17.3s-15.9,6.2-15.9,17.3v27.2c0,11.2,6.1,17.4,15.9,17.4Z"/><path d="M274.8,184.6h26.4c13.8,0,21.7,8,21.7,21.4s-7.7,20.8-21.6,20.8h-17.8v32.4h-8.7v-74.5Zm24.8,34.9c8.6,0,14.1-3.9,14.1-13.5s-5.5-14.1-14.1-14.1h-16.1v27.6h16.1Z"/><path d="M338.6,236v-28.8c0-15.3,9.6-24.2,24.7-24.2s24.7,8.9,24.7,24.2v28.8c0,9.1-3.4,15.9-9.3,20l7.2,13.3h-8.7l-5.3-10.1c-2.6,.7-5.5,1.1-8.6,1.1-15.2,0-24.7-9-24.7-24.2Zm24.7,16.6c1.7,0,3.3-.2,4.8-.6l-9.7-18.4h8.3l8,14.8c3-3,4.6-7.4,4.6-13.2v-27.2c0-11.1-6.1-17.3-15.9-17.3s-15.9,6.2-15.9,17.3v27.2c0,11.2,6.1,17.4,15.9,17.4Z"/><path d="M405.9,184.6h26.3c13.8,0,21.5,8,21.5,21.4s-5.9,18.9-16.8,20.4l17.6,32.7h-9.9l-16.7-32.4h-13.3v32.4h-8.7v-74.5Zm24.5,34.9c8.6,0,14.1-3.9,14.1-13.5s-5.5-14.1-14.1-14.1h-15.8v27.6h15.8Z"/><path d="M469.3,239h9.1c.7,7,6.8,13.4,16,13.4s16.4-5.5,16.4-13.4-4.2-10.4-14.3-12.8l-6.4-1.6c-13.7-3.5-19-9.9-19-20.7s9-20.9,23.7-20.9,22.6,9,23.7,20.6h-8.7c-.9-7.6-6.2-12.9-15-12.9s-14.5,5.2-14.5,12.7,3.1,10.2,12.7,12.7l6.5,1.6c14.3,3.5,20.4,9.8,20.4,20.9s-9.9,21.7-25.5,21.7-24-8.5-25.1-21.2Z"/><path d="M555.6,192.4h-20.3v-7.7h49.5v7.7h-20.3v66.8h-8.8v-66.8Z"/><path d="M625.5,260.2c-15.2,0-24.7-9-24.7-24.2v-51.4h8.9v50.5c0,11.2,6.1,17.4,15.9,17.4s15.9-6.2,15.9-17.4v-50.5h8.9v51.4c0,15.3-9.6,24.2-24.7,24.2Z"/><path d="M674.6,184.6l16.2,62.7h.8l16-62.6h9.4l-21.4,74.4h-8.8l-21.4-74.5h9.4Z"/><path d="M725.3,184.6h8.5l8.7,63.2h.8l9-44.5h8.7l9,44.5h.8l8.7-63.2h8.5l-12.6,74.5h-9.1l-9.2-43.4h-.9l-9.2,43.4h-9.1l-12.6-74.5Z"/><path d="M817.3,222l-19.6-37.4h9.3l14.8,30.9h.8l14.8-30.9h9.3l-19.9,37.4,19.9,37.2h-9.3l-14.8-30h-.8l-14.8,30h-9.3l19.6-37.2Z"/><path d="M861.3,184.6h9.3l16.6,37.6h.8l16.6-37.6h9.3l-21.9,45.7v28.8h-8.8v-28.8l-21.9-45.7Z"/><path d="M979.1,184.6v6l-40.6,59.9v1.2h40.6v7.4h-52v-5.6l41.1-60.7v-.9h-38.2v-7.4h49.1Z"/><path d="M143,371.3c0-10.5,7.8-17.8,18.5-17.8h19.4v-4.6c0-8.4-5.3-11.9-13.7-11.9s-12.1,3.8-12.9,8.3h-8.7c1.7-8.4,7.7-15.9,22.6-15.9s21.5,8.1,21.5,18.6v38.3h-8.5v-9.7h-.8c-2,4.6-7.9,10.7-18.1,10.7s-19.2-7.3-19.2-16.2Zm21.8,8.8c7,0,16-6.1,16-13.8v-5.9h-18.3c-6.3,0-11,3.5-11,9.8s5.8,9.9,13.3,9.9Z"/><path d="M218.7,376.7h-.8v9.7h-8.4v-76.2h8.8v30h.6c2.6-6.3,8.8-10.7,17.7-10.7s20.4,8,20.4,21.2v15.5c0,13.2-9.2,21.2-20.4,21.2s-15.2-4.4-17.9-10.7Zm15.5,2.7c8.3,0,14-5.8,14-15v-11.9c0-9.2-5.7-15-14-15s-15.9,5.7-15.9,15.4v11.2c0,9.6,7.5,15.4,15.9,15.4Z"/><path d="M273.6,363.2v-9.6c0-15.3,10-24.2,24.8-24.2s20.6,5.9,23.4,15.9h-9.3c-2-5.4-7.4-8.3-14.2-8.3s-16.2,6.2-16.2,17.3v8c0,11.2,6.5,17.4,16.2,17.4s12.2-2.8,14.2-8.3h9.3c-2.8,10.1-11.3,15.9-23.5,15.9s-24.8-9-24.8-24.2Z"/><path d="M338.7,366.2v-15.5c0-13.2,9.2-21.2,20.4-21.2s15,4.4,17.7,10.7h.6v-30h8.8v76.2h-8.4v-9.7h-.8c-2.6,6.3-9,10.7-17.9,10.7s-20.4-8-20.4-21.2Zm22.8,13.2c8.5,0,15.9-5.7,15.9-15.4v-11.2c0-9.6-7.5-15.4-15.9-15.4s-14,5.8-14,15v11.9c0,9.2,5.7,15,14,15Z"/><path d="M404.6,355c0-16.3,9.4-25.6,24.3-25.6s24.3,9.3,24.3,25.6v5.5h-39.9v1.9c0,12.3,6.7,17.4,16.4,17.4s12.1-2.8,14-8.3h9.3c-3,9.9-11.4,15.9-23.3,15.9s-25.1-8.4-25.1-25.7v-6.7Zm24.3-18c-9.3,0-15.2,5.7-15.6,16.4h31.2c-.4-10.6-6.3-16.4-15.6-16.4Z"/><path d="M487.8,337.9h-15.9v-7.5h15.9v-5.3c0-10.5,7.4-15.8,16.7-15.8s10.1,.5,14,1.8v7.1c-3.2-.8-7.3-1.2-12.3-1.2s-9.5,2.7-9.5,8.6v4.9h21.8v7.5h-21.9v48.5h-8.7v-48.5Z"/><path d="M556.8,398.6c10,0,17.3-4.4,17.3-15.2v-9.7h-.6c-2.6,6.3-8.9,10.7-17.8,10.7s-20.4-8-20.4-21.2v-12.5c0-13.2,9.2-21.2,20.4-21.2s15.2,4.4,17.9,10.7h.8v-9.7h8.4v53.2c0,14-9.3,22.6-24.2,22.6s-15-.8-19.4-2.1v-7c4.4,.9,10.2,1.4,17.7,1.4Zm1.2-22.2c8.5,0,15.9-5.7,15.9-15.4v-8.2c0-9.6-7.5-15.4-15.9-15.4s-14,5.8-14,15v8.9c0,9.2,5.7,15,14,15Z"/><path d="M602.5,310.2h8.4v30h.7c2.6-6.3,8.3-10.7,17.2-10.7s19.8,8,19.8,21.2v35.7h-8.8v-33.9c0-9.2-5-15-13.3-15s-15.2,5.7-15.2,15.4v33.5h-8.8v-76.2Z"/><path d="M668.8,379h19.8v-41.2h-17.3v-7.4h26.1v48.6h18.2v7.4h-46.8v-7.4Zm23.6-75.3c4.1,0,7.2,3,7.2,7s-3.2,7-7.2,7-7.2-3-7.2-7,3.2-7,7.2-7Z"/><path d="M747,398.6c10.2,0,15.1-4.1,15.1-14.4v-46.4h-26.7v-7.4h35.5v54.8c0,13.9-8.6,21-23.6,21s-9.1-.8-11.9-1.9v-6.8c3.1,.7,7.2,1,11.6,1Zm18.9-94.8c4.1,0,7.2,3,7.2,7s-3.2,7-7.2,7-7.2-3-7.2-7,3.2-7,7.2-7Z"/><path d="M802.2,310.2h8.8v44.8h.9l24.2-24.5h10.9l-23.7,24,25.3,31.9h-10.9l-20.8-26.3-6,5.9v20.4h-8.8v-76.2Z"/><path d="M865.4,379h19.8v-59.8h-19.8v-7.4h28.6v67.2h18.2v7.4h-46.8v-7.4Z"/><path d="M926.6,330.5h7.8v8.1h.8c1.1-5.3,4.9-9.2,10.2-9.2s9.2,3.7,10.4,9h.8c1.4-5.3,5.5-9,11.1-9s12,5.6,12,15.8v41.2h-7.9v-38.4c0-6.8-1.7-10.6-6.9-10.6s-7.7,4.5-7.7,11.4v37.5h-7.9v-38.4c0-6.7-1.9-10.5-7.1-10.5s-7.8,4.5-7.8,11.4v37.5h-7.9v-55.9Z"/><path d="M143.7,457.7h8.4v9.7h.8c2.6-6.3,8.2-10.7,17.1-10.7s19.8,8,19.8,21.2v35.7h-8.8v-33.9c0-9.2-5-15-13.3-15s-15.2,5.7-15.2,15.4v33.5h-8.8v-55.9Z"/><path d="M208,490.4v-9.6c0-15.3,9.4-24.2,24.3-24.2s24.3,8.9,24.3,24.2v9.6c0,15.3-9.4,24.2-24.3,24.2s-24.3-9-24.3-24.2Zm24.3,16.6c9.6,0,15.6-6.2,15.6-17.4v-8c0-11.1-6-17.3-15.6-17.3s-15.6,6.2-15.6,17.3v8c0,11.2,6,17.4,15.6,17.4Z"/><path d="M275,457.7h8.4v9.7h.8c2.6-6.3,9-10.7,17.9-10.7s20.4,8,20.4,21.2v15.5c0,13.2-9.2,21.2-20.4,21.2s-15.1-4.4-17.8-10.7h-.6v29.6h-8.7v-75.8Zm24.7,48.9c8.3,0,14-5.8,14-15v-11.9c0-9.2-5.7-15-14-15s-15.9,5.7-15.9,15.4v11.2c0,9.6,7.5,15.4,15.9,15.4Z"/><path d="M377.5,503.9h-.6c-2.6,6.3-8.9,10.7-17.8,10.7s-20.4-8-20.4-21.2v-15.5c0-13.2,9.2-21.2,20.4-21.2s15.2,4.4,17.9,10.7h.8v-9.7h8.4v75.8h-8.7v-29.6Zm-16,2.7c8.5,0,15.9-5.7,15.9-15.4v-11.2c0-9.6-7.5-15.4-15.9-15.4s-14,5.8-14,15v11.9c0,9.2,5.7,15,14,15Z"/><path d="M406.5,506.3h9.5v-41.2h-9.5v-7.4h18.3v12.4h.8c2.4-8.3,8.4-13.5,19.4-13.5s7.4,.7,10.4,2.4v8.8c-3.4-1.6-7.6-2.5-11.5-2.5-9.4,0-19,5.1-19,18.6v22.3h18.2v7.4h-36.5v-7.4Z"/><path d="M472.2,498.7h9c1.2,5.1,6.3,8.5,13.6,8.5s12.5-2.9,12.5-8.1-4.5-7.8-10.7-9.2l-7.5-1.7c-10.1-2.2-15.1-7.9-15.1-15.8s8.4-15.7,20.7-15.7,18.8,6.9,20.8,15.9h-8.6c-1.6-5.6-5.7-8.6-12.3-8.6s-11.8,2.7-11.8,7.8,4.1,7.4,10.4,8.9l7.4,1.8c10.8,2.6,15.8,8,15.8,15.9s-8.9,16.3-22,16.3-20.6-6.3-22.2-15.9Z"/><path d="M551.4,496.9v-31.8h-15.9v-7.5h15.9v-15.9h8.7v15.9h21.9v7.5h-21.8v31.6c0,7.2,4.9,10.1,10.2,10.1s7.8-.2,11.6-.7v7.2c-3.8,.9-7.4,1.2-11.9,1.2-10.5,0-18.8-5.9-18.8-17.7Z"/><path d="M602.5,493.4v-35.7h8.8v33.9c0,9.2,5,15,13.3,15s15.2-5.7,15.2-15.4v-33.5h8.8v55.9h-8.4v-9.7h-.8c-2.6,6.3-8.2,10.7-17.1,10.7s-19.8-8-19.8-21.2Z"/><path d="M666,457.7h9.3l15.5,44.6h.5l15.5-44.6h9.3l-20.7,55.9h-8.8l-20.7-55.9Z"/><path d="M726.3,457.7h8.6l7.6,44.5h.8l9.2-44.5h8.3l9.2,44.5h.8l7.6-44.5h8.6l-11.6,55.9h-8.4l-9.9-43.4h-.8l-9.9,43.4h-8.4l-11.6-55.9Z"/><path d="M816.5,485.7l-18.2-28h10.1l13.4,22.4h.6l13.4-22.4h10.1l-18.5,28,18.5,28h-10.1l-13.4-21.3h-.6l-13.4,21.3h-10.1l18.2-28Z"/><path d="M872.1,457.7l15.1,44.3h.8l15.1-44.3h9.4l-28,75.8h-9.4l8.1-19.9-20.6-55.9h9.4Z"/><path d="M931.4,506.6l32.9-40.4v-.8h-31.7v-7.7h42v7l-32.3,40.4v.8h33.5v7.7h-44.5v-7.1Z"/><path d="M141.5,603.6c0-24.6,9.3-38.3,25.3-38.3s25.3,13.7,25.3,38.3-9.2,38.3-25.3,38.3-25.3-13.7-25.3-38.3Zm8.5,8.1l32.2-23.5c-2.5-9.9-8-15.3-15.5-15.3-10.8,0-17.2,10.9-17.2,30.7s.2,5.6,.4,8.1Zm16.8,22.5c10.8,0,17.2-10.8,17.2-30.5s-.2-5.5-.4-8.1l-32.3,23.4c2.6,9.9,7.9,15.2,15.5,15.2Z"/><path d="M210.5,633.2h19.8v-56h-.9l-15.7,11.4-4.7-6.2,24.4-17.8h5.6v68.5h18.2v7.7h-46.8v-7.7Z"/><path d="M274.8,634.2l25-27.1c8.7-9.5,12.8-14.6,12.8-21.6s-6.2-12.9-14.3-12.9-14.2,5.6-14.2,14.2h-8.7c0-13.2,10-22.2,23.2-22.2s22.7,9.3,22.7,20.9-4.5,15.3-16.8,28.6l-16.9,18.2v.8h34.9v7.7h-47.6v-6.6Z"/><path d="M338.3,622h9.3c.5,7.2,7.5,11.8,16.2,11.8s16.6-5.4,16.6-13.4-6.3-14-17.8-14h-6v-8.3h6c8.9,0,15.1-5.1,15.1-13s-5.3-12.6-13.7-12.6-15.1,4.6-15.3,12.4h-8.8c.3-12,11.1-20.3,24.3-20.3s22.3,9.5,22.3,20.1-4.6,14.5-12,16.9v.7c9.3,1.7,14.8,8.5,14.8,18s-10.8,21.4-25.4,21.4-25-8.1-25.6-19.9Z"/><path d="M437.3,625.9h-35.4v-9.3l32.8-50.3h9.5l-32.5,50.7v1.3h25.7v-23.2h8.6v23.2h9.9v7.7h-9.9v14.9h-8.6v-14.9Z"/><path d="M475.4,566.3h39.4v8h-32.1l-2.8,23.8h.8c3.6-4,8.7-6.3,15-6.3,13.7,0,23.2,10.2,23.2,24.8s-9.7,25.2-24.8,25.2-22.6-7.9-24-19.9h9.3c1.3,7,6,11.6,14.8,11.6s15.9-6.7,15.9-16.7-6.4-16.9-15.9-16.9-11.8,2.3-14.9,6.5h-8.5l4.7-40.2Z"/><path d="M535.5,617.2c0-8.7,2.7-16.2,9.7-26.3,.6-1.1,16.5-23.9,17-24.6h10.2l-20.6,28.8c-2.2,3.1-2,2.9-2.3,3.7l.7,.4c2.1-2.8,7.5-5,12.1-5,12.9,0,22.4,9.5,22.4,23s-9.8,24.7-24.6,24.7-24.4-10.1-24.4-24.7Zm40.4,.5c0-9.6-6.8-16.5-15.9-16.5s-15.9,6.9-15.9,16.5,6.5,16.4,15.9,16.4,15.9-6.9,15.9-16.4Z"/><path d="M622.2,640.8h-9.4l26-66.9h-35.4v-7.7h46.8l-28.1,74.5Z"/><path d="M666.3,619.9c0-9.4,6.1-16.9,15.4-18.5v-.3c-8.1-1.7-13.3-8.4-13.3-16.4,0-11.7,8.6-19.8,22.6-19.8s22.7,8.1,22.7,19.8-5.2,14.7-13.3,16.4v.3c9.4,1.6,15.4,9.1,15.4,18.5s-9.6,22-24.8,22-24.8-8.7-24.8-22Zm24.8,14.1c9.7,0,16-5.5,16-14.2s-6.6-14.2-16-14.2-16,5.7-16,14.2,6.3,14.2,16,14.2Zm0-36.5c8.2,0,13.8-5,13.8-12.5s-5.3-12.6-13.8-12.6-13.8,5.2-13.8,12.6,5.6,12.5,13.8,12.5Z"/><path d="M732,589.9c0-14.6,9.8-24.7,24.6-24.7s24.4,10.1,24.4,24.7-2.7,16.2-9.7,26.3c-.6,1.1-16.5,23.9-17,24.6h-10.2l20.6-28.8c2.2-3.1,2-2.9,2.3-3.7l-.7-.4c-2.1,2.8-7.5,5-12.1,5-12.9,0-22.4-9.5-22.4-23Zm8.6-.5c0,9.6,6.8,16.5,15.9,16.5s15.9-6.9,15.9-16.5-6.5-16.4-15.9-16.4-15.9,6.9-15.9,16.4Z"/><path d="M796.7,595.6h50.9v7.7h-50.9v-7.7Zm50.9,18.2v7.7h-50.9v-7.7h50.9Z"/><path d="M884.4,614.1l-18.5,11.4-3.9-6.7,19.2-10.3-19.2-10.3,3.9-6.7,18.5,11.4-.7-21.7h7.8l-.7,21.7,18.5-11.4,3.9,6.7-19.2,10.3,19.2,10.3-3.9,6.7-18.5-11.4,.7,21.7h-7.8l.7-21.7Z"/><path d="M935,613.9l4.6-21.5h-9.8l1.6-7.5h9.8l3.4-15.9h7.9l-3.4,15.9h16l3.4-15.9h7.9l-3.4,15.9h10l-1.6,7.5h-10l-4.6,21.5h10l-1.6,7.5h-10l-3.6,16.8h-7.9l3.6-16.8h-16l-3.6,16.8h-7.9l3.6-16.8h-9.8l1.6-7.5h9.8Zm23.9,0l4.6-21.5h-16l-4.6,21.5h16Z"/><path d="M158.1,760.4c0-4.8,3.8-8.6,8.6-8.6s8.6,3.8,8.6,8.6-3.7,8.6-8.6,8.6-8.6-3.8-8.6-8.6Z"/><path d="M221.8,782.5l7.1-31.2h11.5l-10.8,31.2h-7.8Z"/><path d="M289.2,722.3c0-4.8,3.8-8.6,8.6-8.6s8.6,3.8,8.6,8.6-3.7,8.6-8.6,8.6-8.6-3.8-8.6-8.6Zm8.6,29.5c4.9,0,8.6,3.8,8.6,8.6s-3.7,8.6-8.6,8.6-8.6-3.8-8.6-8.6,3.8-8.6,8.6-8.6Z"/><path d="M358.2,751.3h11.5l-10.8,31.2h-7.8l7.1-31.2Zm-3.5-29c0-4.8,3.8-8.6,8.6-8.6s8.6,3.8,8.6,8.6-3.7,8.6-8.6,8.6-8.6-3.8-8.6-8.6Z"/><path d="M433.2,693.5l15.8,31.3h-9.7l-9.8-20.8h-1l-9.8,20.8h-9.7l15.8-31.3h8.5Z"/><path d="M480.1,693.5h8.8v31.7h-8.8v-31.7Zm28.7,0v31.7h-8.8v-31.7h8.8Z"/><path d="M560,755.8c3.7,0,6.6,3,6.6,6.6s-3,6.6-6.6,6.6-6.6-3-6.6-6.6,3-6.6,6.6-6.6Zm-4.6-62.3h9.2l-.5,50.7h-8.3l-.5-50.7Z"/><path d="M632.1,723.8c4.5-2.6,7.9-6.9,7.9-12.9s-5.4-12-12.8-12-12.2,3.5-12.9,12.4l-9.2,.4c.5-12.1,9.6-20,22.1-20s21.5,7.6,21.5,20-3.8,14-10.3,17.9c-6.7,4-9.1,7.3-9.1,16.3h-8.7c0-10.2,1.6-16.1,11.5-22.1Zm-6.6,32c3.7,0,6.6,3,6.6,6.6s-3,6.6-6.6,6.6-6.6-3-6.6-6.6,3-6.6,6.6-6.6Z"/><path d="M662.6,749.3c0-9.2,7.4-16.6,14.9-22.3l-1.9-2.2c-4.4-5-6.9-10-6.9-15.9,0-10.3,7.1-17.1,17.9-17.1s18,6,18,15.8-3.9,12.3-9.8,16.8l-5.4,4.1,13.8,17.2,6.4-9.1h9.9l-11.4,15.3,13,16.2h-10.7l-7.3-9.4c-5.1,6.7-11.2,10.4-19.9,10.4-13,0-20.4-7.1-20.4-19.8Zm19.4,11.6c7,0,11.8-2.9,16.1-8.4l-15.1-19.3-3.1,2.3c-4.3,3.3-9,8.4-9,13.7s4.1,11.6,11.1,11.6Zm-3.3-46.5c1.3,2.5,3.2,5,5.2,7.7l4.9-3.7c4-3.1,6.9-5.6,6.9-10.8s-3.6-8.3-9-8.3-9.5,4.6-9.5,9.7,.5,3.6,1.4,5.4Z"/><path d="M738.4,722.8h50.9v7.7h-50.9v-7.7Zm50.9,18.2v7.7h-50.9v-7.7h50.9Z" style="fill:#9da0a3;"/><path d="M789.4,722.8h50.9v7.7h-50.9v-7.7Zm50.9,18.2v7.7h-50.9v-7.7h50.9Z" style="fill:#9da0a3;"/><path d="M913.7,741l4.4-10.6h-48.7v-7.7h50.9v2.2l13.6-32.7h9l-22.6,54.3v2.1h-.9l-12.7,30.6h-9l12.7-30.6h-41v-7.7h44.3Z" style="fill:#9da0a3;"/><path d="M920.4,722.8h50.9v7.7h-50.9v-7.7Zm50.9,18.2v7.7h-50.9v-7.7h50.9Z" style="fill:#9da0a3;"/><path d="M163.3,842.9l-.8-11.4c-.9-13.1,5.4-18.6,19.4-18.6v6.2c-8.3,0-11.5,4.1-10.9,12.4l1,14.2c.4,6-4.5,10.5-14.6,12v.5c10.1,1.5,15,6,14.6,12l-1,14.2c-.6,8.3,2.6,12.4,10.9,12.4v6.2c-14,0-20.3-5.5-19.4-18.6l.8-11.4c.5-7.8-5.9-10.7-13.8-10.7v-8.8c7.9,0,14.3-2.9,13.8-10.7Z"/><path d="M235.8,873.1l.8,11.4c.9,13.1-5.4,18.6-19.4,18.6v-6.2c8.3,0,11.5-4.1,10.9-12.4l-1-14.2c-.4-6,4.5-10.5,14.6-12v-.5c-10.1-1.5-15-6-14.6-12l1-14.2c.6-8.3-2.6-12.4-10.9-12.4v-6.2c14,0,20.3,5.5,19.4,18.6l-.8,11.4c-.5,7.8,5.9,10.7,13.8,10.7v8.8c-7.9,0-14.3,2.9-13.8,10.7Z"/><path d="M312.9,820.1h-19.4v75.8h19.5v7h-28.1v-89.9h28v7Z"/><path d="M376.3,813.1v89.9h-28.1v-7h19.5v-75.8h-19.4v-7h28Z"/><path d="M432.6,812.4h8.3c-7.7,9.4-14.1,28.6-14.1,45.6s6.4,36.2,14.1,45.6h-8.3c-9.8-12.7-15.5-27.6-15.5-45.6s5.7-32.9,15.5-45.6Z"/><path d="M490.8,903.5h-8.3c7.7-9.4,14.1-28.6,14.1-45.6s-6.4-36.2-14.1-45.6h8.3c9.8,12.7,15.5,27.6,15.5,45.6s-5.7,32.9-15.5,45.6Z"/><path d="M579.2,847.5l-31.9,15.2v1l31.9,15.5v8.7l-41.9-20.5h0v-8.9l41.9-20.1v9.1Z"/><path d="M648.2,858.5v8.9h0l-41.9,20.5v-8.7l31.9-15.5v-1l-31.9-15.2v-9.1l41.9,20.1Z"/><path d="M668.4,901.5l36.2-87h9l-36.2,87h-9Z"/><path d="M734,814.5h9l36.2,87h-9l-36.2-87Z"/><path d="M854.9,859.1v7.7h-50.9v-7.7h50.9Z" style="fill:#9da0a3;"/><path d="M907.6,863l-36,36-5.4-5.4,26.7-26.8h-38v-7.7h38l-26.7-26.8,5.4-5.4,36,36Z" style="fill:#9da0a3;"/></g></svg>