<svg id="图层_1" data-name="图层 1" xmlns="http://www.w3.org/2000/svg" viewBox="0 0 3840 1440"><rect x="4" y="4" width="3832" height="1432" rx="60" style="fill:#24292e"/><rect x="4" y="4" width="3832" height="1432" rx="60" style="fill:none;stroke:#2f363d;stroke-width:8px"/><path d="M218.7,300h17.6V263.3H220.9v-6.6h23.3V300h16.2v6.6H218.7Zm21.1-67a6.2,6.2,0,0,1,6.4,6.2,6.5,6.5,0,1,1-6.4-6.2Z" style="fill:#ff7b8e"/><path d="M273.2,256.7h7V264h.7c1-4.8,4.4-8.2,9.1-8.2s8.2,3.3,9.2,8.1h.8c1.2-4.8,4.9-8.1,9.9-8.1,6.6,0,10.7,5,10.7,14.1v36.7h-7.1V272.4c0-6.1-1.4-9.4-6.1-9.4s-6.9,4-6.9,10.2v33.4h-7V272.3c0-6-1.7-9.3-6.3-9.3s-7,4-7,10.2v33.4h-7Z" style="fill:#ff7b8e"/><path d="M334.9,256.7h7.5v8.7h.8c2.3-5.7,8-9.6,15.9-9.6,10,0,18.2,7.2,18.2,18.9v13.9c0,11.7-8.2,18.9-18.2,18.9-7.9,0-13.5-3.9-15.9-9.6h-.5v26.4h-7.8ZM357,300.3c7.4,0,12.4-5.1,12.4-13.3V276.4c0-8.3-5-13.4-12.4-13.4s-14.2,5.1-14.2,13.7v9.9C342.8,295.2,349.4,300.3,357,300.3Z" style="fill:#ff7b8e"/><path d="M392,285.9v-8.5c0-13.6,8.4-21.6,21.7-21.6s21.6,8,21.6,21.6v8.5c0,13.6-8.4,21.6-21.6,21.6S392,299.5,392,285.9Zm21.7,14.8c8.6,0,13.9-5.6,13.9-15.5v-7.1c0-10-5.3-15.4-13.9-15.4s-13.9,5.4-13.9,15.4v7.1C399.8,295.1,405.1,300.7,413.7,300.7Z" style="fill:#ff7b8e"/><path d="M452.1,300h8.5V263.3h-7.4v-6.6h15.2v11.1h.8c2.1-7.4,7.4-12,17.3-12,4,0,6.6.6,9.2,2.2v7.8a25.4,25.4,0,0,0-10.3-2.2c-8.4,0-17,4.5-17,16.6V300h16.3v6.6H452.1Z" style="fill:#ff7b8e"/><path d="M523,293.4v-30H508.8v-6.7H523V242.5h7.8v14.2h19.5v6.7H530.9V293c0,5.3,3.5,6.9,7.4,6.9h10.9v6.8H537.9C529.6,306.7,523,302.7,523,293.4Z" style="fill:#ff7b8e"/><path d="M639.8,293.4v-30H625.6v-6.7h14.2V242.5h7.8v14.2h19.5v6.7H647.6V293c0,5.3,3.6,6.9,7.5,6.9H666v6.8H654.7C646.4,306.7,639.8,302.7,639.8,293.4Z" style="fill:#edeeef"/><path d="M684,277.8c0-13.8,8.4-22,21.6-22s21.7,8.3,21.7,22.1v5.6H691.7v1.7c0,9.9,5.3,15.5,13.9,15.5,5.9,0,10.6-2.8,12.7-7.4h8.3c-2.6,8.9-10.4,14.2-21,14.2-13.2,0-21.6-8.2-21.6-21.6Zm21.6-15.2c-8.3,0-13.5,5.1-13.9,14.5h27.8C719.2,267.7,713.9,262.6,705.6,262.6Z" style="fill:#edeeef"/><path d="M743.5,256.7H751v8.7h.7c2.4-5.7,7.3-9.6,15.2-9.6,10,0,17.6,7.2,17.6,18.9v31.9h-7.8V276.4c0-8.3-4.5-13.4-11.9-13.4s-13.5,5.1-13.5,13.7v29.9h-7.8Z" style="fill:#edeeef"/><path d="M802.6,293.3h8c1.1,4.5,5.6,7.5,12.1,7.5s11.1-2.5,11.1-7.2-3.9-7-9.5-8.2l-6.6-1.5c-9-2-13.5-7-13.5-14.1,0-8.6,7.5-14,18.4-14s16.8,6.2,18.5,14.2h-7.6c-1.5-4.9-5.1-7.7-11-7.7s-10.5,2.5-10.5,7,3.6,6.5,9.2,7.9l6.6,1.6c9.7,2.4,14.2,7.1,14.2,14.2,0,9.2-8,14.5-19.6,14.5S804,301.9,802.6,293.3Z" style="fill:#edeeef"/><path d="M859.2,285.9v-8.5c0-13.6,8.4-21.6,21.6-21.6s21.6,8,21.6,21.6v8.5c0,13.6-8.4,21.6-21.6,21.6S859.2,299.5,859.2,285.9Zm21.6,14.8c8.6,0,13.9-5.6,13.9-15.5v-7.1c0-10-5.3-15.4-13.9-15.4s-13.9,5.4-13.9,15.4v7.1C866.9,295.1,872.2,300.7,880.8,300.7Z" style="fill:#edeeef"/><path d="M919.2,300h8.5V263.3h-7.4v-6.6h15.2v11.1h.8c2.1-7.4,7.4-12,17.3-12,4,0,6.6.6,9.2,2.2v7.8a25.4,25.4,0,0,0-10.3-2.2c-8.4,0-17,4.5-17,16.6V300h16.3v6.6H919.2Z" style="fill:#edeeef"/><path d="M991.6,263.4H977.4v-6.7h14.2V252c0-9.3,6.6-13.3,14.9-13.3h11.3v6.8h-10.9c-3.9,0-7.4,1.6-7.4,6.9v4.3h19.4v6.7H999.4v43.2h-7.8Z" style="fill:#edeeef"/><path d="M1036.2,300h17.6V245.2h-15.4v-6.5h23.2V300h16.3v6.6h-41.7Z" style="fill:#edeeef"/><path d="M1092.7,285.9v-8.5c0-13.6,8.4-21.6,21.6-21.6s21.7,8,21.7,21.6v8.5c0,13.6-8.4,21.6-21.7,21.6S1092.7,299.5,1092.7,285.9Zm21.6,14.8c8.6,0,13.9-5.6,13.9-15.5v-7.1c0-10-5.3-15.4-13.9-15.4s-13.8,5.4-13.8,15.4v7.1C1100.5,295.1,1105.8,300.7,1114.3,300.7Z" style="fill:#edeeef"/><path d="M1145.8,256.7h7.6l6.7,39.7h.8l8.1-39.6h7.4l8.2,39.6h.7l6.8-39.7h7.6l-10.3,49.9h-7.5l-8.8-38.7h-.7l-8.8,38.7h-7.5Z" style="fill:#edeeef"/><path d="M1268.3,293.1c0-9.4,7.2-15.9,19.4-15.9h14.4v-3.5c0-6.9-4.6-11.1-12.6-11.1-5.3,0-10,3.1-11.3,7.4h-7.5c2.2-8.5,9.2-14.2,20-14.2s18.8,7.3,18.8,17.8v33h-7.2v-8.7h-.7c-1.8,4.1-7.1,9.6-16.2,9.6C1274.6,307.5,1268.3,301,1268.3,293.1Zm19.5,7.8c6.2,0,14.3-5.4,14.3-12.2v-5.3h-13.7c-7,0-12.4,3.1-12.4,8.7S1281.2,300.9,1287.8,300.9Z" style="fill:#ff7b8e"/><path d="M1328.1,293.3h8c1.1,4.5,5.6,7.5,12.1,7.5s11.1-2.5,11.1-7.2-3.9-7-9.5-8.2l-6.6-1.5c-9-2-13.5-7-13.5-14.1,0-8.6,7.5-14,18.4-14s16.8,6.2,18.5,14.2H1359c-1.5-4.9-5.1-7.7-11-7.7s-10.5,2.5-10.5,7,3.6,6.5,9.3,7.9l6.5,1.6c9.7,2.4,14.2,7.1,14.2,14.2,0,9.2-8,14.5-19.6,14.5S1329.5,301.9,1328.1,293.3Z" style="fill:#ff7b8e"/><path d="M1457.3,293.4v-30h-14.2v-6.7h14.2V242.5h7.7v14.2h19.6v6.7h-19.5V293c0,5.3,3.6,6.9,7.5,6.9h10.9v6.8h-11.4C1463.8,306.7,1457.3,302.7,1457.3,293.4Z" style="fill:#b292ff"/><path d="M1517.1,263.4h-14.2v-6.7h14.2V252c0-9.3,6.6-13.3,14.9-13.3h11.3v6.8h-10.9c-3.9,0-7.4,1.6-7.4,6.9v4.3h19.4v6.7h-19.5v43.2h-7.8Z" style="fill:#b292ff"/><path d="M214.8,370.1h7v7.2h.8c.9-4.7,4.3-8.1,9-8.1s8.2,3.3,9.3,8h.7c1.2-4.7,4.9-8,9.9-8,6.6,0,10.7,5,10.7,14v36.7h-7V385.7c0-6.1-1.5-9.4-6.2-9.4s-6.9,4-6.9,10.2v33.4h-7V385.7c0-6-1.7-9.4-6.3-9.4s-6.9,4-6.9,10.2v33.4h-7.1Z" style="fill:#edeeef"/><path d="M276.4,370.1h7.4v8.6h.8c2.3-5.6,7.3-9.5,15.2-9.5,10,0,17.6,7.1,17.6,18.9v31.8h-7.8V389.7c0-8.2-4.5-13.4-11.9-13.4s-13.5,5.1-13.5,13.7v29.9h-7.8Z" style="fill:#edeeef"/><path d="M335.5,413.4h17.6V376.6H337.7v-6.5H361v43.3h16.2v6.5H335.5Zm21-67.1a6.3,6.3,0,0,1,6.5,6.3,6.5,6.5,0,1,1-6.5-6.3Z" style="fill:#edeeef"/><path d="M393.9,406.6h8c1.1,4.5,5.6,7.6,12.1,7.6s11.1-2.6,11.1-7.3-4-6.9-9.5-8.2l-6.7-1.4c-9-2-13.4-7-13.4-14.2s7.4-13.9,18.4-13.9,16.8,6.2,18.5,14.2h-7.7c-1.4-5-5.1-7.7-10.9-7.7s-10.5,2.4-10.5,6.9,3.6,6.6,9.2,8l6.6,1.6c9.7,2.3,14.1,7.1,14.1,14.1,0,9.2-7.9,14.5-19.6,14.5S395.3,415.2,393.9,406.6Z" style="fill:#edeeef"/><path d="M464.6,406.8V376.7H450.4v-6.6h14.2V355.9h7.8v14.2h19.5v6.6H472.5v29.7c0,5.3,3.5,6.9,7.5,6.9h10.8v6.8H479.5C471.2,420.1,464.6,416.1,464.6,406.8Z" style="fill:#edeeef"/><path d="M566.1,385.9v-7.3h40v7.3Zm0,20.5v-7.2h40v7.2Z" style="fill:#ff7b8e"/><path d="M692.7,406.8V376.7H678.5v-6.6h14.2V355.9h7.8v14.2H720v6.6H700.5v29.7c0,5.3,3.6,6.9,7.5,6.9h10.9v6.8H707.6C699.3,420.1,692.7,416.1,692.7,406.8Z" style="fill:#b292ff"/><path d="M752.6,376.7H738.4v-6.6h14.2v-4.8c0-9.3,6.5-13.3,14.8-13.3h11.4v6.8H767.9c-3.9,0-7.5,1.7-7.5,6.9v4.4h19.5v6.6H760.3v43.2h-7.7Z" style="fill:#b292ff"/><path d="M809.2,413.1a7.7,7.7,0,1,1,7.7,7.7A7.6,7.6,0,0,1,809.2,413.1Z" style="fill:#edeeef"/><path d="M857.5,353.5h7.9V392h.8l21.6-21.9h9.7l-21.1,21.4,22.5,28.4h-9.7l-18.5-23.4-5.3,5.2v18.2h-7.9Z" style="fill:#edeeef"/><path d="M912.1,391.2c0-13.8,8.4-22,21.6-22s21.6,8.3,21.6,22v5.6H919.8v1.7c0,10,5.3,15.6,13.9,15.6,5.8,0,10.6-2.9,12.6-7.5h8.3c-2.6,9-10.4,14.2-20.9,14.2-13.2,0-21.6-8.2-21.6-21.6Zm21.6-15.3c-8.3,0-13.6,5.1-13.9,14.6h27.8C947.2,381,942,375.9,933.7,375.9Z" style="fill:#edeeef"/><path d="M972.1,413.4h8.5V376.6h-7.4v-6.5h15.2v11.1h.8c2.1-7.4,7.4-12,17.3-12,4,0,6.6.6,9.2,2.1v7.9a25.4,25.4,0,0,0-10.3-2.3c-8.4,0-17,4.5-17,16.6v19.9h16.3v6.5H972.1Z" style="fill:#edeeef"/><path d="M1029.3,406.4c0-9.3,7.1-15.8,19.4-15.8h14.4v-3.5c0-6.9-4.7-11.1-12.6-11.1-5.3,0-10,3-11.3,7.4h-7.6c2.2-8.6,9.3-14.2,20-14.2s18.8,7.2,18.8,17.7v33h-7.2v-8.6h-.7c-1.8,4.1-7,9.5-16.1,9.5C1035.6,420.8,1029.3,414.3,1029.3,406.4Zm19.5,7.9c6.2,0,14.3-5.4,14.3-12.3v-5.2h-13.7c-7.1,0-12.4,3.1-12.4,8.7S1042.2,414.3,1048.8,414.3Z" style="fill:#edeeef"/><path d="M1089.1,406.6h7.9c1.2,4.5,5.7,7.6,12.1,7.6s11.2-2.6,11.2-7.3-4-6.9-9.5-8.2l-6.7-1.4c-9-2-13.5-7-13.5-14.2s7.5-13.9,18.5-13.9,16.8,6.2,18.5,14.2h-7.7c-1.4-5-5.1-7.7-11-7.7s-10.5,2.4-10.5,6.9,3.7,6.6,9.3,8l6.6,1.6c9.6,2.3,14.1,7.1,14.1,14.1,0,9.2-7.9,14.5-19.6,14.5S1090.5,415.2,1089.1,406.6Z" style="fill:#edeeef"/><path d="M1159.5,413.1a7.7,7.7,0,1,1,7.7,7.7A7.6,7.6,0,0,1,1159.5,413.1Z" style="fill:#edeeef"/><path d="M1203.6,401.9V388.1c0-11.8,8.2-18.9,18.3-18.9,7.8,0,13.3,3.9,15.7,9.5h.5V352h7.9v67.9h-7.5v-8.6h-.7c-2.4,5.6-8.1,9.5-15.9,9.5C1211.8,420.8,1203.6,413.7,1203.6,401.9Zm20.3,11.8c7.6,0,14.2-5.1,14.2-13.7V390c0-8.6-6.6-13.7-14.2-13.7s-12.4,5.2-12.4,13.4v10.6C1211.5,408.5,1216.5,413.7,1223.9,413.7Z" style="fill:#edeeef"/><path d="M1262.9,406.4c0-9.3,7.1-15.8,19.3-15.8h14.4v-3.5c0-6.9-4.6-11.1-12.6-11.1-5.3,0-10,3-11.3,7.4h-7.5c2.2-8.6,9.2-14.2,20-14.2s18.8,7.2,18.8,17.7v33h-7.2v-8.6h-.7c-1.8,4.1-7,9.5-16.2,9.5C1269.1,420.8,1262.9,414.3,1262.9,406.4Zm19.4,7.9c6.2,0,14.3-5.4,14.3-12.3v-5.2h-13.7c-7,0-12.4,3.1-12.4,8.7S1275.7,414.3,1282.3,414.3Z" style="fill:#edeeef"/><path d="M1335,406.8V376.7h-14.2v-6.6H1335V355.9h7.7v14.2h19.6v6.6h-19.5v29.7c0,5.3,3.6,6.9,7.5,6.9h10.9v6.8h-11.4C1341.5,420.1,1335,416.1,1335,406.8Z" style="fill:#edeeef"/><path d="M1379.6,406.4c0-9.3,7.1-15.8,19.4-15.8h14.4v-3.5c0-6.9-4.6-11.1-12.6-11.1-5.3,0-10,3-11.3,7.4h-7.6c2.3-8.6,9.3-14.2,20.1-14.2s18.8,7.2,18.8,17.7v33h-7.2v-8.6h-.8c-1.8,4.1-7,9.5-16.1,9.5C1385.9,420.8,1379.6,414.3,1379.6,406.4Zm19.5,7.9c6.2,0,14.3-5.4,14.3-12.3v-5.2h-13.7c-7,0-12.4,3.1-12.4,8.7S1392.5,414.3,1399.1,414.3Z" style="fill:#edeeef"/><path d="M1439.4,406.6h8c1.1,4.5,5.6,7.6,12.1,7.6s11.1-2.6,11.1-7.3-3.9-6.9-9.5-8.2l-6.7-1.4c-9-2-13.4-7-13.4-14.2s7.4-13.9,18.4-13.9,16.8,6.2,18.5,14.2h-7.6c-1.5-5-5.2-7.7-11-7.7s-10.5,2.4-10.5,6.9,3.6,6.6,9.2,8l6.6,1.6c9.7,2.3,14.1,7.1,14.1,14.1,0,9.2-7.9,14.5-19.6,14.5S1440.8,415.2,1439.4,406.6Z" style="fill:#edeeef"/><path d="M1496,391.2c0-13.8,8.3-22,21.6-22s21.6,8.3,21.6,22v5.6h-35.5v1.7c0,10,5.3,15.6,13.9,15.6,5.8,0,10.6-2.9,12.6-7.5h8.3c-2.6,9-10.4,14.2-20.9,14.2-13.3,0-21.6-8.2-21.6-21.6Zm21.6-15.3c-8.3,0-13.6,5.1-13.9,14.6h27.8C1531.1,381,1525.9,375.9,1517.6,375.9Z" style="fill:#edeeef"/><path d="M1568.5,406.8V376.7h-14.2v-6.6h14.2V355.9h7.8v14.2h19.5v6.6h-19.4v29.7c0,5.3,3.5,6.9,7.5,6.9h10.8v6.8h-11.3C1575.1,420.1,1568.5,416.1,1568.5,406.8Z" style="fill:#edeeef"/><path d="M1614.6,406.6h8c1.1,4.5,5.6,7.6,12,7.6s11.2-2.6,11.2-7.3-4-6.9-9.5-8.2l-6.7-1.4c-9-2-13.5-7-13.5-14.2s7.5-13.9,18.5-13.9,16.8,6.2,18.5,14.2h-7.7c-1.4-5-5.1-7.7-10.9-7.7s-10.6,2.4-10.6,6.9,3.7,6.6,9.3,8l6.6,1.6c9.6,2.3,14.1,7.1,14.1,14.1,0,9.2-7.9,14.5-19.6,14.5S1616,415.2,1614.6,406.6Z" style="fill:#edeeef"/><path d="M1685,413.1a7.8,7.8,0,0,1,15.5,0,7.8,7.8,0,0,1-15.5,0Z" style="fill:#edeeef"/><path d="M1727.5,370.1h6.9v7.2h.8c.9-4.7,4.4-8.1,9.1-8.1s8.1,3.3,9.2,8h.7c1.3-4.7,4.9-8,9.9-8,6.6,0,10.7,5,10.7,14v36.7h-7V385.7c0-6.1-1.5-9.4-6.2-9.4s-6.9,4-6.9,10.2v33.4h-7V385.7c0-6-1.7-9.4-6.3-9.4s-6.9,4-6.9,10.2v33.4h-7Z" style="fill:#edeeef"/><path d="M1789,370.1h7.5v8.6h.7c2.4-5.6,7.3-9.5,15.2-9.5,10,0,17.7,7.1,17.7,18.9v31.8h-7.9V389.7c0-8.2-4.5-13.4-11.8-13.4s-13.6,5.1-13.6,13.7v29.9H1789Z" style="fill:#edeeef"/><path d="M1848.1,413.4h17.7V376.6h-15.5v-6.5h23.3v43.3h16.2v6.5h-41.7Zm21.1-67.1a6.2,6.2,0,0,1,6.4,6.3,6.5,6.5,0,0,1-12.9,0A6.3,6.3,0,0,1,1869.2,346.3Z" style="fill:#edeeef"/><path d="M1906.5,406.6h8c1.1,4.5,5.6,7.6,12.1,7.6s11.1-2.6,11.1-7.3-3.9-6.9-9.5-8.2l-6.6-1.4c-9-2-13.5-7-13.5-14.2s7.5-13.9,18.4-13.9,16.8,6.2,18.5,14.2h-7.6c-1.5-5-5.1-7.7-11-7.7s-10.5,2.4-10.5,6.9,3.6,6.6,9.3,8l6.5,1.6c9.7,2.3,14.2,7.1,14.2,14.1,0,9.2-8,14.5-19.6,14.5S1907.9,415.2,1906.5,406.6Z" style="fill:#edeeef"/><path d="M1977.3,406.8V376.7h-14.2v-6.6h14.2V355.9h7.7v14.2h19.6v6.6h-19.5v29.7c0,5.3,3.6,6.9,7.5,6.9h10.9v6.8h-11.4C1983.8,420.1,1977.3,416.1,1977.3,406.8Z" style="fill:#edeeef"/><path d="M214.8,596.8h7V604h.8c.9-4.7,4.3-8.1,9-8.1s8.2,3.3,9.3,8h.7c1.2-4.7,4.9-8,9.9-8,6.6,0,10.7,4.9,10.7,14v36.7h-7V612.4c0-6.1-1.5-9.4-6.2-9.4s-6.9,4-6.9,10.2v33.4h-7V612.4c0-6-1.7-9.4-6.3-9.4s-6.9,4-6.9,10.2v33.4h-7.1Z" style="fill:#edeeef"/><path d="M275.3,625.9v-8.5c0-13.6,8.4-21.5,21.6-21.5s21.6,7.9,21.6,21.5v8.5c0,13.6-8.4,21.6-21.6,21.6S275.3,639.5,275.3,625.9Zm21.6,14.8c8.6,0,13.9-5.5,13.9-15.5v-7.1c0-9.9-5.3-15.4-13.9-15.4S283,608.2,283,618.1v7.1C283,635.2,288.3,640.7,296.9,640.7Z" style="fill:#edeeef"/><path d="M333.3,628.6V614.8c0-11.8,8.2-18.9,18.2-18.9,7.9,0,13.4,3.9,15.7,9.5h.6V578.7h7.8v67.9h-7.4V638h-.8c-2.3,5.6-8,9.5-15.9,9.5C341.5,647.5,333.3,640.4,333.3,628.6Zm20.3,11.8c7.5,0,14.2-5.1,14.2-13.7v-10c0-8.6-6.7-13.7-14.2-13.7s-12.5,5.2-12.5,13.4V627C341.1,635.2,346.2,640.4,353.6,640.4Z" style="fill:#edeeef"/><path d="M392,617.9c0-13.8,8.4-22,21.7-22s21.6,8.3,21.6,22v5.6H399.8v1.7c0,10,5.3,15.6,13.9,15.6,5.8,0,10.6-2.9,12.6-7.5h8.3c-2.6,9-10.4,14.2-20.9,14.2-13.3,0-21.7-8.2-21.7-21.6Zm21.7-15.3c-8.3,0-13.6,5.1-13.9,14.6h27.8C427.2,607.7,422,602.6,413.7,602.6Z" style="fill:#edeeef"/><path d="M452.3,640.1h17.6V585.3H454.5v-6.6h23.2v61.4H494v6.5H452.3Z" style="fill:#edeeef"/><path d="M522.8,639.8a7.7,7.7,0,0,1,15.4,0,7.7,7.7,0,0,1-15.4,0Z" style="fill:#edeeef"/><path d="M567.2,625.9v-8.5c0-13.6,8.9-21.5,22.2-21.5,10.8,0,18.3,5.2,20.8,14.2H602c-1.8-4.9-6.6-7.4-12.6-7.4-8.6,0-14.4,5.5-14.4,15.4v7.1c0,10,5.8,15.5,14.4,15.5,6.1,0,10.8-2.5,12.6-7.4h8.3c-2.5,9-10.1,14.2-20.9,14.2C576.1,647.5,567.2,639.5,567.2,625.9Z" style="fill:#f9f4bd"/><path d="M625.6,625.9v-8.5c0-13.6,8.4-21.5,21.6-21.5s21.7,7.9,21.7,21.5v8.5c0,13.6-8.4,21.6-21.7,21.6S625.6,639.5,625.6,625.9Zm21.6,14.8c8.6,0,13.9-5.5,13.9-15.5v-7.1c0-9.9-5.3-15.4-13.9-15.4s-13.8,5.5-13.8,15.4v7.1C633.4,635.2,638.7,640.7,647.2,640.7Z" style="fill:#f9f4bd"/><path d="M682,596.8h6.9V604h.8c.9-4.7,4.3-8.1,9.1-8.1s8.1,3.3,9.2,8h.7c1.3-4.7,4.9-8,9.9-8,6.6,0,10.7,4.9,10.7,14v36.7h-7V612.4c0-6.1-1.5-9.4-6.2-9.4s-6.9,4-6.9,10.2v33.4h-7V612.4c0-6-1.7-9.4-6.3-9.4s-6.9,4-6.9,10.2v33.4h-7Z" style="fill:#f9f4bd"/><path d="M743.7,596.8h7.4v8.6h.8c2.3-5.6,8-9.5,15.9-9.5,10,0,18.2,7.1,18.2,18.9v13.8c0,11.8-8.2,18.9-18.2,18.9-7.9,0-13.5-3.9-15.8-9.5h-.6v26.3h-7.7Zm22,43.6c7.4,0,12.5-5.2,12.5-13.4V616.4c0-8.2-5.1-13.4-12.5-13.4s-14.2,5.1-14.2,13.7v10C751.5,635.3,758.2,640.4,765.7,640.4Z" style="fill:#f9f4bd"/><path d="M802.6,640.1h17.6V603.3H804.8v-6.5h23.3v43.3h16.2v6.5H802.6Zm21-67.1a6.3,6.3,0,0,1,6.5,6.3,6.5,6.5,0,1,1-6.5-6.3Z" style="fill:#f9f4bd"/><path d="M861,640.1h17.6V585.3H863.2v-6.6h23.3v61.4h16.2v6.5H861Z" style="fill:#f9f4bd"/><path d="M917.6,617.9c0-13.8,8.3-22,21.6-22s21.6,8.3,21.6,22v5.6H925.3v1.7c0,10,5.3,15.6,13.9,15.6,5.8,0,10.6-2.9,12.6-7.5h8.3c-2.6,9-10.4,14.2-20.9,14.2-13.3,0-21.6-8.2-21.6-21.6Zm21.6-15.3c-8.3,0-13.6,5.1-13.9,14.6h27.8C952.7,607.7,947.5,602.6,939.2,602.6Z" style="fill:#f9f4bd"/><path d="M1000.8,572.8h7.4c-6.8,8.4-12.5,25.5-12.5,40.6s5.7,32.2,12.5,40.6h-7.4a66.6,66.6,0,0,1,0-81.2Z" style="fill:#edeeef"/><path d="M1034.3,625.9v-8.5c0-13.6,8.4-21.5,21.7-21.5s21.6,7.9,21.6,21.5v8.5c0,13.6-8.4,21.6-21.6,21.6S1034.3,639.5,1034.3,625.9Zm21.7,14.8c8.5,0,13.8-5.5,13.8-15.5v-7.1c0-9.9-5.3-15.4-13.8-15.4s-13.9,5.5-13.9,15.4v7.1C1042.1,635.2,1047.4,640.7,1056,640.7Z" style="fill:#ff9750"/><path d="M1094,596.8h7.5v8.6h.7c2.4-5.6,8-9.5,15.9-9.5,10,0,18.2,7.1,18.2,18.9v13.8c0,11.8-8.2,18.9-18.2,18.9-7.9,0-13.4-3.9-15.8-9.5h-.5v26.3H1094Zm22.1,43.6c7.3,0,12.4-5.2,12.4-13.4V616.4c0-8.2-5.1-13.4-12.4-13.4s-14.2,5.1-14.2,13.7v10C1101.9,635.3,1108.5,640.4,1116.1,640.4Z" style="fill:#ff9750"/><path d="M1165.3,633.5V603.4h-14.2v-6.6h14.2V582.6h7.8v14.2h19.5v6.6h-19.4v29.7c0,5.2,3.5,6.9,7.4,6.9h10.9v6.8h-11.3C1171.9,646.8,1165.3,642.8,1165.3,633.5Z" style="fill:#ff9750"/><path d="M1211.3,640.1H1229V603.3h-15.4v-6.5h23.2v43.3H1253v6.5h-41.7Zm21.1-67.1a6.2,6.2,0,0,1,6.4,6.3,6.5,6.5,0,0,1-12.9,0A6.3,6.3,0,0,1,1232.4,573Z" style="fill:#ff9750"/><path d="M1265.9,596.8h6.9V604h.8c.9-4.7,4.3-8.1,9-8.1s8.2,3.3,9.3,8h.7c1.3-4.7,4.9-8,9.9-8,6.6,0,10.7,4.9,10.7,14v36.7h-7V612.4c0-6.1-1.5-9.4-6.2-9.4s-6.9,4-6.9,10.2v33.4h-7V612.4c0-6-1.7-9.4-6.3-9.4s-6.9,4-6.9,10.2v33.4h-7Z" style="fill:#ff9750"/><path d="M1328.1,640.1h17.6V603.3h-15.4v-6.5h23.3v43.3h16.2v6.5h-41.7Zm21.1-67.1a6.2,6.2,0,0,1,6.4,6.3,6.5,6.5,0,0,1-12.9,0A6.3,6.3,0,0,1,1349.2,573Z" style="fill:#ff9750"/><path d="M1386.9,641l29.3-36.8v-.6H1388v-6.8h37.4v5.9l-28.7,36.6v.5h29.8v6.8h-39.6Z" style="fill:#ff9750"/><path d="M1443.1,617.9c0-13.8,8.3-22,21.6-22s21.6,8.3,21.6,22v5.6h-35.5v1.7c0,10,5.3,15.6,13.9,15.6,5.8,0,10.6-2.9,12.6-7.5h8.3c-2.6,9-10.4,14.2-20.9,14.2-13.3,0-21.6-8.2-21.6-21.6Zm21.6-15.3c-8.3,0-13.6,5.1-13.9,14.6h27.8C1478.2,607.7,1473,602.6,1464.7,602.6Z" style="fill:#ff9750"/><path d="M1503.1,640.1h8.5V603.3h-7.4v-6.5h15.2v11.1h.8c2.1-7.4,7.4-12,17.3-12,4,0,6.6.6,9.2,2.1v7.9a23.9,23.9,0,0,0-10.3-2.3c-8.4,0-17,4.5-17,16.6v19.9h16.3v6.5h-32.6Z" style="fill:#ff9750"/><path d="M1617.1,612.6v-7.3h40v7.3Zm0,20.5v-7.2h40v7.2Z" style="fill:#ff7b8e"/><path d="M1755.1,580.2v28.2h-7.9V580.2Z" style="fill:#9cf"/><path d="M1788.4,633.1c0-9.3,7.1-15.8,19.3-15.8h14.4v-3.5c0-7-4.6-11.2-12.6-11.2-5.3,0-10,3.1-11.3,7.5h-7.5c2.2-8.6,9.2-14.2,20-14.2s18.8,7.2,18.8,17.7v33h-7.2V638h-.7c-1.8,4.1-7,9.5-16.2,9.5C1794.6,647.5,1788.4,641,1788.4,633.1Zm19.4,7.9c6.2,0,14.3-5.4,14.3-12.3v-5.3h-13.7c-7,0-12.4,3.2-12.4,8.8S1801.2,641,1807.8,641Z" style="fill:#9cf"/><path d="M1845.9,628.6V614.8c0-11.8,8.2-18.9,18.2-18.9,7.9,0,13.4,3.9,15.8,9.5h.5V578.7h7.9v67.9h-7.5V638h-.8c-2.3,5.6-8,9.5-15.9,9.5C1854.1,647.5,1845.9,640.4,1845.9,628.6Zm20.3,11.8c7.6,0,14.2-5.1,14.2-13.7v-10c0-8.6-6.6-13.7-14.2-13.7s-12.4,5.2-12.4,13.4V627C1853.8,635.2,1858.8,640.4,1866.2,640.4Z" style="fill:#9cf"/><path d="M1905.1,633.1c0-9.3,7.1-15.8,19.4-15.8h14.4v-3.5c0-7-4.6-11.2-12.6-11.2-5.3,0-10,3.1-11.3,7.5h-7.6c2.3-8.6,9.3-14.2,20.1-14.2s18.8,7.2,18.8,17.7v33h-7.2V638h-.8c-1.8,4.1-7,9.5-16.1,9.5C1911.4,647.5,1905.1,641,1905.1,633.1Zm19.5,7.9c6.2,0,14.3-5.4,14.3-12.3v-5.3h-13.7c-7,0-12.4,3.2-12.4,8.8S1918,641,1924.6,641Z" style="fill:#9cf"/><path d="M1961,596.8h7V604h.7c1-4.7,4.4-8.1,9.1-8.1s8.2,3.3,9.2,8h.8c1.2-4.7,4.9-8,9.9-8,6.6,0,10.7,4.9,10.7,14v36.7h-7.1V612.4c0-6.1-1.4-9.4-6.1-9.4s-6.9,4-6.9,10.2v33.4h-7V612.4c0-6-1.7-9.4-6.3-9.4s-7,4-7,10.2v33.4h-7Z" style="fill:#9cf"/><path d="M2047,580.2v28.2h-7.8V580.2Z" style="fill:#9cf"/><path d="M2092.1,659.5l6.3-27.8h10.3l-9.6,27.8Z" style="fill:#edeeef"/><path d="M1036.2,753.4h17.6V698.6h-15.4v-6.5h23.2v61.3h16.3v6.5h-41.7Z" style="fill:#ff9750"/><path d="M1092.7,739.3v-8.5c0-13.7,8.4-21.6,21.6-21.6s21.7,7.9,21.7,21.6v8.5c0,13.6-8.4,21.6-21.7,21.6S1092.7,752.9,1092.7,739.3Zm21.6,14.7c8.6,0,13.9-5.5,13.9-15.5v-7.1c0-9.9-5.3-15.4-13.9-15.4s-13.8,5.5-13.8,15.4v7.1C1100.5,748.5,1105.8,754,1114.3,754Z" style="fill:#ff9750"/><path d="M1153,746.7h7.9c1.1,4.5,5.7,7.5,12.1,7.5s11.2-2.6,11.2-7.2-4-7-9.5-8.2l-6.7-1.5c-9-2-13.5-7-13.5-14.1,0-8.6,7.5-14,18.5-14s16.8,6.2,18.5,14.2h-7.7c-1.4-5-5.1-7.7-11-7.7s-10.5,2.5-10.5,7,3.7,6.5,9.3,7.9l6.6,1.6c9.6,2.4,14.1,7.1,14.1,14.2,0,9.2-7.9,14.5-19.6,14.5S1154.3,755.2,1153,746.7Z" style="fill:#ff9750"/><path d="M1211.3,746.7h8c1.1,4.5,5.6,7.5,12.1,7.5s11.2-2.6,11.2-7.2-4-7-9.5-8.2l-6.7-1.5c-9-2-13.5-7-13.5-14.1,0-8.6,7.5-14,18.5-14s16.7,6.2,18.5,14.2h-7.7c-1.4-5-5.1-7.7-11-7.7s-10.5,2.5-10.5,7,3.6,6.5,9.3,7.9l6.6,1.6c9.6,2.4,14.1,7.1,14.1,14.2,0,9.2-7.9,14.5-19.6,14.5S1212.7,755.2,1211.3,746.7Z" style="fill:#ff9750"/><path d="M1325.1,725.9v-7.2h40.1v7.2Zm0,20.5v-7.1h40.1v7.1Z" style="fill:#ff7b8e"/><path d="M1463.1,693.5v28.3h-7.8V693.5Z" style="fill:#9cf"/><path d="M1497.8,746.7h8c1.1,4.5,5.6,7.5,12.1,7.5s11.1-2.6,11.1-7.2-3.9-7-9.5-8.2l-6.7-1.5c-9-2-13.4-7-13.4-14.1,0-8.6,7.4-14,18.4-14s16.8,6.2,18.5,14.2h-7.6c-1.5-5-5.2-7.7-11-7.7s-10.5,2.5-10.5,7,3.6,6.5,9.2,7.9l6.6,1.6c9.7,2.4,14.1,7.1,14.1,14.2,0,9.2-7.9,14.5-19.6,14.5S1499.2,755.2,1497.8,746.7Z" style="fill:#9cf"/><path d="M1555.6,710.1h7.5v8.7h.7c2.4-5.7,8.1-9.6,16-9.6,10,0,18.2,7.2,18.2,18.9V742c0,11.7-8.2,18.9-18.2,18.9-7.9,0-13.5-3.9-15.9-9.6h-.5v26.4h-7.8Zm22.1,43.6c7.4,0,12.4-5.1,12.4-13.4V729.7c0-8.2-5-13.3-12.4-13.3s-14.2,5.1-14.2,13.7V740C1563.5,748.6,1570.1,753.7,1577.7,753.7Z" style="fill:#9cf"/><path d="M1613.2,746.5c0-9.4,7.1-15.9,19.4-15.9H1647v-3.5c0-6.9-4.7-11.1-12.6-11.1-5.3,0-10,3.1-11.3,7.4h-7.6c2.2-8.6,9.3-14.2,20-14.2s18.8,7.3,18.8,17.8v32.9h-7.2v-8.6h-.7c-1.8,4.1-7,9.6-16.1,9.6C1619.5,760.9,1613.2,754.4,1613.2,746.5Zm19.5,7.8c6.2,0,14.3-5.4,14.3-12.2v-5.3h-13.7c-7.1,0-12.5,3.1-12.5,8.7S1626.1,754.3,1632.7,754.3Z" style="fill:#9cf"/><path d="M1672.8,753.4h8.5V716.7h-7.4v-6.6h15.2v11.1h.7c2.2-7.4,7.5-12,17.3-12,4.1,0,6.6.6,9.3,2.2v7.8a25.4,25.4,0,0,0-10.3-2.2c-8.4,0-17,4.5-17,16.6v19.8h16.2v6.5h-32.5Z" style="fill:#9cf"/><path d="M1731.4,746.7h7.9c1.1,4.5,5.7,7.5,12.1,7.5s11.2-2.6,11.2-7.2-4-7-9.5-8.2l-6.7-1.5c-9-2-13.5-7-13.5-14.1,0-8.6,7.5-14,18.5-14s16.8,6.2,18.5,14.2h-7.7c-1.4-5-5.1-7.7-11-7.7s-10.5,2.5-10.5,7,3.7,6.5,9.3,7.9l6.6,1.6c9.6,2.4,14.1,7.1,14.1,14.2,0,9.2-7.9,14.5-19.6,14.5S1732.7,755.2,1731.4,746.7Z" style="fill:#9cf"/><path d="M1787.9,731.2c0-13.8,8.4-22,21.6-22s21.7,8.3,21.7,22.1v5.6h-35.6v1.6c0,10,5.3,15.6,13.9,15.6,5.9,0,10.6-2.8,12.7-7.4h8.3c-2.6,8.9-10.4,14.2-21,14.2-13.2,0-21.6-8.2-21.6-21.6Zm21.6-15.3c-8.3,0-13.5,5.2-13.9,14.6h27.8C1823.1,721.1,1817.8,715.9,1809.5,715.9Z" style="fill:#9cf"/><path d="M1892.1,760.9v6.8h-48.4v-6.8Z" style="fill:#9cf"/><path d="M1904.7,739.3v-8.5c0-13.7,8.9-21.6,22.1-21.6,10.9,0,18.3,5.3,20.9,14.2h-8.2c-1.8-4.8-6.6-7.4-12.7-7.4-8.6,0-14.4,5.5-14.4,15.4v7.1c0,10,5.8,15.5,14.4,15.5,6.1,0,10.9-2.5,12.7-7.3h8.3c-2.6,9-10.1,14.2-21,14.2C1913.6,760.9,1904.7,752.9,1904.7,739.3Z" style="fill:#9cf"/><path d="M1963.5,746.5c0-9.4,7.1-15.9,19.4-15.9h14.4v-3.5c0-6.9-4.6-11.1-12.6-11.1-5.3,0-10,3.1-11.3,7.4h-7.6c2.2-8.6,9.3-14.2,20-14.2s18.9,7.3,18.9,17.8v32.9h-7.2v-8.6h-.8c-1.8,4.1-7,9.6-16.1,9.6C1969.8,760.9,1963.5,754.4,1963.5,746.5Zm19.5,7.8c6.2,0,14.3-5.4,14.3-12.2v-5.3h-13.7c-7,0-12.4,3.1-12.4,8.7S1976.4,754.3,1983,754.3Z" style="fill:#9cf"/><path d="M2035.7,746.8v-30h-14.2v-6.7h14.2V695.9h7.7v14.2H2063v6.7h-19.5v29.6c0,5.3,3.6,6.9,7.5,6.9h10.9v6.8h-11.4C2042.2,760.1,2035.7,756.1,2035.7,746.8Z" style="fill:#9cf"/><path d="M2079.8,731.2c0-13.8,8.4-22,21.7-22s21.6,8.3,21.6,22.1v5.6h-35.5v1.6c0,10,5.3,15.6,13.9,15.6,5.8,0,10.6-2.8,12.6-7.4h8.3c-2.6,8.9-10.4,14.2-20.9,14.2-13.3,0-21.7-8.2-21.7-21.6Zm21.7-15.3c-8.3,0-13.6,5.2-13.9,14.6h27.8C2115,721.1,2109.8,715.9,2101.5,715.9Z" style="fill:#9cf"/><path d="M2144.3,770.8h16.1c8.1,0,12.1-3.2,12.1-11.4V747.1h-.6c-2.3,5.6-7.9,9.5-15.8,9.5-10,0-18.2-7.1-18.2-18.9v-9.6c0-11.7,8.2-18.9,18.2-18.9,7.9,0,13.5,3.9,15.9,9.6h.7v-8.7h7.5V760c0,11.8-7.3,17.7-19.8,17.7h-16.1Zm13.9-21.3c7.5,0,14.2-5.1,14.2-13.7v-5.7c0-8.6-6.7-13.7-14.2-13.7s-12.5,5.1-12.5,13.3v6.4C2145.7,744.3,2150.8,749.5,2158.2,749.5Z" style="fill:#9cf"/><path d="M2196.6,739.3v-8.5c0-13.7,8.4-21.6,21.7-21.6s21.6,7.9,21.6,21.6v8.5c0,13.6-8.4,21.6-21.6,21.6S2196.6,752.9,2196.6,739.3Zm21.7,14.7c8.5,0,13.8-5.5,13.8-15.5v-7.1c0-9.9-5.3-15.4-13.8-15.4s-13.9,5.5-13.9,15.4v7.1C2204.4,748.5,2209.7,754,2218.3,754Z" style="fill:#9cf"/><path d="M2256.7,753.4h8.5V716.7h-7.4v-6.6H2273v11.1h.7c2.2-7.4,7.5-12,17.3-12,4.1,0,6.6.6,9.3,2.2v7.8A25.4,25.4,0,0,0,2290,717c-8.4,0-17,4.5-17,16.6v19.8h16.2v6.5h-32.5Z" style="fill:#9cf"/><path d="M2315.2,753.4h17.7V716.7h-15.4v-6.6h23.2v43.3h16.2v6.5h-41.7Zm21.1-67.1a6.3,6.3,0,1,1-6.5,6.3A6.2,6.2,0,0,1,2336.3,686.3Z" style="fill:#9cf"/><path d="M2371.8,739.3v-8.5c0-13.7,8.9-21.6,22.1-21.6,10.9,0,18.3,5.3,20.9,14.2h-8.2c-1.8-4.8-6.6-7.4-12.7-7.4-8.5,0-14.4,5.5-14.4,15.4v7.1c0,10,5.9,15.5,14.4,15.5,6.2,0,10.9-2.5,12.7-7.3h8.3c-2.6,9-10.1,14.2-21,14.2C2380.7,760.9,2371.8,752.9,2371.8,739.3Z" style="fill:#9cf"/><path d="M2430.6,746.5c0-9.4,7.1-15.9,19.4-15.9h14.4v-3.5c0-6.9-4.6-11.1-12.6-11.1-5.3,0-10,3.1-11.3,7.4h-7.6c2.3-8.6,9.3-14.2,20.1-14.2s18.8,7.3,18.8,17.8v32.9h-7.2v-8.6h-.8c-1.7,4.1-7,9.6-16.1,9.6C2436.9,760.9,2430.6,754.4,2430.6,746.5Zm19.5,7.8c6.2,0,14.3-5.4,14.3-12.2v-5.3h-13.7c-7,0-12.4,3.1-12.4,8.7S2443.5,754.3,2450.1,754.3Z" style="fill:#9cf"/><path d="M2490.4,753.4H2508V698.6h-15.4v-6.5h23.3v61.3h16.2v6.5h-41.7Z" style="fill:#9cf"/><path d="M2592.8,760.9v6.8h-48.4v-6.8Z" style="fill:#9cf"/><path d="M2605.3,739.3v-8.5c0-13.7,9-21.6,22.2-21.6,10.8,0,18.3,5.3,20.9,14.2h-8.3c-1.8-4.8-6.5-7.4-12.6-7.4-8.6,0-14.4,5.5-14.4,15.4v7.1c0,10,5.8,15.5,14.4,15.5,6.1,0,10.8-2.5,12.7-7.3h8.2c-2.5,9-10,14.2-20.9,14.2C2614.3,760.9,2605.3,752.9,2605.3,739.3Z" style="fill:#9cf"/><path d="M2665.4,753.4h8.5V716.7h-7.4v-6.6h15.2v11.1h.8c2.1-7.4,7.4-12,17.3-12,4,0,6.6.6,9.2,2.2v7.8a25.4,25.4,0,0,0-10.3-2.2c-8.4,0-17,4.5-17,16.6v19.8H2698v6.5h-32.6Z" style="fill:#9cf"/><path d="M2722.1,739.3v-8.5c0-13.7,8.4-21.6,21.7-21.6s21.6,7.9,21.6,21.6v8.5c0,13.6-8.4,21.6-21.6,21.6S2722.1,752.9,2722.1,739.3Zm21.7,14.7c8.5,0,13.8-5.5,13.8-15.5v-7.1c0-9.9-5.3-15.4-13.8-15.4s-13.9,5.5-13.9,15.4v7.1C2729.9,748.5,2735.2,754,2743.8,754Z" style="fill:#9cf"/><path d="M2782.4,746.7h7.9c1.1,4.5,5.7,7.5,12.1,7.5s11.2-2.6,11.2-7.2-4-7-9.5-8.2l-6.7-1.5c-9-2-13.5-7-13.5-14.1,0-8.6,7.5-14,18.5-14s16.8,6.2,18.5,14.2h-7.7c-1.4-5-5.1-7.7-11-7.7s-10.5,2.5-10.5,7,3.7,6.5,9.3,7.9l6.6,1.6c9.6,2.4,14.1,7.1,14.1,14.2,0,9.2-7.9,14.5-19.6,14.5S2783.7,755.2,2782.4,746.7Z" style="fill:#9cf"/><path d="M2840.8,746.7h7.9c1.1,4.5,5.7,7.5,12.1,7.5s11.2-2.6,11.2-7.2-4-7-9.5-8.2l-6.7-1.5c-9-2-13.5-7-13.5-14.1,0-8.6,7.5-14,18.5-14s16.8,6.2,18.5,14.2h-7.7c-1.4-5-5.1-7.7-11-7.7s-10.5,2.5-10.5,7,3.7,6.5,9.3,7.9l6.6,1.6c9.6,2.4,14.1,7.1,14.1,14.2,0,9.2-7.9,14.5-19.6,14.5S2842.1,755.2,2840.8,746.7Z" style="fill:#9cf"/><path d="M2897.3,731.2c0-13.8,8.4-22,21.6-22s21.7,8.3,21.7,22.1v5.6H2905v1.6c0,10,5.3,15.6,13.9,15.6,5.9,0,10.6-2.8,12.7-7.4h8.3c-2.6,8.9-10.4,14.2-21,14.2-13.2,0-21.6-8.2-21.6-21.6Zm21.6-15.3c-8.3,0-13.5,5.2-13.9,14.6h27.8C2932.5,721.1,2927.2,715.9,2918.9,715.9Z" style="fill:#9cf"/><path d="M2956.8,710.1h7.5v8.7h.7c2.4-5.7,7.3-9.6,15.2-9.6,10,0,17.6,7.2,17.6,18.9v31.8H2990V729.7c0-8.2-4.5-13.3-11.9-13.3s-13.5,5.1-13.5,13.7v29.8h-7.8Z" style="fill:#9cf"/><path d="M3028.3,746.8v-30h-14.2v-6.7h14.2V695.9h7.7v14.2h19.6v6.7h-19.5v29.6c0,5.3,3.6,6.9,7.5,6.9h10.9v6.8h-11.4C3034.8,760.1,3028.3,756.1,3028.3,746.8Z" style="fill:#9cf"/><path d="M3074.1,753.4h8.5V716.7h-7.4v-6.6h15.3v11.1h.7c2.2-7.4,7.5-12,17.3-12,4,0,6.6.6,9.2,2.2v7.8a25.4,25.4,0,0,0-10.3-2.2c-8.4,0-16.9,4.5-16.9,16.6v19.8h16.2v6.5h-32.6Z" style="fill:#9cf"/><path d="M3130.9,739.3v-8.5c0-13.7,8.3-21.6,21.6-21.6s21.6,7.9,21.6,21.6v8.5c0,13.6-8.4,21.6-21.6,21.6S3130.9,752.9,3130.9,739.3Zm21.6,14.7c8.6,0,13.9-5.5,13.9-15.5v-7.1c0-9.9-5.3-15.4-13.9-15.4s-13.9,5.5-13.9,15.4v7.1C3138.6,748.5,3143.9,754,3152.5,754Z" style="fill:#9cf"/><path d="M3190.5,710.1h7.5v8.7h.7c2.4-5.7,8.1-9.6,16-9.6,10,0,18.2,7.2,18.2,18.9V742c0,11.7-8.2,18.9-18.2,18.9-7.9,0-13.5-3.9-15.9-9.6h-.5v26.4h-7.8Zm22.1,43.6c7.4,0,12.4-5.1,12.4-13.4V729.7c0-8.2-5-13.3-12.4-13.3s-14.2,5.1-14.2,13.7V740C3198.4,748.6,3205,753.7,3212.6,753.7Z" style="fill:#9cf"/><path d="M3250.4,770.8h5.1c4.3,0,6.7-2.2,8-6l1.8-4.9L3247,710.1h8.2l13.8,39.7h.5l13.8-39.7h8.2L3271,765.7c-3.1,8.4-7.5,12-13.9,12h-6.7Z" style="fill:#9cf"/><path d="M3331.6,693.5v28.3h-7.9V693.5Z" style="fill:#9cf"/><path d="M3376.7,772.8l6.3-27.7h10.3l-9.7,27.7Z" style="fill:#edeeef"/><path d="M1032.3,823.5h7v7.2h.7c1-4.7,4.4-8.1,9.1-8.1s8.2,3.3,9.2,8h.8c1.2-4.7,4.8-8,9.9-8s10.6,4.9,10.6,14v36.7h-7V839.1c0-6.1-1.5-9.4-6.2-9.4s-6.8,4-6.8,10.2v33.4h-7.1V839.1c0-6-1.7-9.4-6.3-9.4s-6.9,4-6.9,10.2v33.4h-7Z" style="fill:#ff9750"/><path d="M1092.7,844.6c0-13.8,8.4-22,21.6-22s21.7,8.3,21.7,22v5.6h-35.5v1.7c0,10,5.3,15.6,13.8,15.6,5.9,0,10.7-2.9,12.7-7.5h8.3c-2.6,9-10.4,14.2-21,14.2-13.2,0-21.6-8.2-21.6-21.6Zm21.6-15.3c-8.3,0-13.5,5.1-13.8,14.6h27.7C1127.9,834.4,1122.7,829.3,1114.3,829.3Z" style="fill:#ff9750"/><path d="M1165.3,860.2V830.1h-14.2v-6.6h14.2V809.3h7.8v14.2h19.5v6.6h-19.4v29.7c0,5.2,3.5,6.9,7.4,6.9h10.9v6.8h-11.3C1171.9,873.5,1165.3,869.5,1165.3,860.2Z" style="fill:#ff9750"/><path d="M1211.2,866.7h8.4V830h-7.3v-6.5h15.2v11.1h.7c2.2-7.4,7.5-12,17.3-12,4.1,0,6.6.6,9.2,2.1v7.9a23.5,23.5,0,0,0-10.2-2.3c-8.4,0-17,4.5-17,16.6v19.8h16.2v6.6h-32.5Z" style="fill:#ff9750"/><path d="M1269.7,866.7h17.7V830h-15.5v-6.5h23.3v43.2h16.2v6.6h-41.7Zm21.1-67a6.2,6.2,0,0,1,6.4,6.3,6.5,6.5,0,0,1-12.9,0A6.3,6.3,0,0,1,1290.8,799.7Z" style="fill:#ff9750"/><path d="M1326.3,852.6v-8.5c0-13.6,8.9-21.5,22.1-21.5,10.9,0,18.3,5.2,20.9,14.2h-8.2c-1.8-4.9-6.6-7.4-12.7-7.4-8.6,0-14.4,5.5-14.4,15.4v7.1c0,10,5.8,15.5,14.4,15.5,6.1,0,10.9-2.5,12.7-7.4h8.3c-2.6,9-10.1,14.2-21,14.2C1335.2,874.2,1326.3,866.2,1326.3,852.6Z" style="fill:#ff9750"/><path d="M1386.5,860h8c1.1,4.5,5.6,7.6,12.1,7.6s11.1-2.6,11.1-7.3-3.9-6.9-9.5-8.2l-6.7-1.4c-8.9-2-13.4-7.1-13.4-14.2s7.5-13.9,18.4-13.9,16.8,6.1,18.5,14.2h-7.6c-1.5-5-5.2-7.7-11-7.7s-10.5,2.4-10.5,6.9,3.6,6.6,9.2,8l6.6,1.6c9.7,2.3,14.2,7.1,14.2,14.1,0,9.2-8,14.5-19.6,14.5S1387.9,868.6,1386.5,860Z" style="fill:#ff9750"/><path d="M1500.3,839.3V832h40.1v7.3Zm0,20.5v-7.2h40.1v7.2Z" style="fill:#ff7b8e"/><path d="M1647.8,806.3h-17.3v67.6h17.4v6.2h-25v-80h24.9Z" style="fill:#edeeef"/><path d="M1696.7,806.9v28.2h-7.9V806.9Z" style="fill:#9cf"/><path d="M1730,859.8c0-9.3,7.1-15.8,19.3-15.8h14.4v-3.5c0-7-4.6-11.2-12.6-11.2-5.3,0-10,3.1-11.3,7.5h-7.5c2.2-8.6,9.2-14.2,20-14.2s18.8,7.2,18.8,17.7v33h-7.2v-8.6h-.7c-1.8,4.1-7,9.5-16.2,9.5C1736.2,874.2,1730,867.7,1730,859.8Zm19.4,7.9c6.3,0,14.3-5.4,14.3-12.3v-5.3H1750c-7,0-12.4,3.2-12.4,8.8S1742.8,867.7,1749.4,867.7Z" style="fill:#9cf"/><path d="M1787.9,852.6v-8.5c0-13.6,8.9-21.5,22.1-21.5,10.9,0,18.3,5.2,20.9,14.2h-8.2c-1.8-4.9-6.6-7.4-12.7-7.4-8.5,0-14.4,5.5-14.4,15.4v7.1c0,10,5.9,15.5,14.4,15.5,6.2,0,10.9-2.5,12.7-7.4h8.3c-2.6,9-10.1,14.2-21,14.2C1796.8,874.2,1787.9,866.2,1787.9,852.6Z" style="fill:#9cf"/><path d="M1846.3,852.6v-8.5c0-13.6,8.9-21.5,22.1-21.5,10.9,0,18.3,5.2,20.9,14.2h-8.2c-1.8-4.9-6.6-7.4-12.7-7.4-8.6,0-14.4,5.5-14.4,15.4v7.1c0,10,5.8,15.5,14.4,15.5,6.2,0,10.9-2.5,12.7-7.4h8.3c-2.6,9-10.1,14.2-21,14.2C1855.2,874.2,1846.3,866.2,1846.3,852.6Z" style="fill:#9cf"/><path d="M1905.8,855.3V823.5h7.8v30.2c0,8.2,4.5,13.4,11.9,13.4s13.5-5.1,13.5-13.7V823.5h7.8v49.8h-7.4v-8.6h-.8c-2.3,5.6-7.3,9.5-15.2,9.5C1913.4,874.2,1905.8,867.1,1905.8,855.3Z" style="fill:#9cf"/><path d="M1964.7,866.7h8.5V830h-7.4v-6.5h15.3v11.1h.7c2.2-7.4,7.5-12,17.3-12,4,0,6.6.6,9.2,2.1v7.9a23.9,23.9,0,0,0-10.3-2.3c-8.4,0-16.9,4.5-16.9,16.6v19.8h16.2v6.6h-32.6Z" style="fill:#9cf"/><path d="M2021.9,859.8c0-9.3,7.1-15.8,19.4-15.8h14.4v-3.5c0-7-4.6-11.2-12.6-11.2-5.3,0-10,3.1-11.3,7.5h-7.6c2.2-8.6,9.3-14.2,20-14.2s18.9,7.2,18.9,17.7v33h-7.2v-8.6h-.8c-1.8,4.1-7,9.5-16.1,9.5C2028.2,874.2,2021.9,867.7,2021.9,859.8Zm19.5,7.9c6.2,0,14.3-5.4,14.3-12.3v-5.3H2042c-7,0-12.4,3.2-12.4,8.8S2034.8,867.7,2041.4,867.7Z" style="fill:#9cf"/><path d="M2079.8,852.6v-8.5c0-13.6,8.9-21.5,22.2-21.5,10.8,0,18.3,5.2,20.9,14.2h-8.3c-1.8-4.9-6.5-7.4-12.6-7.4-8.6,0-14.4,5.5-14.4,15.4v7.1c0,10,5.8,15.5,14.4,15.5,6.1,0,10.8-2.5,12.7-7.4h8.2c-2.5,9-10,14.2-20.9,14.2C2088.7,874.2,2079.8,866.2,2079.8,852.6Z" style="fill:#9cf"/><path d="M2141,884.2h5.1c4.3,0,6.7-2.3,8-6l1.8-4.9-18.3-49.8h8.2l13.8,39.6h.5l13.8-39.6h8.2l-20.5,55.6c-3.1,8.3-7.5,11.9-13.9,11.9H2141Z" style="fill:#9cf"/><path d="M2222.2,806.9v28.2h-7.9V806.9Z" style="fill:#9cf"/><path d="M2288.1,800.1v80h-25v-6.2h17.4V806.3h-17.3v-6.2Z" style="fill:#edeeef"/><path d="M2331.8,880.7h-7.4c6.9-8.4,12.5-25.5,12.5-40.6s-5.6-32.2-12.5-40.6h7.4a66.6,66.6,0,0,1,0,81.2Z" style="fill:#edeeef"/><path d="M214.8,1050.2h7v7.2h.8c.9-4.7,4.3-8.1,9-8.1s8.2,3.3,9.3,8h.7c1.2-4.7,4.9-8,9.9-8,6.6,0,10.7,4.9,10.7,14V1100h-7v-34.2c0-6.1-1.5-9.4-6.2-9.4s-6.9,4-6.9,10.2V1100h-7v-34.2c0-6-1.7-9.4-6.3-9.4s-6.9,4-6.9,10.2V1100h-7.1Z" style="fill:#edeeef"/><path d="M275.3,1079.3v-8.5c0-13.6,8.4-21.5,21.6-21.5s21.6,7.9,21.6,21.5v8.5c0,13.6-8.4,21.6-21.6,21.6S275.3,1092.9,275.3,1079.3Zm21.6,14.8c8.6,0,13.9-5.5,13.9-15.5v-7.1c0-9.9-5.3-15.4-13.9-15.4s-13.9,5.5-13.9,15.4v7.1C283,1088.6,288.3,1094.1,296.9,1094.1Z" style="fill:#edeeef"/><path d="M333.3,1082v-13.8c0-11.8,8.2-18.9,18.2-18.9,7.9,0,13.4,3.9,15.7,9.5h.6v-26.7h7.8V1100h-7.4v-8.6h-.8c-2.3,5.6-8,9.5-15.9,9.5C341.5,1100.9,333.3,1093.8,333.3,1082Zm20.3,11.8c7.5,0,14.2-5.2,14.2-13.7v-10c0-8.6-6.7-13.7-14.2-13.7s-12.5,5.2-12.5,13.4v10.6C341.1,1088.6,346.2,1093.8,353.6,1093.8Z" style="fill:#edeeef"/><path d="M392,1071.3c0-13.8,8.4-22,21.7-22s21.6,8.3,21.6,22v5.6H399.8v1.7c0,10,5.3,15.6,13.9,15.6,5.8,0,10.6-2.9,12.6-7.5h8.3c-2.6,9-10.4,14.2-20.9,14.2-13.3,0-21.7-8.2-21.7-21.6Zm21.7-15.3c-8.3,0-13.6,5.1-13.9,14.6h27.8C427.2,1061.1,422,1056,413.7,1056Z" style="fill:#edeeef"/><path d="M452.3,1093.4h17.6v-54.7H454.5v-6.6h23.2v61.3H494v6.6H452.3Z" style="fill:#edeeef"/><path d="M522.8,1093.2a7.7,7.7,0,0,1,15.4,0,7.7,7.7,0,1,1-15.4,0Z" style="fill:#edeeef"/><path d="M582.9,1056.8H568.7v-6.6h14.2v-4.8c0-9.3,6.5-13.3,14.8-13.3h11.4v6.8H598.2c-3.9,0-7.5,1.6-7.5,6.9v4.4h19.5v6.6H590.6V1100h-7.7Z" style="fill:#f9f4bd"/><path d="M627.4,1093.4h17.7v-36.7H629.7v-6.5h23.2v43.2h16.2v6.6H627.4Zm21.1-67a6.2,6.2,0,0,1,6.4,6.3,6.5,6.5,0,0,1-12.9,0A6.3,6.3,0,0,1,648.5,1026.4Z" style="fill:#f9f4bd"/><path d="M698.2,1086.8v-30H684v-6.6h14.2V1036h7.7v14.2h19.6v6.6H706v29.7c0,5.2,3.6,6.8,7.5,6.8h10.9v6.9H713C704.7,1100.2,698.2,1096.2,698.2,1086.8Z" style="fill:#f9f4bd"/><path d="M767.3,1026.2h7.4c-6.9,8.3-12.6,25.5-12.6,40.6s5.7,32.2,12.6,40.6h-7.4a66.6,66.6,0,0,1,0-81.2Z" style="fill:#edeeef"/><path d="M817.4,1075.1l-16.2-24.9h9l11.9,19.9h.6l11.9-19.9h9l-16.4,24.9,16.4,24.9h-9l-11.9-19h-.6l-11.9,19h-9Z" style="fill:#edeeef"/><path d="M905,1100.9v6.8H856.6v-6.8Z" style="fill:#edeeef"/><path d="M931.8,1086.8v-30H917.6v-6.6h14.2V1036h7.7v14.2h19.6v6.6H939.6v29.7c0,5.2,3.5,6.8,7.5,6.8H958v6.9H946.6C938.3,1100.2,931.8,1096.2,931.8,1086.8Z" style="fill:#edeeef"/><path d="M977.6,1093.4h8.5v-36.7h-7.4v-6.5h15.2v11h.8c2.1-7.3,7.4-11.9,17.3-11.9,4,0,6.6.6,9.2,2.1v7.9a23.9,23.9,0,0,0-10.3-2.3c-8.4,0-17,4.5-17,16.6v19.8h16.3v6.6H977.6Z" style="fill:#edeeef"/><path d="M1034.8,1086.5c0-9.3,7.1-15.8,19.4-15.8h14.4v-3.5c0-7-4.7-11.2-12.6-11.2-5.3,0-10,3.1-11.3,7.5h-7.6c2.2-8.6,9.3-14.2,20-14.2s18.8,7.2,18.8,17.7v33h-7.2v-8.6h-.7c-1.8,4.1-7,9.5-16.1,9.5C1041.1,1100.9,1034.8,1094.4,1034.8,1086.5Zm19.5,7.9c6.2,0,14.3-5.4,14.3-12.3v-5.3h-13.7c-7.1,0-12.5,3.2-12.5,8.8S1047.7,1094.4,1054.3,1094.4Z" style="fill:#edeeef"/><path d="M1094.6,1093.4h17.6v-36.7h-15.4v-6.5H1120v43.2h16.3v6.6h-41.7Zm21-67a6.3,6.3,0,0,1,6.5,6.3,6.5,6.5,0,0,1-13,0A6.3,6.3,0,0,1,1115.6,1026.4Z" style="fill:#edeeef"/><path d="M1152.2,1050.2h7.5v8.6h.7c2.4-5.6,7.4-9.5,15.2-9.5,10.1,0,17.7,7.1,17.7,18.9V1100h-7.9v-30.2c0-8.2-4.5-13.4-11.8-13.4s-13.5,5.1-13.5,13.7V1100h-7.9Z" style="fill:#edeeef"/><path d="M1221.8,1112.9l6.3-27.8h10.3l-9.7,27.8Z" style="fill:#edeeef"/><path d="M1329,1110.9h5.1c4.4,0,6.8-2.3,8.1-6l1.8-5-18.3-49.7h8.2l13.7,39.6h.5l13.8-39.6h8.2l-20.4,55.6c-3.1,8.3-7.5,11.9-14,11.9H1329Z" style="fill:#edeeef"/><path d="M1430.5,1100.9v6.8h-48.4v-6.8Z" style="fill:#edeeef"/><path d="M1457.3,1086.8v-30h-14.2v-6.6h14.2V1036h7.7v14.2h19.6v6.6h-19.5v29.7c0,5.2,3.6,6.8,7.5,6.8h10.9v6.9h-11.4C1463.8,1100.2,1457.3,1096.2,1457.3,1086.8Z" style="fill:#edeeef"/><path d="M1503.1,1093.4h8.5v-36.7h-7.4v-6.5h15.2v11h.8c2.1-7.3,7.4-11.9,17.3-11.9,4,0,6.6.6,9.2,2.1v7.9a23.9,23.9,0,0,0-10.3-2.3c-8.4,0-17,4.5-17,16.6v19.8h16.3v6.6h-32.6Z" style="fill:#edeeef"/><path d="M1560.3,1086.5c0-9.3,7.1-15.8,19.4-15.8h14.4v-3.5c0-7-4.7-11.2-12.6-11.2-5.3,0-10,3.1-11.3,7.5h-7.6c2.2-8.6,9.3-14.2,20-14.2s18.8,7.2,18.8,17.7v33h-7.2v-8.6h-.7c-1.8,4.1-7,9.5-16.1,9.5C1566.6,1100.9,1560.3,1094.4,1560.3,1086.5Zm19.5,7.9c6.2,0,14.3-5.4,14.3-12.3v-5.3h-13.7c-7.1,0-12.4,3.2-12.4,8.8S1573.2,1094.4,1579.8,1094.4Z" style="fill:#edeeef"/><path d="M1620.1,1093.4h17.6v-36.7h-15.4v-6.5h23.2v43.2h16.3v6.6h-41.7Zm21-67a6.3,6.3,0,0,1,6.5,6.3,6.5,6.5,0,0,1-13,0A6.3,6.3,0,0,1,1641.1,1026.4Z" style="fill:#edeeef"/><path d="M1677.7,1050.2h7.5v8.6h.7c2.4-5.6,7.4-9.5,15.2-9.5,10.1,0,17.7,7.1,17.7,18.9V1100h-7.9v-30.2c0-8.2-4.4-13.4-11.8-13.4s-13.5,5.1-13.5,13.7V1100h-7.9Z" style="fill:#edeeef"/><path d="M1747.3,1112.9l6.3-27.8h10.3l-9.7,27.8Z" style="fill:#edeeef"/><path d="M1851.8,1071.3c0-13.8,8.4-22,21.6-22s21.6,8.3,21.6,22v5.6h-35.5v1.7c0,10,5.3,15.6,13.9,15.6,5.9,0,10.6-2.9,12.6-7.5h8.4c-2.6,9-10.4,14.2-21,14.2-13.2,0-21.6-8.2-21.6-21.6Zm21.6-15.3c-8.3,0-13.5,5.1-13.9,14.6h27.8C1887,1061.1,1881.7,1056,1873.4,1056Z" style="fill:#edeeef"/><path d="M1911.5,1050.2h7.4v8.6h.8c2.3-5.6,8-9.5,15.9-9.5,10,0,18.2,7.1,18.2,18.9V1082c0,11.8-8.2,18.9-18.2,18.9-7.9,0-13.5-3.9-15.8-9.5h-.6v26.3h-7.7Zm22,43.6c7.4,0,12.5-5.2,12.5-13.4v-10.6c0-8.2-5.1-13.4-12.5-13.4s-14.2,5.1-14.2,13.7v10C1919.3,1088.6,1925.9,1093.8,1933.5,1093.8Z" style="fill:#edeeef"/><path d="M1968.6,1079.3v-8.5c0-13.6,8.4-21.5,21.6-21.5s21.6,7.9,21.6,21.5v8.5c0,13.6-8.4,21.6-21.6,21.6S1968.6,1092.9,1968.6,1079.3Zm21.6,14.8c8.6,0,13.9-5.5,13.9-15.5v-7.1c0-9.9-5.3-15.4-13.9-15.4s-13.9,5.5-13.9,15.4v7.1C1976.3,1088.6,1981.6,1094.1,1990.2,1094.1Z" style="fill:#edeeef"/><path d="M2026.9,1079.3v-8.5c0-13.6,9-21.5,22.2-21.5,10.8,0,18.3,5.2,20.9,14.2h-8.3c-1.8-4.9-6.5-7.4-12.6-7.4-8.6,0-14.4,5.5-14.4,15.4v7.1c0,10,5.8,15.5,14.4,15.5,6.1,0,10.8-2.5,12.7-7.4h8.2c-2.5,9-10,14.2-20.9,14.2C2035.9,1100.9,2026.9,1092.9,2026.9,1079.3Z" style="fill:#edeeef"/><path d="M2086.4,1032.1h7.5v26.7h.7c2.3-5.6,7.4-9.5,15.3-9.5,10,0,17.6,7.1,17.6,18.9V1100h-7.8v-30.2c0-8.2-4.5-13.4-11.9-13.4s-13.5,5.1-13.5,13.7V1100h-7.9Z" style="fill:#edeeef"/><path d="M2145.6,1086.7h8c1.1,4.5,5.6,7.6,12,7.6s11.2-2.6,11.2-7.3-4-6.9-9.5-8.2l-6.7-1.5c-9-1.9-13.5-7-13.5-14.1,0-8.6,7.5-13.9,18.5-13.9s16.8,6.1,18.5,14.2h-7.7c-1.4-5-5.1-7.7-10.9-7.7s-10.6,2.4-10.6,6.9,3.7,6.6,9.3,8l6.6,1.6c9.6,2.3,14.1,7.1,14.1,14.1,0,9.2-7.9,14.5-19.6,14.5S2147,1095.3,2145.6,1086.7Z" style="fill:#edeeef"/><path d="M2220.5,1107.4h-7.4c6.9-8.4,12.5-25.5,12.5-40.6s-5.6-32.3-12.5-40.6h7.4a66.6,66.6,0,0,1,0,81.2Z" style="fill:#edeeef"/><path d="M214.8,1163.5h7v7.3h.8c.9-4.8,4.3-8.2,9-8.2s8.2,3.3,9.3,8h.7c1.2-4.7,4.9-8,9.9-8,6.6,0,10.7,5,10.7,14.1v36.6h-7v-34.1c0-6.1-1.5-9.4-6.2-9.4s-6.9,4-6.9,10.1v33.4h-7v-34.2c0-6-1.7-9.3-6.3-9.3s-6.9,4-6.9,10.1v33.4h-7.1Z" style="fill:#edeeef"/><path d="M275.3,1192.7v-8.6c0-13.6,8.4-21.5,21.6-21.5s21.6,7.9,21.6,21.5v8.6c0,13.6-8.4,21.6-21.6,21.6S275.3,1206.3,275.3,1192.7Zm21.6,14.7c8.6,0,13.9-5.5,13.9-15.5v-7.1c0-9.9-5.3-15.4-13.9-15.4s-13.9,5.5-13.9,15.4v7.1C283,1201.9,288.3,1207.4,296.9,1207.4Z" style="fill:#edeeef"/><path d="M333.3,1195.4v-13.9c0-11.7,8.2-18.9,18.2-18.9,7.9,0,13.4,3.9,15.7,9.6h.6v-26.8h7.8v67.9h-7.4v-8.6h-.8c-2.3,5.6-8,9.6-15.9,9.6C341.5,1214.3,333.3,1207.1,333.3,1195.4Zm20.3,11.7c7.5,0,14.2-5.1,14.2-13.7v-9.9c0-8.6-6.7-13.7-14.2-13.7s-12.5,5.1-12.5,13.3v10.6C341.1,1201.9,346.2,1207.1,353.6,1207.1Z" style="fill:#edeeef"/><path d="M392,1184.6c0-13.8,8.4-22,21.7-22s21.6,8.3,21.6,22.1v5.6H399.8v1.6c0,10,5.3,15.6,13.9,15.6,5.8,0,10.6-2.8,12.6-7.4h8.3c-2.6,8.9-10.4,14.2-20.9,14.2-13.3,0-21.7-8.2-21.7-21.6Zm21.7-15.3c-8.3,0-13.6,5.2-13.9,14.6h27.8C427.2,1174.5,422,1169.3,413.7,1169.3Z" style="fill:#edeeef"/><path d="M452.3,1206.8h17.6V1152H454.5v-6.6h23.2v61.4H494v6.5H452.3Z" style="fill:#edeeef"/><path d="M522.8,1206.6a7.7,7.7,0,1,1,7.7,7.6A7.6,7.6,0,0,1,522.8,1206.6Z" style="fill:#edeeef"/><path d="M567.2,1184.6c0-13.8,8.4-22,21.6-22s21.7,8.3,21.7,22.1v5.6H575v1.6c0,10,5.3,15.6,13.8,15.6,5.9,0,10.7-2.8,12.7-7.4h8.3c-2.6,8.9-10.4,14.2-21,14.2-13.2,0-21.6-8.2-21.6-21.6Zm21.6-15.3c-8.3,0-13.5,5.2-13.8,14.6h27.7C602.4,1174.5,597.1,1169.3,588.8,1169.3Z" style="fill:#f9f4bd"/><path d="M624.9,1163.5h8.3l13.8,39.7h.5l13.8-39.7h8.3l-18.4,49.8h-7.9Z" style="fill:#f9f4bd"/><path d="M684.5,1199.9c0-9.4,7.1-15.9,19.3-15.9h14.4v-3.5c0-6.9-4.6-11.1-12.6-11.1-5.3,0-10,3.1-11.3,7.4h-7.5c2.2-8.6,9.2-14.2,20-14.2s18.8,7.2,18.8,17.8v32.9h-7.2v-8.6h-.7c-1.8,4.1-7,9.6-16.2,9.6C690.7,1214.3,684.5,1207.8,684.5,1199.9Zm19.4,7.8c6.2,0,14.3-5.4,14.3-12.3v-5.2H704.5c-7,0-12.4,3.1-12.4,8.7S697.3,1207.7,703.9,1207.7Z" style="fill:#f9f4bd"/><path d="M744.2,1206.8h17.6V1152H746.4v-6.6h23.3v61.4h16.2v6.5H744.2Z" style="fill:#f9f4bd"/><path d="M801.9,1195.4v-31.9h7.8v30.2c0,8.2,4.5,13.4,11.9,13.4s13.5-5.1,13.5-13.7v-29.9h7.8v49.8h-7.4v-8.6h-.8c-2.3,5.6-7.3,9.6-15.2,9.6C809.5,1214.3,801.9,1207.1,801.9,1195.4Z" style="fill:#f9f4bd"/><path d="M859.6,1199.9c0-9.4,7.1-15.9,19.4-15.9h14.4v-3.5c0-6.9-4.6-11.1-12.6-11.1-5.3,0-10,3.1-11.3,7.4h-7.6c2.2-8.6,9.3-14.2,20-14.2s18.9,7.2,18.9,17.8v32.9h-7.2v-8.6h-.8c-1.8,4.1-7,9.6-16.1,9.6C865.9,1214.3,859.6,1207.8,859.6,1199.9Zm19.5,7.8c6.2,0,14.3-5.4,14.3-12.3v-5.2H879.7c-7,0-12.4,3.1-12.4,8.7S872.5,1207.7,879.1,1207.7Z" style="fill:#f9f4bd"/><path d="M931.8,1200.2v-30H917.6v-6.7h14.2v-14.2h7.7v14.2h19.6v6.7H939.6v29.6c0,5.3,3.5,6.9,7.5,6.9H958v6.8H946.6C938.3,1213.5,931.8,1209.5,931.8,1200.2Z" style="fill:#f9f4bd"/><path d="M975.9,1184.6c0-13.8,8.4-22,21.7-22s21.6,8.3,21.6,22.1v5.6H983.7v1.6c0,10,5.3,15.6,13.9,15.6,5.8,0,10.6-2.8,12.6-7.4h8.3c-2.6,8.9-10.4,14.2-20.9,14.2-13.3,0-21.7-8.2-21.7-21.6Zm21.7-15.3c-8.3,0-13.6,5.2-13.9,14.6h27.8C1011.1,1174.5,1005.9,1169.3,997.6,1169.3Z" style="fill:#f9f4bd"/><path d="M1059.2,1139.5h7.4c-6.9,8.4-12.5,25.6-12.5,40.6s5.6,32.3,12.5,40.6h-7.4a66.6,66.6,0,0,1,0-81.2Z" style="fill:#edeeef"/><path d="M1109.3,1188.4l-16.2-24.9h9l12,20h.5l12-20h9l-16.5,24.9,16.5,24.9h-9l-12-19h-.5l-12,19h-9Z" style="fill:#edeeef"/><path d="M1197,1214.3v6.8h-48.5v-6.8Z" style="fill:#edeeef"/><path d="M1223.7,1200.2v-30h-14.2v-6.7h14.2v-14.2h7.8v14.2H1251v6.7h-19.5v29.6c0,5.3,3.6,6.9,7.5,6.9h10.9v6.8h-11.3C1230.3,1213.5,1223.7,1209.5,1223.7,1200.2Z" style="fill:#edeeef"/><path d="M1267.9,1184.6c0-13.8,8.4-22,21.6-22s21.6,8.3,21.6,22.1v5.6h-35.5v1.6c0,10,5.3,15.6,13.9,15.6,5.9,0,10.6-2.8,12.7-7.4h8.3c-2.6,8.9-10.4,14.2-21,14.2-13.2,0-21.6-8.2-21.6-21.6Zm21.6-15.3c-8.3,0-13.5,5.2-13.9,14.6h27.8C1303.1,1174.5,1297.8,1169.3,1289.5,1169.3Z" style="fill:#edeeef"/><path d="M1328.1,1200.1h8c1.1,4.5,5.6,7.5,12.1,7.5s11.1-2.6,11.1-7.2-3.9-7-9.5-8.2l-6.6-1.5c-9-2-13.5-7-13.5-14.1s7.5-14,18.4-14,16.8,6.2,18.5,14.2H1359c-1.5-5-5.1-7.7-11-7.7s-10.5,2.5-10.5,7,3.6,6.5,9.3,7.9l6.5,1.6c9.7,2.4,14.2,7.1,14.2,14.2,0,9.2-8,14.5-19.6,14.5S1329.5,1208.6,1328.1,1200.1Z" style="fill:#edeeef"/><path d="M1398.9,1200.2v-30h-14.2v-6.7h14.2v-14.2h7.7v14.2h19.6v6.7h-19.5v29.6c0,5.3,3.6,6.9,7.5,6.9h10.9v6.8h-11.4C1405.4,1213.5,1398.9,1209.5,1398.9,1200.2Z" style="fill:#edeeef"/><path d="M1455.3,1226.2l6.3-27.8h10.3l-9.6,27.8Z" style="fill:#edeeef"/><path d="M1562.6,1224.2h5.1c4.3,0,6.7-2.2,8-6l1.8-4.9-18.3-49.8h8.2l13.8,39.6h.5l13.8-39.6h8.2l-20.5,55.6c-3.1,8.4-7.5,11.9-13.9,11.9h-6.7Z" style="fill:#edeeef"/><path d="M1664.1,1214.3v6.8h-48.5v-6.8Z" style="fill:#edeeef"/><path d="M1690.8,1200.2v-30h-14.2v-6.7h14.2v-14.2h7.8v14.2h19.5v6.7h-19.4v29.6c0,5.3,3.5,6.9,7.4,6.9H1717v6.8h-11.3C1697.4,1213.5,1690.8,1209.5,1690.8,1200.2Z" style="fill:#edeeef"/><path d="M1735,1184.6c0-13.8,8.4-22,21.6-22s21.7,8.3,21.7,22.1v5.6h-35.5v1.6c0,10,5.3,15.6,13.8,15.6,5.9,0,10.6-2.8,12.7-7.4h8.3c-2.6,8.9-10.4,14.2-21,14.2-13.2,0-21.6-8.2-21.6-21.6Zm21.6-15.3c-8.3,0-13.5,5.2-13.8,14.6h27.7C1770.2,1174.5,1764.9,1169.3,1756.6,1169.3Z" style="fill:#edeeef"/><path d="M1795.2,1200.1h8c1.1,4.5,5.6,7.5,12.1,7.5s11.2-2.6,11.2-7.2-4-7-9.5-8.2l-6.7-1.5c-9-2-13.5-7-13.5-14.1s7.5-14,18.5-14,16.7,6.2,18.4,14.2h-7.6c-1.4-5-5.1-7.7-11-7.7s-10.5,2.5-10.5,7,3.6,6.5,9.3,7.9l6.6,1.6c9.6,2.4,14.1,7.1,14.1,14.2,0,9.2-8,14.5-19.6,14.5S1796.6,1208.6,1795.2,1200.1Z" style="fill:#edeeef"/><path d="M1866,1200.2v-30h-14.2v-6.7H1866v-14.2h7.7v14.2h19.6v6.7h-19.5v29.6c0,5.3,3.6,6.9,7.5,6.9h10.9v6.8h-11.4C1872.5,1213.5,1866,1209.5,1866,1200.2Z" style="fill:#edeeef"/><path d="M1928.5,1220.7h-7.4c6.9-8.3,12.6-25.5,12.6-40.6s-5.7-32.2-12.6-40.6h7.4a66.2,66.2,0,0,1,0,81.2Z" style="fill:#edeeef"/></svg>