<svg width="3840" height="1440" viewBox="0 0 3840 1440" fill="none" xmlns="http://www.w3.org/2000/svg">
<rect x="4" y="4" width="3832" height="1432" rx="60" fill="#24292E"/>
<path fill-rule="evenodd" clip-rule="evenodd" d="M244 1092L244 808L254 808L254 1092L244 1092Z" fill="#2F363D"/>
<rect x="4" y="4" width="3832" height="1432" rx="60" stroke="#2F363D" stroke-width="8"/>
<g clip-path="url(#clip0_22_32)">
<path d="M247.059 307.055C256.076 307.055 261.771 302.572 264.461 296.139H265.305V306H273.848V249.047H264.883V283.219C264.883 293.027 258.08 298.881 249.432 298.881C240.994 298.881 235.879 292.975 235.879 283.588V249.047H226.914V285.434C226.914 298.881 235.615 307.055 247.059 307.055ZM317.09 307.055C330.59 307.055 339.502 300.99 339.502 290.496C339.502 282.428 334.387 276.627 323.365 274.148L315.824 272.461C308.652 270.879 305.225 268.242 305.225 263.391C305.225 258.223 309.971 255.375 317.248 255.375C323.945 255.375 328.586 258.434 329.641 263.391H338.289C337.182 253.846 329.271 247.992 317.406 247.992C304.855 247.992 296.312 254.109 296.312 263.971C296.312 272.092 301.428 277.84 311.711 280.107L319.357 281.795C325.686 283.219 330.221 286.172 330.221 291.287C330.221 296.613 325.264 299.461 317.459 299.461C310.076 299.461 305.066 296.455 303.801 291.287H294.678C295.732 301.096 304.012 307.055 317.09 307.055ZM361.281 306H408.953V298.512H390.391V249.047H363.812V256.535H381.426V298.512H361.281V306ZM377.945 229.008C377.945 233.121 381.162 236.18 385.328 236.18C389.494 236.18 392.711 233.121 392.711 229.008C392.711 224.895 389.494 221.836 385.328 221.836C381.162 221.836 377.945 224.895 377.945 229.008ZM427.199 306H436.164V271.828C436.164 262.02 442.967 256.166 451.615 256.166C460.053 256.166 465.168 262.072 465.168 271.459V306H474.133V269.613C474.133 256.166 465.432 247.992 453.988 247.992C444.971 247.992 439.275 252.475 436.586 258.908H435.742V249.047H427.199V306ZM499.656 326.25H518.008C532.352 326.25 540.684 319.5 540.684 306.105V249.047H532.141V258.908H531.297C528.607 252.475 522.121 247.992 513.104 247.992C501.66 247.992 492.273 256.166 492.273 269.613V280.582C492.273 294.029 501.66 302.203 513.104 302.203C522.121 302.203 528.502 297.721 531.191 291.287H531.824V305.42C531.824 314.701 527.289 318.445 518.008 318.445H499.656V326.25ZM501.238 278.736V271.459C501.238 262.072 507.039 256.166 515.477 256.166C524.125 256.166 531.719 262.02 531.719 271.828V278.367C531.719 288.176 524.125 294.029 515.477 294.029C507.039 294.029 501.238 288.123 501.238 278.736ZM627.484 306H636.449V271.828C636.449 262.02 643.252 256.166 651.9 256.166C660.338 256.166 665.453 262.072 665.453 271.459V306H674.418V269.613C674.418 256.166 665.717 247.992 654.273 247.992C645.256 247.992 639.561 252.475 636.871 258.908H636.027V249.047H627.484V306ZM713.02 307.055C723.461 307.055 729.42 300.832 731.477 296.139H732.32V306H740.547V268.295C740.547 256.271 732.479 247.992 719.031 247.992C706.744 247.992 698.676 254.32 696.145 264.129H704.793C706.27 259.172 711.648 255.744 717.713 255.744C726.836 255.744 732.109 260.543 732.109 268.453V272.461H715.656C701.629 272.461 693.508 279.896 693.508 290.602C693.508 299.619 700.68 307.055 713.02 307.055ZM702.262 289.494C702.262 283.113 708.432 279.527 716.447 279.527H732.109V285.539C732.109 293.396 722.881 299.566 715.762 299.566C708.221 299.566 702.262 296.086 702.262 289.494ZM757.422 306H765.438V267.82C765.438 260.754 768.496 256.166 773.348 256.166C778.621 256.166 780.572 260.016 780.572 266.871V306H788.588V267.82C788.588 260.754 791.594 256.166 796.445 256.166C801.824 256.166 803.512 259.963 803.512 266.924V306H811.527V264.076C811.527 253.688 806.834 247.992 799.346 247.992C793.598 247.992 789.432 251.789 788.008 257.168H787.164C785.951 251.789 781.943 247.992 776.617 247.992C771.238 247.992 767.336 251.895 766.229 257.326H765.385V249.047H757.422V306ZM851.236 307.055C863.84 307.055 873.016 300.516 875.547 289.441H866.213C864.262 295.506 858.514 299.355 851.236 299.355C841.428 299.355 835.363 292.922 835.363 281.531V279.633H875.969V273.199C875.969 257.484 866.424 247.992 851.236 247.992C836.102 247.992 826.504 257.379 826.504 273.146V282.375C826.504 297.668 836.102 307.055 851.236 307.055ZM835.363 272.355C835.732 261.545 841.744 255.691 851.236 255.691C860.729 255.691 866.74 261.545 867.109 272.355H835.363ZM917.945 307.055C931.445 307.055 940.357 300.99 940.357 290.496C940.357 282.428 935.242 276.627 924.221 274.148L916.68 272.461C909.508 270.879 906.08 268.242 906.08 263.391C906.08 258.223 910.826 255.375 918.104 255.375C924.801 255.375 929.441 258.434 930.496 263.391H939.145C938.037 253.846 930.127 247.992 918.262 247.992C905.711 247.992 897.168 254.109 897.168 263.971C897.168 272.092 902.283 277.84 912.566 280.107L920.213 281.795C926.541 283.219 931.076 286.172 931.076 291.287C931.076 296.613 926.119 299.461 918.314 299.461C910.932 299.461 905.922 296.455 904.656 291.287H895.533C896.588 301.096 904.867 307.055 917.945 307.055ZM961.504 326.25H970.363V296.139H970.996C973.686 302.572 980.066 307.055 989.084 307.055C1000.53 307.055 1009.91 298.881 1009.91 285.434V269.613C1009.91 256.166 1000.53 247.992 989.084 247.992C980.066 247.992 973.58 252.475 970.891 258.908H970.047V249.047H961.504V326.25ZM970.469 283.219V271.828C970.469 262.02 978.062 256.166 986.711 256.166C995.148 256.166 1000.95 262.072 1000.95 271.459V283.588C1000.95 292.975 995.148 298.881 986.711 298.881C978.062 298.881 970.469 293.027 970.469 283.219ZM1046.83 307.055C1057.27 307.055 1063.23 300.832 1065.29 296.139H1066.13V306H1074.36V268.295C1074.36 256.271 1066.29 247.992 1052.84 247.992C1040.55 247.992 1032.48 254.32 1029.95 264.129H1038.6C1040.08 259.172 1045.46 255.744 1051.52 255.744C1060.64 255.744 1065.92 260.543 1065.92 268.453V272.461H1049.46C1035.44 272.461 1027.32 279.896 1027.32 290.602C1027.32 299.619 1034.49 307.055 1046.83 307.055ZM1036.07 289.494C1036.07 283.113 1042.24 279.527 1050.26 279.527H1065.92V285.539C1065.92 293.396 1056.69 299.566 1049.57 299.566C1042.03 299.566 1036.07 296.086 1036.07 289.494ZM1118.28 307.055C1131.57 307.055 1140.38 300.305 1142.7 288.703H1133.52C1131.41 295.611 1126.14 299.25 1118.28 299.25C1108.47 299.25 1102.41 292.922 1102.41 281.531V273.41C1102.41 262.072 1108.47 255.797 1118.28 255.797C1126.14 255.797 1131.47 259.541 1133.52 266.555H1142.7C1140.38 254.9 1131.57 247.992 1118.28 247.992C1103.15 247.992 1093.55 257.062 1093.55 272.619V282.375C1093.55 297.932 1103.15 307.055 1118.28 307.055ZM1185.04 307.055C1197.65 307.055 1206.82 300.516 1209.36 289.441H1200.02C1198.07 295.506 1192.32 299.355 1185.04 299.355C1175.24 299.355 1169.17 292.922 1169.17 281.531V279.633H1209.78V273.199C1209.78 257.484 1200.23 247.992 1185.04 247.992C1169.91 247.992 1160.31 257.379 1160.31 273.146V282.375C1160.31 297.668 1169.91 307.055 1185.04 307.055ZM1169.17 272.355C1169.54 261.545 1175.55 255.691 1185.04 255.691C1194.54 255.691 1200.55 261.545 1200.92 272.355H1169.17ZM245.898 608H254.863L275.904 551.047H266.465L250.645 596.451H250.117L234.297 551.047H224.857L245.898 608ZM317.143 609.055C332.277 609.055 341.875 599.932 341.875 584.375V574.619C341.875 559.062 332.277 549.992 317.143 549.992C302.008 549.992 292.41 559.062 292.41 574.619V584.375C292.41 599.932 302.008 609.055 317.143 609.055ZM301.27 583.531V575.41C301.27 564.072 307.334 557.797 317.143 557.797C326.951 557.797 333.016 564.072 333.016 575.41V583.531C333.016 594.922 326.951 601.25 317.143 601.25C307.334 601.25 301.27 594.922 301.27 583.531ZM361.281 608H408.953V600.512H390.391V551.047H363.812V558.535H381.426V600.512H361.281V608ZM377.945 531.008C377.945 535.121 381.162 538.18 385.328 538.18C389.494 538.18 392.711 535.121 392.711 531.008C392.711 526.895 389.494 523.836 385.328 523.836C381.162 523.836 377.945 526.895 377.945 531.008ZM446.342 609.055C455.359 609.055 461.846 604.572 464.535 598.139H465.379V608H473.922V530.375H464.957V560.908H464.324C461.635 554.475 455.359 549.992 446.342 549.992C434.898 549.992 425.512 558.166 425.512 571.613V587.434C425.512 600.881 434.898 609.055 446.342 609.055ZM434.477 585.588V573.459C434.477 564.072 440.277 558.166 448.715 558.166C457.363 558.166 464.957 564.02 464.957 573.828V585.219C464.957 595.027 457.363 600.881 448.715 600.881C440.277 600.881 434.477 594.975 434.477 585.588ZM517.428 911.055C530.717 911.055 539.523 904.305 541.844 892.703H532.668C530.559 899.611 525.285 903.25 517.428 903.25C507.619 903.25 501.555 896.922 501.555 885.531V877.41C501.555 866.072 507.619 859.797 517.428 859.797C525.285 859.797 530.611 863.541 532.668 870.555H541.844C539.523 858.9 530.717 851.992 517.428 851.992C502.293 851.992 492.695 861.062 492.695 876.619V886.375C492.695 901.932 502.293 911.055 517.428 911.055ZM584.189 911.055C599.324 911.055 608.922 901.932 608.922 886.375V876.619C608.922 861.062 599.324 851.992 584.189 851.992C569.055 851.992 559.457 861.062 559.457 876.619V886.375C559.457 901.932 569.055 911.055 584.189 911.055ZM568.316 885.531V877.41C568.316 866.072 574.381 859.797 584.189 859.797C593.998 859.797 600.062 866.072 600.062 877.41V885.531C600.062 896.922 593.998 903.25 584.189 903.25C574.381 903.25 568.316 896.922 568.316 885.531ZM627.484 910H636.449V875.828C636.449 866.02 643.252 860.166 651.9 860.166C660.338 860.166 665.453 866.072 665.453 875.459V910H674.418V873.613C674.418 860.166 665.717 851.992 654.273 851.992C645.256 851.992 639.561 856.475 636.871 862.908H636.027V853.047H627.484V910ZM717.66 911.055C731.16 911.055 740.072 904.99 740.072 894.496C740.072 886.428 734.957 880.627 723.936 878.148L716.395 876.461C709.223 874.879 705.795 872.242 705.795 867.391C705.795 862.223 710.541 859.375 717.818 859.375C724.516 859.375 729.156 862.434 730.211 867.391H738.859C737.752 857.846 729.842 851.992 717.977 851.992C705.426 851.992 696.883 858.109 696.883 867.971C696.883 876.092 701.998 881.84 712.281 884.107L719.928 885.795C726.256 887.219 730.791 890.172 730.791 895.287C730.791 900.613 725.834 903.461 718.029 903.461C710.646 903.461 705.637 900.455 704.371 895.287H695.248C696.303 905.096 704.582 911.055 717.66 911.055ZM792.965 910.211H805.938V902.406H793.492C789.01 902.406 784.949 900.561 784.949 894.549V860.641H807.203V853.047H784.844V836.805H775.984V853.047H759.742V860.641H775.984V894.971C775.984 905.623 783.473 910.211 792.965 910.211ZM917.998 911.055C931.287 911.055 940.094 904.305 942.414 892.703H933.238C931.129 899.611 925.855 903.25 917.998 903.25C908.189 903.25 902.125 896.922 902.125 885.531V877.41C902.125 866.072 908.189 859.797 917.998 859.797C925.855 859.797 931.182 863.541 933.238 870.555H942.414C940.094 858.9 931.287 851.992 917.998 851.992C902.863 851.992 893.266 861.062 893.266 876.619V886.375C893.266 901.932 902.863 911.055 917.998 911.055ZM961.293 910H970.258V875.828C970.258 866.02 977.061 860.166 985.709 860.166C994.146 860.166 999.262 866.072 999.262 875.459V910H1008.23V873.613C1008.23 860.166 999.525 851.992 988.082 851.992C979.064 851.992 973.264 856.475 970.574 862.908H969.836V832.375H961.293V910ZM1046.83 911.055C1057.27 911.055 1063.23 904.832 1065.29 900.139H1066.13V910H1074.36V872.295C1074.36 860.271 1066.29 851.992 1052.84 851.992C1040.55 851.992 1032.48 858.32 1029.95 868.129H1038.6C1040.08 863.172 1045.46 859.744 1051.52 859.744C1060.64 859.744 1065.92 864.543 1065.92 872.453V876.461H1049.46C1035.44 876.461 1027.32 883.896 1027.32 894.602C1027.32 903.619 1034.49 911.055 1046.83 911.055ZM1036.07 893.494C1036.07 887.113 1042.24 883.527 1050.26 883.527H1065.92V889.539C1065.92 897.396 1056.69 903.566 1049.57 903.566C1042.03 903.566 1036.07 900.086 1036.07 893.494ZM1095.45 910H1132.68V902.512H1114.12V879.836C1114.12 866.02 1123.93 860.852 1133.52 860.852C1137.53 860.852 1141.86 861.801 1145.28 863.436V854.471C1142.28 852.678 1139.38 851.992 1134.74 851.992C1123.5 851.992 1117.44 857.266 1114.96 865.703H1114.12V853.047H1096.71V860.535H1105.15V902.512H1095.45V910ZM1181.09 904.938H1189L1188.31 882.789L1207.19 894.443L1211.15 887.588L1191.64 877.094L1211.15 866.6L1207.19 859.744L1188.31 871.398L1189 849.25H1181.09L1181.78 871.398L1162.9 859.744L1158.94 866.6L1178.51 877.094L1158.94 887.588L1162.9 894.443L1181.78 882.789L1181.09 904.938ZM494.594 1061H531.824V1053.51H513.262V1030.84C513.262 1017.02 523.07 1011.85 532.668 1011.85C536.676 1011.85 541 1012.8 544.428 1014.44V1005.47C541.422 1003.68 538.521 1002.99 533.881 1002.99C522.648 1002.99 516.584 1008.27 514.105 1016.7H513.262V1004.05H495.859V1011.54H504.297V1053.51H494.594V1061ZM584.189 1062.05C596.793 1062.05 605.969 1055.52 608.5 1044.44H599.166C597.215 1050.51 591.467 1054.36 584.189 1054.36C574.381 1054.36 568.316 1047.92 568.316 1036.53V1034.63H608.922V1028.2C608.922 1012.48 599.377 1002.99 584.189 1002.99C569.055 1002.99 559.457 1012.38 559.457 1028.15V1037.38C559.457 1052.67 569.055 1062.05 584.189 1062.05ZM568.316 1027.36C568.686 1016.54 574.697 1010.69 584.189 1010.69C593.682 1010.69 599.693 1016.54 600.062 1027.36H568.316ZM659.441 1061.21H672.414V1053.41H659.969C655.486 1053.41 651.426 1051.56 651.426 1045.55V1011.64H673.68V1004.05H651.32V987.805H642.461V1004.05H626.219V1011.64H642.461V1045.97C642.461 1056.62 649.949 1061.21 659.441 1061.21ZM714.391 1062.05C723.408 1062.05 729.104 1057.57 731.793 1051.14H732.637V1061H741.18V1004.05H732.215V1038.22C732.215 1048.03 725.412 1053.88 716.764 1053.88C708.326 1053.88 703.211 1047.97 703.211 1038.59V1004.05H694.246V1040.43C694.246 1053.88 702.947 1062.05 714.391 1062.05ZM761.641 1061H798.871V1053.51H780.309V1030.84C780.309 1017.02 790.117 1011.85 799.715 1011.85C803.723 1011.85 808.047 1012.8 811.475 1014.44V1005.47C808.469 1003.68 805.568 1002.99 800.928 1002.99C789.695 1002.99 783.631 1008.27 781.152 1016.7H780.309V1004.05H762.906V1011.54H771.344V1053.51H761.641V1061ZM827.77 1061H836.734V1026.83C836.734 1017.02 843.537 1011.17 852.186 1011.17C860.623 1011.17 865.738 1017.07 865.738 1026.46V1061H874.703V1024.61C874.703 1011.17 866.002 1002.99 854.559 1002.99C845.541 1002.99 839.846 1007.47 837.156 1013.91H836.312V1004.05H827.77V1061Z" fill="#F97583"/>
<path d="M1514.32 320.713L1525.34 288.967H1513.58L1506.36 320.713H1514.32ZM1510.05 259.383C1510.05 264.287 1513.9 268.137 1518.85 268.137C1523.81 268.137 1527.66 264.287 1527.66 259.383C1527.66 254.479 1523.81 250.682 1518.85 250.682C1513.9 250.682 1510.05 254.479 1510.05 259.383ZM839.371 570.031C839.371 588.33 844.961 603.518 854.98 616.438H863.418C855.561 606.893 848.652 587.275 848.652 570.031C848.652 552.787 855.561 533.17 863.418 523.625H854.98C844.961 536.545 839.371 551.732 839.371 570.031ZM929.863 570.031C929.863 551.732 924.273 536.545 914.254 523.625H905.816C913.674 533.17 920.582 552.787 920.582 570.031C920.582 587.275 913.674 606.893 905.816 616.438H914.254C924.273 603.518 929.863 588.33 929.863 570.031ZM235.352 716.549V725.514C243.42 725.514 246.109 728.467 246.109 736.43V748.031C246.109 761.373 251.488 767.438 265.727 767.438V760.266C257.289 760.266 254.758 756.469 254.758 748.031V733.529C254.758 727.57 252.385 722.982 243.631 721.348V720.715C252.385 719.08 254.758 714.492 254.758 708.533V694.031C254.758 685.594 257.289 681.797 265.727 681.797V674.625C251.488 674.625 246.109 680.689 246.109 694.031V705.633C246.109 713.596 243.42 716.549 235.352 716.549ZM1291.52 910H1299.53V871.82C1299.53 864.754 1302.59 860.166 1307.44 860.166C1312.71 860.166 1314.67 864.016 1314.67 870.871V910H1322.68V871.82C1322.68 864.754 1325.69 860.166 1330.54 860.166C1335.92 860.166 1337.61 863.963 1337.61 870.924V910H1345.62V868.076C1345.62 857.688 1340.93 851.992 1333.44 851.992C1327.69 851.992 1323.53 855.789 1322.1 861.168H1321.26C1320.04 855.789 1316.04 851.992 1310.71 851.992C1305.33 851.992 1301.43 855.895 1300.32 861.326H1299.48V853.047H1291.52V910ZM1385.33 911.055C1397.93 911.055 1407.11 904.516 1409.64 893.441H1400.31C1398.36 899.506 1392.61 903.355 1385.33 903.355C1375.52 903.355 1369.46 896.922 1369.46 885.531V883.633H1410.06V877.199C1410.06 861.484 1400.52 851.992 1385.33 851.992C1370.2 851.992 1360.6 861.379 1360.6 877.146V886.375C1360.6 901.668 1370.2 911.055 1385.33 911.055ZM1369.46 876.355C1369.83 865.545 1375.84 859.691 1385.33 859.691C1394.82 859.691 1400.83 865.545 1401.2 876.355H1369.46ZM1452.04 911.055C1465.54 911.055 1474.45 904.99 1474.45 894.496C1474.45 886.428 1469.34 880.627 1458.31 878.148L1450.77 876.461C1443.6 874.879 1440.17 872.242 1440.17 867.391C1440.17 862.223 1444.92 859.375 1452.2 859.375C1458.89 859.375 1463.54 862.434 1464.59 867.391H1473.24C1472.13 857.846 1464.22 851.992 1452.36 851.992C1439.8 851.992 1431.26 858.109 1431.26 867.971C1431.26 876.092 1436.38 881.84 1446.66 884.107L1454.31 885.795C1460.63 887.219 1465.17 890.172 1465.17 895.287C1465.17 900.613 1460.21 903.461 1452.41 903.461C1445.03 903.461 1440.02 900.455 1438.75 895.287H1429.63C1430.68 905.096 1438.96 911.055 1452.04 911.055ZM1518.8 911.055C1532.3 911.055 1541.21 904.99 1541.21 894.496C1541.21 886.428 1536.1 880.627 1525.08 878.148L1517.54 876.461C1510.36 874.879 1506.94 872.242 1506.94 867.391C1506.94 862.223 1511.68 859.375 1518.96 859.375C1525.66 859.375 1530.3 862.434 1531.35 867.391H1540C1538.89 857.846 1530.98 851.992 1519.12 851.992C1506.57 851.992 1498.02 858.109 1498.02 867.971C1498.02 876.092 1503.14 881.84 1513.42 884.107L1521.07 885.795C1527.4 887.219 1531.93 890.172 1531.93 895.287C1531.93 900.613 1526.97 903.461 1519.17 903.461C1511.79 903.461 1506.78 900.455 1505.51 895.287H1496.39C1497.44 905.096 1505.72 911.055 1518.8 911.055ZM1580.92 911.055C1591.36 911.055 1597.32 904.832 1599.38 900.139H1600.22V910H1608.45V872.295C1608.45 860.271 1600.38 851.992 1586.93 851.992C1574.65 851.992 1566.58 858.32 1564.05 868.129H1572.7C1574.17 863.172 1579.55 859.744 1585.62 859.744C1594.74 859.744 1600.01 864.543 1600.01 872.453V876.461H1583.56C1569.53 876.461 1561.41 883.896 1561.41 894.602C1561.41 903.619 1568.58 911.055 1580.92 911.055ZM1570.16 893.494C1570.16 887.113 1576.33 883.527 1584.35 883.527H1600.01V889.539C1600.01 897.396 1590.78 903.566 1583.66 903.566C1576.12 903.566 1570.16 900.086 1570.16 893.494ZM1634.61 930.25H1652.96C1667.3 930.25 1675.63 923.5 1675.63 910.105V853.047H1667.09V862.908H1666.25C1663.56 856.475 1657.07 851.992 1648.05 851.992C1636.61 851.992 1627.22 860.166 1627.22 873.613V884.582C1627.22 898.029 1636.61 906.203 1648.05 906.203C1657.07 906.203 1663.45 901.721 1666.14 895.287H1666.77V909.42C1666.77 918.701 1662.24 922.445 1652.96 922.445H1634.61V930.25ZM1636.19 882.736V875.459C1636.19 866.072 1641.99 860.166 1650.43 860.166C1659.07 860.166 1666.67 866.02 1666.67 875.828V882.367C1666.67 892.176 1659.07 898.029 1650.43 898.029C1641.99 898.029 1636.19 892.123 1636.19 882.736ZM1719.14 911.055C1731.74 911.055 1740.92 904.516 1743.45 893.441H1734.12C1732.16 899.506 1726.42 903.355 1719.14 903.355C1709.33 903.355 1703.27 896.922 1703.27 885.531V883.633H1743.87V877.199C1743.87 861.484 1734.33 851.992 1719.14 851.992C1704 851.992 1694.41 861.379 1694.41 877.146V886.375C1694.41 901.668 1704 911.055 1719.14 911.055ZM1703.27 876.355C1703.63 865.545 1709.65 859.691 1719.14 859.691C1728.63 859.691 1734.64 865.545 1735.01 876.355H1703.27ZM1825.33 865.072V857.404H1874.79V865.072H1825.33ZM1825.33 886.564V878.896H1874.79V886.564H1825.33ZM2844.6 924.713L2855.62 892.967H2843.86L2836.63 924.713H2844.6ZM2840.32 863.383C2840.32 868.287 2844.17 872.137 2849.13 872.137C2854.09 872.137 2857.94 868.287 2857.94 863.383C2857.94 858.479 2854.09 854.682 2849.13 854.682C2844.17 854.682 2840.32 858.479 2840.32 863.383ZM913.463 1075.71L924.484 1043.97H912.725L905.5 1075.71H913.463ZM909.191 1014.38C909.191 1019.29 913.041 1023.14 917.998 1023.14C922.955 1023.14 926.805 1019.29 926.805 1014.38C926.805 1009.48 922.955 1005.68 917.998 1005.68C913.041 1005.68 909.191 1009.48 909.191 1014.38ZM265.41 1178.36V1169.65C257.342 1169.65 254.547 1166.6 254.547 1158.63V1147.03C254.547 1133.69 249.906 1127.62 235.668 1127.62V1134.74C244.105 1134.74 246.689 1138.59 246.689 1147.03V1161.53C246.689 1167.44 248.535 1171.87 256.867 1173.5V1174.56C248.535 1176.19 246.689 1180.57 246.689 1186.48V1200.98C246.689 1209.47 244.105 1213.32 235.668 1213.32V1220.44C249.906 1220.44 254.547 1214.37 254.547 1200.98V1189.38C254.547 1181.47 257.342 1178.36 265.41 1178.36Z" fill="#E1E4E8"/>
<path d="M1318.52 307.055C1332.02 307.055 1340.93 300.99 1340.93 290.496C1340.93 282.428 1335.81 276.627 1324.79 274.148L1317.25 272.461C1310.08 270.879 1306.65 268.242 1306.65 263.391C1306.65 258.223 1311.4 255.375 1318.67 255.375C1325.37 255.375 1330.01 258.434 1331.07 263.391H1339.71C1338.61 253.846 1330.7 247.992 1318.83 247.992C1306.28 247.992 1297.74 254.109 1297.74 263.971C1297.74 272.092 1302.85 277.84 1313.14 280.107L1320.78 281.795C1327.11 283.219 1331.65 286.172 1331.65 291.287C1331.65 296.613 1326.69 299.461 1318.88 299.461C1311.5 299.461 1306.49 296.455 1305.23 291.287H1296.1C1297.16 301.096 1305.44 307.055 1318.52 307.055ZM1393.82 306.211H1406.79V298.406H1394.35C1389.87 298.406 1385.8 296.561 1385.8 290.549V256.641H1408.06V249.047H1385.7V232.805H1376.84V249.047H1360.6V256.641H1376.84V290.971C1376.84 301.623 1384.33 306.211 1393.82 306.211ZM1447.77 307.055C1456.79 307.055 1463.27 302.572 1465.96 296.139H1466.8V306H1475.35V228.375H1466.38V258.908H1465.75C1463.06 252.475 1456.79 247.992 1447.77 247.992C1436.32 247.992 1426.94 256.166 1426.94 269.613V285.434C1426.94 298.881 1436.32 307.055 1447.77 307.055ZM1435.9 283.588V271.459C1435.9 262.072 1441.7 256.166 1450.14 256.166C1458.79 256.166 1466.38 262.02 1466.38 271.828V283.219C1466.38 293.027 1458.79 298.881 1450.14 298.881C1441.7 298.881 1435.9 292.975 1435.9 283.588ZM557.137 608H565.152V569.82C565.152 562.754 568.211 558.166 573.062 558.166C578.336 558.166 580.287 562.016 580.287 568.871V608H588.303V569.82C588.303 562.754 591.309 558.166 596.16 558.166C601.539 558.166 603.227 561.963 603.227 568.924V608H611.242V566.076C611.242 555.688 606.549 549.992 599.061 549.992C593.312 549.992 589.146 553.789 587.723 559.168H586.879C585.666 553.789 581.658 549.992 576.332 549.992C570.953 549.992 567.051 553.895 565.943 559.326H565.1V551.047H557.137V608ZM646.258 609.055C656.699 609.055 662.658 602.832 664.715 598.139H665.559V608H673.785V570.295C673.785 558.271 665.717 549.992 652.27 549.992C639.982 549.992 631.914 556.32 629.383 566.129H638.031C639.508 561.172 644.887 557.744 650.951 557.744C660.074 557.744 665.348 562.543 665.348 570.453V574.461H648.895C634.867 574.461 626.746 581.896 626.746 592.602C626.746 601.619 633.918 609.055 646.258 609.055ZM635.5 591.494C635.5 585.113 641.67 581.527 649.686 581.527H665.348V587.539C665.348 595.396 656.119 601.566 649 601.566C641.459 601.566 635.5 598.086 635.5 591.494ZM695.09 608H742.762V600.512H724.199V551.047H697.621V558.535H715.234V600.512H695.09V608ZM711.754 531.008C711.754 535.121 714.971 538.18 719.137 538.18C723.303 538.18 726.52 535.121 726.52 531.008C726.52 526.895 723.303 523.836 719.137 523.836C714.971 523.836 711.754 526.895 711.754 531.008ZM761.008 608H769.973V573.828C769.973 564.02 776.775 558.166 785.424 558.166C793.861 558.166 798.977 564.072 798.977 573.459V608H807.941V571.613C807.941 558.166 799.24 549.992 787.797 549.992C778.779 549.992 773.084 554.475 770.395 560.908H769.551V551.047H761.008V608Z" fill="#B392F0"/>
<path d="M1986.87 834.062V866.336H1995.84V834.062H1986.87ZM1966.62 866.336H1975.59V834.062H1966.62V866.336ZM2024.52 910H2033.49V875.828C2033.49 866.02 2040.29 860.166 2048.94 860.166C2057.38 860.166 2062.49 866.072 2062.49 875.459V910H2071.46V873.613C2071.46 860.166 2062.76 851.992 2051.31 851.992C2042.29 851.992 2036.49 856.475 2033.8 862.908H2033.07V832.375H2024.52V910ZM2114.75 911.055C2127.36 911.055 2136.53 904.516 2139.06 893.441H2129.73C2127.78 899.506 2122.03 903.355 2114.75 903.355C2104.94 903.355 2098.88 896.922 2098.88 885.531V883.633H2139.48V877.199C2139.48 861.484 2129.94 851.992 2114.75 851.992C2099.62 851.992 2090.02 861.379 2090.02 877.146V886.375C2090.02 901.668 2099.62 911.055 2114.75 911.055ZM2098.88 876.355C2099.25 865.545 2105.26 859.691 2114.75 859.691C2124.24 859.691 2130.26 865.545 2130.62 876.355H2098.88ZM2158.89 910H2206.56V902.512H2188V832.375H2161.42V839.863H2179.04V902.512H2158.89V910ZM2225.65 910H2273.32V902.512H2254.76V832.375H2228.18V839.863H2245.8V902.512H2225.65V910ZM2315.04 911.055C2330.17 911.055 2339.77 901.932 2339.77 886.375V876.619C2339.77 861.062 2330.17 851.992 2315.04 851.992C2299.9 851.992 2290.3 861.062 2290.3 876.619V886.375C2290.3 901.932 2299.9 911.055 2315.04 911.055ZM2299.16 885.531V877.41C2299.16 866.072 2305.23 859.797 2315.04 859.797C2324.85 859.797 2330.91 866.072 2330.91 877.41V885.531C2330.91 896.922 2324.85 903.25 2315.04 903.25C2305.23 903.25 2299.16 896.922 2299.16 885.531ZM2429.52 910H2438.07L2448.14 865.809H2448.98L2459.05 910H2467.6L2479.41 853.047H2470.66L2462.96 898.398H2462.11L2452.78 853.1H2444.34L2435.01 898.398H2434.16L2426.46 853.047H2417.71L2429.52 910ZM2515.32 911.055C2530.46 911.055 2540.05 901.932 2540.05 886.375V876.619C2540.05 861.062 2530.46 851.992 2515.32 851.992C2500.19 851.992 2490.59 861.062 2490.59 876.619V886.375C2490.59 901.932 2500.19 911.055 2515.32 911.055ZM2499.45 885.531V877.41C2499.45 866.072 2505.51 859.797 2515.32 859.797C2525.13 859.797 2531.2 866.072 2531.2 877.41V885.531C2531.2 896.922 2525.13 903.25 2515.32 903.25C2505.51 903.25 2499.45 896.922 2499.45 885.531ZM2559.25 910H2596.48V902.512H2577.92V879.836C2577.92 866.02 2587.73 860.852 2597.32 860.852C2601.33 860.852 2605.66 861.801 2609.08 863.436V854.471C2606.08 852.678 2603.18 851.992 2598.54 851.992C2587.3 851.992 2581.24 857.266 2578.76 865.703H2577.92V853.047H2560.52V860.535H2568.95V902.512H2559.25V910ZM2626.22 910H2673.89V902.512H2655.33V832.375H2628.75V839.863H2646.37V902.512H2626.22V910ZM2711.28 911.055C2720.3 911.055 2726.79 906.572 2729.48 900.139H2730.32V910H2738.86V832.375H2729.9V862.908H2729.27C2726.58 856.475 2720.3 851.992 2711.28 851.992C2699.84 851.992 2690.45 860.166 2690.45 873.613V889.434C2690.45 902.881 2699.84 911.055 2711.28 911.055ZM2699.42 887.588V875.459C2699.42 866.072 2705.22 860.166 2713.66 860.166C2722.3 860.166 2729.9 866.02 2729.9 875.828V887.219C2729.9 897.027 2722.3 902.881 2713.66 902.881C2705.22 902.881 2699.42 896.975 2699.42 887.588ZM2788.01 834.062V866.336H2796.98V834.062H2788.01ZM2767.76 866.336H2776.73V834.062H2767.76V866.336Z" fill="#9ECBFF"/>
</g>
<defs>
<clipPath id="clip0_22_32">
<rect width="3840" height="1440" rx="64" fill="white"/>
</clipPath>
</defs>
</svg>
