<svg id="图层_1" data-name="图层 1" xmlns="http://www.w3.org/2000/svg" viewBox="0 0 3840 1440"><rect width="3840" height="1440" rx="64" style="fill:#00333f"/><path d="M246.1,306.1c9,0,15.5-4.5,18.1-11h.9V305h8.5V227.4h-8.9v30.5H264c-2.6-6.4-8.9-10.9-17.9-10.9-11.5,0-20.9,8.2-20.9,21.6v15.8C225.2,297.9,234.6,306.1,246.1,306.1Zm-11.9-23.5V270.5c0-9.4,5.8-15.3,14.2-15.3s16.3,5.8,16.3,15.6v11.4c0,9.8-7.6,15.7-16.3,15.7S234.2,292,234.2,282.6Zm82.9,23.5c15.2,0,24.8-9.2,24.8-24.7v-9.8c0-15.5-9.6-24.6-24.8-24.6s-24.7,9.1-24.7,24.6v9.8C292.4,296.9,302,306.1,317.1,306.1Zm-15.8-25.6v-8.1c0-11.3,6-17.6,15.8-17.6s15.9,6.3,15.9,17.6v8.1c0,11.4-6,17.7-15.9,17.7S301.3,291.9,301.3,280.5ZM427.2,305h9V270.8c0-9.8,6.8-15.6,15.4-15.6s13.6,5.9,13.6,15.3V305h8.9V268.6c0-13.4-8.7-21.6-20.1-21.6-9,0-14.7,4.5-17.4,10.9h-.9V248h-8.5Zm90.2,1.1c15.2,0,24.8-9.2,24.8-24.7v-9.8c0-15.5-9.6-24.6-24.8-24.6s-24.7,9.1-24.7,24.6v9.8C492.7,296.9,502.3,306.1,517.4,306.1Zm-15.8-25.6v-8.1c0-11.3,6-17.6,15.8-17.6s15.9,6.3,15.9,17.6v8.1c0,11.4-6.1,17.7-15.9,17.7S501.6,291.9,501.6,280.5Zm91.1,24.7h13v-7.8H593.2c-4.5,0-8.5-1.8-8.5-7.9V255.6h22.2V248H584.6V231.8h-8.9V248H559.5v7.6h16.2V290C575.7,300.6,583.2,305.2,592.7,305.2Zm108.5,20h17.1c14.3,0,22.7-6.7,22.7-20.1V248h-8.6v9.9h-.8c-2.7-6.4-9.2-10.9-18.2-10.9-11.5,0-20.8,8.2-20.8,21.6v11c0,13.4,9.3,21.6,20.8,21.6,9,0,15.4-4.5,18.1-10.9h.6v14.1c0,9.3-4.5,13-13.8,13h-17Zm.3-47.5v-7.2c0-9.4,5.8-15.3,14.3-15.3S732,261,732,270.8v6.6c0,9.8-7.6,15.6-16.2,15.6S701.5,287.1,701.5,277.7Zm83,28.4c15.1,0,24.7-9.2,24.7-24.7v-9.8c0-15.5-9.6-24.6-24.7-24.6s-24.8,9.1-24.8,24.6v9.8C759.7,296.9,769.3,306.1,784.5,306.1Zm-15.9-25.6v-8.1c0-11.3,6.1-17.6,15.9-17.6s15.8,6.3,15.8,17.6v8.1c0,11.4-6,17.7-15.8,17.7S768.6,291.9,768.6,280.5Zm132.9,44.7h17.1c14.3,0,22.7-6.7,22.7-20.1V248h-8.6v9.9h-.8c-2.7-6.4-9.2-10.9-18.2-10.9-11.5,0-20.9,8.2-20.9,21.6v11c0,13.4,9.4,21.6,20.9,21.6,9,0,15.4-4.5,18.1-10.9h.6v14.1c0,9.3-4.5,13-13.8,13H901.5Zm.3-47.5v-7.2c0-9.4,5.8-15.3,14.2-15.3s16.3,5.8,16.3,15.6v6.6c0,9.8-7.6,15.6-16.3,15.6S901.8,287.1,901.8,277.7Zm83,28.4c12.6,0,21.7-6.6,24.3-17.7h-9.4c-1.9,6.1-7.7,10-14.9,10-9.8,0-15.9-6.5-15.9-17.9v-1.9h40.6v-6.4c0-15.7-9.6-25.2-24.7-25.2S960,256.4,960,272.1v9.3C960,296.7,969.6,306.1,984.8,306.1Zm-15.9-34.7c.4-10.9,6.4-16.7,15.9-16.7s15.5,5.8,15.8,16.7Zm59.2,33.6h8.9V270.8c0-9.8,6.8-15.6,15.5-15.6s13.5,5.9,13.5,15.3V305h9V268.6c0-13.4-8.7-21.6-20.2-21.6-9,0-14.7,4.5-17.4,10.9h-.8V248h-8.5Zm98.7.2h13v-7.8h-12.5c-4.5,0-8.5-1.8-8.5-7.9V255.6H1141V248h-22.3V231.8h-8.9V248h-16.2v7.6h16.2V290C1109.8,300.6,1117.3,305.2,1126.8,305.2Zm35.6-.2h47.7v-7.5h-18.6V229.1h-26.6v7.5h17.7v60.9h-20.2Zm89.4,1.1c12.6,0,21.8-6.6,24.3-17.7h-9.3c-2,6.1-7.7,10-15,10-9.8,0-15.9-6.5-15.9-17.9v-1.9h40.6v-6.4c0-15.7-9.5-25.2-24.7-25.2s-24.7,9.4-24.7,25.1v9.3C1227.1,296.7,1236.7,306.1,1251.8,306.1Zm-15.9-34.7c.4-10.9,6.4-16.7,15.9-16.7s15.5,5.8,15.9,16.7ZM1362.7,305h47.7v-7.5h-18.6V248h-26.6v7.5h17.6v42h-20.1Zm16.7-77a7.4,7.4,0,1,0,7.4-7.2A7.2,7.2,0,0,0,1379.4,228Zm49.2,77h9V270.8c0-9.8,6.8-15.6,15.4-15.6s13.6,5.9,13.6,15.3V305h9V268.6c0-13.4-8.7-21.6-20.2-21.6-9,0-14.7,4.5-17.4,10.9h-.8V248h-8.6Zm98.7.2h13v-7.8h-12.4c-4.5,0-8.6-1.8-8.6-7.9V255.6h22.3V248h-22.4V231.8h-8.8V248h-16.3v7.6h16.3V290C1510.4,300.6,1517.8,305.2,1527.3,305.2Zm58.3.9c15.2,0,24.7-9.2,24.7-24.7v-9.8c0-15.5-9.5-24.6-24.7-24.6s-24.7,9.1-24.7,24.6v9.8C1560.9,296.9,1570.5,306.1,1585.6,306.1Zm-15.9-25.6v-8.1c0-11.3,6.1-17.6,15.9-17.6s15.9,6.3,15.9,17.6v8.1c0,11.4-6.1,17.7-15.9,17.7S1569.7,291.9,1569.7,280.5Zm157.9,24.7h13v-7.8h-12.4c-4.5,0-8.6-1.8-8.6-7.9V255.6h22.3V248h-22.4V231.8h-8.8V248h-16.3v7.6h16.3V290C1710.7,300.6,1718.1,305.2,1727.6,305.2Zm34.8-.2h9V270.8c0-9.8,6.8-15.6,15.4-15.6s13.6,5.9,13.6,15.3V305h9V268.6c0-13.4-8.7-21.6-20.2-21.6-9,0-14.8,4.5-17.5,10.9h-.7V227.4h-8.6Zm85.6,1.1c10.4,0,16.4-6.3,18.4-11h.9V305h8.2V267.3c0-12-8.1-20.3-21.5-20.3s-20.4,6.3-22.9,16.1h8.6c1.5-4.9,7.1-8.4,13.2-8.4,9.1,0,14.2,4.8,14.2,12.8v4h-16.5c-14,0-22.1,7.4-22.1,18.1C1828.5,298.6,1835.6,306.1,1848,306.1Zm-10.8-17.6c0-6.4,6.2-10,14.2-10h15.7v6c0,7.9-9.3,14.1-16.4,14.1S1837.2,295.1,1837.2,288.5Zm90.7,16.7h13v-7.8h-12.5c-4.4,0-8.5-1.8-8.5-7.9V255.6h22.3V248h-22.4V231.8h-8.9V248h-16.2v7.6h16.2V290C1910.9,300.6,1918.4,305.2,1927.9,305.2Zm108.5,20h17.1c14.4,0,22.7-6.7,22.7-20.1V248h-8.5v9.9h-.9c-2.7-6.4-9.2-10.9-18.2-10.9-11.4,0-20.8,8.2-20.8,21.6v11c0,13.4,9.4,21.6,20.8,21.6,9,0,15.4-4.5,18.1-10.9h.6v14.1c0,9.3-4.5,13-13.8,13h-17Zm.4-47.5v-7.2c0-9.4,5.8-15.3,14.2-15.3s16.2,5.8,16.2,15.6v6.6c0,9.8-7.6,15.6-16.2,15.6S2036.8,287.1,2036.8,277.7Zm82.9,28.4c15.1,0,24.7-9.2,24.7-24.7v-9.8c0-15.5-9.6-24.6-24.7-24.6s-24.7,9.1-24.7,24.6v9.8C2095,296.9,2104.6,306.1,2119.7,306.1Zm-15.9-25.6v-8.1c0-11.3,6.1-17.6,15.9-17.6s15.9,6.3,15.9,17.6v8.1c0,11.4-6.1,17.7-15.9,17.7S2103.8,291.9,2103.8,280.5Zm82.7,25.6c15.1,0,24.7-9.2,24.7-24.7v-9.8c0-15.5-9.6-24.6-24.7-24.6s-24.8,9.1-24.8,24.6v9.8C2161.7,296.9,2171.3,306.1,2186.5,306.1Zm-15.9-25.6v-8.1c0-11.3,6.1-17.6,15.9-17.6s15.8,6.3,15.8,17.6v8.1c0,11.4-6,17.7-15.8,17.7S2170.6,291.9,2170.6,280.5Zm78.3,25.6c9,0,15.5-4.5,18.2-11h.8V305h8.6V227.4h-9v30.5h-.6c-2.7-6.4-9-10.9-18-10.9-11.4,0-20.8,8.2-20.8,21.6v15.8C2228.1,297.9,2237.5,306.1,2248.9,306.1ZM2237,282.6V270.5c0-9.4,5.8-15.3,14.3-15.3s16.2,5.8,16.2,15.6v11.4c0,9.8-7.6,15.7-16.2,15.7S2237,292,2237,282.6ZM2363.3,305h8.9V270.8c0-9.8,6.9-15.6,15.5-15.6s13.6,5.9,13.6,15.3V305h8.9V268.6c0-13.4-8.7-21.6-20.1-21.6-9,0-14.7,4.5-17.4,10.9h-.9V248h-8.5Zm67.6,0h47.7v-7.5H2460V248h-26.6v7.5H2451v42h-20.1Zm16.7-77a7.4,7.4,0,1,0,7.3-7.2A7.1,7.1,0,0,0,2447.6,228Zm56.2,97.2h17.1c14.3,0,22.6-6.7,22.6-20.1V248H2535v9.9h-.9c-2.6-6.4-9.1-10.9-18.1-10.9-11.5,0-20.9,8.2-20.9,21.6v11c0,13.4,9.4,21.6,20.9,21.6,9,0,15.4-4.5,18-10.9h.7v14.1c0,9.3-4.6,13-13.8,13h-17.1Zm.3-47.5v-7.2c0-9.4,5.8-15.3,14.2-15.3s16.3,5.8,16.3,15.6v6.6c0,9.8-7.6,15.6-16.3,15.6S2504.1,287.1,2504.1,277.7Zm59.5,27.3h8.9V270.8c0-9.8,6.8-15.6,15.5-15.6s13.5,5.9,13.5,15.3V305h9V268.6c0-13.4-8.7-21.6-20.1-21.6-9,0-14.9,4.5-17.5,10.9h-.8V227.4h-8.5Zm98.7.2h13v-7.8h-12.5c-4.5,0-8.5-1.8-8.5-7.9V255.6h22.2V248h-22.3V231.8h-8.9V248h-16.2v7.6h16.2V290C2645.3,300.6,2652.8,305.2,2662.3,305.2Zm55.4,16.3,12.2-35.3h-13.1l-8,35.3ZM250.4,457.1c15.1,0,24.7-9.2,24.7-24.7v-9.8c0-15.5-9.6-24.6-24.7-24.6s-24.8,9.1-24.8,24.6v9.8C225.6,447.9,235.2,457.1,250.4,457.1Zm-15.9-25.6v-8.1c0-11.3,6.1-17.6,15.9-17.6s15.9,6.3,15.9,17.6v8.1c0,11.4-6.1,17.7-15.9,17.7S234.5,442.9,234.5,431.5Zm60,24.5h47.7v-7.5H323.6V380.1H297.1v7.5h17.6v60.9H294.5Zm85.1,1.1c9,0,15.5-4.5,18.2-11h.8V456h8.6V378.4h-9v30.5h-.6c-2.7-6.4-9-10.9-18-10.9-11.5,0-20.8,8.2-20.8,21.6v15.8C358.8,448.9,368.1,457.1,379.6,457.1Zm-11.9-23.5V421.5c0-9.4,5.8-15.3,14.3-15.3s16.2,5.8,16.2,15.6v11.4c0,9.8-7.6,15.7-16.2,15.7S367.7,443,367.7,433.6Zm145,23.5c10.5,0,16.4-6.3,18.5-11h.8V456h8.3V418.3c0-12-8.1-20.3-21.6-20.3s-20.3,6.3-22.8,16.1h8.6c1.5-4.9,7.1-8.4,13.1-8.4,9.2,0,14.2,4.8,14.2,12.8v4H515.4c-14.1,0-22.2,7.4-22.2,18.1C493.2,449.6,500.4,457.1,512.7,457.1ZM502,439.5c0-6.4,6.1-10,14.2-10h15.6v6c0,7.9-9.2,14.1-16.3,14.1S502,446.1,502,439.5Zm65.7,36.7h17.1c14.3,0,22.6-6.7,22.6-20.1V399h-8.5v9.9h-.8c-2.7-6.4-9.2-10.9-18.2-10.9-11.5,0-20.9,8.2-20.9,21.6v11c0,13.4,9.4,21.6,20.9,21.6,9,0,15.4-4.5,18.1-10.9h.6v14.1c0,9.3-4.5,13-13.8,13H567.7Zm.3-47.5v-7.2c0-9.4,5.8-15.3,14.2-15.3s16.3,5.8,16.3,15.6v6.6c0,9.8-7.6,15.6-16.3,15.6S568,438.1,568,428.7Zm83,28.4c12.6,0,21.7-6.6,24.3-17.7h-9.4c-1.9,6.1-7.7,10-14.9,10-9.9,0-15.9-6.5-15.9-17.9v-1.9h40.6v-6.4c0-15.7-9.6-25.2-24.7-25.2s-24.8,9.4-24.8,25.1v9.3C626.2,447.7,635.8,457.1,651,457.1Zm-15.9-34.7c.3-10.9,6.4-16.7,15.9-16.7s15.5,5.8,15.8,16.7Zm149.3,34.7c13.5,0,22.4-6.1,22.4-16.6,0-8.2-4.9-13.9-16.1-16.4l-7.5-1.6c-7.2-1.6-10.6-4.3-10.6-9.1s4.7-8,12-8,11.3,3,12.4,8h8.6c-1.1-9.6-9-15.4-20.9-15.4s-21.1,6.1-21.1,16c0,8.1,5.2,13.8,15.4,16.1l7.7,1.7c6.5,1.4,10.9,4.6,10.9,9.5s-5,8.3-12.8,8.3-12.3-3.1-13.7-8.3H762C763.1,451.1,771.5,457.1,784.4,457.1Zm43.4-1.1h8.9V421.8c0-9.8,6.8-15.6,15.5-15.6s13.5,5.9,13.5,15.3V456h9V419.6c0-13.4-8.7-21.6-20.1-21.6-9.1,0-14.9,4.5-17.5,10.9h-.8V378.4h-8.5Zm90.2,1.1c15.1,0,24.7-9.2,24.7-24.7v-9.8c0-15.5-9.6-24.6-24.7-24.6s-24.7,9.1-24.7,24.6v9.8C893.3,447.9,902.9,457.1,918,457.1Zm-15.9-25.6v-8.1c0-11.3,6.1-17.6,15.9-17.6s15.9,6.3,15.9,17.6v8.1c0,11.4-6.1,17.7-15.9,17.7S902.1,442.9,902.1,431.5Zm79.3,25.6c9.1,0,14.8-4.5,17.4-11h.9V456h8.5V399h-8.9v34.2c0,9.8-6.8,15.7-15.5,15.7s-13.5-5.9-13.5-15.3V399h-9v36.4C961.3,448.9,970,457.1,981.4,457.1Zm47.5-1.1h47.7v-7.5H1058V380.1h-26.6v7.5H1049v60.9h-20.1Zm85.1,1.1c9,0,15.5-4.5,18.2-11h.8V456h8.5V378.4h-8.9v30.5h-.7c-2.7-6.4-8.9-10.9-17.9-10.9-11.5,0-20.9,8.2-20.9,21.6v15.8C1093.1,448.9,1102.5,457.1,1114,457.1Zm-11.9-23.5V421.5c0-9.4,5.8-15.3,14.2-15.3s16.3,5.8,16.3,15.6v11.4c0,9.8-7.6,15.7-16.3,15.7S1102.1,443,1102.1,433.6Zm154,23.5c11.5,0,20.9-8.2,20.9-21.7V419.6c0-13.4-9.4-21.6-20.9-21.6-9,0-15.3,4.5-17.9,10.9h-.7V378.4h-8.9V456h8.5v-9.9h.8C1240.6,452.6,1247.1,457.1,1256.1,457.1Zm-18.6-23.9V421.8c0-9.8,7.6-15.6,16.3-15.6s14.2,5.9,14.2,15.3v12.1c0,9.4-5.8,15.3-14.2,15.3S1237.5,443,1237.5,433.2Zm77.7,23.9c9.1,0,14.8-4.5,17.5-11h.8V456h8.5V399h-8.9v34.2c0,9.8-6.8,15.7-15.5,15.7s-13.5-5.9-13.5-15.3V399h-9v36.4C1295.1,448.9,1303.8,457.1,1315.2,457.1Zm47.3-1.1h37.2v-7.5h-18.5V425.8c0-13.8,9.8-18.9,19.4-18.9a28.5,28.5,0,0,1,11.7,2.5v-8.9c-3-1.8-5.9-2.5-10.5-2.5-11.2,0-17.3,5.3-19.8,13.7h-.8V399h-17.4v7.5h8.4v42h-9.7Zm66.1,0h9V421.8c0-9.8,6.8-15.6,15.4-15.6s13.6,5.9,13.6,15.3V456h9V419.6c0-13.4-8.7-21.6-20.2-21.6-9,0-14.7,4.5-17.4,10.9h-.8V399h-8.6Zm152.3,1.1c10.5,0,16.4-6.3,18.5-11h.8V456h8.2V418.3c0-12-8-20.3-21.5-20.3s-20.3,6.3-22.8,16.1h8.6c1.5-4.9,7.1-8.4,13.1-8.4,9.1,0,14.2,4.8,14.2,12.8v4h-16.4c-14.1,0-22.2,7.4-22.2,18.1C1561.4,449.6,1568.6,457.1,1580.9,457.1Zm-10.7-17.6c0-6.4,6.1-10,14.1-10H1600v6c0,7.9-9.2,14.1-16.3,14.1S1570.2,446.1,1570.2,439.5Zm58.7,16.5h9V421.8c0-9.8,6.8-15.6,15.4-15.6s13.6,5.9,13.6,15.3V456h8.9V419.6c0-13.4-8.7-21.6-20.1-21.6-9,0-14.7,4.5-17.4,10.9h-.9V399h-8.5Zm85.9,1.1c9,0,15.5-4.5,18.2-11h.8V456h8.6V378.4h-9v30.5h-.6c-2.7-6.4-9-10.9-18-10.9-11.4,0-20.8,8.2-20.8,21.6v15.8C1694,448.9,1703.4,457.1,1714.8,457.1Zm-11.9-23.5V421.5c0-9.4,5.9-15.3,14.3-15.3s16.2,5.8,16.2,15.6v11.4c0,9.8-7.6,15.7-16.2,15.7S1702.9,443,1702.9,433.6ZM1829.8,456h37.3v-7.5h-18.6V425.8c0-13.8,9.8-18.9,19.4-18.9a29.4,29.4,0,0,1,11.8,2.5v-8.9c-3-1.8-5.9-2.5-10.6-2.5-11.2,0-17.3,5.3-19.8,13.7h-.8V399h-17.4v7.5h8.4v42h-9.7Zm84.9,1.1c10.5,0,16.4-6.3,18.5-11h.8V456h8.3V418.3c0-12-8.1-20.3-21.6-20.3s-20.3,6.3-22.8,16.1h8.6c1.5-4.9,7.1-8.4,13.1-8.4,9.2,0,14.2,4.8,14.2,12.8v4h-16.4c-14.1,0-22.2,7.4-22.2,18.1C1895.2,449.6,1902.4,457.1,1914.7,457.1ZM1904,439.5c0-6.4,6.1-10,14.2-10h15.6v6c0,7.9-9.2,14.1-16.3,14.1S1904,446.1,1904,439.5Zm77.7,16.5h9l21-57h-9.4l-15.9,45.5h-.5L1970.1,399h-9.4Zm71.2,1.1c12.7,0,21.8-6.6,24.4-17.7h-9.4c-1.9,6.1-7.7,10-15,10-9.8,0-15.8-6.5-15.8-17.9v-1.9h40.6v-6.4c0-15.7-9.6-25.2-24.8-25.2s-24.7,9.4-24.7,25.1v9.3C2028.2,447.7,2037.8,457.1,2052.9,457.1Zm-15.8-34.7c.3-10.9,6.4-16.7,15.8-16.7s15.5,5.8,15.9,16.7Zm144.7,34.7c10.4,0,16.4-6.3,18.4-11h.9V456h8.2V418.3c0-12-8.1-20.3-21.5-20.3s-20.4,6.3-22.9,16.1h8.7c1.4-4.9,7-8.4,13.1-8.4,9.1,0,14.2,4.8,14.2,12.8v4h-16.5c-14,0-22.1,7.4-22.1,18.1C2162.3,449.6,2169.4,457.1,2181.8,457.1ZM2171,439.5c0-6.4,6.2-10,14.2-10h15.7v6c0,7.9-9.3,14.1-16.4,14.1S2171,446.1,2171,439.5Zm90.7,16.7h13v-7.8h-12.5c-4.4,0-8.5-1.8-8.5-7.9V406.6H2276V399h-22.4V382.8h-8.9V399h-16.2v7.6h16.2V441C2244.7,451.6,2252.2,456.2,2261.7,456.2Zm125.1.9c13.2,0,22.1-6.8,24.4-18.4H2402c-2.1,6.9-7.4,10.5-15.2,10.5-9.9,0-15.9-6.3-15.9-17.7v-8.1c0-11.3,6-17.6,15.9-17.6,7.8,0,13.1,3.7,15.2,10.8h9.2c-2.3-11.7-11.2-18.6-24.4-18.6-15.2,0-24.8,9.1-24.8,24.6v9.8C2362,447.9,2371.6,457.1,2386.8,457.1Zm44.1-1.1h47.7v-7.5H2460V380.1h-26.6v7.5H2451v60.9h-20.1Zm89.4,1.1c15.1,0,24.7-9.2,24.7-24.7v-9.8c0-15.5-9.6-24.6-24.7-24.6s-24.7,9.1-24.7,24.6v9.8C2495.6,447.9,2505.1,457.1,2520.3,457.1Zm-15.9-25.6v-8.1c0-11.3,6.1-17.6,15.9-17.6s15.8,6.3,15.8,17.6v8.1c0,11.4-6,17.7-15.8,17.7S2504.4,442.9,2504.4,431.5Zm82.6,25.6c13.5,0,22.4-6.1,22.4-16.6,0-8.2-5-13.9-16.1-16.4l-7.6-1.6c-7.1-1.6-10.6-4.3-10.6-9.1s4.8-8,12-8,11.4,3,12.4,8h8.7c-1.1-9.6-9-15.4-20.9-15.4s-21.1,6.1-21.1,16c0,8.1,5.1,13.8,15.4,16.1l7.7,1.7c6.4,1.4,10.8,4.6,10.8,9.5s-4.9,8.3-12.7,8.3-12.4-3.1-13.7-8.3h-9.1C2565.6,451.1,2574.1,457.1,2587,457.1Zm66.8,0c12.6,0,21.8-6.6,24.3-17.7h-9.3c-2,6.1-7.7,10-15,10-9.8,0-15.9-6.5-15.9-17.9v-1.9h40.6v-6.4c0-15.7-9.5-25.2-24.7-25.2s-24.7,9.4-24.7,25.1v9.3C2629.1,447.7,2638.7,457.1,2653.8,457.1Zm-15.9-34.7c.4-10.9,6.4-16.7,15.9-16.7s15.5,5.8,15.9,16.7Zm149.4,34.7c15.2,0,24.8-9.2,24.8-24.7v-9.8c0-15.5-9.6-24.6-24.8-24.6s-24.7,9.1-24.7,24.6v9.8C2762.6,447.9,2772.2,457.1,2787.3,457.1Zm-15.9-25.6v-8.1c0-11.3,6.1-17.6,15.9-17.6s15.9,6.3,15.9,17.6v8.1c0,11.4-6.1,17.7-15.9,17.7S2771.4,442.9,2771.4,431.5Zm75.9,24.5h8.8V406.6h22.4V399h-22.3v-5c0-6,4.1-7.8,8.6-7.8h12.4v-7.8h-12.9c-9.5,0-17,4.6-17,15.2V399H2831v7.6h16.3Zm136,1.1c9,0,15.5-4.5,18.2-11h.8V456h8.6V378.4h-9v30.5h-.6c-2.7-6.4-9-10.9-18-10.9-11.5,0-20.8,8.2-20.8,21.6v15.8C2962.5,448.9,2971.8,457.1,2983.3,457.1Zm-11.9-23.5V421.5c0-9.4,5.8-15.3,14.3-15.3s16.2,5.8,16.2,15.6v11.4c0,9.8-7.6,15.7-16.2,15.7S2971.4,443,2971.4,433.6Zm78.3,23.5c10.4,0,16.4-6.3,18.4-11h.9V456h8.2V418.3c0-12-8.1-20.3-21.5-20.3s-20.4,6.3-22.9,16.1h8.6c1.5-4.9,7.1-8.4,13.2-8.4,9.1,0,14.2,4.8,14.2,12.8v4h-16.5c-14,0-22.1,7.4-22.1,18.1C3030.2,449.6,3037.3,457.1,3049.7,457.1Zm-10.8-17.6c0-6.4,6.2-10,14.2-10h15.7v6c0,7.9-9.3,14.1-16.4,14.1S3038.9,446.1,3038.9,439.5Zm60.7,36.7h7.6c7.4,0,12.4-4.1,15.9-13.6l23.5-63.6h-9.4l-15.8,45.3h-.6L3105.1,399h-9.4l20.9,56.9-2,5.7c-1.5,4.3-4.3,6.8-9.2,6.8h-5.8Zm85.4-3.7,12.2-35.3h-13.1l-8,35.3ZM227.5,607h37.3v-7.5H246.2V576.8c0-13.8,9.8-18.9,19.4-18.9a29,29,0,0,1,11.8,2.5v-8.9c-3-1.8-5.9-2.5-10.6-2.5-11.2,0-17.3,5.3-19.7,13.7h-.9V550H228.8v7.5h8.4v42h-9.7Zm84.9,1.1c10.5,0,16.5-6.3,18.5-11h.9V607H340V569.3c0-12-8.1-20.3-21.5-20.3s-20.4,6.3-22.9,16.1h8.6c1.5-4.9,7.1-8.4,13.2-8.4,9.1,0,14.1,4.8,14.1,12.8v4H315.1c-14,0-22.2,7.4-22.2,18.1C292.9,600.6,300.1,608.1,312.4,608.1Zm-10.7-17.6c0-6.4,6.2-10,14.2-10h15.6v6c0,7.9-9.2,14.1-16.3,14.1S301.7,597.1,301.7,590.5Zm65.7,36.7h17.1c14.3,0,22.7-6.7,22.7-20.1V550h-8.6v9.9h-.8c-2.7-6.4-9.2-10.9-18.2-10.9-11.5,0-20.8,8.2-20.8,21.6v11c0,13.4,9.3,21.6,20.8,21.6,9,0,15.4-4.5,18.1-10.9h.6v14.1c0,9.3-4.5,13-13.8,13h-17Zm.3-47.5v-7.2c0-9.4,5.8-15.3,14.3-15.3s16.2,5.8,16.2,15.6v6.6c0,9.8-7.6,15.6-16.2,15.6S367.7,589.1,367.7,579.7Zm83,28.4c12.6,0,21.7-6.6,24.3-17.7h-9.4c-1.9,6.1-7.7,10-14.9,10-9.8,0-15.9-6.5-15.9-17.9v-1.9h40.6v-6.4c0-15.7-9.5-25.2-24.7-25.2s-24.8,9.4-24.8,25.1v9.3C425.9,598.7,435.5,608.1,450.7,608.1Zm-15.9-34.7c.4-10.9,6.4-16.7,15.9-16.7s15.5,5.8,15.8,16.7Zm79.7,50.1,12.3-35.3H513.7l-8,35.3ZM628.1,607h37.2v-7.5H646.8V576.8c0-13.8,9.8-18.9,19.4-18.9a29.4,29.4,0,0,1,11.8,2.5v-8.9c-3.1-1.8-6-2.5-10.6-2.5-11.2,0-17.3,5.3-19.8,13.7h-.8V550H629.4v7.5h8.4v42h-9.7Zm84.9,1.1c10.5,0,16.4-6.3,18.5-11h.8V607h8.2V569.3c0-12-8-20.3-21.5-20.3s-20.3,6.3-22.9,16.1h8.7c1.5-4.9,7.1-8.4,13.1-8.4,9.1,0,14.2,4.8,14.2,12.8v4H715.7c-14.1,0-22.2,7.4-22.2,18.1C693.5,600.6,700.7,608.1,713,608.1Zm-10.7-17.6c0-6.4,6.1-10,14.1-10h15.7v6c0,7.9-9.2,14.1-16.3,14.1S702.3,597.1,702.3,590.5ZM768,627.2h17.1c14.3,0,22.6-6.7,22.6-20.1V550h-8.5v9.9h-.9c-2.6-6.4-9.1-10.9-18.1-10.9-11.5,0-20.9,8.2-20.9,21.6v11c0,13.4,9.4,21.6,20.9,21.6,9,0,15.3-4.5,18-10.9h.7v14.1c0,9.3-4.6,13-13.8,13H768Zm.3-47.5v-7.2c0-9.4,5.8-15.3,14.2-15.3s16.3,5.8,16.3,15.6v6.6c0,9.8-7.6,15.6-16.3,15.6S768.3,589.1,768.3,579.7Zm82.9,28.4c12.6,0,21.8-6.6,24.3-17.7h-9.3c-1.9,6.1-7.7,10-15,10-9.8,0-15.8-6.5-15.8-17.9v-1.9H876v-6.4c0-15.7-9.6-25.2-24.8-25.2s-24.7,9.4-24.7,25.1v9.3C826.5,598.7,836.1,608.1,851.2,608.1Zm-15.8-34.7c.3-10.9,6.3-16.7,15.8-16.7s15.5,5.8,15.9,16.7Zm144.7,34.7c10.4,0,16.4-6.3,18.4-11h.9V607h8.2V569.3c0-12-8.1-20.3-21.5-20.3s-20.4,6.3-22.9,16.1h8.6c1.5-4.9,7.1-8.4,13.2-8.4,9.1,0,14.2,4.8,14.2,12.8v4H982.7c-14,0-22.1,7.4-22.1,18.1C960.6,600.6,967.7,608.1,980.1,608.1Zm-10.8-17.6c0-6.4,6.2-10,14.2-10h15.7v6c0,7.9-9.3,14.1-16.4,14.1S969.3,597.1,969.3,590.5Zm65.7,36.7h17.1c14.3,0,22.7-6.7,22.7-20.1V550h-8.6v9.9h-.8c-2.7-6.4-9.2-10.9-18.2-10.9-11.4,0-20.8,8.2-20.8,21.6v11c0,13.4,9.4,21.6,20.8,21.6,9,0,15.4-4.5,18.1-10.9h.6v14.1c0,9.3-4.5,13-13.8,13h-17Zm.3-47.5v-7.2c0-9.4,5.8-15.3,14.3-15.3s16.2,5.8,16.2,15.6v6.6c0,9.8-7.6,15.6-16.2,15.6S1035.3,589.1,1035.3,579.7Zm78.3,28.4c10.4,0,16.4-6.3,18.5-11h.8V607h8.2V569.3c0-12-8-20.3-21.5-20.3s-20.4,6.3-22.9,16.1h8.7c1.4-4.9,7-8.4,13.1-8.4,9.1,0,14.2,4.8,14.2,12.8v4h-16.5c-14,0-22.1,7.4-22.1,18.1C1094.1,600.6,1101.2,608.1,1113.6,608.1Zm-10.8-17.6c0-6.4,6.2-10,14.2-10h15.7v6c0,7.9-9.3,14.1-16.4,14.1S1102.8,597.1,1102.8,590.5Zm59.6,16.5h47.7v-7.5h-18.6V550h-26.6v7.5h17.7v42h-20.2Zm16.7-77a7.4,7.4,0,1,0,7.4-7.2A7.2,7.2,0,0,0,1179.1,530Zm49.2,77h9V572.8c0-9.8,6.8-15.6,15.5-15.6s13.5,5.9,13.5,15.3V607h9V570.6c0-13.4-8.7-21.6-20.2-21.6-9,0-14.7,4.5-17.4,10.9h-.8V550h-8.6Zm90.2,1.1c13.5,0,22.4-6.1,22.4-16.6,0-8.2-4.9-13.9-16.1-16.4l-7.6-1.6c-7.1-1.6-10.5-4.3-10.5-9.1s4.7-8,12-8,11.3,3,12.4,8h8.6c-1.1-9.6-9-15.4-20.9-15.4s-21.1,6.1-21.1,16c0,8.1,5.1,13.8,15.4,16.1l7.7,1.7c6.5,1.4,10.9,4.6,10.9,9.5s-5,8.3-12.8,8.3-12.4-3.1-13.7-8.3h-9.1C1297.2,602.1,1305.6,608.1,1318.5,608.1Zm75.3-.9h13v-7.8h-12.5c-4.4,0-8.5-1.8-8.5-7.9V557.6h22.3V550h-22.4V533.8h-8.9V550h-16.2v7.6h16.2V592C1376.8,602.6,1384.3,607.2,1393.8,607.2Zm133.5,0h13v-7.8h-12.4c-4.5,0-8.6-1.8-8.6-7.9V557.6h22.3V550h-22.4V533.8h-8.8V550h-16.3v7.6h16.3V592C1510.4,602.6,1517.8,607.2,1527.3,607.2Zm34.9-.2h8.9V572.8c0-9.8,6.8-15.6,15.5-15.6s13.5,5.9,13.5,15.3V607h9V570.6c0-13.4-8.7-21.6-20.2-21.6-9,0-14.8,4.5-17.5,10.9h-.7V529.4h-8.5Zm90.2,1.1c12.6,0,21.8-6.6,24.3-17.7h-9.4c-1.9,6.1-7.6,10-14.9,10-9.8,0-15.9-6.5-15.9-17.9v-1.9h40.6v-6.4c0-15.7-9.5-25.2-24.7-25.2s-24.8,9.4-24.8,25.1v9.3C1627.6,598.7,1637.2,608.1,1652.4,608.1Zm-15.9-34.7c.4-10.9,6.4-16.7,15.9-16.7s15.5,5.8,15.8,16.7Zm145.1,34.7c9,0,15.5-4.5,18.2-11h.8V607h8.6V529.4h-9v30.5h-.6c-2.7-6.4-9-10.9-18-10.9-11.5,0-20.8,8.2-20.8,21.6v15.8C1760.8,599.9,1770.1,608.1,1781.6,608.1Zm-11.9-23.5V572.5c0-9.4,5.8-15.3,14.2-15.3s16.3,5.8,16.3,15.6v11.4c0,9.8-7.6,15.7-16.3,15.7S1769.7,594,1769.7,584.6Zm61.4,42.6h7.6c7.4,0,12.4-4.1,16-13.6l23.4-63.6h-9.4l-15.8,45.3h-.6L1836.6,550h-9.4l21,56.9-2.1,5.7c-1.5,4.3-4.3,6.8-9.2,6.8h-5.8Zm65.7-20.2h47.7v-7.5h-18.6V550h-26.6v7.5h17.6v42h-20.1Zm16.7-77a7.4,7.4,0,1,0,7.3-7.2A7.1,7.1,0,0,0,1913.5,530Zm49.2,77h9V572.8c0-9.8,6.8-15.6,15.4-15.6s13.6,5.9,13.6,15.3V607h9V570.6c0-13.4-8.8-21.6-20.2-21.6-9,0-14.7,4.5-17.4,10.9h-.8V550h-8.6Zm73.7,20.2h17.1c14.4,0,22.7-6.7,22.7-20.1V550h-8.5v9.9h-.9c-2.7-6.4-9.2-10.9-18.2-10.9-11.4,0-20.8,8.2-20.8,21.6v11c0,13.4,9.4,21.6,20.8,21.6,9,0,15.4-4.5,18.1-10.9h.6v14.1c0,9.3-4.5,13-13.8,13h-17Zm.4-47.5v-7.2c0-9.4,5.8-15.3,14.2-15.3s16.2,5.8,16.2,15.6v6.6c0,9.8-7.6,15.6-16.2,15.6S2036.8,589.1,2036.8,579.7Zm149.7,28.4c15.1,0,24.7-9.2,24.7-24.7v-9.8c0-15.5-9.6-24.6-24.7-24.6s-24.8,9.1-24.8,24.6v9.8C2161.7,598.9,2171.3,608.1,2186.5,608.1Zm-15.9-25.6v-8.1c0-11.3,6.1-17.6,15.9-17.6s15.8,6.3,15.8,17.6v8.1c0,11.4-6,17.7-15.8,17.7S2170.6,593.9,2170.6,582.5Zm75.8,24.5h8.9V557.6h22.3V550h-22.2v-5c0-6,4.1-7.8,8.5-7.8h12.5v-7.8h-13c-9.5,0-17,4.6-17,15.2V550h-16.2v7.6h16.2Zm148.8.2h13v-7.8h-12.4c-4.5,0-8.6-1.8-8.6-7.9V557.6h22.3V550h-22.4V533.8h-8.8V550H2362v7.6h16.3V592C2378.3,602.6,2385.8,607.2,2395.2,607.2Zm34.9-.2h8.9V572.8c0-9.8,6.8-15.6,15.5-15.6s13.5,5.9,13.5,15.3V607h9V570.6c0-13.4-8.7-21.6-20.2-21.6-9,0-14.8,4.5-17.5,10.9h-.7V529.4h-8.5Zm90.2,1.1c12.6,0,21.8-6.6,24.3-17.7h-9.3c-2,6.1-7.7,10-15,10-9.8,0-15.9-6.5-15.9-17.9v-1.9H2545v-6.4c0-15.7-9.5-25.2-24.7-25.2s-24.7,9.4-24.7,25.1v9.3C2495.6,598.7,2505.1,608.1,2520.3,608.1Zm-15.9-34.7c.4-10.9,6.4-16.7,15.9-16.7s15.5,5.8,15.8,16.7ZM2631.2,607h47.7v-7.5h-18.6V531.1h-26.6v7.5h17.6v60.9h-20.1Zm66.7,0h47.7v-7.5h-18.5V550h-26.6v7.5h17.6v42h-20.2Zm16.7-77a7.4,7.4,0,1,0,7.4-7.2A7.2,7.2,0,0,0,2714.6,530Zm56.2,97.2h17.1c14.3,0,22.7-6.7,22.7-20.1V550H2802v9.9h-.8c-2.7-6.4-9.2-10.9-18.2-10.9-11.4,0-20.8,8.2-20.8,21.6v11c0,13.4,9.4,21.6,20.8,21.6,9,0,15.4-4.5,18.1-10.9h.6v14.1c0,9.3-4.5,13-13.8,13h-17Zm.3-47.5v-7.2c0-9.4,5.8-15.3,14.3-15.3s16.2,5.8,16.2,15.6v6.6c0,9.8-7.6,15.6-16.2,15.6S2771.1,589.1,2771.1,579.7Zm59.5,27.3h9V572.8c0-9.8,6.8-15.6,15.4-15.6s13.6,5.9,13.6,15.3V607h9V570.6c0-13.4-8.7-21.6-20.2-21.6-9,0-14.8,4.5-17.5,10.9h-.7V529.4h-8.6Zm98.7.2h13v-7.8h-12.4c-4.5,0-8.6-1.8-8.6-7.9V557.6h22.3V550h-22.4V533.8h-8.8V550h-16.3v7.6h16.3V592C2912.4,602.6,2919.9,607.2,2929.3,607.2Zm58.3.9a9.8,9.8,0,1,0-9.8-9.7A9.7,9.7,0,0,0,2987.6,608.1ZM258.9,909.2h12.9v-7.8H259.4c-4.5,0-8.5-1.8-8.5-7.9V859.6h22.2V852H250.8V835.8h-8.9V852H225.6v7.6h16.3V894C241.9,904.6,249.4,909.2,258.9,909.2Zm34.8-.2h8.9V874.8c0-9.8,6.8-15.6,15.5-15.6s13.5,5.9,13.5,15.3V909h9V872.6c0-13.4-8.7-21.6-20.1-21.6-9.1,0-14.9,4.5-17.5,10.9h-.8V831.4h-8.5Zm90.2,1.1c15.1,0,24.7-9.2,24.7-24.7v-9.8c0-15.5-9.6-24.6-24.7-24.6s-24.7,9.1-24.7,24.6v9.8C359.2,900.9,368.8,910.1,383.9,910.1ZM368,884.5v-8.1c0-11.3,6.1-17.6,15.9-17.6s15.9,6.3,15.9,17.6v8.1c0,11.4-6.1,17.7-15.9,17.7S368,895.9,368,884.5Zm79.3,25.6c9.1,0,14.8-4.5,17.4-11h.9V909h8.5V852h-8.9v34.2c0,9.8-6.8,15.7-15.5,15.7s-13.5-5.9-13.5-15.3V852h-9v36.4C427.2,901.9,435.9,910.1,447.3,910.1Zm53.6,19.1H518c14.4,0,22.7-6.7,22.7-20.1V852h-8.6v9.9h-.8c-2.7-6.4-9.2-10.9-18.2-10.9-11.4,0-20.8,8.2-20.8,21.6v11c0,13.4,9.4,21.6,20.8,21.6,9,0,15.4-4.5,18.1-10.9h.6v14.1c0,9.3-4.5,13-13.8,13H501Zm.3-47.5v-7.2c0-9.4,5.8-15.3,14.3-15.3s16.2,5.8,16.2,15.6v6.6c0,9.8-7.6,15.6-16.2,15.6S501.2,891.1,501.2,881.7ZM560.7,909h9V874.8c0-9.8,6.8-15.6,15.4-15.6s13.6,5.9,13.6,15.3V909h9V872.6c0-13.4-8.7-21.6-20.2-21.6-9,0-14.8,4.5-17.5,10.9h-.7V831.4h-8.6Zm138,0h8.5l10.1-44.2h.8L728.2,909h8.6l11.8-57h-8.8l-7.7,45.4h-.8l-9.4-45.3h-8.4l-9.3,45.3h-.9L695.6,852h-8.7Zm63.2,0h47.6v-7.5H791V852H764.4v7.5H782v42H761.9Zm16.6-77a7.4,7.4,0,1,0,7.4-7.2A7.2,7.2,0,0,0,778.5,832Zm72.7,78.1c13.5,0,22.4-6.1,22.4-16.6,0-8.2-5-13.9-16.1-16.4l-7.6-1.6c-7.2-1.6-10.6-4.3-10.6-9.1s4.8-8,12-8,11.4,3,12.4,8h8.7c-1.1-9.6-9-15.4-20.9-15.4s-21.1,6.1-21.1,16c0,8.1,5.1,13.8,15.4,16.1l7.7,1.7c6.4,1.4,10.8,4.6,10.8,9.5s-4.9,8.3-12.7,8.3-12.4-3.1-13.7-8.3h-9.1C829.8,904.1,838.3,910.1,851.2,910.1Zm66.8,0c12.6,0,21.8-6.6,24.3-17.7H933c-2,6.1-7.7,10-15,10-9.8,0-15.9-6.5-15.9-17.9v-1.9h40.6v-6.4c0-15.7-9.5-25.2-24.7-25.2s-24.7,9.4-24.7,25.1v9.3C893.3,900.7,902.9,910.1,918,910.1Zm-15.9-34.7c.4-10.9,6.4-16.7,15.9-16.7s15.5,5.8,15.9,16.7ZM1024.5,909h8V870.8c0-7,3-11.6,7.9-11.6s7.2,3.8,7.2,10.7V909h8V870.8c0-7,3-11.6,7.9-11.6s7.1,3.8,7.1,10.7V909h8V867.1c0-10.4-4.7-16.1-12.2-16.1-5.8,0-9.9,3.8-11.3,9.2h-.9c-1.2-5.4-5.2-9.2-10.5-9.2s-9.3,3.9-10.4,9.3h-.9V852h-7.9Zm93.8,1.1c12.6,0,21.8-6.6,24.3-17.7h-9.3c-2,6.1-7.7,10-15,10-9.8,0-15.9-6.5-15.9-17.9v-1.9H1143v-6.4c0-15.7-9.5-25.2-24.7-25.2s-24.7,9.4-24.7,25.1v9.3C1093.6,900.7,1103.2,910.1,1118.3,910.1Zm-15.9-34.7c.4-10.9,6.4-16.7,15.9-16.7s15.5,5.8,15.9,16.7Zm59.2,33.6h8.9V874.8c0-9.8,6.8-15.6,15.5-15.6s13.6,5.9,13.6,15.3V909h8.9V872.6c0-13.4-8.7-21.6-20.1-21.6-9.1,0-14.7,4.5-17.4,10.9h-.9V852h-8.5Zm152.3,1.1c10.4,0,16.4-6.3,18.4-11h.9V909h8.2V871.3c0-12-8.1-20.3-21.5-20.3s-20.4,6.3-22.9,16.1h8.7c1.4-4.9,7-8.4,13.1-8.4,9.1,0,14.2,4.8,14.2,12.8v4h-16.5c-14,0-22.1,7.4-22.1,18.1C1294.4,902.6,1301.5,910.1,1313.9,910.1Zm-10.8-17.6c0-6.4,6.2-10,14.2-10H1333v6c0,7.9-9.3,14.1-16.4,14.1S1303.1,899.1,1303.1,892.5Zm90.7,16.7h13v-7.8h-12.5c-4.4,0-8.5-1.8-8.5-7.9V859.6h22.3V852h-22.4V835.8h-8.9V852h-16.2v7.6h16.2V894C1376.8,904.6,1384.3,909.2,1393.8,909.2Zm133.5,0h13v-7.8h-12.4c-4.5,0-8.6-1.8-8.6-7.9V859.6h22.3V852h-22.4V835.8h-8.8V852h-16.3v7.6h16.3V894C1510.4,904.6,1517.8,909.2,1527.3,909.2Zm34.9-.2h8.9V874.8c0-9.8,6.8-15.6,15.5-15.6s13.5,5.9,13.5,15.3V909h9V872.6c0-13.4-8.7-21.6-20.2-21.6-9,0-14.8,4.5-17.5,10.9h-.7V831.4h-8.5Zm90.2,1.1c12.6,0,21.8-6.6,24.3-17.7h-9.4c-1.9,6.1-7.6,10-14.9,10-9.8,0-15.9-6.5-15.9-17.9v-1.9h40.6v-6.4c0-15.7-9.5-25.2-24.7-25.2s-24.8,9.4-24.8,25.1v9.3C1627.6,900.7,1637.2,910.1,1652.4,910.1Zm-15.9-34.7c.4-10.9,6.4-16.7,15.9-16.7s15.5,5.8,15.8,16.7Zm60,33.6h47.7v-7.5h-18.6V852h-26.5v7.5h17.6v42h-20.2Zm16.7-77a7.4,7.4,0,1,0,7.4-7.2A7.2,7.2,0,0,0,1713.2,832Zm49.9,77h37.2v-7.5h-18.6V878.8c0-13.8,9.8-18.9,19.4-18.9a28.7,28.7,0,0,1,11.8,2.5v-8.9c-3-1.8-5.9-2.5-10.6-2.5-11.2,0-17.2,5.3-19.7,13.7h-.9V852h-17.4v7.5h8.5v42h-9.7Zm156.3,1.1c12.6,0,21.8-6.6,24.3-17.7h-9.3c-2,6.1-7.7,10-15,10-9.8,0-15.8-6.5-15.8-17.9v-1.9h40.6v-6.4c0-15.7-9.6-25.2-24.8-25.2s-24.7,9.4-24.7,25.1v9.3C1894.7,900.7,1904.3,910.1,1919.4,910.1Zm-15.8-34.7c.3-10.9,6.3-16.7,15.8-16.7s15.5,5.8,15.9,16.7Zm59.1,33.6h9V874.8c0-9.8,6.8-15.6,15.4-15.6s13.6,5.9,13.6,15.3V909h9V872.6c0-13.4-8.8-21.6-20.2-21.6-9,0-14.7,4.5-17.4,10.9h-.8V852h-8.6Zm85.9,1.1c9,0,15.5-4.5,18.2-11h.9V909h8.5V831.4h-9v30.5h-.6c-2.7-6.4-9-10.9-18-10.9-11.4,0-20.8,8.2-20.8,21.6v15.8C2027.8,901.9,2037.2,910.1,2048.6,910.1Zm-11.8-23.5V874.5c0-9.4,5.8-15.3,14.2-15.3s16.2,5.8,16.2,15.6v11.4c0,9.8-7.6,15.7-16.2,15.7S2036.8,896,2036.8,886.6ZM2166.2,909h8.9V888.2l6.1-6,21.1,26.8h11.2l-25.8-32.5,24.1-24.5h-11l-24.7,25h-1V833.1h-8.9Zm63.6,0h8.9V874.8c0-9.8,6.8-15.6,15.5-15.6s13.5,5.9,13.5,15.3V909h9V872.6c0-13.4-8.7-21.6-20.1-21.6-9.1,0-14.8,4.5-17.5,10.9h-.8V852h-8.5Zm90.2,1.1c15.1,0,24.7-9.2,24.7-24.7v-9.8c0-15.5-9.6-24.6-24.7-24.6s-24.7,9.1-24.7,24.6v9.8C2295.3,900.9,2304.9,910.1,2320,910.1Zm-15.9-25.6v-8.1c0-11.3,6.1-17.6,15.9-17.6s15.9,6.3,15.9,17.6v8.1c0,11.4-6.1,17.7-15.9,17.7S2304.1,895.9,2304.1,884.5Zm63.6,24.5h8.6l10-44.2h.9l10,44.2h8.6l11.8-57h-8.7l-7.8,45.4h-.8l-9.3-45.3h-8.5l-9.3,45.3h-.8l-7.7-45.4h-8.8Zm148.3,1.1c9,0,15.5-4.5,18.1-11h.9V909h8.5V831.4h-8.9v30.5h-.7c-2.7-6.4-8.9-10.9-17.9-10.9-11.5,0-20.9,8.2-20.9,21.6v15.8C2495.1,901.9,2504.5,910.1,2516,910.1Zm-11.9-23.5V874.5c0-9.4,5.8-15.3,14.2-15.3s16.3,5.8,16.3,15.6v11.4c0,9.8-7.6,15.7-16.3,15.7S2504.1,896,2504.1,886.6Zm78.3,23.5c10.4,0,16.4-6.3,18.4-11h.8V909h8.3V871.3c0-12-8.1-20.3-21.5-20.3s-20.4,6.3-22.9,16.1h8.6c1.5-4.9,7.1-8.4,13.1-8.4,9.2,0,14.2,4.8,14.2,12.8v4H2585c-14,0-22.2,7.4-22.2,18.1C2562.8,902.6,2570,910.1,2582.4,910.1Zm-10.8-17.6c0-6.4,6.2-10,14.2-10h15.6v6c0,7.9-9.2,14.1-16.3,14.1S2571.6,899.1,2571.6,892.5ZM2631,909h37.2v-7.5h-18.6V878.8c0-13.8,9.8-18.9,19.4-18.9a28.7,28.7,0,0,1,11.8,2.5v-8.9c-3-1.8-5.9-2.5-10.5-2.5-11.3,0-17.3,5.3-19.8,13.7h-.9V852h-17.4v7.5h8.5v42H2631Zm69.3,0h8.9V888.2l6.1-6,21.1,26.8h11.2l-25.8-32.5,24.1-24.5h-11l-24.7,25h-1V833.1h-8.9Zm131.2,0h47.6v-7.5h-18.5V852H2834v7.5h17.6v42h-20.1Zm16.6-77a7.4,7.4,0,1,0,7.4-7.2A7.2,7.2,0,0,0,2848.1,832Zm72.7,78.1c13.5,0,22.4-6.1,22.4-16.6,0-8.2-5-13.9-16.1-16.4l-7.6-1.6c-7.1-1.6-10.6-4.3-10.6-9.1s4.8-8,12.1-8,11.3,3,12.4,8h8.6c-1.1-9.6-9-15.4-20.9-15.4s-21.1,6.1-21.1,16c0,8.1,5.1,13.8,15.4,16.1l7.7,1.7c6.5,1.4,10.8,4.6,10.8,9.5s-4.9,8.3-12.7,8.3-12.4-3.1-13.7-8.3h-9.1C2899.4,904.1,2907.9,910.1,2920.8,910.1Zm110.7-1.1h37.3v-7.5h-18.6V878.8c0-13.8,9.8-18.9,19.4-18.9a29.4,29.4,0,0,1,11.8,2.5v-8.9c-3-1.8-5.9-2.5-10.6-2.5-11.2,0-17.3,5.3-19.7,13.7h-.9V852h-17.4v7.5h8.4v42h-9.7Zm67,0h47.7v-7.5h-18.6V852H3101v7.5h17.7v42h-20.2Zm16.7-77a7.4,7.4,0,1,0,7.4-7.2A7.2,7.2,0,0,0,3115.2,832Zm56.2,97.2h17.1c14.3,0,22.6-6.7,22.6-20.1V852h-8.5v9.9h-.8c-2.7-6.4-9.2-10.9-18.2-10.9-11.5,0-20.9,8.2-20.9,21.6v11c0,13.4,9.4,21.6,20.9,21.6,9,0,15.4-4.5,18.1-10.9h.6v14.1c0,9.3-4.5,13-13.8,13h-17.1Zm.3-47.5v-7.2c0-9.4,5.8-15.3,14.2-15.3s16.3,5.8,16.3,15.6v6.6c0,9.8-7.6,15.6-16.3,15.6S3171.7,891.1,3171.7,881.7Zm59.5,27.3h9V874.8c0-9.8,6.8-15.6,15.4-15.6s13.6,5.9,13.6,15.3V909h8.9V872.6c0-13.4-8.7-21.6-20.1-21.6-9,0-14.8,4.5-17.5,10.9h-.8V831.4h-8.5Zm98.7.2h13v-7.8h-12.5c-4.4,0-8.5-1.8-8.5-7.9V859.6h22.2V852h-22.3V835.8h-8.9V852h-16.2v7.6h16.2V894C3312.9,904.6,3320.4,909.2,3329.9,909.2Zm55.4,16.3,12.2-35.3h-13.1l-8,35.3ZM254.7,1061.1c11.4,0,20.8-8.2,20.8-21.7v-15.8c0-13.4-9.4-21.6-20.8-21.6-9,0-15.3,4.5-18,10.9h-.6V982.4h-9V1060h8.6v-9.9h.8C239.2,1056.6,245.7,1061.1,254.7,1061.1Zm-18.6-23.9v-11.4c0-9.8,7.6-15.6,16.2-15.6s14.3,5.9,14.3,15.3v12.1c0,9.4-5.8,15.3-14.3,15.3S236.1,1047,236.1,1037.2Zm81,23.9c12.6,0,21.8-6.6,24.4-17.7h-9.4c-1.9,6.1-7.7,10-15,10-9.8,0-15.8-6.5-15.8-17.9v-1.9h40.6v-6.4c0-15.7-9.6-25.2-24.8-25.2s-24.7,9.4-24.7,25.2v9.2C292.4,1051.7,302,1061.1,317.1,1061.1Zm-15.8-34.7c.3-10.9,6.3-16.7,15.8-16.7s15.5,5.8,15.9,16.7Zm82.6,34.7c13.3,0,22.1-6.8,24.4-18.4h-9.2c-2.1,6.9-7.3,10.5-15.2,10.5-9.8,0-15.9-6.3-15.9-17.7v-8.1c0-11.3,6.1-17.6,15.9-17.6,7.9,0,13.2,3.7,15.2,10.7h9.2c-2.3-11.6-11.1-18.5-24.4-18.5-15.1,0-24.7,9.1-24.7,24.6v9.8C359.2,1051.9,368.8,1061.1,383.9,1061.1Zm62.1,0c10.4,0,16.4-6.3,18.4-11h.9v9.9h8.2v-37.7c0-12-8.1-20.3-21.5-20.3s-20.4,6.3-22.9,16.1h8.6c1.5-4.9,7.1-8.4,13.2-8.4,9.1,0,14.2,4.8,14.2,12.8v4H448.6c-14,0-22.1,7.4-22.1,18.1C426.5,1053.6,433.6,1061.1,446,1061.1Zm-10.8-17.6c0-6.4,6.2-10,14.2-10h15.7v6c0,7.9-9.3,14.1-16.4,14.1S435.2,1050.1,435.2,1043.5Zm78.9,17.6c9,0,14.7-4.5,17.4-11h.9v9.9h8.5v-57h-9v34.2c0,9.8-6.8,15.7-15.4,15.7s-13.6-5.9-13.6-15.3V1003H494v36.4C494,1052.9,502.7,1061.1,514.1,1061.1Zm70,0c13.5,0,22.4-6.1,22.4-16.6,0-8.2-4.9-13.9-16.1-16.3l-7.5-1.7c-7.2-1.6-10.6-4.3-10.6-9.1s4.7-8,12-8,11.3,3,12.4,8h8.6c-1.1-9.6-9-15.4-20.8-15.4s-21.1,6.1-21.1,16c0,8.1,5.1,13.8,15.4,16.1l7.6,1.7c6.5,1.4,10.9,4.6,10.9,9.5s-5,8.3-12.8,8.3-12.3-3.1-13.7-8.3h-9.1C562.8,1055.1,571.2,1061.1,584.1,1061.1Zm66.9,0c12.6,0,21.7-6.6,24.3-17.7h-9.4c-1.9,6.1-7.7,10-14.9,10-9.9,0-15.9-6.5-15.9-17.9v-1.9h40.6v-6.4c0-15.7-9.6-25.2-24.7-25.2s-24.8,9.4-24.8,25.2v9.2C626.2,1051.7,635.8,1061.1,651,1061.1Zm-15.9-34.7c.3-10.9,6.4-16.7,15.9-16.7s15.5,5.8,15.8,16.7ZM793,1060.2h12.9v-7.8H793.5c-4.5,0-8.6-1.8-8.6-7.8v-34h22.3V1003H784.8V986.8H776V1003H759.7v7.6H776V1045C776,1055.6,783.5,1060.2,793,1060.2Zm34.8-.2h8.9v-34.2c0-9.8,6.8-15.6,15.5-15.6s13.5,5.9,13.5,15.3V1060h9v-36.4c0-13.4-8.7-21.6-20.1-21.6-9.1,0-14.9,4.5-17.5,10.9h-.8V982.4h-8.5Zm90.2,1.1c12.6,0,21.8-6.6,24.3-17.7H933c-2,6.1-7.7,10-15,10-9.8,0-15.9-6.5-15.9-17.9v-1.9h40.6v-6.4c0-15.7-9.5-25.2-24.7-25.2s-24.7,9.4-24.7,25.2v9.2C893.3,1051.7,902.9,1061.1,918,1061.1Zm-15.9-34.7c.4-10.9,6.4-16.7,15.9-16.7s15.5,5.8,15.9,16.7Zm60,33.6h47.7v-7.5H991.2V1003H964.7v7.5h17.6v42H962.1Zm16.7-77a7.4,7.4,0,1,0,7.4-7.2A7.2,7.2,0,0,0,978.8,983Zm49.9,77h37.2v-7.5h-18.5v-22.7c0-13.8,9.8-19,19.4-19a28.6,28.6,0,0,1,11.7,2.6v-8.9c-3-1.8-5.9-2.5-10.5-2.5-11.3,0-17.3,5.3-19.8,13.7h-.8V1003h-17.5v7.5h8.5v42h-9.7Zm137.3,0h8.6l10-44.2h.9l10,44.2h8.6l11.8-57h-8.8l-7.7,45.4h-.8l-9.3-45.3h-8.5l-9.3,45.3h-.8l-7.8-45.4h-8.7Zm85.8,1.1c15.1,0,24.7-9.2,24.7-24.7v-9.8c0-15.5-9.6-24.6-24.7-24.6s-24.7,9.1-24.7,24.6v9.8C1227.1,1051.9,1236.7,1061.1,1251.8,1061.1Zm-15.9-25.6v-8.1c0-11.3,6.1-17.6,15.9-17.6s15.9,6.3,15.9,17.6v8.1c0,11.4-6.1,17.7-15.9,17.7S1235.9,1046.9,1235.9,1035.5Zm59.8,24.5H1333v-7.5h-18.6v-22.7c0-13.8,9.8-19,19.4-19a29.5,29.5,0,0,1,11.8,2.6v-8.9c-3-1.8-5.9-2.5-10.6-2.5-11.2,0-17.3,5.3-19.8,13.7h-.8V1003H1297v7.5h8.4v42h-9.7Zm85.3,1.1c9,0,15.5-4.5,18.2-11h.8v9.9h8.6V982.4h-9v30.5h-.6c-2.7-6.4-9-10.9-18-10.9-11.4,0-20.8,8.2-20.8,21.6v15.8C1360.2,1052.9,1369.6,1061.1,1381,1061.1Zm-11.9-23.5v-12.1c0-9.4,5.8-15.3,14.3-15.3s16.2,5.8,16.2,15.6v11.4c0,9.8-7.6,15.7-16.2,15.7S1369.1,1047,1369.1,1037.6Zm82.9,23.5c13.5,0,22.4-6.1,22.4-16.6,0-8.2-4.9-13.9-16.1-16.3l-7.5-1.7c-7.2-1.6-10.6-4.3-10.6-9.1s4.7-8,12-8,11.3,3,12.4,8h8.6c-1.1-9.6-9-15.4-20.8-15.4s-21.1,6.1-21.1,16c0,8.1,5.1,13.8,15.4,16.1l7.6,1.7c6.5,1.4,10.9,4.6,10.9,9.5s-5,8.3-12.8,8.3-12.3-3.1-13.6-8.3h-9.2C1430.7,1055.1,1439.1,1061.1,1452,1061.1Zm110.2-1.1h8.9v-34.2c0-9.8,6.8-15.6,15.5-15.6s13.5,5.9,13.5,15.3V1060h9v-36.4c0-13.4-8.7-21.6-20.2-21.6-9,0-14.8,4.5-17.5,10.9h-.7V982.4h-8.5Zm85.5,1.1c10.4,0,16.4-6.3,18.4-11h.9v9.9h8.2v-37.7c0-12-8.1-20.3-21.5-20.3s-20.4,6.3-22.9,16.1h8.7c1.4-4.9,7-8.4,13.1-8.4,9.1,0,14.2,4.8,14.2,12.8v4h-16.5c-14,0-22.1,7.4-22.1,18.1C1628.2,1053.6,1635.3,1061.1,1647.7,1061.1Zm-10.8-17.6c0-6.4,6.2-10,14.2-10h15.7v6c0,7.9-9.3,14.1-16.4,14.1S1636.9,1050.1,1636.9,1043.5Zm77.9,17.6c9,0,15.5-4.5,18.2-11h.8v9.9h8.6V982.4h-9v30.5h-.6c-2.7-6.4-9-10.9-18-10.9-11.4,0-20.8,8.2-20.8,21.6v15.8C1694,1052.9,1703.4,1061.1,1714.8,1061.1Zm-11.9-23.5v-12.1c0-9.4,5.9-15.3,14.3-15.3s16.2,5.8,16.2,15.6v11.4c0,9.8-7.6,15.7-16.2,15.7S1702.9,1047,1702.9,1037.6Zm143,22.4h8.8v-49.4h22.4V1003h-22.3v-5c0-6,4.1-7.8,8.6-7.8h12.4v-7.8h-13c-9.5,0-16.9,4.6-16.9,15.2v5.4h-16.3v7.6h16.3Zm73.5,1.1c15.2,0,24.8-9.2,24.8-24.7v-9.8c0-15.5-9.6-24.6-24.8-24.6s-24.7,9.1-24.7,24.6v9.8C1894.7,1051.9,1904.3,1061.1,1919.4,1061.1Zm-15.8-25.6v-8.1c0-11.3,6-17.6,15.8-17.6s15.9,6.3,15.9,17.6v8.1c0,11.4-6.1,17.7-15.9,17.7S1903.6,1046.9,1903.6,1035.5Zm59.7,24.5h37.3v-7.5H1982v-22.7c0-13.8,9.8-19,19.4-19a29.1,29.1,0,0,1,11.8,2.6v-8.9c-3-1.8-5.9-2.5-10.6-2.5-11.2,0-17.3,5.3-19.7,13.7h-.9V1003h-17.4v7.5h8.5v42h-9.8Zm69.3,0h9v-20.8l6.1-6,21.1,26.8h11.1l-25.7-32.5,24.1-24.5h-11.1l-24.6,25h-1V984.1h-9Zm87.1,1.1c12.6,0,21.8-6.6,24.3-17.7h-9.3c-2,6.1-7.7,10-15,10-9.8,0-15.9-6.5-15.9-17.9v-1.9h40.6v-6.4c0-15.7-9.5-25.2-24.7-25.2s-24.7,9.4-24.7,25.2v9.2C2095,1051.7,2104.6,1061.1,2119.7,1061.1Zm-15.9-34.7c.4-10.9,6.4-16.7,15.9-16.7s15.5,5.8,15.9,16.7Zm78.3,34.7c9.1,0,15.5-4.5,18.2-11h.9v9.9h8.5V982.4h-8.9v30.5h-.7c-2.7-6.4-8.9-10.9-18-10.9-11.4,0-20.8,8.2-20.8,21.6v15.8C2161.3,1052.9,2170.7,1061.1,2182.1,1061.1Zm-11.8-23.5v-12.1c0-9.4,5.8-15.3,14.2-15.3s16.3,5.8,16.3,15.6v11.4c0,9.8-7.6,15.7-16.3,15.7S2170.3,1047,2170.3,1037.6Zm126.2,22.4h9v-34.2c0-9.8,6.8-15.6,15.4-15.6s13.6,5.9,13.6,15.3V1060h9v-36.4c0-13.4-8.7-21.6-20.2-21.6-9,0-14.7,4.5-17.4,10.9h-.8V1003h-8.6Zm90.3,1.1c15.1,0,24.7-9.2,24.7-24.7v-9.8c0-15.5-9.6-24.6-24.7-24.6s-24.8,9.1-24.8,24.6v9.8C2362,1051.9,2371.6,1061.1,2386.8,1061.1Zm-15.9-25.6v-8.1c0-11.3,6-17.6,15.9-17.6s15.8,6.3,15.8,17.6v8.1c0,11.4-6,17.7-15.8,17.7S2370.9,1046.9,2370.9,1035.5Zm126.8,24.5h47.6v-7.5h-18.5V984.1h-26.6v7.5h17.6v60.9h-20.1Zm66.7,0h47.7v-7.5h-18.6V1003h-26.6v7.5h17.7v42h-20.2Zm16.7-77a7.4,7.4,0,1,0,7.4-7.2A7.2,7.2,0,0,0,2581.1,983Zm56.2,97.2h17.1c14.3,0,22.7-6.7,22.7-20.1V1003h-8.6v9.9h-.8c-2.7-6.4-9.2-10.9-18.2-10.9-11.5,0-20.9,8.2-20.9,21.6v11c0,13.4,9.4,21.6,20.9,21.6,9,0,15.4-4.5,18.1-10.9h.6v14.1c0,9.3-4.5,13-13.8,13h-17Zm.3-47.5v-7.2c0-9.4,5.8-15.3,14.3-15.3s16.2,5.8,16.2,15.6v6.6c0,9.8-7.6,15.6-16.2,15.6S2637.6,1042.1,2637.6,1032.7Zm59.5,27.3h9v-34.2c0-9.8,6.8-15.6,15.4-15.6s13.6,5.9,13.6,15.3V1060h8.9v-36.4c0-13.4-8.7-21.6-20.1-21.6-9,0-14.8,4.5-17.5,10.9h-.8V982.4h-8.5Zm98.7.2h13v-7.8h-12.5c-4.4,0-8.5-1.8-8.5-7.8v-34h22.3V1003h-22.4V986.8h-8.9V1003h-16.2v7.6h16.2V1045C2778.8,1055.6,2786.3,1060.2,2795.8,1060.2Zm34.8-.2h9v-34.2c0-9.8,6.8-15.6,15.4-15.6s13.6,5.9,13.6,15.3V1060h9v-36.4c0-13.4-8.7-21.6-20.2-21.6-9,0-14.7,4.5-17.4,10.9h-.8V1003h-8.6Zm67.6,0h47.7v-7.5h-18.6V1003h-26.5v7.5h17.6v42h-20.2Zm16.7-77a7.4,7.4,0,1,0,7.4-7.2A7.2,7.2,0,0,0,2914.9,983Zm49.2,77h9v-34.2c0-9.8,6.8-15.6,15.5-15.6s13.5,5.9,13.5,15.3V1060h9v-36.4c0-13.4-8.7-21.6-20.2-21.6-9,0-14.7,4.5-17.4,10.9h-.8V1003h-8.6Zm73.8,20.2h17c14.4,0,22.7-6.7,22.7-20.1V1003h-8.5v9.9h-.9c-2.6-6.4-9.1-10.9-18.1-10.9-11.5,0-20.9,8.2-20.9,21.6v11c0,13.4,9.4,21.6,20.9,21.6,9,0,15.3-4.5,18-10.9h.7v14.1c0,9.3-4.6,13-13.9,13h-17Zm.3-47.5v-7.2c0-9.4,5.8-15.3,14.2-15.3s16.3,5.8,16.3,15.6v6.6c0,9.8-7.6,15.6-16.3,15.6S3038.2,1042.1,3038.2,1032.7Zm158.2,27.5h13v-7.8h-12.5c-4.5,0-8.5-1.8-8.5-7.8v-34h22.2V1003h-22.3V986.8h-8.9V1003h-16.2v7.6h16.2V1045C3179.4,1055.6,3186.9,1060.2,3196.4,1060.2Zm34.8-.2h9v-34.2c0-9.8,6.8-15.6,15.4-15.6s13.6,5.9,13.6,15.3V1060h8.9v-36.4c0-13.4-8.7-21.6-20.1-21.6-9,0-14.8,4.5-17.5,10.9h-.8V982.4h-8.5Zm90.2,1.1c12.6,0,21.8-6.6,24.3-17.7h-9.3c-2,6.1-7.7,10-15,10-9.8,0-15.8-6.5-15.8-17.9v-1.9h40.5v-6.4c0-15.7-9.5-25.2-24.7-25.2s-24.7,9.4-24.7,25.2v9.2C3296.7,1051.7,3306.3,1061.1,3321.4,1061.1Zm-15.8-34.7c.3-10.9,6.3-16.7,15.8-16.7s15.5,5.8,15.9,16.7Zm61,53.8h7.7c7.3,0,12.3-4.1,15.9-13.6l23.4-63.6h-9.4l-15.8,45.3h-.5l-15.8-45.3h-9.3l20.9,56.9-2.1,5.7c-1.5,4.3-4.2,6.8-9.2,6.8h-5.8ZM246.1,1212.1c9,0,15.5-4.5,18.1-11h.9v9.9h8.5v-77.6h-8.9v30.5H264c-2.6-6.4-8.9-10.9-17.9-10.9-11.5,0-20.9,8.2-20.9,21.6v15.8C225.2,1203.9,234.6,1212.1,246.1,1212.1Zm-11.9-23.5v-12.1c0-9.4,5.8-15.3,14.2-15.3s16.3,5.8,16.3,15.6v11.4c0,9.8-7.6,15.7-16.3,15.7S234.2,1198,234.2,1188.6Zm82.9,23.5c15.2,0,24.8-9.2,24.8-24.7v-9.8c0-15.5-9.6-24.6-24.8-24.6s-24.7,9.1-24.7,24.6v9.8C292.4,1202.9,302,1212.1,317.1,1212.1Zm-15.8-25.6v-8.1c0-11.3,6-17.6,15.8-17.6s15.9,6.3,15.9,17.6v8.1c0,11.4-6,17.7-15.9,17.7S301.3,1197.9,301.3,1186.5ZM427.2,1211h9v-34.2c0-9.8,6.8-15.6,15.4-15.6s13.6,5.9,13.6,15.3V1211h8.9v-36.4c0-13.4-8.7-21.6-20.1-21.6-9,0-14.7,4.5-17.4,10.9h-.9v-9.8h-8.5Zm90.2,1.1c15.2,0,24.8-9.2,24.8-24.7v-9.8c0-15.5-9.6-24.6-24.8-24.6s-24.7,9.1-24.7,24.6v9.8C492.7,1202.9,502.3,1212.1,517.4,1212.1Zm-15.8-25.6v-8.1c0-11.3,6-17.6,15.8-17.6s15.9,6.3,15.9,17.6v8.1c0,11.4-6.1,17.7-15.9,17.7S501.6,1197.9,501.6,1186.5Zm91.1,24.7h13v-7.8H593.2c-4.5,0-8.5-1.8-8.5-7.8v-34h22.2v-7.5H584.6v-16.3h-8.9v16.3H559.5v7.5h16.2V1196C575.7,1206.6,583.2,1211.2,592.7,1211.2Zm108.5,20h17.1c14.3,0,22.7-6.7,22.7-20.1v-57h-8.6v9.8h-.8c-2.7-6.4-9.2-10.9-18.2-10.9-11.5,0-20.8,8.2-20.8,21.6v11c0,13.4,9.3,21.6,20.8,21.6,9,0,15.4-4.5,18.1-10.9h.6v14.1c0,9.3-4.5,13-13.8,13h-17Zm.3-47.5v-7.2c0-9.4,5.8-15.3,14.3-15.3s16.2,5.8,16.2,15.6v6.6c0,9.8-7.6,15.6-16.2,15.6S701.5,1193.1,701.5,1183.7Zm83,28.4c15.1,0,24.7-9.2,24.7-24.7v-9.8c0-15.5-9.6-24.6-24.7-24.6s-24.8,9.1-24.8,24.6v9.8C759.7,1202.9,769.3,1212.1,784.5,1212.1Zm-15.9-25.6v-8.1c0-11.3,6.1-17.6,15.9-17.6s15.8,6.3,15.8,17.6v8.1c0,11.4-6,17.7-15.8,17.7S768.6,1197.9,768.6,1186.5Zm132.9,44.7h17.1c14.3,0,22.7-6.7,22.7-20.1v-57h-8.6v9.8h-.8c-2.7-6.4-9.2-10.9-18.2-10.9-11.5,0-20.9,8.2-20.9,21.6v11c0,13.4,9.4,21.6,20.9,21.6,9,0,15.4-4.5,18.1-10.9h.6v14.1c0,9.3-4.5,13-13.8,13H901.5Zm.3-47.5v-7.2c0-9.4,5.8-15.3,14.2-15.3s16.3,5.8,16.3,15.6v6.6c0,9.8-7.6,15.6-16.3,15.6S901.8,1193.1,901.8,1183.7Zm83,28.4c12.6,0,21.7-6.6,24.3-17.7h-9.4c-1.9,6.1-7.7,10-14.9,10-9.8,0-15.9-6.5-15.9-17.9v-1.9h40.6v-6.4c0-15.7-9.6-25.2-24.7-25.2s-24.8,9.4-24.8,25.2v9.2C960,1202.7,969.6,1212.1,984.8,1212.1Zm-15.9-34.7c.4-10.9,6.4-16.7,15.9-16.7s15.5,5.8,15.8,16.7Zm59.2,33.6h8.9v-34.2c0-9.8,6.8-15.6,15.5-15.6s13.5,5.9,13.5,15.3V1211h9v-36.4c0-13.4-8.7-21.6-20.2-21.6-9,0-14.7,4.5-17.4,10.9h-.8v-9.8h-8.5Zm98.7.2h13v-7.8h-12.5c-4.5,0-8.5-1.8-8.5-7.8v-34H1141v-7.5h-22.3v-16.3h-8.9v16.3h-16.2v7.5h16.2V1196C1109.8,1206.6,1117.3,1211.2,1126.8,1211.2Zm35.6-.2h47.7v-7.5h-18.6v-68.4h-26.6v7.5h17.7v60.9h-20.2Zm89.4,1.1c12.6,0,21.8-6.6,24.3-17.7h-9.3c-2,6.1-7.7,10-15,10-9.8,0-15.9-6.5-15.9-17.9v-1.9h40.6v-6.4c0-15.7-9.5-25.2-24.7-25.2s-24.7,9.4-24.7,25.2v9.2C1227.1,1202.7,1236.7,1212.1,1251.8,1212.1Zm-15.9-34.7c.4-10.9,6.4-16.7,15.9-16.7s15.5,5.8,15.9,16.7Zm126.8,33.6h47.7v-7.5h-18.6v-49.4h-26.6v7.4h17.6v42h-20.1Zm16.7-77a7.4,7.4,0,1,0,7.4-7.2A7.2,7.2,0,0,0,1379.4,1134Zm49.2,77h9v-34.2c0-9.8,6.8-15.6,15.4-15.6s13.6,5.9,13.6,15.3V1211h9v-36.4c0-13.4-8.7-21.6-20.2-21.6-9,0-14.7,4.5-17.4,10.9h-.8v-9.8h-8.6Zm98.7.2h13v-7.8h-12.4c-4.5,0-8.6-1.8-8.6-7.8v-34h22.3v-7.5h-22.4v-16.3h-8.8v16.3h-16.3v7.5h16.3V1196C1510.4,1206.6,1517.8,1211.2,1527.3,1211.2Zm58.3.9c15.2,0,24.7-9.2,24.7-24.7v-9.8c0-15.5-9.5-24.6-24.7-24.6s-24.7,9.1-24.7,24.6v9.8C1560.9,1202.9,1570.5,1212.1,1585.6,1212.1Zm-15.9-25.6v-8.1c0-11.3,6.1-17.6,15.9-17.6s15.9,6.3,15.9,17.6v8.1c0,11.4-6.1,17.7-15.9,17.7S1569.7,1197.9,1569.7,1186.5Zm157.9,24.7h13v-7.8h-12.4c-4.5,0-8.6-1.8-8.6-7.8v-34h22.3v-7.5h-22.4v-16.3h-8.8v16.3h-16.3v7.5h16.3V1196C1710.7,1206.6,1718.1,1211.2,1727.6,1211.2Zm34.8-.2h9v-34.2c0-9.8,6.8-15.6,15.4-15.6s13.6,5.9,13.6,15.3V1211h9v-36.4c0-13.4-8.7-21.6-20.2-21.6-9,0-14.8,4.5-17.5,10.9h-.7v-30.5h-8.6Zm85.6,1.1c10.4,0,16.4-6.3,18.4-11h.9v9.9h8.2v-37.7c0-12-8.1-20.3-21.5-20.3s-20.4,6.3-22.9,16.1h8.6c1.5-4.9,7.1-8.4,13.2-8.4,9.1,0,14.2,4.8,14.2,12.7v4.1h-16.5c-14,0-22.1,7.4-22.1,18.1C1828.5,1204.6,1835.6,1212.1,1848,1212.1Zm-10.8-17.6c0-6.4,6.2-10,14.2-10h15.7v6c0,7.9-9.3,14.1-16.4,14.1S1837.2,1201.1,1837.2,1194.5Zm90.7,16.7h13v-7.8h-12.5c-4.4,0-8.5-1.8-8.5-7.8v-34h22.3v-7.5h-22.4v-16.3h-8.9v16.3h-16.2v7.5h16.2V1196C1910.9,1206.6,1918.4,1211.2,1927.9,1211.2Zm108.5,20h17.1c14.4,0,22.7-6.7,22.7-20.1v-57h-8.5v9.8h-.9c-2.7-6.4-9.2-10.9-18.2-10.9-11.4,0-20.8,8.2-20.8,21.6v11c0,13.4,9.4,21.6,20.8,21.6,9,0,15.4-4.5,18.1-10.9h.6v14.1c0,9.3-4.5,13-13.8,13h-17Zm.4-47.5v-7.2c0-9.4,5.8-15.3,14.2-15.3s16.2,5.8,16.2,15.6v6.6c0,9.8-7.6,15.6-16.2,15.6S2036.8,1193.1,2036.8,1183.7Zm82.9,28.4c15.1,0,24.7-9.2,24.7-24.7v-9.8c0-15.5-9.6-24.6-24.7-24.6s-24.7,9.1-24.7,24.6v9.8C2095,1202.9,2104.6,1212.1,2119.7,1212.1Zm-15.9-25.6v-8.1c0-11.3,6.1-17.6,15.9-17.6s15.9,6.3,15.9,17.6v8.1c0,11.4-6.1,17.7-15.9,17.7S2103.8,1197.9,2103.8,1186.5Zm82.7,25.6c15.1,0,24.7-9.2,24.7-24.7v-9.8c0-15.5-9.6-24.6-24.7-24.6s-24.8,9.1-24.8,24.6v9.8C2161.7,1202.9,2171.3,1212.1,2186.5,1212.1Zm-15.9-25.6v-8.1c0-11.3,6.1-17.6,15.9-17.6s15.8,6.3,15.8,17.6v8.1c0,11.4-6,17.7-15.8,17.7S2170.6,1197.9,2170.6,1186.5Zm78.3,25.6c9,0,15.5-4.5,18.2-11h.8v9.9h8.6v-77.6h-9v30.5h-.6c-2.7-6.4-9-10.9-18-10.9-11.4,0-20.8,8.2-20.8,21.6v15.8C2228.1,1203.9,2237.5,1212.1,2248.9,1212.1Zm-11.9-23.5v-12.1c0-9.4,5.8-15.3,14.3-15.3s16.2,5.8,16.2,15.6v11.4c0,9.8-7.6,15.7-16.2,15.7S2237,1198,2237,1188.6Zm126.3,22.4h8.9v-34.2c0-9.8,6.9-15.6,15.5-15.6s13.6,5.9,13.6,15.3V1211h8.9v-36.4c0-13.4-8.7-21.6-20.1-21.6-9,0-14.7,4.5-17.4,10.9h-.9v-9.8h-8.5Zm67.6,0h47.7v-7.5H2460v-49.4h-26.6v7.4H2451v42h-20.1Zm16.7-77a7.4,7.4,0,1,0,7.3-7.2A7.1,7.1,0,0,0,2447.6,1134Zm56.2,97.2h17.1c14.3,0,22.6-6.7,22.6-20.1v-57H2535v9.8h-.9c-2.6-6.4-9.1-10.9-18.1-10.9-11.5,0-20.9,8.2-20.9,21.6v11c0,13.4,9.4,21.6,20.9,21.6,9,0,15.4-4.5,18-10.9h.7v14.1c0,9.3-4.6,13-13.8,13h-17.1Zm.3-47.5v-7.2c0-9.4,5.8-15.3,14.2-15.3s16.3,5.8,16.3,15.6v6.6c0,9.8-7.6,15.6-16.3,15.6S2504.1,1193.1,2504.1,1183.7Zm59.5,27.3h8.9v-34.2c0-9.8,6.8-15.6,15.5-15.6s13.5,5.9,13.5,15.3V1211h9v-36.4c0-13.4-8.7-21.6-20.1-21.6-9,0-14.9,4.5-17.5,10.9h-.8v-30.5h-8.5Zm98.7.2h13v-7.8h-12.5c-4.5,0-8.5-1.8-8.5-7.8v-34h22.2v-7.5h-22.3v-16.3h-8.9v16.3h-16.2v7.5h16.2V1196C2645.3,1206.6,2652.8,1211.2,2662.3,1211.2Zm58.3.9a9.7,9.7,0,0,0,9.8-9.8,9.8,9.8,0,1,0-9.8,9.8Z" style="fill:#fff"/></svg>