<svg width="14162" height="5356" viewBox="0 0 14162 5356" fill="none" xmlns="http://www.w3.org/2000/svg">
<rect width="14162" height="5356" rx="128" fill="#00333F"/>
<path d="M792.227 974.219C828.297 974.219 854.242 956.289 865 930.555H868.375V970H902.547V659.5H866.688V781.633H864.156C853.398 755.898 828.297 737.969 792.227 737.969C746.453 737.969 708.906 770.664 708.906 824.453V887.734C708.906 941.523 746.453 974.219 792.227 974.219ZM744.766 880.352V831.836C744.766 794.289 767.969 770.664 801.719 770.664C836.312 770.664 866.688 794.078 866.688 833.312V878.875C866.688 918.109 836.312 941.523 801.719 941.523C767.969 941.523 744.766 917.898 744.766 880.352ZM1076.57 974.219C1137.11 974.219 1175.5 937.727 1175.5 875.5V836.477C1175.5 774.25 1137.11 737.969 1076.57 737.969C1016.03 737.969 977.641 774.25 977.641 836.477V875.5C977.641 937.727 1016.03 974.219 1076.57 974.219ZM1013.08 872.125V839.641C1013.08 794.289 1037.34 769.188 1076.57 769.188C1115.8 769.188 1140.06 794.289 1140.06 839.641V872.125C1140.06 917.688 1115.8 943 1076.57 943C1037.34 943 1013.08 917.688 1013.08 872.125ZM1516.8 970H1552.66V833.312C1552.66 794.078 1579.87 770.664 1614.46 770.664C1648.21 770.664 1668.67 794.289 1668.67 831.836V970H1704.53V824.453C1704.53 770.664 1669.73 737.969 1623.95 737.969C1587.88 737.969 1565.1 755.898 1554.34 781.633H1550.97V742.188H1516.8V970ZM1877.71 974.219C1938.25 974.219 1976.64 937.727 1976.64 875.5V836.477C1976.64 774.25 1938.25 737.969 1877.71 737.969C1817.17 737.969 1778.78 774.25 1778.78 836.477V875.5C1778.78 937.727 1817.17 974.219 1877.71 974.219ZM1814.22 872.125V839.641C1814.22 794.289 1838.48 769.188 1877.71 769.188C1916.95 769.188 1941.2 794.289 1941.2 839.641V872.125C1941.2 917.688 1916.95 943 1877.71 943C1838.48 943 1814.22 917.688 1814.22 872.125ZM2178.72 970.844H2230.61V939.625H2180.83C2162.9 939.625 2146.66 932.242 2146.66 908.195V772.562H2235.67V742.188H2146.23V677.219H2110.8V742.188H2045.83V772.562H2110.8V909.883C2110.8 952.492 2140.75 970.844 2178.72 970.844ZM2612.83 1051H2681.17C2738.55 1051 2771.88 1024 2771.88 970.422V742.188H2737.7V781.633H2734.33C2723.57 755.898 2697.62 737.969 2661.55 737.969C2615.78 737.969 2578.23 770.664 2578.23 824.453V868.328C2578.23 922.117 2615.78 954.812 2661.55 954.812C2697.62 954.812 2723.15 936.883 2733.91 911.148H2736.44V967.68C2736.44 1004.8 2718.3 1019.78 2681.17 1019.78H2613.04L2612.83 1051ZM2614.09 860.945V831.836C2614.09 794.289 2637.3 770.664 2671.05 770.664C2705.64 770.664 2736.02 794.078 2736.02 833.312V859.469C2736.02 898.703 2705.64 922.117 2671.05 922.117C2637.3 922.117 2614.09 898.492 2614.09 860.945ZM2945.9 974.219C3006.44 974.219 3044.83 937.727 3044.83 875.5V836.477C3044.83 774.25 3006.44 737.969 2945.9 737.969C2885.36 737.969 2846.97 774.25 2846.97 836.477V875.5C2846.97 937.727 2885.36 974.219 2945.9 974.219ZM2882.41 872.125V839.641C2882.41 794.289 2906.66 769.188 2945.9 769.188C2985.13 769.188 3009.39 794.289 3009.39 839.641V872.125C3009.39 917.688 2985.13 943 2945.9 943C2906.66 943 2882.41 917.688 2882.41 872.125ZM3413.97 1051H3482.31C3539.69 1051 3573.02 1024 3573.02 970.422V742.188H3538.84V781.633H3535.47C3524.71 755.898 3498.77 737.969 3462.7 737.969C3416.92 737.969 3379.38 770.664 3379.38 824.453V868.328C3379.38 922.117 3416.92 954.812 3462.7 954.812C3498.77 954.812 3524.29 936.883 3535.05 911.148H3537.58V967.68C3537.58 1004.8 3519.44 1019.78 3482.31 1019.78H3414.18L3413.97 1051ZM3415.23 860.945V831.836C3415.23 794.289 3438.44 770.664 3472.19 770.664C3506.78 770.664 3537.16 794.078 3537.16 833.312V859.469C3537.16 898.703 3506.78 922.117 3472.19 922.117C3438.44 922.117 3415.23 898.492 3415.23 860.945ZM3747.04 974.219C3797.45 974.219 3834.16 948.062 3844.28 903.766H3806.95C3799.14 928.023 3776.15 943.422 3747.04 943.422C3707.8 943.422 3683.55 917.688 3683.55 872.125V864.531H3845.97V838.797C3845.97 775.938 3807.79 737.969 3747.04 737.969C3686.5 737.969 3648.11 775.516 3648.11 838.586V875.5C3648.11 936.672 3686.5 974.219 3747.04 974.219ZM3683.55 835.422C3685.02 792.18 3709.07 768.766 3747.04 768.766C3785.01 768.766 3809.05 792.18 3810.53 835.422H3683.55ZM3920.22 970H3956.08V833.312C3956.08 794.078 3983.29 770.664 4017.88 770.664C4051.63 770.664 4072.09 794.289 4072.09 831.836V970H4107.95V824.453C4107.95 770.664 4073.15 737.969 4027.38 737.969C3991.3 737.969 3968.52 755.898 3957.77 781.633H3954.39V742.188H3920.22V970ZM4315.09 970.844H4366.98V939.625H4317.2C4299.27 939.625 4283.03 932.242 4283.03 908.195V772.562H4372.05V742.188H4282.61V677.219H4247.17V742.188H4182.2V772.562H4247.17V909.883C4247.17 952.492 4277.12 970.844 4315.09 970.844ZM4457.69 970H4648.38V940.047H4574.12V666.25H4467.81V696.203H4538.27V940.047H4457.69V970ZM4815.23 974.219C4865.64 974.219 4902.34 948.062 4912.47 903.766H4875.13C4867.33 928.023 4844.34 943.422 4815.23 943.422C4775.99 943.422 4751.73 917.688 4751.73 872.125V864.531H4914.16V838.797C4914.16 775.938 4875.98 737.969 4815.23 737.969C4754.69 737.969 4716.3 775.516 4716.3 838.586V875.5C4716.3 936.672 4754.69 974.219 4815.23 974.219ZM4751.73 835.422C4753.21 792.18 4777.26 768.766 4815.23 768.766C4853.2 768.766 4877.24 792.18 4878.72 835.422H4751.73ZM5258.83 970H5449.52V940.047H5375.27V742.188H5268.95V772.141H5339.41V940.047H5258.83V970ZM5325.48 662.031C5325.48 678.484 5338.35 690.719 5355.02 690.719C5371.68 690.719 5384.55 678.484 5384.55 662.031C5384.55 645.578 5371.68 633.344 5355.02 633.344C5338.35 633.344 5325.48 645.578 5325.48 662.031ZM5522.5 970H5558.36V833.312C5558.36 794.078 5585.57 770.664 5620.16 770.664C5653.91 770.664 5674.38 794.289 5674.38 831.836V970H5710.23V824.453C5710.23 770.664 5675.43 737.969 5629.66 737.969C5593.59 737.969 5570.8 755.898 5560.05 781.633H5556.67V742.188H5522.5V970ZM5917.38 970.844H5969.27V939.625H5919.48C5901.55 939.625 5885.31 932.242 5885.31 908.195V772.562H5974.33V742.188H5884.89V677.219H5849.45V742.188H5784.48V772.562H5849.45V909.883C5849.45 952.492 5879.41 970.844 5917.38 970.844ZM6150.46 974.219C6211 974.219 6249.39 937.727 6249.39 875.5V836.477C6249.39 774.25 6211 737.969 6150.46 737.969C6089.92 737.969 6051.53 774.25 6051.53 836.477V875.5C6051.53 937.727 6089.92 974.219 6150.46 974.219ZM6086.97 872.125V839.641C6086.97 794.289 6111.23 769.188 6150.46 769.188C6189.7 769.188 6213.95 794.289 6213.95 839.641V872.125C6213.95 917.688 6189.7 943 6150.46 943C6111.23 943 6086.97 917.688 6086.97 872.125ZM6718.52 970.844H6770.41V939.625H6720.62C6702.7 939.625 6686.45 932.242 6686.45 908.195V772.562H6775.47V742.188H6686.03V677.219H6650.59V742.188H6585.62V772.562H6650.59V909.883C6650.59 952.492 6680.55 970.844 6718.52 970.844ZM6857.73 970H6893.59V833.312C6893.59 794.078 6920.8 770.664 6955.4 770.664C6989.15 770.664 7009.61 794.289 7009.61 831.836V970H7045.47V824.453C7045.47 770.664 7010.66 737.969 6964.89 737.969C6928.82 737.969 6905.62 755.898 6894.86 781.633H6891.91V659.5H6857.73V970ZM7199.88 974.219C7241.64 974.219 7265.48 949.328 7273.7 930.555H7277.08V970H7309.98V819.18C7309.98 771.086 7277.71 737.969 7223.92 737.969C7174.77 737.969 7142.5 763.281 7132.38 802.516H7166.97C7172.88 782.688 7195.23 768.766 7219.49 768.766C7255.98 768.766 7276.23 788.172 7276.23 819.812V835.844H7210.42C7154.31 835.844 7121.83 865.586 7121.83 908.406C7121.83 944.477 7150.52 974.219 7199.88 974.219ZM7156.84 903.977C7156.84 878.453 7181.52 864.109 7213.59 864.109H7276.23V888.156C7276.23 919.586 7239.32 944.266 7210.84 944.266C7180.68 944.266 7156.84 930.344 7156.84 903.977ZM7519.66 970.844H7571.55V939.625H7521.77C7503.84 939.625 7487.59 932.242 7487.59 908.195V772.562H7576.61V742.188H7487.17V677.219H7451.73V742.188H7386.77V772.562H7451.73V909.883C7451.73 952.492 7481.69 970.844 7519.66 970.844ZM7953.77 1051H8022.11C8079.48 1051 8112.81 1024 8112.81 970.422V742.188H8078.64V781.633H8075.27C8064.51 755.898 8038.56 737.969 8002.49 737.969C7956.72 737.969 7919.17 770.664 7919.17 824.453V868.328C7919.17 922.117 7956.72 954.812 8002.49 954.812C8038.56 954.812 8064.09 936.883 8074.84 911.148H8077.38V967.68C8077.38 1004.8 8059.23 1019.78 8022.11 1019.78H7953.98L7953.77 1051ZM7955.03 860.945V831.836C7955.03 794.289 7978.23 770.664 8011.98 770.664C8046.58 770.664 8076.95 794.078 8076.95 833.312V859.469C8076.95 898.703 8046.58 922.117 8011.98 922.117C7978.23 922.117 7955.03 898.492 7955.03 860.945ZM8286.84 974.219C8347.38 974.219 8385.77 937.727 8385.77 875.5V836.477C8385.77 774.25 8347.38 737.969 8286.84 737.969C8226.3 737.969 8187.91 774.25 8187.91 836.477V875.5C8187.91 937.727 8226.3 974.219 8286.84 974.219ZM8223.34 872.125V839.641C8223.34 794.289 8247.6 769.188 8286.84 769.188C8326.07 769.188 8350.33 794.289 8350.33 839.641V872.125C8350.33 917.688 8326.07 943 8286.84 943C8247.6 943 8223.34 917.688 8223.34 872.125ZM8553.88 974.219C8614.42 974.219 8652.81 937.727 8652.81 875.5V836.477C8652.81 774.25 8614.42 737.969 8553.88 737.969C8493.34 737.969 8454.95 774.25 8454.95 836.477V875.5C8454.95 937.727 8493.34 974.219 8553.88 974.219ZM8490.39 872.125V839.641C8490.39 794.289 8514.65 769.188 8553.88 769.188C8593.12 769.188 8617.38 794.289 8617.38 839.641V872.125C8617.38 917.688 8593.12 943 8553.88 943C8514.65 943 8490.39 917.688 8490.39 872.125ZM8803.63 974.219C8839.7 974.219 8865.65 956.289 8876.41 930.555H8879.78V970H8913.95V659.5H8878.09V781.633H8875.56C8864.8 755.898 8839.7 737.969 8803.63 737.969C8757.86 737.969 8720.31 770.664 8720.31 824.453V887.734C8720.31 941.523 8757.86 974.219 8803.63 974.219ZM8756.17 880.352V831.836C8756.17 794.289 8779.38 770.664 8813.12 770.664C8847.72 770.664 8878.09 794.078 8878.09 833.312V878.875C8878.09 918.109 8847.72 941.523 8813.12 941.523C8779.38 941.523 8756.17 917.898 8756.17 880.352ZM9261.16 970H9297.02V833.312C9297.02 794.078 9324.23 770.664 9358.82 770.664C9392.57 770.664 9413.03 794.289 9413.03 831.836V970H9448.89V824.453C9448.89 770.664 9414.09 737.969 9368.31 737.969C9332.24 737.969 9309.46 755.898 9298.7 781.633H9295.33V742.188H9261.16V970ZM9531.58 970H9722.27V940.047H9648.02V742.188H9541.7V772.141H9612.16V940.047H9531.58V970ZM9598.23 662.031C9598.23 678.484 9611.1 690.719 9627.77 690.719C9644.43 690.719 9657.3 678.484 9657.3 662.031C9657.3 645.578 9644.43 633.344 9627.77 633.344C9611.1 633.344 9598.23 645.578 9598.23 662.031ZM9823.09 1051H9891.44C9948.81 1051 9982.14 1024 9982.14 970.422V742.188H9947.97V781.633H9944.59C9933.84 755.898 9907.89 737.969 9871.82 737.969C9826.05 737.969 9788.5 770.664 9788.5 824.453V868.328C9788.5 922.117 9826.05 954.812 9871.82 954.812C9907.89 954.812 9933.41 936.883 9944.17 911.148H9946.7V967.68C9946.7 1004.8 9928.56 1019.78 9891.44 1019.78H9823.3L9823.09 1051ZM9824.36 860.945V831.836C9824.36 794.289 9847.56 770.664 9881.31 770.664C9915.91 770.664 9946.28 794.078 9946.28 833.312V859.469C9946.28 898.703 9915.91 922.117 9881.31 922.117C9847.56 922.117 9824.36 898.492 9824.36 860.945ZM10062.3 970H10098.2V833.312C10098.2 794.078 10125.4 770.664 10160 770.664C10193.7 770.664 10214.2 794.289 10214.2 831.836V970H10250V824.453C10250 770.664 10215.2 737.969 10169.5 737.969C10133.4 737.969 10110.2 755.898 10099.4 781.633H10096.5V659.5H10062.3V970ZM10457.2 970.844H10509.1V939.625H10459.3C10441.4 939.625 10425.1 932.242 10425.1 908.195V772.562H10514.1V742.188H10424.7V677.219H10389.2V742.188H10324.3V772.562H10389.2V909.883C10389.2 952.492 10419.2 970.844 10457.2 970.844ZM10678.7 1035.81L10727.6 894.906H10675.3L10643.2 1035.81H10678.7ZM809.523 1579.22C870.062 1579.22 908.453 1542.73 908.453 1480.5V1441.48C908.453 1379.25 870.062 1342.97 809.523 1342.97C748.984 1342.97 710.594 1379.25 710.594 1441.48V1480.5C710.594 1542.73 748.984 1579.22 809.523 1579.22ZM746.031 1477.12V1444.64C746.031 1399.29 770.289 1374.19 809.523 1374.19C848.758 1374.19 873.016 1399.29 873.016 1444.64V1477.12C873.016 1522.69 848.758 1548 809.523 1548C770.289 1548 746.031 1522.69 746.031 1477.12ZM986.078 1575H1176.77V1545.05H1102.52V1271.25H996.203V1301.2H1066.66V1545.05H986.078V1575ZM1326.32 1579.22C1362.39 1579.22 1388.34 1561.29 1399.09 1535.55H1402.47V1575H1436.64V1264.5H1400.78V1386.63H1398.25C1387.49 1360.9 1362.39 1342.97 1326.32 1342.97C1280.55 1342.97 1243 1375.66 1243 1429.45V1492.73C1243 1546.52 1280.55 1579.22 1326.32 1579.22ZM1278.86 1485.35V1436.84C1278.86 1399.29 1302.06 1375.66 1335.81 1375.66C1370.41 1375.66 1400.78 1399.08 1400.78 1438.31V1483.88C1400.78 1523.11 1370.41 1546.52 1335.81 1546.52C1302.06 1546.52 1278.86 1522.9 1278.86 1485.35ZM1858.94 1579.22C1900.7 1579.22 1924.54 1554.33 1932.77 1535.55H1936.14V1575H1969.05V1424.18C1969.05 1376.09 1936.77 1342.97 1882.98 1342.97C1833.84 1342.97 1801.56 1368.28 1791.44 1407.52H1826.03C1831.94 1387.69 1854.3 1373.77 1878.55 1373.77C1915.05 1373.77 1935.3 1393.17 1935.3 1424.81V1440.84H1869.48C1813.38 1440.84 1780.89 1470.59 1780.89 1513.41C1780.89 1549.48 1809.58 1579.22 1858.94 1579.22ZM1815.91 1508.98C1815.91 1483.45 1840.59 1469.11 1872.65 1469.11H1935.3V1493.16C1935.3 1524.59 1898.38 1549.27 1869.91 1549.27C1839.74 1549.27 1815.91 1535.34 1815.91 1508.98ZM2078.73 1656H2147.08C2204.45 1656 2237.78 1629 2237.78 1575.42V1347.19H2203.61V1386.63H2200.23C2189.48 1360.9 2163.53 1342.97 2127.46 1342.97C2081.69 1342.97 2044.14 1375.66 2044.14 1429.45V1473.33C2044.14 1527.12 2081.69 1559.81 2127.46 1559.81C2163.53 1559.81 2189.05 1541.88 2199.81 1516.15H2202.34V1572.68C2202.34 1609.8 2184.2 1624.78 2147.08 1624.78H2078.95L2078.73 1656ZM2080 1465.95V1436.84C2080 1399.29 2103.2 1375.66 2136.95 1375.66C2171.55 1375.66 2201.92 1399.08 2201.92 1438.31V1464.47C2201.92 1503.7 2171.55 1527.12 2136.95 1527.12C2103.2 1527.12 2080 1503.49 2080 1465.95ZM2411.8 1579.22C2462.22 1579.22 2498.92 1553.06 2509.05 1508.77H2471.71C2463.91 1533.02 2440.91 1548.42 2411.8 1548.42C2372.57 1548.42 2348.31 1522.69 2348.31 1477.12V1469.53H2510.73V1443.8C2510.73 1380.94 2472.55 1342.97 2411.8 1342.97C2351.27 1342.97 2312.88 1380.52 2312.88 1443.59V1480.5C2312.88 1541.67 2351.27 1579.22 2411.8 1579.22ZM2348.31 1440.42C2349.79 1397.18 2373.84 1373.77 2411.8 1373.77C2449.77 1373.77 2473.82 1397.18 2475.3 1440.42H2348.31ZM2945.69 1579.22C2999.69 1579.22 3035.34 1554.96 3035.34 1512.98C3035.34 1480.08 3015.51 1457.51 2970.79 1447.59L2940.62 1440.84C2911.94 1434.52 2898.23 1423.97 2898.23 1404.56C2898.23 1383.89 2917.21 1372.5 2946.32 1372.5C2973.11 1372.5 2991.67 1384.73 2995.89 1404.56H3030.48C3026.05 1366.38 2994.41 1342.97 2946.95 1342.97C2896.75 1342.97 2862.58 1367.44 2862.58 1406.88C2862.58 1439.37 2883.04 1462.36 2924.17 1471.43L2954.76 1478.18C2980.7 1483.88 2998.21 1496.53 2998.21 1516.36C2998.21 1538.09 2978.38 1549.27 2947.16 1549.27C2917.63 1549.27 2897.8 1537.03 2892.53 1516.15H2856.04C2860.26 1555.38 2894.01 1579.22 2945.69 1579.22ZM3119.08 1575H3154.94V1438.31C3154.94 1399.08 3182.15 1375.66 3216.74 1375.66C3250.49 1375.66 3270.95 1399.29 3270.95 1436.84V1575H3306.81V1429.45C3306.81 1375.66 3272.01 1342.97 3226.23 1342.97C3190.16 1342.97 3166.96 1360.9 3156.2 1386.63H3153.25V1264.5H3119.08V1575ZM3479.99 1579.22C3540.53 1579.22 3578.92 1542.73 3578.92 1480.5V1441.48C3578.92 1379.25 3540.53 1342.97 3479.99 1342.97C3419.45 1342.97 3381.06 1379.25 3381.06 1441.48V1480.5C3381.06 1542.73 3419.45 1579.22 3479.99 1579.22ZM3416.5 1477.12V1444.64C3416.5 1399.29 3440.76 1374.19 3479.99 1374.19C3519.23 1374.19 3543.48 1399.29 3543.48 1444.64V1477.12C3543.48 1522.69 3519.23 1548 3479.99 1548C3440.76 1548 3416.5 1522.69 3416.5 1477.12ZM3733.75 1579.22C3769.82 1579.22 3792.6 1561.29 3803.36 1535.55H3806.73V1575H3840.91V1347.19H3805.05V1483.88C3805.05 1523.11 3777.84 1546.52 3743.24 1546.52C3709.49 1546.52 3689.03 1522.9 3689.03 1485.35V1347.19H3653.17V1492.73C3653.17 1546.52 3687.98 1579.22 3733.75 1579.22ZM3923.59 1575H4114.28V1545.05H4040.03V1271.25H3933.72V1301.2H4004.17V1545.05H3923.59V1575ZM4263.84 1579.22C4299.91 1579.22 4325.85 1561.29 4336.61 1535.55H4339.98V1575H4374.16V1264.5H4338.3V1386.63H4335.77C4325.01 1360.9 4299.91 1342.97 4263.84 1342.97C4218.06 1342.97 4180.52 1375.66 4180.52 1429.45V1492.73C4180.52 1546.52 4218.06 1579.22 4263.84 1579.22ZM4216.38 1485.35V1436.84C4216.38 1399.29 4239.58 1375.66 4273.33 1375.66C4307.92 1375.66 4338.3 1399.08 4338.3 1438.31V1483.88C4338.3 1523.11 4307.92 1546.52 4273.33 1546.52C4239.58 1546.52 4216.38 1522.9 4216.38 1485.35ZM4832.52 1579.22C4878.3 1579.22 4915.84 1546.52 4915.84 1492.73V1429.45C4915.84 1375.66 4878.3 1342.97 4832.52 1342.97C4796.45 1342.97 4771.35 1360.9 4760.59 1386.63H4758.06V1264.5H4722.2V1575H4756.38V1535.55H4759.75C4770.51 1561.29 4796.45 1579.22 4832.52 1579.22ZM4758.06 1483.88V1438.31C4758.06 1399.08 4788.44 1375.66 4823.03 1375.66C4856.78 1375.66 4879.98 1399.29 4879.98 1436.84V1485.35C4879.98 1522.9 4856.78 1546.52 4823.03 1546.52C4788.44 1546.52 4758.06 1523.11 4758.06 1483.88ZM5068.98 1579.22C5105.05 1579.22 5127.84 1561.29 5138.59 1535.55H5141.97V1575H5176.14V1347.19H5140.28V1483.88C5140.28 1523.11 5113.07 1546.52 5078.48 1546.52C5044.73 1546.52 5024.27 1522.9 5024.27 1485.35V1347.19H4988.41V1492.73C4988.41 1546.52 5023.21 1579.22 5068.98 1579.22ZM5257.98 1575H5406.91V1545.05H5332.66V1454.34C5332.66 1399.08 5371.89 1378.41 5410.28 1378.41C5426.31 1378.41 5443.61 1382.2 5457.32 1388.74V1352.88C5445.3 1345.71 5433.7 1342.97 5415.13 1342.97C5370.2 1342.97 5345.95 1364.06 5336.03 1397.81H5332.66V1347.19H5263.05V1377.14H5296.8V1545.05H5257.98V1575ZM5522.5 1575H5558.36V1438.31C5558.36 1399.08 5585.57 1375.66 5620.16 1375.66C5653.91 1375.66 5674.38 1399.29 5674.38 1436.84V1575H5710.23V1429.45C5710.23 1375.66 5675.43 1342.97 5629.66 1342.97C5593.59 1342.97 5570.8 1360.9 5560.05 1386.63H5556.67V1347.19H5522.5V1575ZM6131.69 1579.22C6173.45 1579.22 6197.29 1554.33 6205.52 1535.55H6208.89V1575H6241.8V1424.18C6241.8 1376.09 6209.52 1342.97 6155.73 1342.97C6106.59 1342.97 6074.31 1368.28 6064.19 1407.52H6098.78C6104.69 1387.69 6127.05 1373.77 6151.3 1373.77C6187.8 1373.77 6208.05 1393.17 6208.05 1424.81V1440.84H6142.23C6086.12 1440.84 6053.64 1470.59 6053.64 1513.41C6053.64 1549.48 6082.33 1579.22 6131.69 1579.22ZM6088.66 1508.98C6088.66 1483.45 6113.34 1469.11 6145.4 1469.11H6208.05V1493.16C6208.05 1524.59 6171.13 1549.27 6142.66 1549.27C6112.49 1549.27 6088.66 1535.34 6088.66 1508.98ZM6323.64 1575H6359.5V1438.31C6359.5 1399.08 6386.71 1375.66 6421.3 1375.66C6455.05 1375.66 6475.52 1399.29 6475.52 1436.84V1575H6511.38V1429.45C6511.38 1375.66 6476.57 1342.97 6430.8 1342.97C6394.73 1342.97 6371.95 1360.9 6361.19 1386.63H6357.81V1347.19H6323.64V1575ZM6667.26 1579.22C6703.33 1579.22 6729.27 1561.29 6740.03 1535.55H6743.41V1575H6777.58V1264.5H6741.72V1386.63H6739.19C6728.43 1360.9 6703.33 1342.97 6667.26 1342.97C6621.48 1342.97 6583.94 1375.66 6583.94 1429.45V1492.73C6583.94 1546.52 6621.48 1579.22 6667.26 1579.22ZM6619.8 1485.35V1436.84C6619.8 1399.29 6643 1375.66 6676.75 1375.66C6711.34 1375.66 6741.72 1399.08 6741.72 1438.31V1483.88C6741.72 1523.11 6711.34 1546.52 6676.75 1546.52C6643 1546.52 6619.8 1522.9 6619.8 1485.35ZM7127.31 1575H7276.23V1545.05H7201.98V1454.34C7201.98 1399.08 7241.22 1378.41 7279.61 1378.41C7295.64 1378.41 7312.94 1382.2 7326.65 1388.74V1352.88C7314.62 1345.71 7303.02 1342.97 7284.46 1342.97C7239.53 1342.97 7215.27 1364.06 7205.36 1397.81H7201.98V1347.19H7132.38V1377.14H7166.12V1545.05H7127.31V1575ZM7466.92 1579.22C7508.69 1579.22 7532.52 1554.33 7540.75 1535.55H7544.12V1575H7577.03V1424.18C7577.03 1376.09 7544.76 1342.97 7490.97 1342.97C7441.82 1342.97 7409.55 1368.28 7399.42 1407.52H7434.02C7439.92 1387.69 7462.28 1373.77 7486.54 1373.77C7523.03 1373.77 7543.28 1393.17 7543.28 1424.81V1440.84H7477.47C7421.36 1440.84 7388.88 1470.59 7388.88 1513.41C7388.88 1549.48 7417.56 1579.22 7466.92 1579.22ZM7423.89 1508.98C7423.89 1483.45 7448.57 1469.11 7480.63 1469.11H7543.28V1493.16C7543.28 1524.59 7506.37 1549.27 7477.89 1549.27C7447.73 1549.27 7423.89 1535.34 7423.89 1508.98ZM7734.81 1575H7770.67L7854.84 1347.19H7817.08L7753.8 1528.8H7751.69L7688.41 1347.19H7650.65L7734.81 1575ZM8019.79 1579.22C8070.2 1579.22 8106.91 1553.06 8117.03 1508.77H8079.7C8071.89 1533.02 8048.9 1548.42 8019.79 1548.42C7980.55 1548.42 7956.3 1522.69 7956.3 1477.12V1469.53H8118.72V1443.8C8118.72 1380.94 8080.54 1342.97 8019.79 1342.97C7959.25 1342.97 7920.86 1380.52 7920.86 1443.59V1480.5C7920.86 1541.67 7959.25 1579.22 8019.79 1579.22ZM7956.3 1440.42C7957.77 1397.18 7981.82 1373.77 8019.79 1373.77C8057.76 1373.77 8081.8 1397.18 8083.28 1440.42H7956.3ZM8535.11 1579.22C8576.88 1579.22 8600.71 1554.33 8608.94 1535.55H8612.31V1575H8645.22V1424.18C8645.22 1376.09 8612.95 1342.97 8559.16 1342.97C8510.01 1342.97 8477.73 1368.28 8467.61 1407.52H8502.2C8508.11 1387.69 8530.47 1373.77 8554.73 1373.77C8591.22 1373.77 8611.47 1393.17 8611.47 1424.81V1440.84H8545.66C8489.55 1440.84 8457.06 1470.59 8457.06 1513.41C8457.06 1549.48 8485.75 1579.22 8535.11 1579.22ZM8492.08 1508.98C8492.08 1483.45 8516.76 1469.11 8548.82 1469.11H8611.47V1493.16C8611.47 1524.59 8574.55 1549.27 8546.08 1549.27C8515.91 1549.27 8492.08 1535.34 8492.08 1508.98ZM8854.89 1575.84H8906.78V1544.62H8857C8839.07 1544.62 8822.83 1537.24 8822.83 1513.2V1377.56H8911.84V1347.19H8822.41V1282.22H8786.97V1347.19H8722V1377.56H8786.97V1514.88C8786.97 1557.49 8816.92 1575.84 8854.89 1575.84ZM9355.02 1579.22C9408.18 1579.22 9443.41 1552.22 9452.69 1505.81H9415.98C9407.55 1533.45 9386.45 1548 9355.02 1548C9315.79 1548 9291.53 1522.69 9291.53 1477.12V1444.64C9291.53 1399.29 9315.79 1374.19 9355.02 1374.19C9386.45 1374.19 9407.76 1389.16 9415.98 1417.22H9452.69C9443.41 1370.6 9408.18 1342.97 9355.02 1342.97C9294.48 1342.97 9256.09 1379.25 9256.09 1441.48V1480.5C9256.09 1542.73 9294.48 1579.22 9355.02 1579.22ZM9531.58 1575H9722.27V1545.05H9648.02V1271.25H9541.7V1301.2H9612.16V1545.05H9531.58V1575ZM9889.12 1579.22C9949.66 1579.22 9988.05 1542.73 9988.05 1480.5V1441.48C9988.05 1379.25 9949.66 1342.97 9889.12 1342.97C9828.58 1342.97 9790.19 1379.25 9790.19 1441.48V1480.5C9790.19 1542.73 9828.58 1579.22 9889.12 1579.22ZM9825.62 1477.12V1444.64C9825.62 1399.29 9849.88 1374.19 9889.12 1374.19C9928.35 1374.19 9952.61 1399.29 9952.61 1444.64V1477.12C9952.61 1522.69 9928.35 1548 9889.12 1548C9849.88 1548 9825.62 1522.69 9825.62 1477.12ZM10156 1579.22C10210 1579.22 10245.6 1554.96 10245.6 1512.98C10245.6 1480.08 10225.8 1457.51 10181.1 1447.59L10150.9 1440.84C10122.2 1434.52 10108.5 1423.97 10108.5 1404.56C10108.5 1383.89 10127.5 1372.5 10156.6 1372.5C10183.4 1372.5 10201.9 1384.73 10206.2 1404.56H10240.8C10236.3 1366.38 10204.7 1342.97 10157.2 1342.97C10107 1342.97 10072.8 1367.44 10072.8 1406.88C10072.8 1439.37 10093.3 1462.36 10134.4 1471.43L10165 1478.18C10191 1483.88 10208.5 1496.53 10208.5 1516.36C10208.5 1538.09 10188.6 1549.27 10157.4 1549.27C10127.9 1549.27 10108.1 1537.03 10102.8 1516.15H10066.3C10070.5 1555.38 10104.3 1579.22 10156 1579.22ZM10423.2 1579.22C10473.6 1579.22 10510.3 1553.06 10520.5 1508.77H10483.1C10475.3 1533.02 10452.3 1548.42 10423.2 1548.42C10384 1548.42 10359.7 1522.69 10359.7 1477.12V1469.53H10522.1V1443.8C10522.1 1380.94 10484 1342.97 10423.2 1342.97C10362.7 1342.97 10324.3 1380.52 10324.3 1443.59V1480.5C10324.3 1541.67 10362.7 1579.22 10423.2 1579.22ZM10359.7 1440.42C10361.2 1397.18 10385.2 1373.77 10423.2 1373.77C10461.2 1373.77 10485.2 1397.18 10486.7 1440.42H10359.7ZM10957.3 1579.22C11017.8 1579.22 11056.2 1542.73 11056.2 1480.5V1441.48C11056.2 1379.25 11017.8 1342.97 10957.3 1342.97C10896.8 1342.97 10858.4 1379.25 10858.4 1441.48V1480.5C10858.4 1542.73 10896.8 1579.22 10957.3 1579.22ZM10893.8 1477.12V1444.64C10893.8 1399.29 10918.1 1374.19 10957.3 1374.19C10996.5 1374.19 11020.8 1399.29 11020.8 1444.64V1477.12C11020.8 1522.69 10996.5 1548 10957.3 1548C10918.1 1548 10893.8 1522.69 10893.8 1477.12ZM11197.1 1575H11232.6V1377.56H11322V1347.19H11233V1327.15C11233 1303.1 11249.2 1295.72 11267.2 1295.72H11317V1264.5H11265.1C11227.1 1264.5 11197.1 1282.85 11197.1 1325.46V1347.19H11132.2V1377.56H11197.1V1575ZM11741.1 1579.22C11777.2 1579.22 11803.2 1561.29 11813.9 1535.55H11817.3V1575H11851.5V1264.5H11815.6V1386.63H11813.1C11802.3 1360.9 11777.2 1342.97 11741.1 1342.97C11695.4 1342.97 11657.8 1375.66 11657.8 1429.45V1492.73C11657.8 1546.52 11695.4 1579.22 11741.1 1579.22ZM11693.7 1485.35V1436.84C11693.7 1399.29 11716.9 1375.66 11750.6 1375.66C11785.2 1375.66 11815.6 1399.08 11815.6 1438.31V1483.88C11815.6 1523.11 11785.2 1546.52 11750.6 1546.52C11716.9 1546.52 11693.7 1522.9 11693.7 1485.35ZM12006.7 1579.22C12048.5 1579.22 12072.3 1554.33 12080.5 1535.55H12083.9V1575H12116.8V1424.18C12116.8 1376.09 12084.6 1342.97 12030.8 1342.97C11981.6 1342.97 11949.3 1368.28 11939.2 1407.52H11973.8C11979.7 1387.69 12002.1 1373.77 12026.3 1373.77C12062.8 1373.77 12083.1 1393.17 12083.1 1424.81V1440.84H12017.3C11961.2 1440.84 11928.7 1470.59 11928.7 1513.41C11928.7 1549.48 11957.4 1579.22 12006.7 1579.22ZM11963.7 1508.98C11963.7 1483.45 11988.4 1469.11 12020.4 1469.11H12083.1V1493.16C12083.1 1524.59 12046.2 1549.27 12017.7 1549.27C11987.5 1549.27 11963.7 1535.34 11963.7 1508.98ZM12206.3 1656H12236.9C12266.4 1656 12286.4 1639.55 12300.6 1601.37L12394.2 1347.19H12356.7L12293.6 1528.38H12291.3L12228.4 1347.19H12190.9L12274.6 1574.79L12266.4 1597.36C12260.3 1614.45 12249.3 1624.78 12229.5 1624.78H12206.3V1656ZM12548 1640.81L12596.9 1499.91H12544.6L12512.5 1640.81H12548ZM718.188 2180H867.109V2150.05H792.859V2059.34C792.859 2004.08 832.094 1983.41 870.484 1983.41C886.516 1983.41 903.812 1987.2 917.523 1993.74V1957.88C905.5 1950.71 893.898 1947.97 875.336 1947.97C830.406 1947.97 806.148 1969.06 796.234 2002.81H792.859V1952.19H723.25V1982.14H757V2150.05H718.188V2180ZM1057.8 2184.22C1099.56 2184.22 1123.4 2159.33 1131.62 2140.55H1135V2180H1167.91V2029.18C1167.91 1981.09 1135.63 1947.97 1081.84 1947.97C1032.7 1947.97 1000.42 1973.28 990.297 2012.52H1024.89C1030.8 1992.69 1053.16 1978.77 1077.41 1978.77C1113.91 1978.77 1134.16 1998.17 1134.16 2029.81V2045.84H1068.34C1012.23 2045.84 979.75 2075.59 979.75 2118.41C979.75 2154.48 1008.44 2184.22 1057.8 2184.22ZM1014.77 2113.98C1014.77 2088.45 1039.45 2074.11 1071.51 2074.11H1134.16V2098.16C1134.16 2129.59 1097.24 2154.27 1068.77 2154.27C1038.6 2154.27 1014.77 2140.34 1014.77 2113.98ZM1277.59 2261H1345.94C1403.31 2261 1436.64 2234 1436.64 2180.42V1952.19H1402.47V1991.63H1399.09C1388.34 1965.9 1362.39 1947.97 1326.32 1947.97C1280.55 1947.97 1243 1980.66 1243 2034.45V2078.33C1243 2132.12 1280.55 2164.81 1326.32 2164.81C1362.39 2164.81 1387.91 2146.88 1398.67 2121.15H1401.2V2177.68C1401.2 2214.8 1383.06 2229.78 1345.94 2229.78H1277.8L1277.59 2261ZM1278.86 2070.95V2041.84C1278.86 2004.29 1302.06 1980.66 1335.81 1980.66C1370.41 1980.66 1400.78 2004.08 1400.78 2043.31V2069.47C1400.78 2108.7 1370.41 2132.12 1335.81 2132.12C1302.06 2132.12 1278.86 2108.49 1278.86 2070.95ZM1610.66 2184.22C1661.08 2184.22 1697.78 2158.06 1707.91 2113.77H1670.57C1662.77 2138.02 1639.77 2153.42 1610.66 2153.42C1571.43 2153.42 1547.17 2127.69 1547.17 2082.12V2074.53H1709.59V2048.8C1709.59 1985.94 1671.41 1947.97 1610.66 1947.97C1550.12 1947.97 1511.73 1985.52 1511.73 2048.59V2085.5C1511.73 2146.67 1550.12 2184.22 1610.66 2184.22ZM1547.17 2045.42C1548.65 2002.18 1572.7 1978.77 1610.66 1978.77C1648.63 1978.77 1672.68 2002.18 1674.16 2045.42H1547.17ZM1866.11 2245.81L1915.05 2104.91H1862.73L1830.67 2245.81H1866.11ZM2320.47 2180H2469.39V2150.05H2395.14V2059.34C2395.14 2004.08 2434.38 1983.41 2472.77 1983.41C2488.8 1983.41 2506.09 1987.2 2519.8 1993.74V1957.88C2507.78 1950.71 2496.18 1947.97 2477.62 1947.97C2432.69 1947.97 2408.43 1969.06 2398.52 2002.81H2395.14V1952.19H2325.53V1982.14H2359.28V2150.05H2320.47V2180ZM2660.08 2184.22C2701.84 2184.22 2725.68 2159.33 2733.91 2140.55H2737.28V2180H2770.19V2029.18C2770.19 1981.09 2737.91 1947.97 2684.12 1947.97C2634.98 1947.97 2602.7 1973.28 2592.58 2012.52H2627.17C2633.08 1992.69 2655.44 1978.77 2679.7 1978.77C2716.19 1978.77 2736.44 1998.17 2736.44 2029.81V2045.84H2670.62C2614.52 2045.84 2582.03 2075.59 2582.03 2118.41C2582.03 2154.48 2610.72 2184.22 2660.08 2184.22ZM2617.05 2113.98C2617.05 2088.45 2641.73 2074.11 2673.79 2074.11H2736.44V2098.16C2736.44 2129.59 2699.52 2154.27 2671.05 2154.27C2640.88 2154.27 2617.05 2140.34 2617.05 2113.98ZM2879.88 2261H2948.22C3005.59 2261 3038.92 2234 3038.92 2180.42V1952.19H3004.75V1991.63H3001.38C2990.62 1965.9 2964.67 1947.97 2928.6 1947.97C2882.83 1947.97 2845.28 1980.66 2845.28 2034.45V2078.33C2845.28 2132.12 2882.83 2164.81 2928.6 2164.81C2964.67 2164.81 2990.2 2146.88 3000.95 2121.15H3003.48V2177.68C3003.48 2214.8 2985.34 2229.78 2948.22 2229.78H2880.09L2879.88 2261ZM2881.14 2070.95V2041.84C2881.14 2004.29 2904.34 1980.66 2938.09 1980.66C2972.69 1980.66 3003.06 2004.08 3003.06 2043.31V2069.47C3003.06 2108.7 2972.69 2132.12 2938.09 2132.12C2904.34 2132.12 2881.14 2108.49 2881.14 2070.95ZM3212.95 2184.22C3263.36 2184.22 3300.06 2158.06 3310.19 2113.77H3272.85C3265.05 2138.02 3242.05 2153.42 3212.95 2153.42C3173.71 2153.42 3149.45 2127.69 3149.45 2082.12V2074.53H3311.88V2048.8C3311.88 1985.94 3273.7 1947.97 3212.95 1947.97C3152.41 1947.97 3114.02 1985.52 3114.02 2048.59V2085.5C3114.02 2146.67 3152.41 2184.22 3212.95 2184.22ZM3149.45 2045.42C3150.93 2002.18 3174.98 1978.77 3212.95 1978.77C3250.91 1978.77 3274.96 2002.18 3276.44 2045.42H3149.45ZM3728.27 2184.22C3770.03 2184.22 3793.87 2159.33 3802.09 2140.55H3805.47V2180H3838.38V2029.18C3838.38 1981.09 3806.1 1947.97 3752.31 1947.97C3703.16 1947.97 3670.89 1973.28 3660.77 2012.52H3695.36C3701.27 1992.69 3723.62 1978.77 3747.88 1978.77C3784.38 1978.77 3804.62 1998.17 3804.62 2029.81V2045.84H3738.81C3682.7 2045.84 3650.22 2075.59 3650.22 2118.41C3650.22 2154.48 3678.91 2184.22 3728.27 2184.22ZM3685.23 2113.98C3685.23 2088.45 3709.91 2074.11 3741.98 2074.11H3804.62V2098.16C3804.62 2129.59 3767.71 2154.27 3739.23 2154.27C3709.07 2154.27 3685.23 2140.34 3685.23 2113.98ZM3948.06 2261H4016.41C4073.78 2261 4107.11 2234 4107.11 2180.42V1952.19H4072.94V1991.63H4069.56C4058.8 1965.9 4032.86 1947.97 3996.79 1947.97C3951.02 1947.97 3913.47 1980.66 3913.47 2034.45V2078.33C3913.47 2132.12 3951.02 2164.81 3996.79 2164.81C4032.86 2164.81 4058.38 2146.88 4069.14 2121.15H4071.67V2177.68C4071.67 2214.8 4053.53 2229.78 4016.41 2229.78H3948.27L3948.06 2261ZM3949.33 2070.95V2041.84C3949.33 2004.29 3972.53 1980.66 4006.28 1980.66C4040.88 1980.66 4071.25 2004.08 4071.25 2043.31V2069.47C4071.25 2108.7 4040.88 2132.12 4006.28 2132.12C3972.53 2132.12 3949.33 2108.49 3949.33 2070.95ZM4262.36 2184.22C4304.12 2184.22 4327.96 2159.33 4336.19 2140.55H4339.56V2180H4372.47V2029.18C4372.47 1981.09 4340.2 1947.97 4286.41 1947.97C4237.26 1947.97 4204.98 1973.28 4194.86 2012.52H4229.45C4235.36 1992.69 4257.72 1978.77 4281.98 1978.77C4318.47 1978.77 4338.72 1998.17 4338.72 2029.81V2045.84H4272.91C4216.8 2045.84 4184.31 2075.59 4184.31 2118.41C4184.31 2154.48 4213 2184.22 4262.36 2184.22ZM4219.33 2113.98C4219.33 2088.45 4244.01 2074.11 4276.07 2074.11H4338.72V2098.16C4338.72 2129.59 4301.8 2154.27 4273.33 2154.27C4243.16 2154.27 4219.33 2140.34 4219.33 2113.98ZM4457.69 2180H4648.38V2150.05H4574.12V1952.19H4467.81V1982.14H4538.27V2150.05H4457.69V2180ZM4524.34 1872.03C4524.34 1888.48 4537.21 1900.72 4553.88 1900.72C4570.54 1900.72 4583.41 1888.48 4583.41 1872.03C4583.41 1855.58 4570.54 1843.34 4553.88 1843.34C4537.21 1843.34 4524.34 1855.58 4524.34 1872.03ZM4721.36 2180H4757.22V2043.31C4757.22 2004.08 4784.43 1980.66 4819.02 1980.66C4852.77 1980.66 4873.23 2004.29 4873.23 2041.84V2180H4909.09V2034.45C4909.09 1980.66 4874.29 1947.97 4828.52 1947.97C4792.45 1947.97 4769.66 1965.9 4758.91 1991.63H4755.53V1952.19H4721.36V2180ZM5082.06 2184.22C5136.06 2184.22 5171.71 2159.96 5171.71 2117.98C5171.71 2085.08 5151.88 2062.51 5107.16 2052.59L5077 2045.84C5048.31 2039.52 5034.6 2028.97 5034.6 2009.56C5034.6 1988.89 5053.59 1977.5 5082.7 1977.5C5109.48 1977.5 5128.05 1989.73 5132.27 2009.56H5166.86C5162.43 1971.38 5130.79 1947.97 5083.33 1947.97C5033.12 1947.97 4998.95 1972.44 4998.95 2011.88C4998.95 2044.37 5019.41 2067.36 5060.55 2076.43L5091.13 2083.18C5117.08 2088.88 5134.59 2101.53 5134.59 2121.36C5134.59 2143.09 5114.76 2154.27 5083.54 2154.27C5054.01 2154.27 5034.18 2142.03 5028.91 2121.15H4992.41C4996.63 2160.38 5030.38 2184.22 5082.06 2184.22ZM5383.28 2180.84H5435.17V2149.62H5385.39C5367.46 2149.62 5351.22 2142.24 5351.22 2118.2V1982.56H5440.23V1952.19H5350.8V1887.22H5315.36V1952.19H5250.39V1982.56H5315.36V2119.88C5315.36 2162.49 5345.31 2180.84 5383.28 2180.84ZM5917.38 2180.84H5969.27V2149.62H5919.48C5901.55 2149.62 5885.31 2142.24 5885.31 2118.2V1982.56H5974.33V1952.19H5884.89V1887.22H5849.45V1952.19H5784.48V1982.56H5849.45V2119.88C5849.45 2162.49 5879.41 2180.84 5917.38 2180.84ZM6056.59 2180H6092.45V2043.31C6092.45 2004.08 6119.66 1980.66 6154.26 1980.66C6188.01 1980.66 6208.47 2004.29 6208.47 2041.84V2180H6244.33V2034.45C6244.33 1980.66 6209.52 1947.97 6163.75 1947.97C6127.68 1947.97 6104.48 1965.9 6093.72 1991.63H6090.77V1869.5H6056.59V2180ZM6417.51 2184.22C6467.92 2184.22 6504.62 2158.06 6514.75 2113.77H6477.41C6469.61 2138.02 6446.62 2153.42 6417.51 2153.42C6378.27 2153.42 6354.02 2127.69 6354.02 2082.12V2074.53H6516.44V2048.8C6516.44 1985.94 6478.26 1947.97 6417.51 1947.97C6356.97 1947.97 6318.58 1985.52 6318.58 2048.59V2085.5C6318.58 2146.67 6356.97 2184.22 6417.51 2184.22ZM6354.02 2045.42C6355.49 2002.18 6379.54 1978.77 6417.51 1978.77C6455.48 1978.77 6479.52 2002.18 6481 2045.42H6354.02ZM6934.3 2184.22C6970.38 2184.22 6996.32 2166.29 7007.08 2140.55H7010.45V2180H7044.62V1869.5H7008.77V1991.63H7006.23C6995.48 1965.9 6970.38 1947.97 6934.3 1947.97C6888.53 1947.97 6850.98 1980.66 6850.98 2034.45V2097.73C6850.98 2151.52 6888.53 2184.22 6934.3 2184.22ZM6886.84 2090.35V2041.84C6886.84 2004.29 6910.05 1980.66 6943.8 1980.66C6978.39 1980.66 7008.77 2004.08 7008.77 2043.31V2088.88C7008.77 2128.11 6978.39 2151.52 6943.8 2151.52C6910.05 2151.52 6886.84 2127.9 6886.84 2090.35ZM7132.38 2261H7162.96C7192.49 2261 7212.53 2244.55 7226.66 2206.37L7320.32 1952.19H7282.77L7219.7 2133.38H7217.38L7154.52 1952.19H7116.98L7200.72 2179.79L7192.49 2202.36C7186.38 2219.45 7175.41 2229.78 7155.58 2229.78H7132.38V2261ZM7395.2 2180H7585.89V2150.05H7511.64V1952.19H7405.33V1982.14H7475.78V2150.05H7395.2V2180ZM7461.86 1872.03C7461.86 1888.48 7474.73 1900.72 7491.39 1900.72C7508.05 1900.72 7520.92 1888.48 7520.92 1872.03C7520.92 1855.58 7508.05 1843.34 7491.39 1843.34C7474.73 1843.34 7461.86 1855.58 7461.86 1872.03ZM7658.88 2180H7694.73V2043.31C7694.73 2004.08 7721.95 1980.66 7756.54 1980.66C7790.29 1980.66 7810.75 2004.29 7810.75 2041.84V2180H7846.61V2034.45C7846.61 1980.66 7811.8 1947.97 7766.03 1947.97C7729.96 1947.97 7707.18 1965.9 7696.42 1991.63H7693.05V1952.19H7658.88V2180ZM7953.77 2261H8022.11C8079.48 2261 8112.81 2234 8112.81 2180.42V1952.19H8078.64V1991.63H8075.27C8064.51 1965.9 8038.56 1947.97 8002.49 1947.97C7956.72 1947.97 7919.17 1980.66 7919.17 2034.45V2078.33C7919.17 2132.12 7956.72 2164.81 8002.49 2164.81C8038.56 2164.81 8064.09 2146.88 8074.84 2121.15H8077.38V2177.68C8077.38 2214.8 8059.23 2229.78 8022.11 2229.78H7953.98L7953.77 2261ZM7955.03 2070.95V2041.84C7955.03 2004.29 7978.23 1980.66 8011.98 1980.66C8046.58 1980.66 8076.95 2004.08 8076.95 2043.31V2069.47C8076.95 2108.7 8046.58 2132.12 8011.98 2132.12C7978.23 2132.12 7955.03 2108.49 7955.03 2070.95ZM8553.88 2184.22C8614.42 2184.22 8652.81 2147.73 8652.81 2085.5V2046.48C8652.81 1984.25 8614.42 1947.97 8553.88 1947.97C8493.34 1947.97 8454.95 1984.25 8454.95 2046.48V2085.5C8454.95 2147.73 8493.34 2184.22 8553.88 2184.22ZM8490.39 2082.12V2049.64C8490.39 2004.29 8514.65 1979.19 8553.88 1979.19C8593.12 1979.19 8617.38 2004.29 8617.38 2049.64V2082.12C8617.38 2127.69 8593.12 2153 8553.88 2153C8514.65 2153 8490.39 2127.69 8490.39 2082.12ZM8793.72 2180H8829.16V1982.56H8918.59V1952.19H8829.58V1932.15C8829.58 1908.1 8845.82 1900.72 8863.75 1900.72H8913.53V1869.5H8861.64C8823.67 1869.5 8793.72 1887.85 8793.72 1930.46V1952.19H8728.75V1982.56H8793.72V2180ZM9388.98 2180.84H9440.88V2149.62H9391.09C9373.16 2149.62 9356.92 2142.24 9356.92 2118.2V1982.56H9445.94V1952.19H9356.5V1887.22H9321.06V1952.19H9256.09V1982.56H9321.06V2119.88C9321.06 2162.49 9351.02 2180.84 9388.98 2180.84ZM9528.2 2180H9564.06V2043.31C9564.06 2004.08 9591.27 1980.66 9625.87 1980.66C9659.62 1980.66 9680.08 2004.29 9680.08 2041.84V2180H9715.94V2034.45C9715.94 1980.66 9681.13 1947.97 9635.36 1947.97C9599.29 1947.97 9576.09 1965.9 9565.33 1991.63H9562.38V1869.5H9528.2V2180ZM9889.12 2184.22C9939.53 2184.22 9976.23 2158.06 9986.36 2113.77H9949.02C9941.22 2138.02 9918.23 2153.42 9889.12 2153.42C9849.88 2153.42 9825.62 2127.69 9825.62 2082.12V2074.53H9988.05V2048.8C9988.05 1985.94 9949.87 1947.97 9889.12 1947.97C9828.58 1947.97 9790.19 1985.52 9790.19 2048.59V2085.5C9790.19 2146.67 9828.58 2184.22 9889.12 2184.22ZM9825.62 2045.42C9827.1 2002.18 9851.15 1978.77 9889.12 1978.77C9927.09 1978.77 9951.13 2002.18 9952.61 2045.42H9825.62ZM10332.7 2180H10523.4V2150.05H10449.2V1876.25H10342.8V1906.2H10413.3V2150.05H10332.7V2180ZM10599.8 2180H10790.5V2150.05H10716.2V1952.19H10609.9V1982.14H10680.3V2150.05H10599.8V2180ZM10666.4 1872.03C10666.4 1888.48 10679.3 1900.72 10696 1900.72C10712.6 1900.72 10725.5 1888.48 10725.5 1872.03C10725.5 1855.58 10712.6 1843.34 10696 1843.34C10679.3 1843.34 10666.4 1855.58 10666.4 1872.03ZM10891.3 2261H10959.6C11017 2261 11050.3 2234 11050.3 2180.42V1952.19H11016.2V1991.63H11012.8C11002 1965.9 10976.1 1947.97 10940 1947.97C10894.2 1947.97 10856.7 1980.66 10856.7 2034.45V2078.33C10856.7 2132.12 10894.2 2164.81 10940 2164.81C10976.1 2164.81 11001.6 2146.88 11012.4 2121.15H11014.9V2177.68C11014.9 2214.8 10996.8 2229.78 10959.6 2229.78H10891.5L10891.3 2261ZM10892.5 2070.95V2041.84C10892.5 2004.29 10915.8 1980.66 10949.5 1980.66C10984.1 1980.66 11014.5 2004.08 11014.5 2043.31V2069.47C11014.5 2108.7 10984.1 2132.12 10949.5 2132.12C10915.8 2132.12 10892.5 2108.49 10892.5 2070.95ZM11130.5 2180H11166.3V2043.31C11166.3 2004.08 11193.6 1980.66 11228.1 1980.66C11261.9 1980.66 11282.4 2004.29 11282.4 2041.84V2180H11318.2V2034.45C11318.2 1980.66 11283.4 1947.97 11237.6 1947.97C11201.6 1947.97 11178.4 1965.9 11167.6 1991.63H11164.7V1869.5H11130.5V2180ZM11525.4 2180.84H11577.2V2149.62H11527.5C11509.5 2149.62 11493.3 2142.24 11493.3 2118.2V1982.56H11582.3V1952.19H11492.9V1887.22H11457.4V1952.19H11392.5V1982.56H11457.4V2119.88C11457.4 2162.49 11487.4 2180.84 11525.4 2180.84ZM11758.4 2184.22C11780.6 2184.22 11797.7 2167.13 11797.7 2145.41C11797.7 2123.68 11780.6 2106.59 11758.4 2106.59C11736.3 2106.59 11719.2 2123.68 11719.2 2145.41C11719.2 2167.13 11736.3 2184.22 11758.4 2184.22ZM843.484 3390.84H895.375V3359.62H845.594C827.664 3359.62 811.422 3352.24 811.422 3328.2V3192.56H900.438V3162.19H811V3097.22H775.562V3162.19H710.594V3192.56H775.562V3329.88C775.562 3372.49 805.516 3390.84 843.484 3390.84ZM982.703 3390H1018.56V3253.31C1018.56 3214.08 1045.77 3190.66 1080.37 3190.66C1114.12 3190.66 1134.58 3214.29 1134.58 3251.84V3390H1170.44V3244.45C1170.44 3190.66 1135.63 3157.97 1089.86 3157.97C1053.79 3157.97 1030.59 3175.9 1019.83 3201.63H1016.88V3079.5H982.703V3390ZM1343.62 3394.22C1404.16 3394.22 1442.55 3357.73 1442.55 3295.5V3256.48C1442.55 3194.25 1404.16 3157.97 1343.62 3157.97C1283.08 3157.97 1244.69 3194.25 1244.69 3256.48V3295.5C1244.69 3357.73 1283.08 3394.22 1343.62 3394.22ZM1280.12 3292.12V3259.64C1280.12 3214.29 1304.38 3189.19 1343.62 3189.19C1382.85 3189.19 1407.11 3214.29 1407.11 3259.64V3292.12C1407.11 3337.69 1382.85 3363 1343.62 3363C1304.38 3363 1280.12 3337.69 1280.12 3292.12ZM1597.38 3394.22C1633.45 3394.22 1656.23 3376.29 1666.98 3350.55H1670.36V3390H1704.53V3162.19H1668.67V3298.88C1668.67 3338.11 1641.46 3361.52 1606.87 3361.52C1573.12 3361.52 1552.66 3337.9 1552.66 3300.35V3162.19H1516.8V3307.73C1516.8 3361.52 1551.6 3394.22 1597.38 3394.22ZM1811.69 3471H1880.03C1937.41 3471 1970.73 3444 1970.73 3390.42V3162.19H1936.56V3201.63H1933.19C1922.43 3175.9 1896.48 3157.97 1860.41 3157.97C1814.64 3157.97 1777.09 3190.66 1777.09 3244.45V3288.33C1777.09 3342.12 1814.64 3374.81 1860.41 3374.81C1896.48 3374.81 1922.01 3356.88 1932.77 3331.15H1935.3V3387.68C1935.3 3424.8 1917.16 3439.78 1880.03 3439.78H1811.9L1811.69 3471ZM1812.95 3280.95V3251.84C1812.95 3214.29 1836.16 3190.66 1869.91 3190.66C1904.5 3190.66 1934.88 3214.08 1934.88 3253.31V3279.47C1934.88 3318.7 1904.5 3342.12 1869.91 3342.12C1836.16 3342.12 1812.95 3318.49 1812.95 3280.95ZM2050.89 3390H2086.75V3253.31C2086.75 3214.08 2113.96 3190.66 2148.55 3190.66C2182.3 3190.66 2202.77 3214.29 2202.77 3251.84V3390H2238.62V3244.45C2238.62 3190.66 2203.82 3157.97 2158.05 3157.97C2121.98 3157.97 2098.77 3175.9 2088.02 3201.63H2085.06V3079.5H2050.89V3390ZM2602.7 3390H2636.88L2677.16 3213.23H2680.54L2720.83 3390H2755L2802.25 3162.19H2767.23L2736.44 3343.59H2733.06L2695.73 3162.4H2661.98L2624.64 3343.59H2621.27L2590.47 3162.19H2555.45L2602.7 3390ZM2855.41 3390H3046.09V3360.05H2971.84V3162.19H2865.53V3192.14H2935.98V3360.05H2855.41V3390ZM2922.06 3082.03C2922.06 3098.48 2934.93 3110.72 2951.59 3110.72C2968.26 3110.72 2981.12 3098.48 2981.12 3082.03C2981.12 3065.58 2968.26 3053.34 2951.59 3053.34C2934.93 3053.34 2922.06 3065.58 2922.06 3082.03ZM3212.73 3394.22C3266.73 3394.22 3302.38 3369.96 3302.38 3327.98C3302.38 3295.08 3282.55 3272.51 3237.84 3262.59L3207.67 3255.84C3178.98 3249.52 3165.27 3238.97 3165.27 3219.56C3165.27 3198.89 3184.26 3187.5 3213.37 3187.5C3240.16 3187.5 3258.72 3199.73 3262.94 3219.56H3297.53C3293.1 3181.38 3261.46 3157.97 3214 3157.97C3163.8 3157.97 3129.62 3182.44 3129.62 3221.88C3129.62 3254.37 3150.09 3277.36 3191.22 3286.43L3221.8 3293.18C3247.75 3298.88 3265.26 3311.53 3265.26 3331.36C3265.26 3353.09 3245.43 3364.27 3214.21 3364.27C3184.68 3364.27 3164.85 3352.03 3159.58 3331.15H3123.09C3127.3 3370.38 3161.05 3394.22 3212.73 3394.22ZM3479.99 3394.22C3530.41 3394.22 3567.11 3368.06 3577.23 3323.77H3539.9C3532.09 3348.02 3509.1 3363.42 3479.99 3363.42C3440.76 3363.42 3416.5 3337.69 3416.5 3292.12V3284.53H3578.92V3258.8C3578.92 3195.94 3540.74 3157.97 3479.99 3157.97C3419.45 3157.97 3381.06 3195.52 3381.06 3258.59V3295.5C3381.06 3356.67 3419.45 3394.22 3479.99 3394.22ZM3416.5 3255.42C3417.98 3212.18 3442.02 3188.77 3479.99 3188.77C3517.96 3188.77 3542.01 3212.18 3543.48 3255.42H3416.5ZM3905.88 3390H3937.94V3237.28C3937.94 3209.02 3950.17 3190.66 3969.58 3190.66C3990.67 3190.66 3998.48 3206.06 3998.48 3233.48V3390H4030.54V3237.28C4030.54 3209.02 4042.56 3190.66 4061.97 3190.66C4083.48 3190.66 4090.23 3205.85 4090.23 3233.7V3390H4122.3V3222.3C4122.3 3180.75 4103.52 3157.97 4073.57 3157.97C4050.58 3157.97 4033.91 3173.16 4028.22 3194.67H4024.84C4019.99 3173.16 4003.96 3157.97 3982.66 3157.97C3961.14 3157.97 3945.53 3173.58 3941.1 3195.3H3937.73V3162.19H3905.88V3390ZM4281.13 3394.22C4331.55 3394.22 4368.25 3368.06 4378.38 3323.77H4341.04C4333.23 3348.02 4310.24 3363.42 4281.13 3363.42C4241.9 3363.42 4217.64 3337.69 4217.64 3292.12V3284.53H4380.06V3258.8C4380.06 3195.94 4341.88 3157.97 4281.13 3157.97C4220.59 3157.97 4182.2 3195.52 4182.2 3258.59V3295.5C4182.2 3356.67 4220.59 3394.22 4281.13 3394.22ZM4217.64 3255.42C4219.12 3212.18 4243.16 3188.77 4281.13 3188.77C4319.1 3188.77 4343.15 3212.18 4344.62 3255.42H4217.64ZM4454.31 3390H4490.17V3253.31C4490.17 3214.08 4517.38 3190.66 4551.98 3190.66C4585.73 3190.66 4606.19 3214.29 4606.19 3251.84V3390H4642.05V3244.45C4642.05 3190.66 4607.24 3157.97 4561.47 3157.97C4525.4 3157.97 4502.62 3175.9 4491.86 3201.63H4488.48V3162.19H4454.31V3390ZM5063.5 3394.22C5105.27 3394.22 5129.1 3369.33 5137.33 3350.55H5140.7V3390H5173.61V3239.18C5173.61 3191.09 5141.34 3157.97 5087.55 3157.97C5038.4 3157.97 5006.12 3183.28 4996 3222.52H5030.59C5036.5 3202.69 5058.86 3188.77 5083.12 3188.77C5119.61 3188.77 5139.86 3208.17 5139.86 3239.81V3255.84H5074.05C5017.94 3255.84 4985.45 3285.59 4985.45 3328.41C4985.45 3364.48 5014.14 3394.22 5063.5 3394.22ZM5020.47 3323.98C5020.47 3298.45 5045.15 3284.11 5077.21 3284.11H5139.86V3308.16C5139.86 3339.59 5102.95 3364.27 5074.47 3364.27C5044.3 3364.27 5020.47 3350.34 5020.47 3323.98ZM5383.28 3390.84H5435.17V3359.62H5385.39C5367.46 3359.62 5351.22 3352.24 5351.22 3328.2V3192.56H5440.23V3162.19H5350.8V3097.22H5315.36V3162.19H5250.39V3192.56H5315.36V3329.88C5315.36 3372.49 5345.31 3390.84 5383.28 3390.84ZM5917.38 3390.84H5969.27V3359.62H5919.48C5901.55 3359.62 5885.31 3352.24 5885.31 3328.2V3192.56H5974.33V3162.19H5884.89V3097.22H5849.45V3162.19H5784.48V3192.56H5849.45V3329.88C5849.45 3372.49 5879.41 3390.84 5917.38 3390.84ZM6056.59 3390H6092.45V3253.31C6092.45 3214.08 6119.66 3190.66 6154.26 3190.66C6188.01 3190.66 6208.47 3214.29 6208.47 3251.84V3390H6244.33V3244.45C6244.33 3190.66 6209.52 3157.97 6163.75 3157.97C6127.68 3157.97 6104.48 3175.9 6093.72 3201.63H6090.77V3079.5H6056.59V3390ZM6417.51 3394.22C6467.92 3394.22 6504.62 3368.06 6514.75 3323.77H6477.41C6469.61 3348.02 6446.62 3363.42 6417.51 3363.42C6378.27 3363.42 6354.02 3337.69 6354.02 3292.12V3284.53H6516.44V3258.8C6516.44 3195.94 6478.26 3157.97 6417.51 3157.97C6356.97 3157.97 6318.58 3195.52 6318.58 3258.59V3295.5C6318.58 3356.67 6356.97 3394.22 6417.51 3394.22ZM6354.02 3255.42C6355.49 3212.18 6379.54 3188.77 6417.51 3188.77C6455.48 3188.77 6479.52 3212.18 6481 3255.42H6354.02ZM6594.06 3390H6784.75V3360.05H6710.5V3162.19H6604.19V3192.14H6674.64V3360.05H6594.06V3390ZM6660.72 3082.03C6660.72 3098.48 6673.59 3110.72 6690.25 3110.72C6706.91 3110.72 6719.78 3098.48 6719.78 3082.03C6719.78 3065.58 6706.91 3053.34 6690.25 3053.34C6673.59 3053.34 6660.72 3065.58 6660.72 3082.03ZM6860.27 3390H7009.19V3360.05H6934.94V3269.34C6934.94 3214.08 6974.17 3193.41 7012.56 3193.41C7028.59 3193.41 7045.89 3197.2 7059.6 3203.74V3167.88C7047.58 3160.71 7035.98 3157.97 7017.41 3157.97C6972.48 3157.97 6948.23 3179.06 6938.31 3212.81H6934.94V3162.19H6865.33V3192.14H6899.08V3360.05H6860.27V3390ZM7485.7 3394.22C7536.11 3394.22 7572.81 3368.06 7582.94 3323.77H7545.6C7537.8 3348.02 7514.8 3363.42 7485.7 3363.42C7446.46 3363.42 7422.2 3337.69 7422.2 3292.12V3284.53H7584.62V3258.8C7584.62 3195.94 7546.45 3157.97 7485.7 3157.97C7425.16 3157.97 7386.77 3195.52 7386.77 3258.59V3295.5C7386.77 3356.67 7425.16 3394.22 7485.7 3394.22ZM7422.2 3255.42C7423.68 3212.18 7447.73 3188.77 7485.7 3188.77C7523.66 3188.77 7547.71 3212.18 7549.19 3255.42H7422.2ZM7658.88 3390H7694.73V3253.31C7694.73 3214.08 7721.95 3190.66 7756.54 3190.66C7790.29 3190.66 7810.75 3214.29 7810.75 3251.84V3390H7846.61V3244.45C7846.61 3190.66 7811.8 3157.97 7766.03 3157.97C7729.96 3157.97 7707.18 3175.9 7696.42 3201.63H7693.05V3162.19H7658.88V3390ZM8002.49 3394.22C8038.56 3394.22 8064.51 3376.29 8075.27 3350.55H8078.64V3390H8112.81V3079.5H8076.95V3201.63H8074.42C8063.66 3175.9 8038.56 3157.97 8002.49 3157.97C7956.72 3157.97 7919.17 3190.66 7919.17 3244.45V3307.73C7919.17 3361.52 7956.72 3394.22 8002.49 3394.22ZM7955.03 3300.35V3251.84C7955.03 3214.29 7978.23 3190.66 8011.98 3190.66C8046.58 3190.66 8076.95 3214.08 8076.95 3253.31V3298.88C8076.95 3338.11 8046.58 3361.52 8011.98 3361.52C7978.23 3361.52 7955.03 3337.9 7955.03 3300.35ZM8472.67 3390H8508.53V3306.89L8532.79 3282.84L8617.38 3390H8661.88L8558.95 3259.85L8655.34 3162.19H8611.05L8512.33 3262.17H8508.53V3086.25H8472.67V3390ZM8727.06 3390H8762.92V3253.31C8762.92 3214.08 8790.13 3190.66 8824.73 3190.66C8858.48 3190.66 8878.94 3214.29 8878.94 3251.84V3390H8914.8V3244.45C8914.8 3190.66 8879.99 3157.97 8834.22 3157.97C8798.15 3157.97 8775.37 3175.9 8764.61 3201.63H8761.23V3162.19H8727.06V3390ZM9087.98 3394.22C9148.52 3394.22 9186.91 3357.73 9186.91 3295.5V3256.48C9186.91 3194.25 9148.52 3157.97 9087.98 3157.97C9027.44 3157.97 8989.05 3194.25 8989.05 3256.48V3295.5C8989.05 3357.73 9027.44 3394.22 9087.98 3394.22ZM9024.48 3292.12V3259.64C9024.48 3214.29 9048.74 3189.19 9087.98 3189.19C9127.21 3189.19 9151.47 3214.29 9151.47 3259.64V3292.12C9151.47 3337.69 9127.21 3363 9087.98 3363C9048.74 3363 9024.48 3337.69 9024.48 3292.12ZM9278.88 3390H9313.05L9353.34 3213.23H9356.71L9397 3390H9431.17L9478.42 3162.19H9443.41L9412.61 3343.59H9409.23L9371.9 3162.4H9338.15L9300.81 3343.59H9297.44L9266.64 3162.19H9231.62L9278.88 3390ZM9871.82 3394.22C9907.89 3394.22 9933.84 3376.29 9944.59 3350.55H9947.97V3390H9982.14V3079.5H9946.28V3201.63H9943.75C9932.99 3175.9 9907.89 3157.97 9871.82 3157.97C9826.05 3157.97 9788.5 3190.66 9788.5 3244.45V3307.73C9788.5 3361.52 9826.05 3394.22 9871.82 3394.22ZM9824.36 3300.35V3251.84C9824.36 3214.29 9847.56 3190.66 9881.31 3190.66C9915.91 3190.66 9946.28 3214.08 9946.28 3253.31V3298.88C9946.28 3338.11 9915.91 3361.52 9881.31 3361.52C9847.56 3361.52 9824.36 3337.9 9824.36 3300.35ZM10137.4 3394.22C10179.2 3394.22 10203 3369.33 10211.2 3350.55H10214.6V3390H10247.5V3239.18C10247.5 3191.09 10215.2 3157.97 10161.4 3157.97C10112.3 3157.97 10080 3183.28 10069.9 3222.52H10104.5C10110.4 3202.69 10132.8 3188.77 10157 3188.77C10193.5 3188.77 10213.8 3208.17 10213.8 3239.81V3255.84H10147.9C10091.8 3255.84 10059.3 3285.59 10059.3 3328.41C10059.3 3364.48 10088 3394.22 10137.4 3394.22ZM10094.4 3323.98C10094.4 3298.45 10119 3284.11 10151.1 3284.11H10213.8V3308.16C10213.8 3339.59 10176.8 3364.27 10148.4 3364.27C10118.2 3364.27 10094.4 3350.34 10094.4 3323.98ZM10331.9 3390H10480.8V3360.05H10406.5V3269.34C10406.5 3214.08 10445.8 3193.41 10484.2 3193.41C10500.2 3193.41 10517.5 3197.2 10531.2 3203.74V3167.88C10519.2 3160.71 10507.6 3157.97 10489 3157.97C10444.1 3157.97 10419.8 3179.06 10409.9 3212.81H10406.5V3162.19H10336.9V3192.14H10370.7V3360.05H10331.9V3390ZM10609 3390H10644.9V3306.89L10669.2 3282.84L10753.8 3390H10798.3L10695.3 3259.85L10791.7 3162.19H10747.4L10648.7 3262.17H10644.9V3086.25H10609V3390ZM11133.9 3390H11324.5V3360.05H11250.3V3162.19H11144V3192.14H11214.4V3360.05H11133.9V3390ZM11200.5 3082.03C11200.5 3098.48 11213.4 3110.72 11230 3110.72C11246.7 3110.72 11259.6 3098.48 11259.6 3082.03C11259.6 3065.58 11246.7 3053.34 11230 3053.34C11213.4 3053.34 11200.5 3065.58 11200.5 3082.03ZM11491.2 3394.22C11545.2 3394.22 11580.8 3369.96 11580.8 3327.98C11580.8 3295.08 11561 3272.51 11516.3 3262.59L11486.1 3255.84C11457.4 3249.52 11443.7 3238.97 11443.7 3219.56C11443.7 3198.89 11462.7 3187.5 11491.8 3187.5C11518.6 3187.5 11537.2 3199.73 11541.4 3219.56H11576C11571.6 3181.38 11539.9 3157.97 11492.5 3157.97C11442.2 3157.97 11408.1 3182.44 11408.1 3221.88C11408.1 3254.37 11428.5 3277.36 11469.7 3286.43L11500.3 3293.18C11526.2 3298.88 11543.7 3311.53 11543.7 3331.36C11543.7 3353.09 11523.9 3364.27 11492.7 3364.27C11463.1 3364.27 11443.3 3352.03 11438 3331.15H11401.5C11405.8 3370.38 11439.5 3394.22 11491.2 3394.22ZM11934.2 3390H12083.1V3360.05H12008.8V3269.34C12008.8 3214.08 12048.1 3193.41 12086.5 3193.41C12102.5 3193.41 12119.8 3197.2 12133.5 3203.74V3167.88C12121.5 3160.71 12109.9 3157.97 12091.3 3157.97C12046.4 3157.97 12022.1 3179.06 12012.2 3212.81H12008.8V3162.19H11939.2V3192.14H11973V3360.05H11934.2V3390ZM12202 3390H12392.7V3360.05H12318.5V3162.19H12212.2V3192.14H12282.6V3360.05H12202V3390ZM12268.7 3082.03C12268.7 3098.48 12281.6 3110.72 12298.2 3110.72C12314.9 3110.72 12327.8 3098.48 12327.8 3082.03C12327.8 3065.58 12314.9 3053.34 12298.2 3053.34C12281.6 3053.34 12268.7 3065.58 12268.7 3082.03ZM12493.6 3471H12561.9C12619.3 3471 12652.6 3444 12652.6 3390.42V3162.19H12618.4V3201.63H12615.1C12604.3 3175.9 12578.4 3157.97 12542.3 3157.97C12496.5 3157.97 12459 3190.66 12459 3244.45V3288.33C12459 3342.12 12496.5 3374.81 12542.3 3374.81C12578.4 3374.81 12603.9 3356.88 12614.6 3331.15H12617.2V3387.68C12617.2 3424.8 12599 3439.78 12561.9 3439.78H12493.8L12493.6 3471ZM12494.8 3280.95V3251.84C12494.8 3214.29 12518 3190.66 12551.8 3190.66C12586.4 3190.66 12616.8 3214.08 12616.8 3253.31V3279.47C12616.8 3318.7 12586.4 3342.12 12551.8 3342.12C12518 3342.12 12494.8 3318.49 12494.8 3280.95ZM12732.8 3390H12768.6V3253.31C12768.6 3214.08 12795.8 3190.66 12830.4 3190.66C12864.2 3190.66 12884.6 3214.29 12884.6 3251.84V3390H12920.5V3244.45C12920.5 3190.66 12885.7 3157.97 12839.9 3157.97C12803.9 3157.97 12780.6 3175.9 12769.9 3201.63H12766.9V3079.5H12732.8V3390ZM13127.6 3390.84H13179.5V3359.62H13129.8C13111.8 3359.62 13095.6 3352.24 13095.6 3328.2V3192.56H13184.6V3162.19H13095.2V3097.22H13059.7V3162.19H12994.8V3192.56H13059.7V3329.88C13059.7 3372.49 13089.7 3390.84 13127.6 3390.84ZM13349.1 3455.81L13398.1 3314.91H13345.8L13313.7 3455.81H13349.1ZM826.82 3999.22C872.594 3999.22 910.141 3966.52 910.141 3912.73V3849.45C910.141 3795.66 872.594 3762.97 826.82 3762.97C790.75 3762.97 765.648 3780.9 754.891 3806.63H752.359V3684.5H716.5V3995H750.672V3955.55H754.047C764.805 3981.29 790.75 3999.22 826.82 3999.22ZM752.359 3903.88V3858.31C752.359 3819.08 782.734 3795.66 817.328 3795.66C851.078 3795.66 874.281 3819.29 874.281 3856.84V3905.35C874.281 3942.9 851.078 3966.52 817.328 3966.52C782.734 3966.52 752.359 3943.11 752.359 3903.88ZM1076.57 3999.22C1126.98 3999.22 1163.69 3973.06 1173.81 3928.77H1136.48C1128.67 3953.02 1105.68 3968.42 1076.57 3968.42C1037.34 3968.42 1013.08 3942.69 1013.08 3897.12V3889.53H1175.5V3863.8C1175.5 3800.94 1137.32 3762.97 1076.57 3762.97C1016.03 3762.97 977.641 3800.52 977.641 3863.59V3900.5C977.641 3961.67 1016.03 3999.22 1076.57 3999.22ZM1013.08 3860.42C1014.55 3817.18 1038.6 3793.77 1076.57 3793.77C1114.54 3793.77 1138.59 3817.18 1140.06 3860.42H1013.08ZM1343.62 3999.22C1396.77 3999.22 1432 3972.22 1441.28 3925.81H1404.58C1396.14 3953.45 1375.05 3968 1343.62 3968C1304.38 3968 1280.12 3942.69 1280.12 3897.12V3864.64C1280.12 3819.29 1304.38 3794.19 1343.62 3794.19C1375.05 3794.19 1396.35 3809.16 1404.58 3837.22H1441.28C1432 3790.6 1396.77 3762.97 1343.62 3762.97C1283.08 3762.97 1244.69 3799.25 1244.69 3861.48V3900.5C1244.69 3962.73 1283.08 3999.22 1343.62 3999.22ZM1591.89 3999.22C1633.66 3999.22 1657.49 3974.33 1665.72 3955.55H1669.09V3995H1702V3844.18C1702 3796.09 1669.73 3762.97 1615.94 3762.97C1566.79 3762.97 1534.52 3788.28 1524.39 3827.52H1558.98C1564.89 3807.69 1587.25 3793.77 1611.51 3793.77C1648 3793.77 1668.25 3813.17 1668.25 3844.81V3860.84H1602.44C1546.33 3860.84 1513.84 3890.59 1513.84 3933.41C1513.84 3969.48 1542.53 3999.22 1591.89 3999.22ZM1548.86 3928.98C1548.86 3903.45 1573.54 3889.11 1605.6 3889.11H1668.25V3913.16C1668.25 3944.59 1631.34 3969.27 1602.86 3969.27C1572.7 3969.27 1548.86 3955.34 1548.86 3928.98ZM1864.42 3999.22C1900.49 3999.22 1923.27 3981.29 1934.03 3955.55H1937.41V3995H1971.58V3767.19H1935.72V3903.88C1935.72 3943.11 1908.51 3966.52 1873.91 3966.52C1840.16 3966.52 1819.7 3942.9 1819.7 3905.35V3767.19H1783.84V3912.73C1783.84 3966.52 1818.65 3999.22 1864.42 3999.22ZM2144.55 3999.22C2198.55 3999.22 2234.2 3974.96 2234.2 3932.98C2234.2 3900.08 2214.37 3877.51 2169.65 3867.59L2139.48 3860.84C2110.8 3854.52 2097.09 3843.97 2097.09 3824.56C2097.09 3803.89 2116.07 3792.5 2145.18 3792.5C2171.97 3792.5 2190.53 3804.73 2194.75 3824.56H2229.34C2224.91 3786.38 2193.27 3762.97 2145.81 3762.97C2095.61 3762.97 2061.44 3787.44 2061.44 3826.88C2061.44 3859.37 2081.9 3882.36 2123.03 3891.43L2153.62 3898.18C2179.56 3903.88 2197.07 3916.53 2197.07 3936.36C2197.07 3958.09 2177.24 3969.27 2146.02 3969.27C2116.49 3969.27 2096.66 3957.03 2091.39 3936.15H2054.9C2059.12 3975.38 2092.87 3999.22 2144.55 3999.22ZM2411.8 3999.22C2462.22 3999.22 2498.92 3973.06 2509.05 3928.77H2471.71C2463.91 3953.02 2440.91 3968.42 2411.8 3968.42C2372.57 3968.42 2348.31 3942.69 2348.31 3897.12V3889.53H2510.73V3863.8C2510.73 3800.94 2472.55 3762.97 2411.8 3762.97C2351.27 3762.97 2312.88 3800.52 2312.88 3863.59V3900.5C2312.88 3961.67 2351.27 3999.22 2411.8 3999.22ZM2348.31 3860.42C2349.79 3817.18 2373.84 3793.77 2411.8 3793.77C2449.77 3793.77 2473.82 3817.18 2475.3 3860.42H2348.31ZM2979.86 3995.84H3031.75V3964.62H2981.97C2964.04 3964.62 2947.8 3957.24 2947.8 3933.2V3797.56H3036.81V3767.19H2947.38V3702.22H2911.94V3767.19H2846.97V3797.56H2911.94V3934.88C2911.94 3977.49 2941.89 3995.84 2979.86 3995.84ZM3119.08 3995H3154.94V3858.31C3154.94 3819.08 3182.15 3795.66 3216.74 3795.66C3250.49 3795.66 3270.95 3819.29 3270.95 3856.84V3995H3306.81V3849.45C3306.81 3795.66 3272.01 3762.97 3226.23 3762.97C3190.16 3762.97 3166.96 3780.9 3156.2 3806.63H3153.25V3684.5H3119.08V3995ZM3479.99 3999.22C3530.41 3999.22 3567.11 3973.06 3577.23 3928.77H3539.9C3532.09 3953.02 3509.1 3968.42 3479.99 3968.42C3440.76 3968.42 3416.5 3942.69 3416.5 3897.12V3889.53H3578.92V3863.8C3578.92 3800.94 3540.74 3762.97 3479.99 3762.97C3419.45 3762.97 3381.06 3800.52 3381.06 3863.59V3900.5C3381.06 3961.67 3419.45 3999.22 3479.99 3999.22ZM3416.5 3860.42C3417.98 3817.18 3442.02 3793.77 3479.99 3793.77C3517.96 3793.77 3542.01 3817.18 3543.48 3860.42H3416.5ZM3656.55 3995H3847.23V3965.05H3772.98V3767.19H3666.67V3797.14H3737.12V3965.05H3656.55V3995ZM3723.2 3687.03C3723.2 3703.48 3736.07 3715.72 3752.73 3715.72C3769.4 3715.72 3782.27 3703.48 3782.27 3687.03C3782.27 3670.58 3769.4 3658.34 3752.73 3658.34C3736.07 3658.34 3723.2 3670.58 3723.2 3687.03ZM3922.75 3995H4071.67V3965.05H3997.42V3874.34C3997.42 3819.08 4036.66 3798.41 4075.05 3798.41C4091.08 3798.41 4108.38 3802.2 4122.09 3808.74V3772.88C4110.06 3765.71 4098.46 3762.97 4079.9 3762.97C4034.97 3762.97 4010.71 3784.06 4000.8 3817.81H3997.42V3767.19H3927.81V3797.14H3961.56V3965.05H3922.75V3995ZM4472.03 3995H4506.2L4546.49 3818.23H4549.87L4590.16 3995H4624.33L4671.58 3767.19H4636.56L4605.77 3948.59H4602.39L4565.05 3767.4H4531.3L4493.97 3948.59H4490.59L4459.8 3767.19H4424.78L4472.03 3995ZM4815.23 3999.22C4875.77 3999.22 4914.16 3962.73 4914.16 3900.5V3861.48C4914.16 3799.25 4875.77 3762.97 4815.23 3762.97C4754.69 3762.97 4716.3 3799.25 4716.3 3861.48V3900.5C4716.3 3962.73 4754.69 3999.22 4815.23 3999.22ZM4751.73 3897.12V3864.64C4751.73 3819.29 4775.99 3794.19 4815.23 3794.19C4854.46 3794.19 4878.72 3819.29 4878.72 3864.64V3897.12C4878.72 3942.69 4854.46 3968 4815.23 3968C4775.99 3968 4751.73 3942.69 4751.73 3897.12ZM4990.94 3995H5139.86V3965.05H5065.61V3874.34C5065.61 3819.08 5104.84 3798.41 5143.23 3798.41C5159.27 3798.41 5176.56 3802.2 5190.27 3808.74V3772.88C5178.25 3765.71 5166.65 3762.97 5148.09 3762.97C5103.16 3762.97 5078.9 3784.06 5068.98 3817.81H5065.61V3767.19H4996V3797.14H5029.75V3965.05H4990.94V3995ZM5332.02 3999.22C5368.09 3999.22 5394.04 3981.29 5404.8 3955.55H5408.17V3995H5442.34V3684.5H5406.48V3806.63H5403.95C5393.2 3780.9 5368.09 3762.97 5332.02 3762.97C5286.25 3762.97 5248.7 3795.66 5248.7 3849.45V3912.73C5248.7 3966.52 5286.25 3999.22 5332.02 3999.22ZM5284.56 3905.35V3856.84C5284.56 3819.29 5307.77 3795.66 5341.52 3795.66C5376.11 3795.66 5406.48 3819.08 5406.48 3858.31V3903.88C5406.48 3943.11 5376.11 3966.52 5341.52 3966.52C5307.77 3966.52 5284.56 3942.9 5284.56 3905.35ZM5616.16 3999.22C5670.16 3999.22 5705.8 3974.96 5705.8 3932.98C5705.8 3900.08 5685.98 3877.51 5641.26 3867.59L5611.09 3860.84C5582.41 3854.52 5568.7 3843.97 5568.7 3824.56C5568.7 3803.89 5587.68 3792.5 5616.79 3792.5C5643.58 3792.5 5662.14 3804.73 5666.36 3824.56H5700.95C5696.52 3786.38 5664.88 3762.97 5617.42 3762.97C5567.22 3762.97 5533.05 3787.44 5533.05 3826.88C5533.05 3859.37 5553.51 3882.36 5594.64 3891.43L5625.23 3898.18C5651.17 3903.88 5668.68 3916.53 5668.68 3936.36C5668.68 3958.09 5648.85 3969.27 5617.63 3969.27C5588.1 3969.27 5568.27 3957.03 5563 3936.15H5526.51C5530.73 3975.38 5564.48 3999.22 5616.16 3999.22ZM6056.59 3995H6092.45V3858.31C6092.45 3819.08 6119.66 3795.66 6154.26 3795.66C6188.01 3795.66 6208.47 3819.29 6208.47 3856.84V3995H6244.33V3849.45C6244.33 3795.66 6209.52 3762.97 6163.75 3762.97C6127.68 3762.97 6104.48 3780.9 6093.72 3806.63H6090.77V3684.5H6056.59V3995ZM6398.73 3999.22C6440.5 3999.22 6464.34 3974.33 6472.56 3955.55H6475.94V3995H6508.84V3844.18C6508.84 3796.09 6476.57 3762.97 6422.78 3762.97C6373.63 3762.97 6341.36 3788.28 6331.23 3827.52H6365.83C6371.73 3807.69 6394.09 3793.77 6418.35 3793.77C6454.84 3793.77 6475.09 3813.17 6475.09 3844.81V3860.84H6409.28C6353.17 3860.84 6320.69 3890.59 6320.69 3933.41C6320.69 3969.48 6349.38 3999.22 6398.73 3999.22ZM6355.7 3928.98C6355.7 3903.45 6380.38 3889.11 6412.45 3889.11H6475.09V3913.16C6475.09 3944.59 6438.18 3969.27 6409.7 3969.27C6379.54 3969.27 6355.7 3955.34 6355.7 3928.98ZM6667.26 3999.22C6703.33 3999.22 6729.27 3981.29 6740.03 3955.55H6743.41V3995H6777.58V3684.5H6741.72V3806.63H6739.19C6728.43 3780.9 6703.33 3762.97 6667.26 3762.97C6621.48 3762.97 6583.94 3795.66 6583.94 3849.45V3912.73C6583.94 3966.52 6621.48 3999.22 6667.26 3999.22ZM6619.8 3905.35V3856.84C6619.8 3819.29 6643 3795.66 6676.75 3795.66C6711.34 3795.66 6741.72 3819.08 6741.72 3858.31V3903.88C6741.72 3943.11 6711.34 3966.52 6676.75 3966.52C6643 3966.52 6619.8 3942.9 6619.8 3905.35ZM7191.44 3995H7226.88V3797.56H7316.31V3767.19H7227.3V3747.15C7227.3 3723.1 7243.54 3715.72 7261.47 3715.72H7311.25V3684.5H7259.36C7221.39 3684.5 7191.44 3702.85 7191.44 3745.46V3767.19H7126.47V3797.56H7191.44V3995ZM7485.7 3999.22C7546.23 3999.22 7584.62 3962.73 7584.62 3900.5V3861.48C7584.62 3799.25 7546.23 3762.97 7485.7 3762.97C7425.16 3762.97 7386.77 3799.25 7386.77 3861.48V3900.5C7386.77 3962.73 7425.16 3999.22 7485.7 3999.22ZM7422.2 3897.12V3864.64C7422.2 3819.29 7446.46 3794.19 7485.7 3794.19C7524.93 3794.19 7549.19 3819.29 7549.19 3864.64V3897.12C7549.19 3942.69 7524.93 3968 7485.7 3968C7446.46 3968 7422.2 3942.69 7422.2 3897.12ZM7661.41 3995H7810.33V3965.05H7736.08V3874.34C7736.08 3819.08 7775.31 3798.41 7813.7 3798.41C7829.73 3798.41 7847.03 3802.2 7860.74 3808.74V3772.88C7848.72 3765.71 7837.12 3762.97 7818.55 3762.97C7773.62 3762.97 7749.37 3784.06 7739.45 3817.81H7736.08V3767.19H7666.47V3797.14H7700.22V3965.05H7661.41V3995ZM7938.58 3995H7974.44V3911.89L7998.7 3887.84L8083.28 3995H8127.79L8024.85 3864.85L8121.25 3767.19H8076.95L7978.23 3867.17H7974.44V3691.25H7938.58V3995ZM8286.84 3999.22C8337.25 3999.22 8373.95 3973.06 8384.08 3928.77H8346.74C8338.94 3953.02 8315.95 3968.42 8286.84 3968.42C8247.6 3968.42 8223.34 3942.69 8223.34 3897.12V3889.53H8385.77V3863.8C8385.77 3800.94 8347.59 3762.97 8286.84 3762.97C8226.3 3762.97 8187.91 3800.52 8187.91 3863.59V3900.5C8187.91 3961.67 8226.3 3999.22 8286.84 3999.22ZM8223.34 3860.42C8224.82 3817.18 8248.87 3793.77 8286.84 3793.77C8324.8 3793.77 8348.85 3817.18 8350.33 3860.42H8223.34ZM8536.59 3999.22C8572.66 3999.22 8598.6 3981.29 8609.36 3955.55H8612.73V3995H8646.91V3684.5H8611.05V3806.63H8608.52C8597.76 3780.9 8572.66 3762.97 8536.59 3762.97C8490.81 3762.97 8453.27 3795.66 8453.27 3849.45V3912.73C8453.27 3966.52 8490.81 3999.22 8536.59 3999.22ZM8489.12 3905.35V3856.84C8489.12 3819.29 8512.33 3795.66 8546.08 3795.66C8580.67 3795.66 8611.05 3819.08 8611.05 3858.31V3903.88C8611.05 3943.11 8580.67 3966.52 8546.08 3966.52C8512.33 3966.52 8489.12 3942.9 8489.12 3905.35ZM8994.11 3995H9029.97V3858.31C9029.97 3819.08 9057.18 3795.66 9091.77 3795.66C9125.52 3795.66 9145.98 3819.29 9145.98 3856.84V3995H9181.84V3849.45C9181.84 3795.66 9147.04 3762.97 9101.27 3762.97C9065.2 3762.97 9042.41 3780.9 9031.66 3806.63H9028.28V3767.19H8994.11V3995ZM9355.02 3999.22C9415.56 3999.22 9453.95 3962.73 9453.95 3900.5V3861.48C9453.95 3799.25 9415.56 3762.97 9355.02 3762.97C9294.48 3762.97 9256.09 3799.25 9256.09 3861.48V3900.5C9256.09 3962.73 9294.48 3999.22 9355.02 3999.22ZM9291.53 3897.12V3864.64C9291.53 3819.29 9315.79 3794.19 9355.02 3794.19C9394.26 3794.19 9418.52 3819.29 9418.52 3864.64V3897.12C9418.52 3942.69 9394.26 3968 9355.02 3968C9315.79 3968 9291.53 3942.69 9291.53 3897.12ZM9798.62 3995H9989.31V3965.05H9915.06V3691.25H9808.75V3721.2H9879.2V3965.05H9798.62V3995ZM10065.7 3995H10256.4V3965.05H10182.1V3767.19H10075.8V3797.14H10146.2V3965.05H10065.7V3995ZM10132.3 3687.03C10132.3 3703.48 10145.2 3715.72 10161.9 3715.72C10178.5 3715.72 10191.4 3703.48 10191.4 3687.03C10191.4 3670.58 10178.5 3658.34 10161.9 3658.34C10145.2 3658.34 10132.3 3670.58 10132.3 3687.03ZM10357.2 4076H10425.5C10482.9 4076 10516.2 4049 10516.2 3995.42V3767.19H10482.1V3806.63H10478.7C10467.9 3780.9 10442 3762.97 10405.9 3762.97C10360.1 3762.97 10322.6 3795.66 10322.6 3849.45V3893.33C10322.6 3947.12 10360.1 3979.81 10405.9 3979.81C10442 3979.81 10467.5 3961.88 10478.3 3936.15H10480.8V3992.68C10480.8 4029.8 10462.7 4044.78 10425.5 4044.78H10357.4L10357.2 4076ZM10358.5 3885.95V3856.84C10358.5 3819.29 10381.7 3795.66 10415.4 3795.66C10450 3795.66 10480.4 3819.08 10480.4 3858.31V3884.47C10480.4 3923.7 10450 3947.12 10415.4 3947.12C10381.7 3947.12 10358.5 3923.49 10358.5 3885.95ZM10596.4 3995H10632.2V3858.31C10632.2 3819.08 10659.5 3795.66 10694.1 3795.66C10727.8 3795.66 10748.3 3819.29 10748.3 3856.84V3995H10784.1V3849.45C10784.1 3795.66 10749.3 3762.97 10703.5 3762.97C10667.5 3762.97 10644.3 3780.9 10633.5 3806.63H10630.6V3684.5H10596.4V3995ZM10991.3 3995.84H11043.2V3964.62H10993.4C10975.4 3964.62 10959.2 3957.24 10959.2 3933.2V3797.56H11048.2V3767.19H10958.8V3702.22H10923.3V3767.19H10858.4V3797.56H10923.3V3934.88C10923.3 3977.49 10953.3 3995.84 10991.3 3995.84ZM11130.5 3995H11166.3V3858.31C11166.3 3819.08 11193.6 3795.66 11228.1 3795.66C11261.9 3795.66 11282.4 3819.29 11282.4 3856.84V3995H11318.2V3849.45C11318.2 3795.66 11283.4 3762.97 11237.6 3762.97C11201.6 3762.97 11178.8 3780.9 11168 3806.63H11164.7V3767.19H11130.5V3995ZM11400.9 3995H11591.6V3965.05H11517.3V3767.19H11411V3797.14H11481.5V3965.05H11400.9V3995ZM11467.6 3687.03C11467.6 3703.48 11480.4 3715.72 11497.1 3715.72C11513.8 3715.72 11526.6 3703.48 11526.6 3687.03C11526.6 3670.58 11513.8 3658.34 11497.1 3658.34C11480.4 3658.34 11467.6 3670.58 11467.6 3687.03ZM11664.6 3995H11700.4V3858.31C11700.4 3819.08 11727.6 3795.66 11762.2 3795.66C11796 3795.66 11816.5 3819.29 11816.5 3856.84V3995H11852.3V3849.45C11852.3 3795.66 11817.5 3762.97 11771.7 3762.97C11735.7 3762.97 11712.9 3780.9 11702.1 3806.63H11698.8V3767.19H11664.6V3995ZM11959.5 4076H12027.8C12085.2 4076 12118.5 4049 12118.5 3995.42V3767.19H12084.3V3806.63H12081C12070.2 3780.9 12044.3 3762.97 12008.2 3762.97C11962.4 3762.97 11924.9 3795.66 11924.9 3849.45V3893.33C11924.9 3947.12 11962.4 3979.81 12008.2 3979.81C12044.3 3979.81 12069.8 3961.88 12080.5 3936.15H12083.1V3992.68C12083.1 4029.8 12064.9 4044.78 12027.8 4044.78H11959.7L11959.5 4076ZM11960.7 3885.95V3856.84C11960.7 3819.29 11983.9 3795.66 12017.7 3795.66C12052.3 3795.66 12082.7 3819.08 12082.7 3858.31V3884.47C12082.7 3923.7 12052.3 3947.12 12017.7 3947.12C11983.9 3947.12 11960.7 3923.49 11960.7 3885.95ZM12593.5 3995.84H12645.4V3964.62H12595.7C12577.7 3964.62 12561.5 3957.24 12561.5 3933.2V3797.56H12650.5V3767.19H12561.1V3702.22H12525.6V3767.19H12460.7V3797.56H12525.6V3934.88C12525.6 3977.49 12555.6 3995.84 12593.5 3995.84ZM12732.8 3995H12768.6V3858.31C12768.6 3819.08 12795.8 3795.66 12830.4 3795.66C12864.2 3795.66 12884.6 3819.29 12884.6 3856.84V3995H12920.5V3849.45C12920.5 3795.66 12885.7 3762.97 12839.9 3762.97C12803.9 3762.97 12780.6 3780.9 12769.9 3806.63H12766.9V3684.5H12732.8V3995ZM13093.7 3999.22C13144.1 3999.22 13180.8 3973.06 13190.9 3928.77H13153.6C13145.8 3953.02 13122.8 3968.42 13093.7 3968.42C13054.4 3968.42 13030.2 3942.69 13030.2 3897.12V3889.53H13192.6V3863.8C13192.6 3800.94 13154.4 3762.97 13093.7 3762.97C13033.1 3762.97 12994.8 3800.52 12994.8 3863.59V3900.5C12994.8 3961.67 13033.1 3999.22 13093.7 3999.22ZM13030.2 3860.42C13031.7 3817.18 13055.7 3793.77 13093.7 3793.77C13131.6 3793.77 13155.7 3817.18 13157.2 3860.42H13030.2ZM13274.5 4076H13305C13334.6 4076 13354.6 4059.55 13368.7 4021.37L13462.4 3767.19H13424.9L13361.8 3948.38H13359.5L13296.6 3767.19H13259.1L13342.8 3994.79L13334.6 4017.36C13328.5 4034.45 13317.5 4044.78 13297.7 4044.78H13274.5V4076ZM792.227 4604.22C828.297 4604.22 854.242 4586.29 865 4560.55H868.375V4600H902.547V4289.5H866.688V4411.63H864.156C853.398 4385.9 828.297 4367.97 792.227 4367.97C746.453 4367.97 708.906 4400.66 708.906 4454.45V4517.73C708.906 4571.52 746.453 4604.22 792.227 4604.22ZM744.766 4510.35V4461.84C744.766 4424.29 767.969 4400.66 801.719 4400.66C836.312 4400.66 866.688 4424.08 866.688 4463.31V4508.88C866.688 4548.11 836.312 4571.52 801.719 4571.52C767.969 4571.52 744.766 4547.9 744.766 4510.35ZM1076.57 4604.22C1137.11 4604.22 1175.5 4567.73 1175.5 4505.5V4466.48C1175.5 4404.25 1137.11 4367.97 1076.57 4367.97C1016.03 4367.97 977.641 4404.25 977.641 4466.48V4505.5C977.641 4567.73 1016.03 4604.22 1076.57 4604.22ZM1013.08 4502.12V4469.64C1013.08 4424.29 1037.34 4399.19 1076.57 4399.19C1115.8 4399.19 1140.06 4424.29 1140.06 4469.64V4502.12C1140.06 4547.69 1115.8 4573 1076.57 4573C1037.34 4573 1013.08 4547.69 1013.08 4502.12ZM1516.8 4600H1552.66V4463.31C1552.66 4424.08 1579.87 4400.66 1614.46 4400.66C1648.21 4400.66 1668.67 4424.29 1668.67 4461.84V4600H1704.53V4454.45C1704.53 4400.66 1669.73 4367.97 1623.95 4367.97C1587.88 4367.97 1565.1 4385.9 1554.34 4411.63H1550.97V4372.19H1516.8V4600ZM1877.71 4604.22C1938.25 4604.22 1976.64 4567.73 1976.64 4505.5V4466.48C1976.64 4404.25 1938.25 4367.97 1877.71 4367.97C1817.17 4367.97 1778.78 4404.25 1778.78 4466.48V4505.5C1778.78 4567.73 1817.17 4604.22 1877.71 4604.22ZM1814.22 4502.12V4469.64C1814.22 4424.29 1838.48 4399.19 1877.71 4399.19C1916.95 4399.19 1941.2 4424.29 1941.2 4469.64V4502.12C1941.2 4547.69 1916.95 4573 1877.71 4573C1838.48 4573 1814.22 4547.69 1814.22 4502.12ZM2178.72 4600.84H2230.61V4569.62H2180.83C2162.9 4569.62 2146.66 4562.24 2146.66 4538.2V4402.56H2235.67V4372.19H2146.23V4307.22H2110.8V4372.19H2045.83V4402.56H2110.8V4539.88C2110.8 4582.49 2140.75 4600.84 2178.72 4600.84ZM2612.83 4681H2681.17C2738.55 4681 2771.88 4654 2771.88 4600.42V4372.19H2737.7V4411.63H2734.33C2723.57 4385.9 2697.62 4367.97 2661.55 4367.97C2615.78 4367.97 2578.23 4400.66 2578.23 4454.45V4498.33C2578.23 4552.12 2615.78 4584.81 2661.55 4584.81C2697.62 4584.81 2723.15 4566.88 2733.91 4541.15H2736.44V4597.68C2736.44 4634.8 2718.3 4649.78 2681.17 4649.78H2613.04L2612.83 4681ZM2614.09 4490.95V4461.84C2614.09 4424.29 2637.3 4400.66 2671.05 4400.66C2705.64 4400.66 2736.02 4424.08 2736.02 4463.31V4489.47C2736.02 4528.7 2705.64 4552.12 2671.05 4552.12C2637.3 4552.12 2614.09 4528.49 2614.09 4490.95ZM2945.9 4604.22C3006.44 4604.22 3044.83 4567.73 3044.83 4505.5V4466.48C3044.83 4404.25 3006.44 4367.97 2945.9 4367.97C2885.36 4367.97 2846.97 4404.25 2846.97 4466.48V4505.5C2846.97 4567.73 2885.36 4604.22 2945.9 4604.22ZM2882.41 4502.12V4469.64C2882.41 4424.29 2906.66 4399.19 2945.9 4399.19C2985.13 4399.19 3009.39 4424.29 3009.39 4469.64V4502.12C3009.39 4547.69 2985.13 4573 2945.9 4573C2906.66 4573 2882.41 4547.69 2882.41 4502.12ZM3413.97 4681H3482.31C3539.69 4681 3573.02 4654 3573.02 4600.42V4372.19H3538.84V4411.63H3535.47C3524.71 4385.9 3498.77 4367.97 3462.7 4367.97C3416.92 4367.97 3379.38 4400.66 3379.38 4454.45V4498.33C3379.38 4552.12 3416.92 4584.81 3462.7 4584.81C3498.77 4584.81 3524.29 4566.88 3535.05 4541.15H3537.58V4597.68C3537.58 4634.8 3519.44 4649.78 3482.31 4649.78H3414.18L3413.97 4681ZM3415.23 4490.95V4461.84C3415.23 4424.29 3438.44 4400.66 3472.19 4400.66C3506.78 4400.66 3537.16 4424.08 3537.16 4463.31V4489.47C3537.16 4528.7 3506.78 4552.12 3472.19 4552.12C3438.44 4552.12 3415.23 4528.49 3415.23 4490.95ZM3747.04 4604.22C3797.45 4604.22 3834.16 4578.06 3844.28 4533.77H3806.95C3799.14 4558.02 3776.15 4573.42 3747.04 4573.42C3707.8 4573.42 3683.55 4547.69 3683.55 4502.12V4494.53H3845.97V4468.8C3845.97 4405.94 3807.79 4367.97 3747.04 4367.97C3686.5 4367.97 3648.11 4405.52 3648.11 4468.59V4505.5C3648.11 4566.67 3686.5 4604.22 3747.04 4604.22ZM3683.55 4465.42C3685.02 4422.18 3709.07 4398.77 3747.04 4398.77C3785.01 4398.77 3809.05 4422.18 3810.53 4465.42H3683.55ZM3920.22 4600H3956.08V4463.31C3956.08 4424.08 3983.29 4400.66 4017.88 4400.66C4051.63 4400.66 4072.09 4424.29 4072.09 4461.84V4600H4107.95V4454.45C4107.95 4400.66 4073.15 4367.97 4027.38 4367.97C3991.3 4367.97 3968.52 4385.9 3957.77 4411.63H3954.39V4372.19H3920.22V4600ZM4315.09 4600.84H4366.98V4569.62H4317.2C4299.27 4569.62 4283.03 4562.24 4283.03 4538.2V4402.56H4372.05V4372.19H4282.61V4307.22H4247.17V4372.19H4182.2V4402.56H4247.17V4539.88C4247.17 4582.49 4277.12 4600.84 4315.09 4600.84ZM4457.69 4600H4648.38V4570.05H4574.12V4296.25H4467.81V4326.2H4538.27V4570.05H4457.69V4600ZM4815.23 4604.22C4865.64 4604.22 4902.34 4578.06 4912.47 4533.77H4875.13C4867.33 4558.02 4844.34 4573.42 4815.23 4573.42C4775.99 4573.42 4751.73 4547.69 4751.73 4502.12V4494.53H4914.16V4468.8C4914.16 4405.94 4875.98 4367.97 4815.23 4367.97C4754.69 4367.97 4716.3 4405.52 4716.3 4468.59V4505.5C4716.3 4566.67 4754.69 4604.22 4815.23 4604.22ZM4751.73 4465.42C4753.21 4422.18 4777.26 4398.77 4815.23 4398.77C4853.2 4398.77 4877.24 4422.18 4878.72 4465.42H4751.73ZM5258.83 4600H5449.52V4570.05H5375.27V4372.19H5268.95V4402.14H5339.41V4570.05H5258.83V4600ZM5325.48 4292.03C5325.48 4308.48 5338.35 4320.72 5355.02 4320.72C5371.68 4320.72 5384.55 4308.48 5384.55 4292.03C5384.55 4275.58 5371.68 4263.34 5355.02 4263.34C5338.35 4263.34 5325.48 4275.58 5325.48 4292.03ZM5522.5 4600H5558.36V4463.31C5558.36 4424.08 5585.57 4400.66 5620.16 4400.66C5653.91 4400.66 5674.38 4424.29 5674.38 4461.84V4600H5710.23V4454.45C5710.23 4400.66 5675.43 4367.97 5629.66 4367.97C5593.59 4367.97 5570.8 4385.9 5560.05 4411.63H5556.67V4372.19H5522.5V4600ZM5917.38 4600.84H5969.27V4569.62H5919.48C5901.55 4569.62 5885.31 4562.24 5885.31 4538.2V4402.56H5974.33V4372.19H5884.89V4307.22H5849.45V4372.19H5784.48V4402.56H5849.45V4539.88C5849.45 4582.49 5879.41 4600.84 5917.38 4600.84ZM6150.46 4604.22C6211 4604.22 6249.39 4567.73 6249.39 4505.5V4466.48C6249.39 4404.25 6211 4367.97 6150.46 4367.97C6089.92 4367.97 6051.53 4404.25 6051.53 4466.48V4505.5C6051.53 4567.73 6089.92 4604.22 6150.46 4604.22ZM6086.97 4502.12V4469.64C6086.97 4424.29 6111.23 4399.19 6150.46 4399.19C6189.7 4399.19 6213.95 4424.29 6213.95 4469.64V4502.12C6213.95 4547.69 6189.7 4573 6150.46 4573C6111.23 4573 6086.97 4547.69 6086.97 4502.12ZM6718.52 4600.84H6770.41V4569.62H6720.62C6702.7 4569.62 6686.45 4562.24 6686.45 4538.2V4402.56H6775.47V4372.19H6686.03V4307.22H6650.59V4372.19H6585.62V4402.56H6650.59V4539.88C6650.59 4582.49 6680.55 4600.84 6718.52 4600.84ZM6857.73 4600H6893.59V4463.31C6893.59 4424.08 6920.8 4400.66 6955.4 4400.66C6989.15 4400.66 7009.61 4424.29 7009.61 4461.84V4600H7045.47V4454.45C7045.47 4400.66 7010.66 4367.97 6964.89 4367.97C6928.82 4367.97 6905.62 4385.9 6894.86 4411.63H6891.91V4289.5H6857.73V4600ZM7199.88 4604.22C7241.64 4604.22 7265.48 4579.33 7273.7 4560.55H7277.08V4600H7309.98V4449.18C7309.98 4401.09 7277.71 4367.97 7223.92 4367.97C7174.77 4367.97 7142.5 4393.28 7132.38 4432.52H7166.97C7172.88 4412.69 7195.23 4398.77 7219.49 4398.77C7255.98 4398.77 7276.23 4418.17 7276.23 4449.81V4465.84H7210.42C7154.31 4465.84 7121.83 4495.59 7121.83 4538.41C7121.83 4574.48 7150.52 4604.22 7199.88 4604.22ZM7156.84 4533.98C7156.84 4508.45 7181.52 4494.11 7213.59 4494.11H7276.23V4518.16C7276.23 4549.59 7239.32 4574.27 7210.84 4574.27C7180.68 4574.27 7156.84 4560.34 7156.84 4533.98ZM7519.66 4600.84H7571.55V4569.62H7521.77C7503.84 4569.62 7487.59 4562.24 7487.59 4538.2V4402.56H7576.61V4372.19H7487.17V4307.22H7451.73V4372.19H7386.77V4402.56H7451.73V4539.88C7451.73 4582.49 7481.69 4600.84 7519.66 4600.84ZM7953.77 4681H8022.11C8079.48 4681 8112.81 4654 8112.81 4600.42V4372.19H8078.64V4411.63H8075.27C8064.51 4385.9 8038.56 4367.97 8002.49 4367.97C7956.72 4367.97 7919.17 4400.66 7919.17 4454.45V4498.33C7919.17 4552.12 7956.72 4584.81 8002.49 4584.81C8038.56 4584.81 8064.09 4566.88 8074.84 4541.15H8077.38V4597.68C8077.38 4634.8 8059.23 4649.78 8022.11 4649.78H7953.98L7953.77 4681ZM7955.03 4490.95V4461.84C7955.03 4424.29 7978.23 4400.66 8011.98 4400.66C8046.58 4400.66 8076.95 4424.08 8076.95 4463.31V4489.47C8076.95 4528.7 8046.58 4552.12 8011.98 4552.12C7978.23 4552.12 7955.03 4528.49 7955.03 4490.95ZM8286.84 4604.22C8347.38 4604.22 8385.77 4567.73 8385.77 4505.5V4466.48C8385.77 4404.25 8347.38 4367.97 8286.84 4367.97C8226.3 4367.97 8187.91 4404.25 8187.91 4466.48V4505.5C8187.91 4567.73 8226.3 4604.22 8286.84 4604.22ZM8223.34 4502.12V4469.64C8223.34 4424.29 8247.6 4399.19 8286.84 4399.19C8326.07 4399.19 8350.33 4424.29 8350.33 4469.64V4502.12C8350.33 4547.69 8326.07 4573 8286.84 4573C8247.6 4573 8223.34 4547.69 8223.34 4502.12ZM8553.88 4604.22C8614.42 4604.22 8652.81 4567.73 8652.81 4505.5V4466.48C8652.81 4404.25 8614.42 4367.97 8553.88 4367.97C8493.34 4367.97 8454.95 4404.25 8454.95 4466.48V4505.5C8454.95 4567.73 8493.34 4604.22 8553.88 4604.22ZM8490.39 4502.12V4469.64C8490.39 4424.29 8514.65 4399.19 8553.88 4399.19C8593.12 4399.19 8617.38 4424.29 8617.38 4469.64V4502.12C8617.38 4547.69 8593.12 4573 8553.88 4573C8514.65 4573 8490.39 4547.69 8490.39 4502.12ZM8803.63 4604.22C8839.7 4604.22 8865.65 4586.29 8876.41 4560.55H8879.78V4600H8913.95V4289.5H8878.09V4411.63H8875.56C8864.8 4385.9 8839.7 4367.97 8803.63 4367.97C8757.86 4367.97 8720.31 4400.66 8720.31 4454.45V4517.73C8720.31 4571.52 8757.86 4604.22 8803.63 4604.22ZM8756.17 4510.35V4461.84C8756.17 4424.29 8779.38 4400.66 8813.12 4400.66C8847.72 4400.66 8878.09 4424.08 8878.09 4463.31V4508.88C8878.09 4548.11 8847.72 4571.52 8813.12 4571.52C8779.38 4571.52 8756.17 4547.9 8756.17 4510.35ZM9261.16 4600H9297.02V4463.31C9297.02 4424.08 9324.23 4400.66 9358.82 4400.66C9392.57 4400.66 9413.03 4424.29 9413.03 4461.84V4600H9448.89V4454.45C9448.89 4400.66 9414.09 4367.97 9368.31 4367.97C9332.24 4367.97 9309.46 4385.9 9298.7 4411.63H9295.33V4372.19H9261.16V4600ZM9531.58 4600H9722.27V4570.05H9648.02V4372.19H9541.7V4402.14H9612.16V4570.05H9531.58V4600ZM9598.23 4292.03C9598.23 4308.48 9611.1 4320.72 9627.77 4320.72C9644.43 4320.72 9657.3 4308.48 9657.3 4292.03C9657.3 4275.58 9644.43 4263.34 9627.77 4263.34C9611.1 4263.34 9598.23 4275.58 9598.23 4292.03ZM9823.09 4681H9891.44C9948.81 4681 9982.14 4654 9982.14 4600.42V4372.19H9947.97V4411.63H9944.59C9933.84 4385.9 9907.89 4367.97 9871.82 4367.97C9826.05 4367.97 9788.5 4400.66 9788.5 4454.45V4498.33C9788.5 4552.12 9826.05 4584.81 9871.82 4584.81C9907.89 4584.81 9933.41 4566.88 9944.17 4541.15H9946.7V4597.68C9946.7 4634.8 9928.56 4649.78 9891.44 4649.78H9823.3L9823.09 4681ZM9824.36 4490.95V4461.84C9824.36 4424.29 9847.56 4400.66 9881.31 4400.66C9915.91 4400.66 9946.28 4424.08 9946.28 4463.31V4489.47C9946.28 4528.7 9915.91 4552.12 9881.31 4552.12C9847.56 4552.12 9824.36 4528.49 9824.36 4490.95ZM10062.3 4600H10098.2V4463.31C10098.2 4424.08 10125.4 4400.66 10160 4400.66C10193.7 4400.66 10214.2 4424.29 10214.2 4461.84V4600H10250V4454.45C10250 4400.66 10215.2 4367.97 10169.5 4367.97C10133.4 4367.97 10110.2 4385.9 10099.4 4411.63H10096.5V4289.5H10062.3V4600ZM10457.2 4600.84H10509.1V4569.62H10459.3C10441.4 4569.62 10425.1 4562.24 10425.1 4538.2V4402.56H10514.1V4372.19H10424.7V4307.22H10389.2V4372.19H10324.3V4402.56H10389.2V4539.88C10389.2 4582.49 10419.2 4600.84 10457.2 4600.84ZM10690.3 4604.22C10712.4 4604.22 10729.5 4587.13 10729.5 4565.41C10729.5 4543.68 10712.4 4526.59 10690.3 4526.59C10668.1 4526.59 10651 4543.68 10651 4565.41C10651 4587.13 10668.1 4604.22 10690.3 4604.22Z" fill="white"/>
</svg>
