<svg width="3840" height="1440" viewBox="0 0 3840 1440" fill="none" xmlns="http://www.w3.org/2000/svg">
<rect x="4" y="4" width="3832" height="1432" rx="60" fill="#24292E"/>
<rect x="4" y="4" width="3832" height="1432" rx="60" stroke="#2F363D" stroke-width="8"/>
<path d="M246.057 306.055C255.074 306.055 261.561 301.572 264.25 295.139H265.094V305H273.637V227.375H264.672V257.908H264.039C261.35 251.475 255.074 246.992 246.057 246.992C234.613 246.992 225.227 255.166 225.227 268.613V284.434C225.227 297.881 234.613 306.055 246.057 306.055ZM234.191 282.588V270.459C234.191 261.072 239.992 255.166 248.43 255.166C257.078 255.166 264.672 261.02 264.672 270.828V282.219C264.672 292.027 257.078 297.881 248.43 297.881C239.992 297.881 234.191 291.975 234.191 282.588ZM317.143 306.055C332.277 306.055 341.875 296.932 341.875 281.375V271.619C341.875 256.062 332.277 246.992 317.143 246.992C302.008 246.992 292.41 256.062 292.41 271.619V281.375C292.41 296.932 302.008 306.055 317.143 306.055ZM301.27 280.531V272.41C301.27 261.072 307.334 254.797 317.143 254.797C326.951 254.797 333.016 261.072 333.016 272.41V280.531C333.016 291.922 326.951 298.25 317.143 298.25C307.334 298.25 301.27 291.922 301.27 280.531ZM427.199 305H436.164V270.828C436.164 261.02 442.967 255.166 451.615 255.166C460.053 255.166 465.168 261.072 465.168 270.459V305H474.133V268.613C474.133 255.166 465.432 246.992 453.988 246.992C444.971 246.992 439.275 251.475 436.586 257.908H435.742V248.047H427.199V305ZM517.428 306.055C532.562 306.055 542.16 296.932 542.16 281.375V271.619C542.16 256.062 532.562 246.992 517.428 246.992C502.293 246.992 492.695 256.062 492.695 271.619V281.375C492.695 296.932 502.293 306.055 517.428 306.055ZM501.555 280.531V272.41C501.555 261.072 507.619 254.797 517.428 254.797C527.236 254.797 533.301 261.072 533.301 272.41V280.531C533.301 291.922 527.236 298.25 517.428 298.25C507.619 298.25 501.555 291.922 501.555 280.531ZM592.68 305.211H605.652V297.406H593.207C588.725 297.406 584.664 295.561 584.664 289.549V255.641H606.918V248.047H584.559V231.805H575.699V248.047H559.457V255.641H575.699V289.971C575.699 300.623 583.188 305.211 592.68 305.211ZM699.941 325.25H718.293C732.637 325.25 740.969 318.5 740.969 305.105V248.047H732.426V257.908H731.582C728.893 251.475 722.406 246.992 713.389 246.992C701.945 246.992 692.559 255.166 692.559 268.613V279.582C692.559 293.029 701.945 301.203 713.389 301.203C722.406 301.203 728.787 296.721 731.477 290.287H732.109V304.42C732.109 313.701 727.574 317.445 718.293 317.445H699.941V325.25ZM701.523 277.736V270.459C701.523 261.072 707.324 255.166 715.762 255.166C724.41 255.166 732.004 261.02 732.004 270.828V277.367C732.004 287.176 724.41 293.029 715.762 293.029C707.324 293.029 701.523 287.123 701.523 277.736ZM784.475 306.055C799.609 306.055 809.207 296.932 809.207 281.375V271.619C809.207 256.062 799.609 246.992 784.475 246.992C769.34 246.992 759.742 256.062 759.742 271.619V281.375C759.742 296.932 769.34 306.055 784.475 306.055ZM768.602 280.531V272.41C768.602 261.072 774.666 254.797 784.475 254.797C794.283 254.797 800.348 261.072 800.348 272.41V280.531C800.348 291.922 794.283 298.25 784.475 298.25C774.666 298.25 768.602 291.922 768.602 280.531ZM900.227 325.25H918.578C932.922 325.25 941.254 318.5 941.254 305.105V248.047H932.711V257.908H931.867C929.178 251.475 922.691 246.992 913.674 246.992C902.23 246.992 892.844 255.166 892.844 268.613V279.582C892.844 293.029 902.23 301.203 913.674 301.203C922.691 301.203 929.072 296.721 931.762 290.287H932.395V304.42C932.395 313.701 927.859 317.445 918.578 317.445H900.227V325.25ZM901.809 277.736V270.459C901.809 261.072 907.609 255.166 916.047 255.166C924.695 255.166 932.289 261.02 932.289 270.828V277.367C932.289 287.176 924.695 293.029 916.047 293.029C907.609 293.029 901.809 287.123 901.809 277.736ZM1000.63 271.355H968.887C969.256 260.545 975.268 254.691 984.76 254.691C994.252 254.691 1000.26 260.545 1000.63 271.355ZM960.027 281.375C960.027 296.668 969.625 306.055 984.76 306.055C996.836 306.055 1005.75 300.043 1008.7 289.812H999.209C996.889 295.086 991.457 298.355 984.76 298.355C974.951 298.355 968.887 291.922 968.887 280.531V278.633H1009.49V272.199C1009.49 256.484 999.947 246.992 984.76 246.992C969.625 246.992 960.027 256.379 960.027 272.146V281.375ZM1028.05 305H1037.02V270.828C1037.02 261.02 1043.82 255.166 1052.47 255.166C1060.91 255.166 1066.02 261.072 1066.02 270.459V305H1074.99V268.613C1074.99 255.166 1066.29 246.992 1054.84 246.992C1045.83 246.992 1040.13 251.475 1037.44 257.908H1036.6V248.047H1028.05V305ZM1126.77 305.211H1139.75V297.406H1127.3C1122.82 297.406 1118.76 295.561 1118.76 289.549V255.641H1141.01V248.047H1118.65V231.805H1109.79V248.047H1093.55V255.641H1109.79V289.971C1109.79 300.623 1117.28 305.211 1126.77 305.211ZM1162.42 305H1210.09V297.512H1191.53V227.375H1164.95V234.863H1182.57V297.512H1162.42V305ZM1267.68 271.355H1235.93C1236.3 260.545 1242.31 254.691 1251.81 254.691C1261.3 254.691 1267.31 260.545 1267.68 271.355ZM1227.07 281.375C1227.07 296.668 1236.67 306.055 1251.81 306.055C1263.88 306.055 1272.79 300.043 1275.75 289.812H1266.26C1263.94 295.086 1258.5 298.355 1251.81 298.355C1242 298.355 1235.93 291.922 1235.93 280.531V278.633H1276.54V272.199C1276.54 256.484 1266.99 246.992 1251.81 246.992C1236.67 246.992 1227.07 256.379 1227.07 272.146V281.375ZM1362.71 305H1410.38V297.512H1391.82V248.047H1365.24V255.535H1382.85V297.512H1362.71V305ZM1379.37 228.008C1379.37 232.121 1382.59 235.18 1386.75 235.18C1390.92 235.18 1394.14 232.121 1394.14 228.008C1394.14 223.895 1390.92 220.836 1386.75 220.836C1382.59 220.836 1379.37 223.895 1379.37 228.008ZM1428.62 305H1437.59V270.828C1437.59 261.02 1444.39 255.166 1453.04 255.166C1461.48 255.166 1466.59 261.072 1466.59 270.459V305H1475.56V268.613C1475.56 255.166 1466.86 246.992 1455.41 246.992C1446.4 246.992 1440.7 251.475 1438.01 257.908H1437.17V248.047H1428.62V305ZM1527.34 305.211H1540.32V297.406H1527.87C1523.39 297.406 1519.33 295.561 1519.33 289.549V255.641H1541.58V248.047H1519.22V231.805H1510.36V248.047H1494.12V255.641H1510.36V289.971C1510.36 300.623 1517.85 305.211 1527.34 305.211ZM1585.62 306.055C1600.75 306.055 1610.35 296.932 1610.35 281.375V271.619C1610.35 256.062 1600.75 246.992 1585.62 246.992C1570.48 246.992 1560.88 256.062 1560.88 271.619V281.375C1560.88 296.932 1570.48 306.055 1585.62 306.055ZM1569.74 280.531V272.41C1569.74 261.072 1575.81 254.797 1585.62 254.797C1595.42 254.797 1601.49 261.072 1601.49 272.41V280.531C1601.49 291.922 1595.42 298.25 1585.62 298.25C1575.81 298.25 1569.74 291.922 1569.74 280.531ZM1727.63 305.211H1740.6V297.406H1728.16C1723.67 297.406 1719.61 295.561 1719.61 289.549V255.641H1741.87V248.047H1719.51V231.805H1710.65V248.047H1694.41V255.641H1710.65V289.971C1710.65 300.623 1718.14 305.211 1727.63 305.211ZM1762.43 305H1771.4V270.828C1771.4 261.02 1778.2 255.166 1786.85 255.166C1795.29 255.166 1800.4 261.072 1800.4 270.459V305H1809.37V268.613C1809.37 255.166 1800.67 246.992 1789.22 246.992C1780.21 246.992 1774.4 251.475 1771.71 257.908H1770.98V227.375H1762.43V305ZM1847.97 306.055C1858.41 306.055 1864.37 299.832 1866.43 295.139H1867.27V305H1875.5V267.295C1875.5 255.271 1867.43 246.992 1853.98 246.992C1841.69 246.992 1833.62 253.426 1831.09 263.234H1839.74C1841.22 258.277 1846.6 254.744 1852.66 254.744C1861.79 254.744 1867.06 259.543 1867.06 267.453V271.461H1850.61C1836.58 271.461 1828.46 278.896 1828.46 289.602C1828.46 298.619 1835.63 306.055 1847.97 306.055ZM1837.21 288.494C1837.21 282.113 1843.38 278.527 1851.4 278.527H1867.06V284.539C1867.06 292.396 1857.83 298.566 1850.71 298.566C1843.17 298.566 1837.21 295.086 1837.21 288.494ZM1927.91 305.211H1940.89V297.406H1928.44C1923.96 297.406 1919.9 295.561 1919.9 289.549V255.641H1942.15V248.047H1919.79V231.805H1910.93V248.047H1894.69V255.641H1910.93V289.971C1910.93 300.623 1918.42 305.211 1927.91 305.211ZM2035.18 325.25H2053.53C2067.87 325.25 2076.2 318.5 2076.2 305.105V248.047H2067.66V257.908H2066.82C2064.13 251.475 2057.64 246.992 2048.62 246.992C2037.18 246.992 2027.79 255.166 2027.79 268.613V279.582C2027.79 293.029 2037.18 301.203 2048.62 301.203C2057.64 301.203 2064.02 296.721 2066.71 290.287H2067.34V304.42C2067.34 313.701 2062.81 317.445 2053.53 317.445H2035.18V325.25ZM2036.76 277.736V270.459C2036.76 261.072 2042.56 255.166 2051 255.166C2059.64 255.166 2067.24 261.02 2067.24 270.828V277.367C2067.24 287.176 2059.64 293.029 2051 293.029C2042.56 293.029 2036.76 287.123 2036.76 277.736ZM2119.71 306.055C2134.84 306.055 2144.44 296.932 2144.44 281.375V271.619C2144.44 256.062 2134.84 246.992 2119.71 246.992C2104.57 246.992 2094.98 256.062 2094.98 271.619V281.375C2094.98 296.932 2104.57 306.055 2119.71 306.055ZM2103.84 280.531V272.41C2103.84 261.072 2109.9 254.797 2119.71 254.797C2129.52 254.797 2135.58 261.072 2135.58 272.41V280.531C2135.58 291.922 2129.52 298.25 2119.71 298.25C2109.9 298.25 2103.84 291.922 2103.84 280.531ZM2186.47 306.055C2201.61 306.055 2211.2 296.932 2211.2 281.375V271.619C2211.2 256.062 2201.61 246.992 2186.47 246.992C2171.34 246.992 2161.74 256.062 2161.74 271.619V281.375C2161.74 296.932 2171.34 306.055 2186.47 306.055ZM2170.6 280.531V272.41C2170.6 261.072 2176.66 254.797 2186.47 254.797C2196.28 254.797 2202.34 261.072 2202.34 272.41V280.531C2202.34 291.922 2196.28 298.25 2186.47 298.25C2176.66 298.25 2170.6 291.922 2170.6 280.531ZM2248.91 306.055C2257.93 306.055 2264.41 301.572 2267.1 295.139H2267.95V305H2276.49V227.375H2267.52V257.908H2266.89C2264.2 251.475 2257.93 246.992 2248.91 246.992C2237.46 246.992 2228.08 255.166 2228.08 268.613V284.434C2228.08 297.881 2237.46 306.055 2248.91 306.055ZM2237.04 282.588V270.459C2237.04 261.072 2242.84 255.166 2251.28 255.166C2259.93 255.166 2267.52 261.02 2267.52 270.828V282.219C2267.52 292.027 2259.93 297.881 2251.28 297.881C2242.84 297.881 2237.04 291.975 2237.04 282.588ZM2363.29 305H2372.25V270.828C2372.25 261.02 2379.06 255.166 2387.71 255.166C2396.14 255.166 2401.26 261.072 2401.26 270.459V305H2410.22V268.613C2410.22 255.166 2401.52 246.992 2390.08 246.992C2381.06 246.992 2375.37 251.475 2372.68 257.908H2371.83V248.047H2363.29V305ZM2430.89 305H2478.57V297.512H2460V248.047H2433.43V255.535H2451.04V297.512H2430.89V305ZM2447.56 228.008C2447.56 232.121 2450.78 235.18 2454.94 235.18C2459.11 235.18 2462.32 232.121 2462.32 228.008C2462.32 223.895 2459.11 220.836 2454.94 220.836C2450.78 220.836 2447.56 223.895 2447.56 228.008ZM2502.51 325.25H2520.86C2535.2 325.25 2543.54 318.5 2543.54 305.105V248.047H2534.99V257.908H2534.15C2531.46 251.475 2524.97 246.992 2515.96 246.992C2504.51 246.992 2495.12 255.166 2495.12 268.613V279.582C2495.12 293.029 2504.51 301.203 2515.96 301.203C2524.97 301.203 2531.35 296.721 2534.04 290.287H2534.68V304.42C2534.68 313.701 2530.14 317.445 2520.86 317.445H2502.51V325.25ZM2504.09 277.736V270.459C2504.09 261.072 2509.89 255.166 2518.33 255.166C2526.98 255.166 2534.57 261.02 2534.57 270.828V277.367C2534.57 287.176 2526.98 293.029 2518.33 293.029C2509.89 293.029 2504.09 287.123 2504.09 277.736ZM2563.57 305H2572.54V270.828C2572.54 261.02 2579.34 255.166 2587.99 255.166C2596.43 255.166 2601.54 261.072 2601.54 270.459V305H2610.51V268.613C2610.51 255.166 2601.81 246.992 2590.36 246.992C2581.35 246.992 2575.54 251.475 2572.86 257.908H2572.12V227.375H2563.57V305ZM2662.29 305.211H2675.27V297.406H2662.82C2658.34 297.406 2654.28 295.561 2654.28 289.549V255.641H2676.53V248.047H2654.17V231.805H2645.31V248.047H2629.07V255.641H2645.31V289.971C2645.31 300.623 2652.8 305.211 2662.29 305.211ZM2717.82 319.713L2728.84 287.967H2717.08L2709.86 319.713H2717.82ZM250.381 457.055C265.516 457.055 275.113 447.932 275.113 432.375V422.619C275.113 407.062 265.516 397.992 250.381 397.992C235.246 397.992 225.648 407.062 225.648 422.619V432.375C225.648 447.932 235.246 457.055 250.381 457.055ZM234.508 431.531V423.41C234.508 412.072 240.572 405.797 250.381 405.797C260.189 405.797 266.254 412.072 266.254 423.41V431.531C266.254 442.922 260.189 449.25 250.381 449.25C240.572 449.25 234.508 442.922 234.508 431.531ZM294.52 456H342.191V448.512H323.629V378.375H297.051V385.863H314.664V448.512H294.52V456ZM379.58 457.055C388.598 457.055 395.084 452.572 397.773 446.139H398.617V456H407.16V378.375H398.195V408.908H397.562C394.873 402.475 388.598 397.992 379.58 397.992C368.137 397.992 358.75 406.166 358.75 419.613V435.434C358.75 448.881 368.137 457.055 379.58 457.055ZM367.715 433.588V421.459C367.715 412.072 373.516 406.166 381.953 406.166C390.602 406.166 398.195 412.02 398.195 421.828V433.219C398.195 443.027 390.602 448.881 381.953 448.881C373.516 448.881 367.715 442.975 367.715 433.588ZM512.734 457.055C523.176 457.055 529.135 450.832 531.191 446.139H532.035V456H540.262V418.295C540.262 406.271 532.193 397.992 518.746 397.992C506.459 397.992 498.391 404.426 495.859 414.234H504.508C505.984 409.277 511.363 405.744 517.428 405.744C526.551 405.744 531.824 410.543 531.824 418.453V422.461H515.371C501.344 422.461 493.223 429.896 493.223 440.602C493.223 449.619 500.395 457.055 512.734 457.055ZM501.977 439.494C501.977 433.113 508.146 429.527 516.162 429.527H531.824V435.539C531.824 443.396 522.596 449.566 515.477 449.566C507.936 449.566 501.977 446.086 501.977 439.494ZM566.418 476.25H584.77C599.113 476.25 607.445 469.5 607.445 456.105V399.047H598.902V408.908H598.059C595.369 402.475 588.883 397.992 579.865 397.992C568.422 397.992 559.035 406.166 559.035 419.613V430.582C559.035 444.029 568.422 452.203 579.865 452.203C588.883 452.203 595.264 447.721 597.953 441.287H598.586V455.42C598.586 464.701 594.051 468.445 584.77 468.445H566.418V476.25ZM568 428.736V421.459C568 412.072 573.801 406.166 582.238 406.166C590.887 406.166 598.48 412.02 598.48 421.828V428.367C598.48 438.176 590.887 444.029 582.238 444.029C573.801 444.029 568 438.123 568 428.736ZM666.824 422.355H635.078C635.447 411.545 641.459 405.691 650.951 405.691C660.443 405.691 666.455 411.545 666.824 422.355ZM626.219 432.375C626.219 447.668 635.816 457.055 650.951 457.055C663.027 457.055 671.939 451.043 674.893 440.812H665.4C663.08 446.086 657.648 449.355 650.951 449.355C641.143 449.355 635.078 442.922 635.078 431.531V429.633H675.684V423.199C675.684 407.484 666.139 397.992 650.951 397.992C635.816 397.992 626.219 407.379 626.219 423.146V432.375ZM784.422 457.055C797.764 457.055 806.834 450.99 806.834 440.496C806.834 432.428 801.719 426.996 790.697 424.307L783.156 422.461C776.723 420.879 772.557 418.242 772.557 413.391C772.557 408.223 777.303 405.428 784.58 405.428C791.277 405.428 795.496 408.539 797.131 414.234H805.885C803.934 405.059 797.553 397.992 784.738 397.992C772.188 397.992 763.645 404.109 763.645 413.971C763.645 422.092 768.76 427.84 779.043 430.107L786.689 431.795C793.018 433.219 797.553 436.066 797.553 441.182C797.553 446.508 792.438 449.461 784.791 449.461C777.408 449.461 772.24 445.98 770.975 440.812H761.852C763.434 450.621 771.344 457.055 784.422 457.055ZM827.77 456H836.734V421.828C836.734 412.02 843.537 406.166 852.186 406.166C860.623 406.166 865.738 412.072 865.738 421.459V456H874.703V419.613C874.703 406.166 866.002 397.992 854.559 397.992C845.541 397.992 839.74 402.475 837.051 408.908H836.312V378.375H827.77V456ZM917.998 457.055C933.133 457.055 942.73 447.932 942.73 432.375V422.619C942.73 407.062 933.133 397.992 917.998 397.992C902.863 397.992 893.266 407.062 893.266 422.619V432.375C893.266 447.932 902.863 457.055 917.998 457.055ZM902.125 431.531V423.41C902.125 412.072 908.189 405.797 917.998 405.797C927.807 405.797 933.871 412.072 933.871 423.41V431.531C933.871 442.922 927.807 449.25 917.998 449.25C908.189 449.25 902.125 442.922 902.125 431.531ZM981.438 457.055C990.455 457.055 996.15 452.572 998.84 446.139H999.684V456H1008.23V399.047H999.262V433.219C999.262 443.027 992.459 448.881 983.811 448.881C975.373 448.881 970.258 442.975 970.258 433.588V399.047H961.293V435.434C961.293 448.881 969.994 457.055 981.438 457.055ZM1028.9 456H1076.57V448.512H1058.01V378.375H1031.43V385.863H1049.04V448.512H1028.9V456ZM1113.96 457.055C1122.98 457.055 1129.46 452.572 1132.15 446.139H1133V456H1141.54V378.375H1132.57V408.908H1131.94C1129.25 402.475 1122.98 397.992 1113.96 397.992C1102.52 397.992 1093.13 406.166 1093.13 419.613V435.434C1093.13 448.881 1102.52 457.055 1113.96 457.055ZM1102.09 433.588V421.459C1102.09 412.072 1107.89 406.166 1116.33 406.166C1124.98 406.166 1132.57 412.02 1132.57 421.828V433.219C1132.57 443.027 1124.98 448.881 1116.33 448.881C1107.89 448.881 1102.09 442.975 1102.09 433.588ZM1256.13 457.055C1267.57 457.055 1276.96 448.881 1276.96 435.434V419.613C1276.96 406.166 1267.57 397.992 1256.13 397.992C1247.11 397.992 1240.84 402.475 1238.15 408.908H1237.52V378.375H1228.55V456H1237.09V446.139H1237.94C1240.63 452.572 1247.11 457.055 1256.13 457.055ZM1237.52 433.219V421.828C1237.52 412.02 1245.11 406.166 1253.76 406.166C1262.2 406.166 1268 412.072 1268 421.459V433.588C1268 442.975 1262.2 448.881 1253.76 448.881C1245.11 448.881 1237.52 443.027 1237.52 433.219ZM1315.25 457.055C1324.26 457.055 1329.96 452.572 1332.65 446.139H1333.49V456H1342.04V399.047H1333.07V433.219C1333.07 443.027 1326.27 448.881 1317.62 448.881C1309.18 448.881 1304.07 442.975 1304.07 433.588V399.047H1295.1V435.434C1295.1 448.881 1303.8 457.055 1315.25 457.055ZM1362.5 456H1399.73V448.512H1381.16V425.836C1381.16 412.02 1390.97 406.852 1400.57 406.852C1404.58 406.852 1408.9 407.801 1412.33 409.436V400.471C1409.32 398.678 1406.42 397.992 1401.78 397.992C1390.55 397.992 1384.49 403.266 1382.01 411.703H1381.16V399.047H1363.76V406.535H1372.2V448.512H1362.5V456ZM1428.62 456H1437.59V421.828C1437.59 412.02 1444.39 406.166 1453.04 406.166C1461.48 406.166 1466.59 412.072 1466.59 421.459V456H1475.56V419.613C1475.56 406.166 1466.86 397.992 1455.41 397.992C1446.4 397.992 1440.7 402.475 1438.01 408.908H1437.17V399.047H1428.62V456ZM1580.92 457.055C1591.36 457.055 1597.32 450.832 1599.38 446.139H1600.22V456H1608.45V418.295C1608.45 406.271 1600.38 397.992 1586.93 397.992C1574.65 397.992 1566.58 404.426 1564.05 414.234H1572.7C1574.17 409.277 1579.55 405.744 1585.62 405.744C1594.74 405.744 1600.01 410.543 1600.01 418.453V422.461H1583.56C1569.53 422.461 1561.41 429.896 1561.41 440.602C1561.41 449.619 1568.58 457.055 1580.92 457.055ZM1570.16 439.494C1570.16 433.113 1576.33 429.527 1584.35 429.527H1600.01V435.539C1600.01 443.396 1590.78 449.566 1583.66 449.566C1576.12 449.566 1570.16 446.086 1570.16 439.494ZM1628.91 456H1637.88V421.828C1637.88 412.02 1644.68 406.166 1653.33 406.166C1661.76 406.166 1666.88 412.072 1666.88 421.459V456H1675.84V419.613C1675.84 406.166 1667.14 397.992 1655.7 397.992C1646.68 397.992 1640.99 402.475 1638.3 408.908H1637.45V399.047H1628.91V456ZM1714.81 457.055C1723.83 457.055 1730.32 452.572 1733.01 446.139H1733.85V456H1742.39V378.375H1733.43V408.908H1732.8C1730.11 402.475 1723.83 397.992 1714.81 397.992C1703.37 397.992 1693.98 406.166 1693.98 419.613V435.434C1693.98 448.881 1703.37 457.055 1714.81 457.055ZM1702.95 433.588V421.459C1702.95 412.072 1708.75 406.166 1717.19 406.166C1725.84 406.166 1733.43 412.02 1733.43 421.828V433.219C1733.43 443.027 1725.84 448.881 1717.19 448.881C1708.75 448.881 1702.95 442.975 1702.95 433.588ZM1829.83 456H1867.06V448.512H1848.5V425.836C1848.5 412.02 1858.3 406.852 1867.9 406.852C1871.91 406.852 1876.23 407.801 1879.66 409.436V400.471C1876.66 398.678 1873.76 397.992 1869.12 397.992C1857.88 397.992 1851.82 403.266 1849.34 411.703H1848.5V399.047H1831.09V406.535H1839.53V448.512H1829.83V456ZM1914.73 457.055C1925.17 457.055 1931.13 450.832 1933.19 446.139H1934.03V456H1942.26V418.295C1942.26 406.271 1934.19 397.992 1920.74 397.992C1908.46 397.992 1900.39 404.426 1897.86 414.234H1906.5C1907.98 409.277 1913.36 405.744 1919.42 405.744C1928.55 405.744 1933.82 410.543 1933.82 418.453V422.461H1917.37C1903.34 422.461 1895.22 429.896 1895.22 440.602C1895.22 449.619 1902.39 457.055 1914.73 457.055ZM1903.97 439.494C1903.97 433.113 1910.14 429.527 1918.16 429.527H1933.82V435.539C1933.82 443.396 1924.59 449.566 1917.47 449.566C1909.93 449.566 1903.97 446.086 1903.97 439.494ZM1981.7 456H1990.67L2011.71 399.047H2002.27L1986.45 444.451H1985.92L1970.1 399.047H1960.66L1981.7 456ZM2068.82 422.355H2037.07C2037.44 411.545 2043.46 405.691 2052.95 405.691C2062.44 405.691 2068.45 411.545 2068.82 422.355ZM2028.21 432.375C2028.21 447.668 2037.81 457.055 2052.95 457.055C2065.02 457.055 2073.94 451.043 2076.89 440.812H2067.4C2065.08 446.086 2059.64 449.355 2052.95 449.355C2043.14 449.355 2037.07 442.922 2037.07 431.531V429.633H2077.68V423.199C2077.68 407.484 2068.13 397.992 2052.95 397.992C2037.81 397.992 2028.21 407.379 2028.21 423.146V432.375ZM2181.78 457.055C2192.22 457.055 2198.18 450.832 2200.23 446.139H2201.08V456H2209.3V418.295C2209.3 406.271 2201.24 397.992 2187.79 397.992C2175.5 397.992 2167.43 404.426 2164.9 414.234H2173.55C2175.03 409.277 2180.41 405.744 2186.47 405.744C2195.59 405.744 2200.87 410.543 2200.87 418.453V422.461H2184.41C2170.39 422.461 2162.27 429.896 2162.27 440.602C2162.27 449.619 2169.44 457.055 2181.78 457.055ZM2171.02 439.494C2171.02 433.113 2177.19 429.527 2185.21 429.527H2200.87V435.539C2200.87 443.396 2191.64 449.566 2184.52 449.566C2176.98 449.566 2171.02 446.086 2171.02 439.494ZM2261.72 456.211H2274.7V448.406H2262.25C2257.77 448.406 2253.71 446.561 2253.71 440.549V406.641H2275.96V399.047H2253.6V382.805H2244.74V399.047H2228.5V406.641H2244.74V440.971C2244.74 451.623 2252.23 456.211 2261.72 456.211ZM2387.34 457.055C2399.78 457.055 2408.38 451.096 2411.28 440.812H2401.84C2399.73 446.35 2394.35 449.25 2387.34 449.25C2377.53 449.25 2370.88 442.922 2370.88 431.531V423.41C2370.88 412.072 2377.53 405.797 2387.34 405.797C2394.3 405.797 2399.73 408.697 2401.79 414.234H2411.22C2408.27 404.004 2399.73 397.992 2387.34 397.992C2372.2 397.992 2362.02 407.062 2362.02 422.619V432.375C2362.02 447.932 2372.2 457.055 2387.34 457.055ZM2430.89 456H2478.57V448.512H2460V378.375H2433.43V385.863H2451.04V448.512H2430.89V456ZM2520.28 457.055C2535.41 457.055 2545.01 447.932 2545.01 432.375V422.619C2545.01 407.062 2535.41 397.992 2520.28 397.992C2505.14 397.992 2495.55 407.062 2495.55 422.619V432.375C2495.55 447.932 2505.14 457.055 2520.28 457.055ZM2504.41 431.531V423.41C2504.41 412.072 2510.47 405.797 2520.28 405.797C2530.09 405.797 2536.15 412.072 2536.15 423.41V431.531C2536.15 442.922 2530.09 449.25 2520.28 449.25C2510.47 449.25 2504.41 442.922 2504.41 431.531ZM2586.99 457.055C2600.33 457.055 2609.4 450.99 2609.4 440.496C2609.4 432.428 2604.29 426.996 2593.26 424.307L2585.72 422.461C2579.29 420.879 2575.12 418.242 2575.12 413.391C2575.12 408.223 2579.87 405.428 2587.15 405.428C2593.84 405.428 2598.06 408.539 2599.7 414.234H2608.45C2606.5 405.059 2600.12 397.992 2587.3 397.992C2574.75 397.992 2566.21 404.109 2566.21 413.971C2566.21 422.092 2571.33 427.84 2581.61 430.107L2589.26 431.795C2595.58 433.219 2600.12 436.066 2600.12 441.182C2600.12 446.508 2595 449.461 2587.36 449.461C2579.97 449.461 2574.81 445.98 2573.54 440.812H2564.42C2566 450.621 2573.91 457.055 2586.99 457.055ZM2669.68 422.355H2637.93C2638.3 411.545 2644.31 405.691 2653.8 405.691C2663.29 405.691 2669.31 411.545 2669.68 422.355ZM2629.07 432.375C2629.07 447.668 2638.67 457.055 2653.8 457.055C2665.88 457.055 2674.79 451.043 2677.74 440.812H2668.25C2665.93 446.086 2660.5 449.355 2653.8 449.355C2643.99 449.355 2637.93 442.922 2637.93 431.531V429.633H2678.54V423.199C2678.54 407.484 2668.99 397.992 2653.8 397.992C2638.67 397.992 2629.07 407.379 2629.07 423.146V432.375ZM2787.33 457.055C2802.46 457.055 2812.06 447.932 2812.06 432.375V422.619C2812.06 407.062 2802.46 397.992 2787.33 397.992C2772.19 397.992 2762.59 407.062 2762.59 422.619V432.375C2762.59 447.932 2772.19 457.055 2787.33 457.055ZM2771.45 431.531V423.41C2771.45 412.072 2777.52 405.797 2787.33 405.797C2797.13 405.797 2803.2 412.072 2803.2 423.41V431.531C2803.2 442.922 2797.13 449.25 2787.33 449.25C2777.52 449.25 2771.45 442.922 2771.45 431.531ZM2847.29 456H2856.14V406.641H2878.5V399.047H2856.25V394.037C2856.25 388.025 2860.31 386.18 2864.79 386.18H2877.24V378.375H2864.27C2854.77 378.375 2847.29 382.963 2847.29 393.615V399.047H2831.04V406.641H2847.29V456ZM2983.29 457.055C2992.3 457.055 2998.79 452.572 3001.48 446.139H3002.32V456H3010.87V378.375H3001.9V408.908H3001.27C2998.58 402.475 2992.3 397.992 2983.29 397.992C2971.84 397.992 2962.46 406.166 2962.46 419.613V435.434C2962.46 448.881 2971.84 457.055 2983.29 457.055ZM2971.42 433.588V421.459C2971.42 412.072 2977.22 406.166 2985.66 406.166C2994.31 406.166 3001.9 412.02 3001.9 421.828V433.219C3001.9 443.027 2994.31 448.881 2985.66 448.881C2977.22 448.881 2971.42 442.975 2971.42 433.588ZM3049.68 457.055C3060.12 457.055 3066.08 450.832 3068.14 446.139H3068.98V456H3077.21V418.295C3077.21 406.271 3069.14 397.992 3055.69 397.992C3043.4 397.992 3035.34 404.426 3032.8 414.234H3041.45C3042.93 409.277 3048.31 405.744 3054.37 405.744C3063.5 405.744 3068.77 410.543 3068.77 418.453V422.461H3052.32C3038.29 422.461 3030.17 429.896 3030.17 440.602C3030.17 449.619 3037.34 457.055 3049.68 457.055ZM3038.92 439.494C3038.92 433.113 3045.09 429.527 3053.11 429.527H3068.77V435.539C3068.77 443.396 3059.54 449.566 3052.42 449.566C3044.88 449.566 3038.92 446.086 3038.92 439.494ZM3099.57 476.25H3107.21C3114.6 476.25 3119.61 472.137 3123.14 462.592L3146.55 399.047H3137.17L3121.4 444.346H3120.82L3105.1 399.047H3095.72L3116.65 455.947L3114.6 461.59C3113.07 465.861 3110.32 468.445 3105.37 468.445H3099.57V476.25ZM3185.15 470.713L3196.18 438.967H3184.42L3177.19 470.713H3185.15ZM227.547 607H264.777V599.512H246.215V576.836C246.215 563.02 256.023 557.852 265.621 557.852C269.629 557.852 273.953 558.801 277.381 560.436V551.471C274.375 549.678 271.475 548.992 266.834 548.992C255.602 548.992 249.537 554.266 247.059 562.703H246.215V550.047H228.812V557.535H237.25V599.512H227.547V607ZM312.449 608.055C322.891 608.055 328.85 601.832 330.906 597.139H331.75V607H339.977V569.295C339.977 557.271 331.908 548.992 318.461 548.992C306.174 548.992 298.105 555.426 295.574 565.234H304.223C305.699 560.277 311.078 556.744 317.143 556.744C326.266 556.744 331.539 561.543 331.539 569.453V573.461H315.086C301.059 573.461 292.938 580.896 292.938 591.602C292.938 600.619 300.109 608.055 312.449 608.055ZM301.691 590.494C301.691 584.113 307.861 580.527 315.877 580.527H331.539V586.539C331.539 594.396 322.311 600.566 315.191 600.566C307.65 600.566 301.691 597.086 301.691 590.494ZM366.133 627.25H384.484C398.828 627.25 407.16 620.5 407.16 607.105V550.047H398.617V559.908H397.773C395.084 553.475 388.598 548.992 379.58 548.992C368.137 548.992 358.75 557.166 358.75 570.613V581.582C358.75 595.029 368.137 603.203 379.58 603.203C388.598 603.203 394.979 598.721 397.668 592.287H398.301V606.42C398.301 615.701 393.766 619.445 384.484 619.445H366.133V627.25ZM367.715 579.736V572.459C367.715 563.072 373.516 557.166 381.953 557.166C390.602 557.166 398.195 563.02 398.195 572.828V579.367C398.195 589.176 390.602 595.029 381.953 595.029C373.516 595.029 367.715 589.123 367.715 579.736ZM466.539 573.355H434.793C435.162 562.545 441.174 556.691 450.666 556.691C460.158 556.691 466.17 562.545 466.539 573.355ZM425.934 583.375C425.934 598.668 435.531 608.055 450.666 608.055C462.742 608.055 471.654 602.043 474.607 591.812H465.115C462.795 597.086 457.363 600.355 450.666 600.355C440.857 600.355 434.793 593.922 434.793 582.531V580.633H475.398V574.199C475.398 558.484 465.854 548.992 450.666 548.992C435.531 548.992 425.934 558.379 425.934 574.146V583.375ZM514.686 621.713L525.707 589.967H513.947L506.723 621.713H514.686ZM628.117 607H665.348V599.512H646.785V576.836C646.785 563.02 656.594 557.852 666.191 557.852C670.199 557.852 674.523 558.801 677.951 560.436V551.471C674.945 549.678 672.045 548.992 667.404 548.992C656.172 548.992 650.107 554.266 647.629 562.703H646.785V550.047H629.383V557.535H637.82V599.512H628.117V607ZM713.02 608.055C723.461 608.055 729.42 601.832 731.477 597.139H732.32V607H740.547V569.295C740.547 557.271 732.479 548.992 719.031 548.992C706.744 548.992 698.676 555.426 696.145 565.234H704.793C706.27 560.277 711.648 556.744 717.713 556.744C726.836 556.744 732.109 561.543 732.109 569.453V573.461H715.656C701.629 573.461 693.508 580.896 693.508 591.602C693.508 600.619 700.68 608.055 713.02 608.055ZM702.262 590.494C702.262 584.113 708.432 580.527 716.447 580.527H732.109V586.539C732.109 594.396 722.881 600.566 715.762 600.566C708.221 600.566 702.262 597.086 702.262 590.494ZM766.703 627.25H785.055C799.398 627.25 807.73 620.5 807.73 607.105V550.047H799.188V559.908H798.344C795.654 553.475 789.168 548.992 780.15 548.992C768.707 548.992 759.32 557.166 759.32 570.613V581.582C759.32 595.029 768.707 603.203 780.15 603.203C789.168 603.203 795.549 598.721 798.238 592.287H798.871V606.42C798.871 615.701 794.336 619.445 785.055 619.445H766.703V627.25ZM768.285 579.736V572.459C768.285 563.072 774.086 557.166 782.523 557.166C791.172 557.166 798.766 563.02 798.766 572.828V579.367C798.766 589.176 791.172 595.029 782.523 595.029C774.086 595.029 768.285 589.123 768.285 579.736ZM867.109 573.355H835.363C835.732 562.545 841.744 556.691 851.236 556.691C860.729 556.691 866.74 562.545 867.109 573.355ZM826.504 583.375C826.504 598.668 836.102 608.055 851.236 608.055C863.312 608.055 872.225 602.043 875.178 591.812H865.686C863.365 597.086 857.934 600.355 851.236 600.355C841.428 600.355 835.363 593.922 835.363 582.531V580.633H875.969V574.199C875.969 558.484 866.424 548.992 851.236 548.992C836.102 548.992 826.504 558.379 826.504 574.146V583.375ZM980.066 608.055C990.508 608.055 996.467 601.832 998.523 597.139H999.367V607H1007.59V569.295C1007.59 557.271 999.525 548.992 986.078 548.992C973.791 548.992 965.723 555.426 963.191 565.234H971.84C973.316 560.277 978.695 556.744 984.76 556.744C993.883 556.744 999.156 561.543 999.156 569.453V573.461H982.703C968.676 573.461 960.555 580.896 960.555 591.602C960.555 600.619 967.727 608.055 980.066 608.055ZM969.309 590.494C969.309 584.113 975.479 580.527 983.494 580.527H999.156V586.539C999.156 594.396 989.928 600.566 982.809 600.566C975.268 600.566 969.309 597.086 969.309 590.494ZM1033.75 627.25H1052.1C1066.45 627.25 1074.78 620.5 1074.78 607.105V550.047H1066.23V559.908H1065.39C1062.7 553.475 1056.21 548.992 1047.2 548.992C1035.75 548.992 1026.37 557.166 1026.37 570.613V581.582C1026.37 595.029 1035.75 603.203 1047.2 603.203C1056.21 603.203 1062.6 598.721 1065.29 592.287H1065.92V606.42C1065.92 615.701 1061.38 619.445 1052.1 619.445H1033.75V627.25ZM1035.33 579.736V572.459C1035.33 563.072 1041.13 557.166 1049.57 557.166C1058.22 557.166 1065.81 563.02 1065.81 572.828V579.367C1065.81 589.176 1058.22 595.029 1049.57 595.029C1041.13 595.029 1035.33 589.123 1035.33 579.736ZM1113.59 608.055C1124.03 608.055 1129.99 601.832 1132.05 597.139H1132.89V607H1141.12V569.295C1141.12 557.271 1133.05 548.992 1119.6 548.992C1107.31 548.992 1099.25 555.426 1096.71 565.234H1105.36C1106.84 560.277 1112.22 556.744 1118.28 556.744C1127.41 556.744 1132.68 561.543 1132.68 569.453V573.461H1116.23C1102.2 573.461 1094.08 580.896 1094.08 591.602C1094.08 600.619 1101.25 608.055 1113.59 608.055ZM1102.83 590.494C1102.83 584.113 1109 580.527 1117.02 580.527H1132.68V586.539C1132.68 594.396 1123.45 600.566 1116.33 600.566C1108.79 600.566 1102.83 597.086 1102.83 590.494ZM1162.42 607H1210.09V599.512H1191.53V550.047H1164.95V557.535H1182.57V599.512H1162.42V607ZM1179.09 530.008C1179.09 534.121 1182.3 537.18 1186.47 537.18C1190.63 537.18 1193.85 534.121 1193.85 530.008C1193.85 525.895 1190.63 522.836 1186.47 522.836C1182.3 522.836 1179.09 525.895 1179.09 530.008ZM1228.34 607H1237.3V572.828C1237.3 563.02 1244.11 557.166 1252.76 557.166C1261.19 557.166 1266.31 563.072 1266.31 572.459V607H1275.27V570.613C1275.27 557.166 1266.57 548.992 1255.13 548.992C1246.11 548.992 1240.42 553.475 1237.73 559.908H1236.88V550.047H1228.34V607ZM1318.52 608.055C1331.86 608.055 1340.93 601.99 1340.93 591.496C1340.93 583.428 1335.81 577.996 1324.79 575.307L1317.25 573.461C1310.82 571.879 1306.65 569.242 1306.65 564.391C1306.65 559.223 1311.4 556.428 1318.67 556.428C1325.37 556.428 1329.59 559.539 1331.22 565.234H1339.98C1338.03 556.059 1331.65 548.992 1318.83 548.992C1306.28 548.992 1297.74 555.109 1297.74 564.971C1297.74 573.092 1302.85 578.84 1313.14 581.107L1320.78 582.795C1327.11 584.219 1331.65 587.066 1331.65 592.182C1331.65 597.508 1326.53 600.461 1318.88 600.461C1311.5 600.461 1306.33 596.98 1305.07 591.812H1295.95C1297.53 601.621 1305.44 608.055 1318.52 608.055ZM1393.82 607.211H1406.79V599.406H1394.35C1389.87 599.406 1385.8 597.561 1385.8 591.549V557.641H1408.06V550.047H1385.7V533.805H1376.84V550.047H1360.6V557.641H1376.84V591.971C1376.84 602.623 1384.33 607.211 1393.82 607.211ZM1527.34 607.211H1540.32V599.406H1527.87C1523.39 599.406 1519.33 597.561 1519.33 591.549V557.641H1541.58V550.047H1519.22V533.805H1510.36V550.047H1494.12V557.641H1510.36V591.971C1510.36 602.623 1517.85 607.211 1527.34 607.211ZM1562.15 607H1571.11V572.828C1571.11 563.02 1577.92 557.166 1586.56 557.166C1595 557.166 1600.12 563.072 1600.12 572.459V607H1609.08V570.613C1609.08 557.166 1600.38 548.992 1588.94 548.992C1579.92 548.992 1574.12 553.475 1571.43 559.908H1570.69V529.375H1562.15V607ZM1668.25 573.355H1636.5C1636.87 562.545 1642.88 556.691 1652.38 556.691C1661.87 556.691 1667.88 562.545 1668.25 573.355ZM1627.64 583.375C1627.64 598.668 1637.24 608.055 1652.38 608.055C1664.45 608.055 1673.37 602.043 1676.32 591.812H1666.83C1664.51 597.086 1659.07 600.355 1652.38 600.355C1642.57 600.355 1636.5 593.922 1636.5 582.531V580.633H1677.11V574.199C1677.11 558.484 1667.56 548.992 1652.38 548.992C1637.24 548.992 1627.64 558.379 1627.64 574.146V583.375ZM1781.58 608.055C1790.59 608.055 1797.08 603.572 1799.77 597.139H1800.61V607H1809.16V529.375H1800.19V559.908H1799.56C1796.87 553.475 1790.59 548.992 1781.58 548.992C1770.13 548.992 1760.75 557.166 1760.75 570.613V586.434C1760.75 599.881 1770.13 608.055 1781.58 608.055ZM1769.71 584.588V572.459C1769.71 563.072 1775.51 557.166 1783.95 557.166C1792.6 557.166 1800.19 563.02 1800.19 572.828V584.219C1800.19 594.027 1792.6 599.881 1783.95 599.881C1775.51 599.881 1769.71 593.975 1769.71 584.588ZM1831.09 627.25H1838.74C1846.12 627.25 1851.13 623.137 1854.67 613.592L1878.08 550.047H1868.69L1852.93 595.346H1852.35L1836.63 550.047H1827.24L1848.18 606.947L1846.12 612.59C1844.59 616.861 1841.85 619.445 1836.89 619.445H1831.09V627.25ZM1896.8 607H1944.47V599.512H1925.91V550.047H1899.33V557.535H1916.95V599.512H1896.8V607ZM1913.46 530.008C1913.46 534.121 1916.68 537.18 1920.85 537.18C1925.01 537.18 1928.23 534.121 1928.23 530.008C1928.23 525.895 1925.01 522.836 1920.85 522.836C1916.68 522.836 1913.46 525.895 1913.46 530.008ZM1962.72 607H1971.68V572.828C1971.68 563.02 1978.49 557.166 1987.13 557.166C1995.57 557.166 2000.69 563.072 2000.69 572.459V607H2009.65V570.613C2009.65 557.166 2000.95 548.992 1989.51 548.992C1980.49 548.992 1974.79 553.475 1972.11 559.908H1971.26V550.047H1962.72V607ZM2035.18 627.25H2053.53C2067.87 627.25 2076.2 620.5 2076.2 607.105V550.047H2067.66V559.908H2066.82C2064.13 553.475 2057.64 548.992 2048.62 548.992C2037.18 548.992 2027.79 557.166 2027.79 570.613V581.582C2027.79 595.029 2037.18 603.203 2048.62 603.203C2057.64 603.203 2064.02 598.721 2066.71 592.287H2067.34V606.42C2067.34 615.701 2062.81 619.445 2053.53 619.445H2035.18V627.25ZM2036.76 579.736V572.459C2036.76 563.072 2042.56 557.166 2051 557.166C2059.64 557.166 2067.24 563.02 2067.24 572.828V579.367C2067.24 589.176 2059.64 595.029 2051 595.029C2042.56 595.029 2036.76 589.123 2036.76 579.736ZM2186.47 608.055C2201.61 608.055 2211.2 598.932 2211.2 583.375V573.619C2211.2 558.062 2201.61 548.992 2186.47 548.992C2171.34 548.992 2161.74 558.062 2161.74 573.619V583.375C2161.74 598.932 2171.34 608.055 2186.47 608.055ZM2170.6 582.531V574.41C2170.6 563.072 2176.66 556.797 2186.47 556.797C2196.28 556.797 2202.34 563.072 2202.34 574.41V582.531C2202.34 593.922 2196.28 600.25 2186.47 600.25C2176.66 600.25 2170.6 593.922 2170.6 582.531ZM2246.43 607H2255.29V557.641H2277.65V550.047H2255.39V545.037C2255.39 539.025 2259.46 537.18 2263.94 537.18H2276.38V529.375H2263.41C2253.92 529.375 2246.43 533.963 2246.43 544.615V550.047H2230.19V557.641H2246.43V607ZM2395.25 607.211H2408.22V599.406H2395.77C2391.29 599.406 2387.23 597.561 2387.23 591.549V557.641H2409.48V550.047H2387.12V533.805H2378.27V550.047H2362.02V557.641H2378.27V591.971C2378.27 602.623 2385.75 607.211 2395.25 607.211ZM2430.05 607H2439.02V572.828C2439.02 563.02 2445.82 557.166 2454.47 557.166C2462.9 557.166 2468.02 563.072 2468.02 572.459V607H2476.98V570.613C2476.98 557.166 2468.28 548.992 2456.84 548.992C2447.82 548.992 2442.02 553.475 2439.33 559.908H2438.59V529.375H2430.05V607ZM2536.15 573.355H2504.41C2504.78 562.545 2510.79 556.691 2520.28 556.691C2529.77 556.691 2535.78 562.545 2536.15 573.355ZM2495.55 583.375C2495.55 598.668 2505.14 608.055 2520.28 608.055C2532.36 608.055 2541.27 602.043 2544.22 591.812H2534.73C2532.41 597.086 2526.98 600.355 2520.28 600.355C2510.47 600.355 2504.41 593.922 2504.41 582.531V580.633H2545.01V574.199C2545.01 558.484 2535.47 548.992 2520.28 548.992C2505.14 548.992 2495.55 558.379 2495.55 574.146V583.375ZM2631.18 607H2678.85V599.512H2660.29V529.375H2633.71V536.863H2651.32V599.512H2631.18V607ZM2697.94 607H2745.61V599.512H2727.05V550.047H2700.47V557.535H2718.09V599.512H2697.94V607ZM2714.61 530.008C2714.61 534.121 2717.82 537.18 2721.99 537.18C2726.15 537.18 2729.37 534.121 2729.37 530.008C2729.37 525.895 2726.15 522.836 2721.99 522.836C2717.82 522.836 2714.61 525.895 2714.61 530.008ZM2769.55 627.25H2787.91C2802.25 627.25 2810.58 620.5 2810.58 607.105V550.047H2802.04V559.908H2801.2C2798.51 553.475 2792.02 548.992 2783 548.992C2771.56 548.992 2762.17 557.166 2762.17 570.613V581.582C2762.17 595.029 2771.56 603.203 2783 603.203C2792.02 603.203 2798.4 598.721 2801.09 592.287H2801.72V606.42C2801.72 615.701 2797.19 619.445 2787.91 619.445H2769.55V627.25ZM2771.14 579.736V572.459C2771.14 563.072 2776.94 557.166 2785.38 557.166C2794.02 557.166 2801.62 563.02 2801.62 572.828V579.367C2801.62 589.176 2794.02 595.029 2785.38 595.029C2776.94 595.029 2771.14 589.123 2771.14 579.736ZM2830.62 607H2839.59V572.828C2839.59 563.02 2846.39 557.166 2855.04 557.166C2863.47 557.166 2868.59 563.072 2868.59 572.459V607H2877.55V570.613C2877.55 557.166 2868.85 548.992 2857.41 548.992C2848.39 548.992 2842.59 553.475 2839.9 559.908H2839.16V529.375H2830.62V607ZM2929.34 607.211H2942.31V599.406H2929.87C2925.38 599.406 2921.32 597.561 2921.32 591.549V557.641H2943.58V550.047H2921.22V533.805H2912.36V550.047H2896.12V557.641H2912.36V591.971C2912.36 602.623 2919.85 607.211 2929.34 607.211ZM2987.61 608.002C2992.62 608.002 2996.42 604.152 2996.42 599.248C2996.42 594.344 2992.62 590.494 2987.61 590.494C2982.65 590.494 2978.8 594.344 2978.8 599.248C2978.8 604.152 2982.65 608.002 2987.61 608.002ZM258.871 909.211H271.844V901.406H259.398C254.916 901.406 250.855 899.561 250.855 893.549V859.641H273.109V852.047H250.75V835.805H241.891V852.047H225.648V859.641H241.891V893.971C241.891 904.623 249.379 909.211 258.871 909.211ZM293.676 909H302.641V874.828C302.641 865.02 309.443 859.166 318.092 859.166C326.529 859.166 331.645 865.072 331.645 874.459V909H340.609V872.613C340.609 859.166 331.908 850.992 320.465 850.992C311.447 850.992 305.646 855.475 302.957 861.908H302.219V831.375H293.676V909ZM383.904 910.055C399.039 910.055 408.637 900.932 408.637 885.375V875.619C408.637 860.062 399.039 850.992 383.904 850.992C368.77 850.992 359.172 860.062 359.172 875.619V885.375C359.172 900.932 368.77 910.055 383.904 910.055ZM368.031 884.531V876.41C368.031 865.072 374.096 858.797 383.904 858.797C393.713 858.797 399.777 865.072 399.777 876.41V884.531C399.777 895.922 393.713 902.25 383.904 902.25C374.096 902.25 368.031 895.922 368.031 884.531ZM447.344 910.055C456.361 910.055 462.057 905.572 464.746 899.139H465.59V909H474.133V852.047H465.168V886.219C465.168 896.027 458.365 901.881 449.717 901.881C441.279 901.881 436.164 895.975 436.164 886.588V852.047H427.199V888.434C427.199 901.881 435.9 910.055 447.344 910.055ZM499.656 929.25H518.008C532.352 929.25 540.684 922.5 540.684 909.105V852.047H532.141V861.908H531.297C528.607 855.475 522.121 850.992 513.104 850.992C501.66 850.992 492.273 859.166 492.273 872.613V883.582C492.273 897.029 501.66 905.203 513.104 905.203C522.121 905.203 528.502 900.721 531.191 894.287H531.824V908.42C531.824 917.701 527.289 921.445 518.008 921.445H499.656V929.25ZM501.238 881.736V874.459C501.238 865.072 507.039 859.166 515.477 859.166C524.125 859.166 531.719 865.02 531.719 874.828V881.367C531.719 891.176 524.125 897.029 515.477 897.029C507.039 897.029 501.238 891.123 501.238 881.736ZM560.723 909H569.688V874.828C569.688 865.02 576.49 859.166 585.139 859.166C593.576 859.166 598.691 865.072 598.691 874.459V909H607.656V872.613C607.656 859.166 598.955 850.992 587.512 850.992C578.494 850.992 572.693 855.475 570.004 861.908H569.266V831.375H560.723V909ZM698.676 909H707.219L717.291 864.809H718.135L728.207 909H736.75L748.562 852.047H739.809L732.109 897.398H731.266L721.932 852.1H713.494L704.16 897.398H703.316L695.617 852.047H686.863L698.676 909ZM761.852 909H809.523V901.512H790.961V852.047H764.383V859.535H781.996V901.512H761.852V909ZM778.516 832.008C778.516 836.121 781.732 839.18 785.898 839.18C790.064 839.18 793.281 836.121 793.281 832.008C793.281 827.895 790.064 824.836 785.898 824.836C781.732 824.836 778.516 827.895 778.516 832.008ZM851.184 910.055C864.525 910.055 873.596 903.99 873.596 893.496C873.596 885.428 868.48 879.996 857.459 877.307L849.918 875.461C843.484 873.879 839.318 871.242 839.318 866.391C839.318 861.223 844.064 858.428 851.342 858.428C858.039 858.428 862.258 861.539 863.893 867.234H872.646C870.695 858.059 864.314 850.992 851.5 850.992C838.949 850.992 830.406 857.109 830.406 866.971C830.406 875.092 835.521 880.84 845.805 883.107L853.451 884.795C859.779 886.219 864.314 889.066 864.314 894.182C864.314 899.508 859.199 902.461 851.553 902.461C844.17 902.461 839.002 898.98 837.736 893.812H828.613C830.195 903.621 838.105 910.055 851.184 910.055ZM933.871 875.355H902.125C902.494 864.545 908.506 858.691 917.998 858.691C927.49 858.691 933.502 864.545 933.871 875.355ZM893.266 885.375C893.266 900.668 902.863 910.055 917.998 910.055C930.074 910.055 938.986 904.043 941.939 893.812H932.447C930.127 899.086 924.695 902.355 917.998 902.355C908.189 902.355 902.125 895.922 902.125 884.531V882.633H942.73V876.199C942.73 860.484 933.186 850.992 917.998 850.992C902.863 850.992 893.266 860.379 893.266 876.146V885.375ZM1024.47 909H1032.48V870.82C1032.48 863.754 1035.54 859.166 1040.39 859.166C1045.67 859.166 1047.62 863.016 1047.62 869.871V909H1055.63V870.82C1055.63 863.754 1058.64 859.166 1063.49 859.166C1068.87 859.166 1070.56 862.963 1070.56 869.924V909H1078.57V867.076C1078.57 856.688 1073.88 850.992 1066.39 850.992C1060.64 850.992 1056.48 854.789 1055.05 860.168H1054.21C1053 854.789 1048.99 850.992 1043.66 850.992C1038.29 850.992 1034.38 854.895 1033.28 860.326H1032.43V852.047H1024.47V909ZM1134.16 875.355H1102.41C1102.78 864.545 1108.79 858.691 1118.28 858.691C1127.78 858.691 1133.79 864.545 1134.16 875.355ZM1093.55 885.375C1093.55 900.668 1103.15 910.055 1118.28 910.055C1130.36 910.055 1139.27 904.043 1142.22 893.812H1132.73C1130.41 899.086 1124.98 902.355 1118.28 902.355C1108.47 902.355 1102.41 895.922 1102.41 884.531V882.633H1143.02V876.199C1143.02 860.484 1133.47 850.992 1118.28 850.992C1103.15 850.992 1093.55 860.379 1093.55 876.146V885.375ZM1161.58 909H1170.54V874.828C1170.54 865.02 1177.35 859.166 1185.99 859.166C1194.43 859.166 1199.55 865.072 1199.55 874.459V909H1208.51V872.613C1208.51 859.166 1199.81 850.992 1188.37 850.992C1179.35 850.992 1173.65 855.475 1170.96 861.908H1170.12V852.047H1161.58V909ZM1313.88 910.055C1324.32 910.055 1330.28 903.832 1332.33 899.139H1333.18V909H1341.4V871.295C1341.4 859.271 1333.33 850.992 1319.89 850.992C1307.6 850.992 1299.53 857.426 1297 867.234H1305.65C1307.12 862.277 1312.5 858.744 1318.57 858.744C1327.69 858.744 1332.96 863.543 1332.96 871.453V875.461H1316.51C1302.48 875.461 1294.36 882.896 1294.36 893.602C1294.36 902.619 1301.54 910.055 1313.88 910.055ZM1303.12 892.494C1303.12 886.113 1309.29 882.527 1317.3 882.527H1332.96V888.539C1332.96 896.396 1323.74 902.566 1316.62 902.566C1309.08 902.566 1303.12 899.086 1303.12 892.494ZM1393.82 909.211H1406.79V901.406H1394.35C1389.87 901.406 1385.8 899.561 1385.8 893.549V859.641H1408.06V852.047H1385.7V835.805H1376.84V852.047H1360.6V859.641H1376.84V893.971C1376.84 904.623 1384.33 909.211 1393.82 909.211ZM1527.34 909.211H1540.32V901.406H1527.87C1523.39 901.406 1519.33 899.561 1519.33 893.549V859.641H1541.58V852.047H1519.22V835.805H1510.36V852.047H1494.12V859.641H1510.36V893.971C1510.36 904.623 1517.85 909.211 1527.34 909.211ZM1562.15 909H1571.11V874.828C1571.11 865.02 1577.92 859.166 1586.56 859.166C1595 859.166 1600.12 865.072 1600.12 874.459V909H1609.08V872.613C1609.08 859.166 1600.38 850.992 1588.94 850.992C1579.92 850.992 1574.12 855.475 1571.43 861.908H1570.69V831.375H1562.15V909ZM1668.25 875.355H1636.5C1636.87 864.545 1642.88 858.691 1652.38 858.691C1661.87 858.691 1667.88 864.545 1668.25 875.355ZM1627.64 885.375C1627.64 900.668 1637.24 910.055 1652.38 910.055C1664.45 910.055 1673.37 904.043 1676.32 893.812H1666.83C1664.51 899.086 1659.07 902.355 1652.38 902.355C1642.57 902.355 1636.5 895.922 1636.5 884.531V882.633H1677.11V876.199C1677.11 860.484 1667.56 850.992 1652.38 850.992C1637.24 850.992 1627.64 860.379 1627.64 876.146V885.375ZM1696.52 909H1744.19V901.512H1725.62V852.047H1699.05V859.535H1716.66V901.512H1696.52V909ZM1713.18 832.008C1713.18 836.121 1716.4 839.18 1720.56 839.18C1724.73 839.18 1727.95 836.121 1727.95 832.008C1727.95 827.895 1724.73 824.836 1720.56 824.836C1716.4 824.836 1713.18 827.895 1713.18 832.008ZM1763.07 909H1800.3V901.512H1781.73V878.836C1781.73 865.02 1791.54 859.852 1801.14 859.852C1805.15 859.852 1809.47 860.801 1812.9 862.436V853.471C1809.89 851.678 1806.99 850.992 1802.35 850.992C1791.12 850.992 1785.06 856.266 1782.58 864.703H1781.73V852.047H1764.33V859.535H1772.77V901.512H1763.07V909ZM1935.3 875.355H1903.55C1903.92 864.545 1909.93 858.691 1919.42 858.691C1928.92 858.691 1934.93 864.545 1935.3 875.355ZM1894.69 885.375C1894.69 900.668 1904.29 910.055 1919.42 910.055C1931.5 910.055 1940.41 904.043 1943.37 893.812H1933.87C1931.55 899.086 1926.12 902.355 1919.42 902.355C1909.62 902.355 1903.55 895.922 1903.55 884.531V882.633H1944.16V876.199C1944.16 860.484 1934.61 850.992 1919.42 850.992C1904.29 850.992 1894.69 860.379 1894.69 876.146V885.375ZM1962.72 909H1971.68V874.828C1971.68 865.02 1978.49 859.166 1987.13 859.166C1995.57 859.166 2000.69 865.072 2000.69 874.459V909H2009.65V872.613C2009.65 859.166 2000.95 850.992 1989.51 850.992C1980.49 850.992 1974.79 855.475 1972.11 861.908H1971.26V852.047H1962.72V909ZM2048.62 910.055C2057.64 910.055 2064.13 905.572 2066.82 899.139H2067.66V909H2076.2V831.375H2067.24V861.908H2066.61C2063.92 855.475 2057.64 850.992 2048.62 850.992C2037.18 850.992 2027.79 859.166 2027.79 872.613V888.434C2027.79 901.881 2037.18 910.055 2048.62 910.055ZM2036.76 886.588V874.459C2036.76 865.072 2042.56 859.166 2051 859.166C2059.64 859.166 2067.24 865.02 2067.24 874.828V886.219C2067.24 896.027 2059.64 901.881 2051 901.881C2042.56 901.881 2036.76 895.975 2036.76 886.588ZM2166.17 909H2175.13V888.223L2181.2 882.211L2202.34 909H2213.47L2187.74 876.463L2211.84 852.047H2200.76L2176.08 877.043H2175.13V833.062H2166.17V909ZM2229.77 909H2238.73V874.828C2238.73 865.02 2245.53 859.166 2254.18 859.166C2262.62 859.166 2267.73 865.072 2267.73 874.459V909H2276.7V872.613C2276.7 859.166 2268 850.992 2256.55 850.992C2247.54 850.992 2241.84 855.475 2239.15 861.908H2238.31V852.047H2229.77V909ZM2319.99 910.055C2335.13 910.055 2344.73 900.932 2344.73 885.375V875.619C2344.73 860.062 2335.13 850.992 2319.99 850.992C2304.86 850.992 2295.26 860.062 2295.26 875.619V885.375C2295.26 900.932 2304.86 910.055 2319.99 910.055ZM2304.12 884.531V876.41C2304.12 865.072 2310.19 858.797 2319.99 858.797C2329.8 858.797 2335.87 865.072 2335.87 876.41V884.531C2335.87 895.922 2329.8 902.25 2319.99 902.25C2310.19 902.25 2304.12 895.922 2304.12 884.531ZM2367.72 909H2376.26L2386.33 864.809H2387.18L2397.25 909H2405.79L2417.61 852.047H2408.85L2401.15 897.398H2400.31L2390.97 852.1H2382.54L2373.2 897.398H2372.36L2364.66 852.047H2355.91L2367.72 909ZM2515.96 910.055C2524.97 910.055 2531.46 905.572 2534.15 899.139H2534.99V909H2543.54V831.375H2534.57V861.908H2533.94C2531.25 855.475 2524.97 850.992 2515.96 850.992C2504.51 850.992 2495.12 859.166 2495.12 872.613V888.434C2495.12 901.881 2504.51 910.055 2515.96 910.055ZM2504.09 886.588V874.459C2504.09 865.072 2509.89 859.166 2518.33 859.166C2526.98 859.166 2534.57 865.02 2534.57 874.828V886.219C2534.57 896.027 2526.98 901.881 2518.33 901.881C2509.89 901.881 2504.09 895.975 2504.09 886.588ZM2582.35 910.055C2592.79 910.055 2598.75 903.832 2600.8 899.139H2601.65V909H2609.88V871.295C2609.88 859.271 2601.81 850.992 2588.36 850.992C2576.07 850.992 2568 857.426 2565.47 867.234H2574.12C2575.6 862.277 2580.98 858.744 2587.04 858.744C2596.16 858.744 2601.44 863.543 2601.44 871.453V875.461H2584.98C2570.96 875.461 2562.84 882.896 2562.84 893.602C2562.84 902.619 2570.01 910.055 2582.35 910.055ZM2571.59 892.494C2571.59 886.113 2577.76 882.527 2585.78 882.527H2601.44V888.539C2601.44 896.396 2592.21 902.566 2585.09 902.566C2577.55 902.566 2571.59 899.086 2571.59 892.494ZM2630.97 909H2668.2V901.512H2649.64V878.836C2649.64 865.02 2659.45 859.852 2669.04 859.852C2673.05 859.852 2677.38 860.801 2680.8 862.436V853.471C2677.8 851.678 2674.9 850.992 2670.26 850.992C2659.02 850.992 2652.96 856.266 2650.48 864.703H2649.64V852.047H2632.23V859.535H2640.67V901.512H2630.97V909ZM2700.26 909H2709.23V888.223L2715.29 882.211L2736.44 909H2747.56L2721.83 876.463L2745.93 852.047H2734.86L2710.18 877.043H2709.23V833.062H2700.26V909ZM2831.46 909H2879.14V901.512H2860.57V852.047H2834V859.535H2851.61V901.512H2831.46V909ZM2848.13 832.008C2848.13 836.121 2851.35 839.18 2855.51 839.18C2859.68 839.18 2862.89 836.121 2862.89 832.008C2862.89 827.895 2859.68 824.836 2855.51 824.836C2851.35 824.836 2848.13 827.895 2848.13 832.008ZM2920.8 910.055C2934.14 910.055 2943.21 903.99 2943.21 893.496C2943.21 885.428 2938.09 879.996 2927.07 877.307L2919.53 875.461C2913.1 873.879 2908.93 871.242 2908.93 866.391C2908.93 861.223 2913.68 858.428 2920.96 858.428C2927.65 858.428 2931.87 861.539 2933.51 867.234H2942.26C2940.31 858.059 2933.93 850.992 2921.11 850.992C2908.56 850.992 2900.02 857.109 2900.02 866.971C2900.02 875.092 2905.13 880.84 2915.42 883.107L2923.06 884.795C2929.39 886.219 2933.93 889.066 2933.93 894.182C2933.93 899.508 2928.81 902.461 2921.17 902.461C2913.78 902.461 2908.62 898.98 2907.35 893.812H2898.23C2899.81 903.621 2907.72 910.055 2920.8 910.055ZM3031.54 909H3068.77V901.512H3050.21V878.836C3050.21 865.02 3060.02 859.852 3069.61 859.852C3073.62 859.852 3077.95 860.801 3081.37 862.436V853.471C3078.37 851.678 3075.47 850.992 3070.83 850.992C3059.59 850.992 3053.53 856.266 3051.05 864.703H3050.21V852.047H3032.8V859.535H3041.24V901.512H3031.54V909ZM3098.51 909H3146.18V901.512H3127.62V852.047H3101.04V859.535H3118.66V901.512H3098.51V909ZM3115.18 832.008C3115.18 836.121 3118.39 839.18 3122.56 839.18C3126.72 839.18 3129.94 836.121 3129.94 832.008C3129.94 827.895 3126.72 824.836 3122.56 824.836C3118.39 824.836 3115.18 827.895 3115.18 832.008ZM3170.12 929.25H3188.48C3202.82 929.25 3211.15 922.5 3211.15 909.105V852.047H3202.61V861.908H3201.77C3199.08 855.475 3192.59 850.992 3183.57 850.992C3172.13 850.992 3162.74 859.166 3162.74 872.613V883.582C3162.74 897.029 3172.13 905.203 3183.57 905.203C3192.59 905.203 3198.97 900.721 3201.66 894.287H3202.29V908.42C3202.29 917.701 3197.76 921.445 3188.48 921.445H3170.12V929.25ZM3171.71 881.736V874.459C3171.71 865.072 3177.51 859.166 3185.95 859.166C3194.59 859.166 3202.19 865.02 3202.19 874.828V881.367C3202.19 891.176 3194.59 897.029 3185.95 897.029C3177.51 897.029 3171.71 891.123 3171.71 881.736ZM3231.19 909H3240.16V874.828C3240.16 865.02 3246.96 859.166 3255.61 859.166C3264.04 859.166 3269.16 865.072 3269.16 874.459V909H3278.12V872.613C3278.12 859.166 3269.42 850.992 3257.98 850.992C3248.96 850.992 3243.16 855.475 3240.47 861.908H3239.73V831.375H3231.19V909ZM3329.91 909.211H3342.88V901.406H3330.44C3325.96 901.406 3321.89 899.561 3321.89 893.549V859.641H3344.15V852.047H3321.79V835.805H3312.93V852.047H3296.69V859.641H3312.93V893.971C3312.93 904.623 3320.42 909.211 3329.91 909.211ZM3385.44 923.713L3396.46 891.967H3384.7L3377.48 923.713H3385.44ZM254.705 1061.05C266.148 1061.05 275.535 1052.88 275.535 1039.43V1023.61C275.535 1010.17 266.148 1001.99 254.705 1001.99C245.688 1001.99 239.412 1006.47 236.723 1012.91H236.09V982.375H227.125V1060H235.668V1050.14H236.512C239.201 1056.57 245.688 1061.05 254.705 1061.05ZM236.09 1037.22V1025.83C236.09 1016.02 243.684 1010.17 252.332 1010.17C260.77 1010.17 266.57 1016.07 266.57 1025.46V1037.59C266.57 1046.97 260.77 1052.88 252.332 1052.88C243.684 1052.88 236.09 1047.03 236.09 1037.22ZM333.016 1026.36H301.27C301.639 1015.54 307.65 1009.69 317.143 1009.69C326.635 1009.69 332.646 1015.54 333.016 1026.36ZM292.41 1036.38C292.41 1051.67 302.008 1061.05 317.143 1061.05C329.219 1061.05 338.131 1055.04 341.084 1044.81H331.592C329.271 1050.09 323.84 1053.36 317.143 1053.36C307.334 1053.36 301.27 1046.92 301.27 1035.53V1033.63H341.875V1027.2C341.875 1011.48 332.33 1001.99 317.143 1001.99C302.008 1001.99 292.41 1011.38 292.41 1027.15V1036.38ZM384.484 1061.05C396.93 1061.05 405.525 1055.1 408.426 1044.81H398.986C396.877 1050.35 391.498 1053.25 384.484 1053.25C374.676 1053.25 368.031 1046.92 368.031 1035.53V1027.41C368.031 1016.07 374.676 1009.8 384.484 1009.8C391.445 1009.8 396.877 1012.7 398.934 1018.23H408.373C405.42 1008 396.877 1001.99 384.484 1001.99C369.35 1001.99 359.172 1011.06 359.172 1026.62V1036.38C359.172 1051.93 369.35 1061.05 384.484 1061.05ZM445.973 1061.05C456.414 1061.05 462.373 1054.83 464.43 1050.14H465.273V1060H473.5V1022.29C473.5 1010.27 465.432 1001.99 451.984 1001.99C439.697 1001.99 431.629 1008.43 429.098 1018.23H437.746C439.223 1013.28 444.602 1009.74 450.666 1009.74C459.789 1009.74 465.062 1014.54 465.062 1022.45V1026.46H448.609C434.582 1026.46 426.461 1033.9 426.461 1044.6C426.461 1053.62 433.633 1061.05 445.973 1061.05ZM435.215 1043.49C435.215 1037.11 441.385 1033.53 449.4 1033.53H465.062V1039.54C465.062 1047.4 455.834 1053.57 448.715 1053.57C441.174 1053.57 435.215 1050.09 435.215 1043.49ZM514.105 1061.05C523.123 1061.05 528.818 1056.57 531.508 1050.14H532.352V1060H540.895V1003.05H531.93V1037.22C531.93 1047.03 525.127 1052.88 516.479 1052.88C508.041 1052.88 502.926 1046.97 502.926 1037.59V1003.05H493.961V1039.43C493.961 1052.88 502.662 1061.05 514.105 1061.05ZM584.137 1061.05C597.479 1061.05 606.549 1054.99 606.549 1044.5C606.549 1036.43 601.434 1031 590.412 1028.31L582.871 1026.46C576.438 1024.88 572.271 1022.24 572.271 1017.39C572.271 1012.22 577.018 1009.43 584.295 1009.43C590.992 1009.43 595.211 1012.54 596.846 1018.23H605.6C603.648 1009.06 597.268 1001.99 584.453 1001.99C571.902 1001.99 563.359 1008.11 563.359 1017.97C563.359 1026.09 568.475 1031.84 578.758 1034.11L586.404 1035.79C592.732 1037.22 597.268 1040.07 597.268 1045.18C597.268 1050.51 592.152 1053.46 584.506 1053.46C577.123 1053.46 571.955 1049.98 570.689 1044.81H561.566C563.148 1054.62 571.059 1061.05 584.137 1061.05ZM666.824 1026.36H635.078C635.447 1015.54 641.459 1009.69 650.951 1009.69C660.443 1009.69 666.455 1015.54 666.824 1026.36ZM626.219 1036.38C626.219 1051.67 635.816 1061.05 650.951 1061.05C663.027 1061.05 671.939 1055.04 674.893 1044.81H665.4C663.08 1050.09 657.648 1053.36 650.951 1053.36C641.143 1053.36 635.078 1046.92 635.078 1035.53V1033.63H675.684V1027.2C675.684 1011.48 666.139 1001.99 650.951 1001.99C635.816 1001.99 626.219 1011.38 626.219 1027.15V1036.38ZM792.965 1060.21H805.938V1052.41H793.492C789.01 1052.41 784.949 1050.56 784.949 1044.55V1010.64H807.203V1003.05H784.844V986.805H775.984V1003.05H759.742V1010.64H775.984V1044.97C775.984 1055.62 783.473 1060.21 792.965 1060.21ZM827.77 1060H836.734V1025.83C836.734 1016.02 843.537 1010.17 852.186 1010.17C860.623 1010.17 865.738 1016.07 865.738 1025.46V1060H874.703V1023.61C874.703 1010.17 866.002 1001.99 854.559 1001.99C845.541 1001.99 839.74 1006.47 837.051 1012.91H836.312V982.375H827.77V1060ZM933.871 1026.36H902.125C902.494 1015.54 908.506 1009.69 917.998 1009.69C927.49 1009.69 933.502 1015.54 933.871 1026.36ZM893.266 1036.38C893.266 1051.67 902.863 1061.05 917.998 1061.05C930.074 1061.05 938.986 1055.04 941.939 1044.81H932.447C930.127 1050.09 924.695 1053.36 917.998 1053.36C908.189 1053.36 902.125 1046.92 902.125 1035.53V1033.63H942.73V1027.2C942.73 1011.48 933.186 1001.99 917.998 1001.99C902.863 1001.99 893.266 1011.38 893.266 1027.15V1036.38ZM962.137 1060H1009.81V1052.51H991.246V1003.05H964.668V1010.54H982.281V1052.51H962.137V1060ZM978.801 983.008C978.801 987.121 982.018 990.18 986.184 990.18C990.35 990.18 993.566 987.121 993.566 983.008C993.566 978.895 990.35 975.836 986.184 975.836C982.018 975.836 978.801 978.895 978.801 983.008ZM1028.69 1060H1065.92V1052.51H1047.36V1029.84C1047.36 1016.02 1057.16 1010.85 1066.76 1010.85C1070.77 1010.85 1075.09 1011.8 1078.52 1013.44V1004.47C1075.52 1002.68 1072.62 1001.99 1067.97 1001.99C1056.74 1001.99 1050.68 1007.27 1048.2 1015.7H1047.36V1003.05H1029.95V1010.54H1038.39V1052.51H1028.69V1060ZM1166.01 1060H1174.55L1184.62 1015.81H1185.47L1195.54 1060H1204.08L1215.89 1003.05H1207.14L1199.44 1048.4H1198.6L1189.26 1003.1H1180.83L1171.49 1048.4H1170.65L1162.95 1003.05H1154.2L1166.01 1060ZM1251.81 1061.05C1266.94 1061.05 1276.54 1051.93 1276.54 1036.38V1026.62C1276.54 1011.06 1266.94 1001.99 1251.81 1001.99C1236.67 1001.99 1227.07 1011.06 1227.07 1026.62V1036.38C1227.07 1051.93 1236.67 1061.05 1251.81 1061.05ZM1235.93 1035.53V1027.41C1235.93 1016.07 1242 1009.8 1251.81 1009.8C1261.62 1009.8 1267.68 1016.07 1267.68 1027.41V1035.53C1267.68 1046.92 1261.62 1053.25 1251.81 1053.25C1242 1053.25 1235.93 1046.92 1235.93 1035.53ZM1295.73 1060H1332.96V1052.51H1314.4V1029.84C1314.4 1016.02 1324.21 1010.85 1333.81 1010.85C1337.82 1010.85 1342.14 1011.8 1345.57 1013.44V1004.47C1342.56 1002.68 1339.66 1001.99 1335.02 1001.99C1323.79 1001.99 1317.72 1007.27 1315.25 1015.7H1314.4V1003.05H1297V1010.54H1305.44V1052.51H1295.73V1060ZM1381.01 1061.05C1390.02 1061.05 1396.51 1056.57 1399.2 1050.14H1400.04V1060H1408.59V982.375H1399.62V1012.91H1398.99C1396.3 1006.47 1390.02 1001.99 1381.01 1001.99C1369.56 1001.99 1360.18 1010.17 1360.18 1023.61V1039.43C1360.18 1052.88 1369.56 1061.05 1381.01 1061.05ZM1369.14 1037.59V1025.46C1369.14 1016.07 1374.94 1010.17 1383.38 1010.17C1392.03 1010.17 1399.62 1016.02 1399.62 1025.83V1037.22C1399.62 1047.03 1392.03 1052.88 1383.38 1052.88C1374.94 1052.88 1369.14 1046.97 1369.14 1037.59ZM1452.04 1061.05C1465.38 1061.05 1474.45 1054.99 1474.45 1044.5C1474.45 1036.43 1469.34 1031 1458.31 1028.31L1450.77 1026.46C1444.34 1024.88 1440.17 1022.24 1440.17 1017.39C1440.17 1012.22 1444.92 1009.43 1452.2 1009.43C1458.89 1009.43 1463.11 1012.54 1464.75 1018.23H1473.5C1471.55 1009.06 1465.17 1001.99 1452.36 1001.99C1439.8 1001.99 1431.26 1008.11 1431.26 1017.97C1431.26 1026.09 1436.38 1031.84 1446.66 1034.11L1454.31 1035.79C1460.63 1037.22 1465.17 1040.07 1465.17 1045.18C1465.17 1050.51 1460.05 1053.46 1452.41 1053.46C1445.03 1053.46 1439.86 1049.98 1438.59 1044.81H1429.47C1431.05 1054.62 1438.96 1061.05 1452.04 1061.05ZM1562.15 1060H1571.11V1025.83C1571.11 1016.02 1577.92 1010.17 1586.56 1010.17C1595 1010.17 1600.12 1016.07 1600.12 1025.46V1060H1609.08V1023.61C1609.08 1010.17 1600.38 1001.99 1588.94 1001.99C1579.92 1001.99 1574.12 1006.47 1571.43 1012.91H1570.69V982.375H1562.15V1060ZM1647.68 1061.05C1658.12 1061.05 1664.08 1054.83 1666.14 1050.14H1666.98V1060H1675.21V1022.29C1675.21 1010.27 1667.14 1001.99 1653.7 1001.99C1641.41 1001.99 1633.34 1008.43 1630.81 1018.23H1639.46C1640.93 1013.28 1646.31 1009.74 1652.38 1009.74C1661.5 1009.74 1666.77 1014.54 1666.77 1022.45V1026.46H1650.32C1636.29 1026.46 1628.17 1033.9 1628.17 1044.6C1628.17 1053.62 1635.34 1061.05 1647.68 1061.05ZM1636.93 1043.49C1636.93 1037.11 1643.1 1033.53 1651.11 1033.53H1666.77V1039.54C1666.77 1047.4 1657.54 1053.57 1650.43 1053.57C1642.88 1053.57 1636.93 1050.09 1636.93 1043.49ZM1714.81 1061.05C1723.83 1061.05 1730.32 1056.57 1733.01 1050.14H1733.85V1060H1742.39V982.375H1733.43V1012.91H1732.8C1730.11 1006.47 1723.83 1001.99 1714.81 1001.99C1703.37 1001.99 1693.98 1010.17 1693.98 1023.61V1039.43C1693.98 1052.88 1703.37 1061.05 1714.81 1061.05ZM1702.95 1037.59V1025.46C1702.95 1016.07 1708.75 1010.17 1717.19 1010.17C1725.84 1010.17 1733.43 1016.02 1733.43 1025.83V1037.22C1733.43 1047.03 1725.84 1052.88 1717.19 1052.88C1708.75 1052.88 1702.95 1046.97 1702.95 1037.59ZM1845.86 1060H1854.72V1010.64H1877.08V1003.05H1854.82V998.037C1854.82 992.025 1858.88 990.18 1863.37 990.18H1875.81V982.375H1862.84C1853.35 982.375 1845.86 986.963 1845.86 997.615V1003.05H1829.62V1010.64H1845.86V1060ZM1919.42 1061.05C1934.56 1061.05 1944.16 1051.93 1944.16 1036.38V1026.62C1944.16 1011.06 1934.56 1001.99 1919.42 1001.99C1904.29 1001.99 1894.69 1011.06 1894.69 1026.62V1036.38C1894.69 1051.93 1904.29 1061.05 1919.42 1061.05ZM1903.55 1035.53V1027.41C1903.55 1016.07 1909.62 1009.8 1919.42 1009.8C1929.23 1009.8 1935.3 1016.07 1935.3 1027.41V1035.53C1935.3 1046.92 1929.23 1053.25 1919.42 1053.25C1909.62 1053.25 1903.55 1046.92 1903.55 1035.53ZM1963.35 1060H2000.58V1052.51H1982.02V1029.84C1982.02 1016.02 1991.83 1010.85 2001.43 1010.85C2005.43 1010.85 2009.76 1011.8 2013.19 1013.44V1004.47C2010.18 1002.68 2007.28 1001.99 2002.64 1001.99C1991.41 1001.99 1985.34 1007.27 1982.86 1015.7H1982.02V1003.05H1964.62V1010.54H1973.05V1052.51H1963.35V1060ZM2032.64 1060H2041.61V1039.22L2047.67 1033.21L2068.82 1060H2079.95L2054.21 1027.46L2078.31 1003.05H2067.24L2042.56 1028.04H2041.61V984.062H2032.64V1060ZM2135.58 1026.36H2103.84C2104.21 1015.54 2110.22 1009.69 2119.71 1009.69C2129.2 1009.69 2135.21 1015.54 2135.58 1026.36ZM2094.98 1036.38C2094.98 1051.67 2104.57 1061.05 2119.71 1061.05C2131.79 1061.05 2140.7 1055.04 2143.65 1044.81H2134.16C2131.84 1050.09 2126.41 1053.36 2119.71 1053.36C2109.9 1053.36 2103.84 1046.92 2103.84 1035.53V1033.63H2144.44V1027.2C2144.44 1011.48 2134.9 1001.99 2119.71 1001.99C2104.57 1001.99 2094.98 1011.38 2094.98 1027.15V1036.38ZM2182.15 1061.05C2191.16 1061.05 2197.65 1056.57 2200.34 1050.14H2201.18V1060H2209.73V982.375H2200.76V1012.91H2200.13C2197.44 1006.47 2191.16 1001.99 2182.15 1001.99C2170.7 1001.99 2161.32 1010.17 2161.32 1023.61V1039.43C2161.32 1052.88 2170.7 1061.05 2182.15 1061.05ZM2170.28 1037.59V1025.46C2170.28 1016.07 2176.08 1010.17 2184.52 1010.17C2193.17 1010.17 2200.76 1016.02 2200.76 1025.83V1037.22C2200.76 1047.03 2193.17 1052.88 2184.52 1052.88C2176.08 1052.88 2170.28 1046.97 2170.28 1037.59ZM2296.53 1060H2305.49V1025.83C2305.49 1016.02 2312.29 1010.17 2320.94 1010.17C2329.38 1010.17 2334.5 1016.07 2334.5 1025.46V1060H2343.46V1023.61C2343.46 1010.17 2334.76 1001.99 2323.32 1001.99C2314.3 1001.99 2308.6 1006.47 2305.91 1012.91H2305.07V1003.05H2296.53V1060ZM2386.76 1061.05C2401.89 1061.05 2411.49 1051.93 2411.49 1036.38V1026.62C2411.49 1011.06 2401.89 1001.99 2386.76 1001.99C2371.62 1001.99 2362.02 1011.06 2362.02 1026.62V1036.38C2362.02 1051.93 2371.62 1061.05 2386.76 1061.05ZM2370.88 1035.53V1027.41C2370.88 1016.07 2376.95 1009.8 2386.76 1009.8C2396.56 1009.8 2402.63 1016.07 2402.63 1027.41V1035.53C2402.63 1046.92 2396.56 1053.25 2386.76 1053.25C2376.95 1053.25 2370.88 1046.92 2370.88 1035.53ZM2497.66 1060H2545.33V1052.51H2526.77V982.375H2500.19V989.863H2517.8V1052.51H2497.66V1060ZM2564.42 1060H2612.09V1052.51H2593.53V1003.05H2566.95V1010.54H2584.56V1052.51H2564.42V1060ZM2581.08 983.008C2581.08 987.121 2584.3 990.18 2588.46 990.18C2592.63 990.18 2595.85 987.121 2595.85 983.008C2595.85 978.895 2592.63 975.836 2588.46 975.836C2584.3 975.836 2581.08 978.895 2581.08 983.008ZM2636.03 1080.25H2654.38C2668.73 1080.25 2677.06 1073.5 2677.06 1060.11V1003.05H2668.52V1012.91H2667.67C2664.98 1006.47 2658.5 1001.99 2649.48 1001.99C2638.04 1001.99 2628.65 1010.17 2628.65 1023.61V1034.58C2628.65 1048.03 2638.04 1056.2 2649.48 1056.2C2658.5 1056.2 2664.88 1051.72 2667.57 1045.29H2668.2V1059.42C2668.2 1068.7 2663.66 1072.45 2654.38 1072.45H2636.03V1080.25ZM2637.61 1032.74V1025.46C2637.61 1016.07 2643.41 1010.17 2651.85 1010.17C2660.5 1010.17 2668.09 1016.02 2668.09 1025.83V1032.37C2668.09 1042.18 2660.5 1048.03 2651.85 1048.03C2643.41 1048.03 2637.61 1042.12 2637.61 1032.74ZM2697.1 1060H2706.06V1025.83C2706.06 1016.02 2712.87 1010.17 2721.51 1010.17C2729.95 1010.17 2735.07 1016.07 2735.07 1025.46V1060H2744.03V1023.61C2744.03 1010.17 2735.33 1001.99 2723.89 1001.99C2714.87 1001.99 2709.07 1006.47 2706.38 1012.91H2705.64V982.375H2697.1V1060ZM2795.82 1060.21H2808.79V1052.41H2796.34C2791.86 1052.41 2787.8 1050.56 2787.8 1044.55V1010.64H2810.05V1003.05H2787.7V986.805H2778.84V1003.05H2762.59V1010.64H2778.84V1044.97C2778.84 1055.62 2786.32 1060.21 2795.82 1060.21ZM2830.62 1060H2839.59V1025.83C2839.59 1016.02 2846.39 1010.17 2855.04 1010.17C2863.47 1010.17 2868.59 1016.07 2868.59 1025.46V1060H2877.55V1023.61C2877.55 1010.17 2868.85 1001.99 2857.41 1001.99C2848.39 1001.99 2842.7 1006.47 2840.01 1012.91H2839.16V1003.05H2830.62V1060ZM2898.23 1060H2945.9V1052.51H2927.34V1003.05H2900.76V1010.54H2918.37V1052.51H2898.23V1060ZM2914.89 983.008C2914.89 987.121 2918.11 990.18 2922.27 990.18C2926.44 990.18 2929.66 987.121 2929.66 983.008C2929.66 978.895 2926.44 975.836 2922.27 975.836C2918.11 975.836 2914.89 978.895 2914.89 983.008ZM2964.14 1060H2973.11V1025.83C2973.11 1016.02 2979.91 1010.17 2988.56 1010.17C2997 1010.17 3002.11 1016.07 3002.11 1025.46V1060H3011.08V1023.61C3011.08 1010.17 3002.38 1001.99 2990.93 1001.99C2981.92 1001.99 2976.22 1006.47 2973.53 1012.91H2972.69V1003.05H2964.14V1060ZM3036.6 1080.25H3054.95C3069.3 1080.25 3077.63 1073.5 3077.63 1060.11V1003.05H3069.09V1012.91H3068.24C3065.55 1006.47 3059.07 1001.99 3050.05 1001.99C3038.61 1001.99 3029.22 1010.17 3029.22 1023.61V1034.58C3029.22 1048.03 3038.61 1056.2 3050.05 1056.2C3059.07 1056.2 3065.45 1051.72 3068.14 1045.29H3068.77V1059.42C3068.77 1068.7 3064.23 1072.45 3054.95 1072.45H3036.6V1080.25ZM3038.18 1032.74V1025.46C3038.18 1016.07 3043.98 1010.17 3052.42 1010.17C3061.07 1010.17 3068.66 1016.02 3068.66 1025.83V1032.37C3068.66 1042.18 3061.07 1048.03 3052.42 1048.03C3043.98 1048.03 3038.18 1042.12 3038.18 1032.74ZM3196.39 1060.21H3209.36V1052.41H3196.91C3192.43 1052.41 3188.37 1050.56 3188.37 1044.55V1010.64H3210.62V1003.05H3188.27V986.805H3179.41V1003.05H3163.16V1010.64H3179.41V1044.97C3179.41 1055.62 3186.89 1060.21 3196.39 1060.21ZM3231.19 1060H3240.16V1025.83C3240.16 1016.02 3246.96 1010.17 3255.61 1010.17C3264.04 1010.17 3269.16 1016.07 3269.16 1025.46V1060H3278.12V1023.61C3278.12 1010.17 3269.42 1001.99 3257.98 1001.99C3248.96 1001.99 3243.16 1006.47 3240.47 1012.91H3239.73V982.375H3231.19V1060ZM3337.29 1026.36H3305.55C3305.92 1015.54 3311.93 1009.69 3321.42 1009.69C3330.91 1009.69 3336.92 1015.54 3337.29 1026.36ZM3296.69 1036.38C3296.69 1051.67 3306.29 1061.05 3321.42 1061.05C3333.5 1061.05 3342.41 1055.04 3345.36 1044.81H3335.87C3333.55 1050.09 3328.12 1053.36 3321.42 1053.36C3311.61 1053.36 3305.55 1046.92 3305.55 1035.53V1033.63H3346.15V1027.2C3346.15 1011.48 3336.61 1001.99 3321.42 1001.99C3306.29 1001.99 3296.69 1011.38 3296.69 1027.15V1036.38ZM3366.61 1080.25H3374.26C3381.64 1080.25 3386.65 1076.14 3390.19 1066.59L3413.6 1003.05H3404.21L3388.45 1048.35H3387.87L3372.15 1003.05H3362.76L3383.7 1059.95L3381.64 1065.59C3380.11 1069.86 3377.37 1072.45 3372.41 1072.45H3366.61V1080.25ZM246.057 1212.05C255.074 1212.05 261.561 1207.57 264.25 1201.14H265.094V1211H273.637V1133.38H264.672V1163.91H264.039C261.35 1157.47 255.074 1152.99 246.057 1152.99C234.613 1152.99 225.227 1161.17 225.227 1174.61V1190.43C225.227 1203.88 234.613 1212.05 246.057 1212.05ZM234.191 1188.59V1176.46C234.191 1167.07 239.992 1161.17 248.43 1161.17C257.078 1161.17 264.672 1167.02 264.672 1176.83V1188.22C264.672 1198.03 257.078 1203.88 248.43 1203.88C239.992 1203.88 234.191 1197.97 234.191 1188.59ZM317.143 1212.05C332.277 1212.05 341.875 1202.93 341.875 1187.38V1177.62C341.875 1162.06 332.277 1152.99 317.143 1152.99C302.008 1152.99 292.41 1162.06 292.41 1177.62V1187.38C292.41 1202.93 302.008 1212.05 317.143 1212.05ZM301.27 1186.53V1178.41C301.27 1167.07 307.334 1160.8 317.143 1160.8C326.951 1160.8 333.016 1167.07 333.016 1178.41V1186.53C333.016 1197.92 326.951 1204.25 317.143 1204.25C307.334 1204.25 301.27 1197.92 301.27 1186.53ZM427.199 1211H436.164V1176.83C436.164 1167.02 442.967 1161.17 451.615 1161.17C460.053 1161.17 465.168 1167.07 465.168 1176.46V1211H474.133V1174.61C474.133 1161.17 465.432 1152.99 453.988 1152.99C444.971 1152.99 439.275 1157.47 436.586 1163.91H435.742V1154.05H427.199V1211ZM517.428 1212.05C532.562 1212.05 542.16 1202.93 542.16 1187.38V1177.62C542.16 1162.06 532.562 1152.99 517.428 1152.99C502.293 1152.99 492.695 1162.06 492.695 1177.62V1187.38C492.695 1202.93 502.293 1212.05 517.428 1212.05ZM501.555 1186.53V1178.41C501.555 1167.07 507.619 1160.8 517.428 1160.8C527.236 1160.8 533.301 1167.07 533.301 1178.41V1186.53C533.301 1197.92 527.236 1204.25 517.428 1204.25C507.619 1204.25 501.555 1197.92 501.555 1186.53ZM592.68 1211.21H605.652V1203.41H593.207C588.725 1203.41 584.664 1201.56 584.664 1195.55V1161.64H606.918V1154.05H584.559V1137.8H575.699V1154.05H559.457V1161.64H575.699V1195.97C575.699 1206.62 583.188 1211.21 592.68 1211.21ZM699.941 1231.25H718.293C732.637 1231.25 740.969 1224.5 740.969 1211.11V1154.05H732.426V1163.91H731.582C728.893 1157.47 722.406 1152.99 713.389 1152.99C701.945 1152.99 692.559 1161.17 692.559 1174.61V1185.58C692.559 1199.03 701.945 1207.2 713.389 1207.2C722.406 1207.2 728.787 1202.72 731.477 1196.29H732.109V1210.42C732.109 1219.7 727.574 1223.45 718.293 1223.45H699.941V1231.25ZM701.523 1183.74V1176.46C701.523 1167.07 707.324 1161.17 715.762 1161.17C724.41 1161.17 732.004 1167.02 732.004 1176.83V1183.37C732.004 1193.18 724.41 1199.03 715.762 1199.03C707.324 1199.03 701.523 1193.12 701.523 1183.74ZM784.475 1212.05C799.609 1212.05 809.207 1202.93 809.207 1187.38V1177.62C809.207 1162.06 799.609 1152.99 784.475 1152.99C769.34 1152.99 759.742 1162.06 759.742 1177.62V1187.38C759.742 1202.93 769.34 1212.05 784.475 1212.05ZM768.602 1186.53V1178.41C768.602 1167.07 774.666 1160.8 784.475 1160.8C794.283 1160.8 800.348 1167.07 800.348 1178.41V1186.53C800.348 1197.92 794.283 1204.25 784.475 1204.25C774.666 1204.25 768.602 1197.92 768.602 1186.53ZM900.227 1231.25H918.578C932.922 1231.25 941.254 1224.5 941.254 1211.11V1154.05H932.711V1163.91H931.867C929.178 1157.47 922.691 1152.99 913.674 1152.99C902.23 1152.99 892.844 1161.17 892.844 1174.61V1185.58C892.844 1199.03 902.23 1207.2 913.674 1207.2C922.691 1207.2 929.072 1202.72 931.762 1196.29H932.395V1210.42C932.395 1219.7 927.859 1223.45 918.578 1223.45H900.227V1231.25ZM901.809 1183.74V1176.46C901.809 1167.07 907.609 1161.17 916.047 1161.17C924.695 1161.17 932.289 1167.02 932.289 1176.83V1183.37C932.289 1193.18 924.695 1199.03 916.047 1199.03C907.609 1199.03 901.809 1193.12 901.809 1183.74ZM1000.63 1177.36H968.887C969.256 1166.54 975.268 1160.69 984.76 1160.69C994.252 1160.69 1000.26 1166.54 1000.63 1177.36ZM960.027 1187.38C960.027 1202.67 969.625 1212.05 984.76 1212.05C996.836 1212.05 1005.75 1206.04 1008.7 1195.81H999.209C996.889 1201.09 991.457 1204.36 984.76 1204.36C974.951 1204.36 968.887 1197.92 968.887 1186.53V1184.63H1009.49V1178.2C1009.49 1162.48 999.947 1152.99 984.76 1152.99C969.625 1152.99 960.027 1162.38 960.027 1178.15V1187.38ZM1028.05 1211H1037.02V1176.83C1037.02 1167.02 1043.82 1161.17 1052.47 1161.17C1060.91 1161.17 1066.02 1167.07 1066.02 1176.46V1211H1074.99V1174.61C1074.99 1161.17 1066.29 1152.99 1054.84 1152.99C1045.83 1152.99 1040.13 1157.47 1037.44 1163.91H1036.6V1154.05H1028.05V1211ZM1126.77 1211.21H1139.75V1203.41H1127.3C1122.82 1203.41 1118.76 1201.56 1118.76 1195.55V1161.64H1141.01V1154.05H1118.65V1137.8H1109.79V1154.05H1093.55V1161.64H1109.79V1195.97C1109.79 1206.62 1117.28 1211.21 1126.77 1211.21ZM1162.42 1211H1210.09V1203.51H1191.53V1133.38H1164.95V1140.86H1182.57V1203.51H1162.42V1211ZM1267.68 1177.36H1235.93C1236.3 1166.54 1242.31 1160.69 1251.81 1160.69C1261.3 1160.69 1267.31 1166.54 1267.68 1177.36ZM1227.07 1187.38C1227.07 1202.67 1236.67 1212.05 1251.81 1212.05C1263.88 1212.05 1272.79 1206.04 1275.75 1195.81H1266.26C1263.94 1201.09 1258.5 1204.36 1251.81 1204.36C1242 1204.36 1235.93 1197.92 1235.93 1186.53V1184.63H1276.54V1178.2C1276.54 1162.48 1266.99 1152.99 1251.81 1152.99C1236.67 1152.99 1227.07 1162.38 1227.07 1178.15V1187.38ZM1362.71 1211H1410.38V1203.51H1391.82V1154.05H1365.24V1161.54H1382.85V1203.51H1362.71V1211ZM1379.37 1134.01C1379.37 1138.12 1382.59 1141.18 1386.75 1141.18C1390.92 1141.18 1394.14 1138.12 1394.14 1134.01C1394.14 1129.89 1390.92 1126.84 1386.75 1126.84C1382.59 1126.84 1379.37 1129.89 1379.37 1134.01ZM1428.62 1211H1437.59V1176.83C1437.59 1167.02 1444.39 1161.17 1453.04 1161.17C1461.48 1161.17 1466.59 1167.07 1466.59 1176.46V1211H1475.56V1174.61C1475.56 1161.17 1466.86 1152.99 1455.41 1152.99C1446.4 1152.99 1440.7 1157.47 1438.01 1163.91H1437.17V1154.05H1428.62V1211ZM1527.34 1211.21H1540.32V1203.41H1527.87C1523.39 1203.41 1519.33 1201.56 1519.33 1195.55V1161.64H1541.58V1154.05H1519.22V1137.8H1510.36V1154.05H1494.12V1161.64H1510.36V1195.97C1510.36 1206.62 1517.85 1211.21 1527.34 1211.21ZM1585.62 1212.05C1600.75 1212.05 1610.35 1202.93 1610.35 1187.38V1177.62C1610.35 1162.06 1600.75 1152.99 1585.62 1152.99C1570.48 1152.99 1560.88 1162.06 1560.88 1177.62V1187.38C1560.88 1202.93 1570.48 1212.05 1585.62 1212.05ZM1569.74 1186.53V1178.41C1569.74 1167.07 1575.81 1160.8 1585.62 1160.8C1595.42 1160.8 1601.49 1167.07 1601.49 1178.41V1186.53C1601.49 1197.92 1595.42 1204.25 1585.62 1204.25C1575.81 1204.25 1569.74 1197.92 1569.74 1186.53ZM1727.63 1211.21H1740.6V1203.41H1728.16C1723.67 1203.41 1719.61 1201.56 1719.61 1195.55V1161.64H1741.87V1154.05H1719.51V1137.8H1710.65V1154.05H1694.41V1161.64H1710.65V1195.97C1710.65 1206.62 1718.14 1211.21 1727.63 1211.21ZM1762.43 1211H1771.4V1176.83C1771.4 1167.02 1778.2 1161.17 1786.85 1161.17C1795.29 1161.17 1800.4 1167.07 1800.4 1176.46V1211H1809.37V1174.61C1809.37 1161.17 1800.67 1152.99 1789.22 1152.99C1780.21 1152.99 1774.4 1157.47 1771.71 1163.91H1770.98V1133.38H1762.43V1211ZM1847.97 1212.05C1858.41 1212.05 1864.37 1205.83 1866.43 1201.14H1867.27V1211H1875.5V1173.29C1875.5 1161.27 1867.43 1152.99 1853.98 1152.99C1841.69 1152.99 1833.62 1159.43 1831.09 1169.23H1839.74C1841.22 1164.28 1846.6 1160.74 1852.66 1160.74C1861.79 1160.74 1867.06 1165.54 1867.06 1173.45V1177.46H1850.61C1836.58 1177.46 1828.46 1184.9 1828.46 1195.6C1828.46 1204.62 1835.63 1212.05 1847.97 1212.05ZM1837.21 1194.49C1837.21 1188.11 1843.38 1184.53 1851.4 1184.53H1867.06V1190.54C1867.06 1198.4 1857.83 1204.57 1850.71 1204.57C1843.17 1204.57 1837.21 1201.09 1837.21 1194.49ZM1927.91 1211.21H1940.89V1203.41H1928.44C1923.96 1203.41 1919.9 1201.56 1919.9 1195.55V1161.64H1942.15V1154.05H1919.79V1137.8H1910.93V1154.05H1894.69V1161.64H1910.93V1195.97C1910.93 1206.62 1918.42 1211.21 1927.91 1211.21ZM2035.18 1231.25H2053.53C2067.87 1231.25 2076.2 1224.5 2076.2 1211.11V1154.05H2067.66V1163.91H2066.82C2064.13 1157.47 2057.64 1152.99 2048.62 1152.99C2037.18 1152.99 2027.79 1161.17 2027.79 1174.61V1185.58C2027.79 1199.03 2037.18 1207.2 2048.62 1207.2C2057.64 1207.2 2064.02 1202.72 2066.71 1196.29H2067.34V1210.42C2067.34 1219.7 2062.81 1223.45 2053.53 1223.45H2035.18V1231.25ZM2036.76 1183.74V1176.46C2036.76 1167.07 2042.56 1161.17 2051 1161.17C2059.64 1161.17 2067.24 1167.02 2067.24 1176.83V1183.37C2067.24 1193.18 2059.64 1199.03 2051 1199.03C2042.56 1199.03 2036.76 1193.12 2036.76 1183.74ZM2119.71 1212.05C2134.84 1212.05 2144.44 1202.93 2144.44 1187.38V1177.62C2144.44 1162.06 2134.84 1152.99 2119.71 1152.99C2104.57 1152.99 2094.98 1162.06 2094.98 1177.62V1187.38C2094.98 1202.93 2104.57 1212.05 2119.71 1212.05ZM2103.84 1186.53V1178.41C2103.84 1167.07 2109.9 1160.8 2119.71 1160.8C2129.52 1160.8 2135.58 1167.07 2135.58 1178.41V1186.53C2135.58 1197.92 2129.52 1204.25 2119.71 1204.25C2109.9 1204.25 2103.84 1197.92 2103.84 1186.53ZM2186.47 1212.05C2201.61 1212.05 2211.2 1202.93 2211.2 1187.38V1177.62C2211.2 1162.06 2201.61 1152.99 2186.47 1152.99C2171.34 1152.99 2161.74 1162.06 2161.74 1177.62V1187.38C2161.74 1202.93 2171.34 1212.05 2186.47 1212.05ZM2170.6 1186.53V1178.41C2170.6 1167.07 2176.66 1160.8 2186.47 1160.8C2196.28 1160.8 2202.34 1167.07 2202.34 1178.41V1186.53C2202.34 1197.92 2196.28 1204.25 2186.47 1204.25C2176.66 1204.25 2170.6 1197.92 2170.6 1186.53ZM2248.91 1212.05C2257.93 1212.05 2264.41 1207.57 2267.1 1201.14H2267.95V1211H2276.49V1133.38H2267.52V1163.91H2266.89C2264.2 1157.47 2257.93 1152.99 2248.91 1152.99C2237.46 1152.99 2228.08 1161.17 2228.08 1174.61V1190.43C2228.08 1203.88 2237.46 1212.05 2248.91 1212.05ZM2237.04 1188.59V1176.46C2237.04 1167.07 2242.84 1161.17 2251.28 1161.17C2259.93 1161.17 2267.52 1167.02 2267.52 1176.83V1188.22C2267.52 1198.03 2259.93 1203.88 2251.28 1203.88C2242.84 1203.88 2237.04 1197.97 2237.04 1188.59ZM2363.29 1211H2372.25V1176.83C2372.25 1167.02 2379.06 1161.17 2387.71 1161.17C2396.14 1161.17 2401.26 1167.07 2401.26 1176.46V1211H2410.22V1174.61C2410.22 1161.17 2401.52 1152.99 2390.08 1152.99C2381.06 1152.99 2375.37 1157.47 2372.68 1163.91H2371.83V1154.05H2363.29V1211ZM2430.89 1211H2478.57V1203.51H2460V1154.05H2433.43V1161.54H2451.04V1203.51H2430.89V1211ZM2447.56 1134.01C2447.56 1138.12 2450.78 1141.18 2454.94 1141.18C2459.11 1141.18 2462.32 1138.12 2462.32 1134.01C2462.32 1129.89 2459.11 1126.84 2454.94 1126.84C2450.78 1126.84 2447.56 1129.89 2447.56 1134.01ZM2502.51 1231.25H2520.86C2535.2 1231.25 2543.54 1224.5 2543.54 1211.11V1154.05H2534.99V1163.91H2534.15C2531.46 1157.47 2524.97 1152.99 2515.96 1152.99C2504.51 1152.99 2495.12 1161.17 2495.12 1174.61V1185.58C2495.12 1199.03 2504.51 1207.2 2515.96 1207.2C2524.97 1207.2 2531.35 1202.72 2534.04 1196.29H2534.68V1210.42C2534.68 1219.7 2530.14 1223.45 2520.86 1223.45H2502.51V1231.25ZM2504.09 1183.74V1176.46C2504.09 1167.07 2509.89 1161.17 2518.33 1161.17C2526.98 1161.17 2534.57 1167.02 2534.57 1176.83V1183.37C2534.57 1193.18 2526.98 1199.03 2518.33 1199.03C2509.89 1199.03 2504.09 1193.12 2504.09 1183.74ZM2563.57 1211H2572.54V1176.83C2572.54 1167.02 2579.34 1161.17 2587.99 1161.17C2596.43 1161.17 2601.54 1167.07 2601.54 1176.46V1211H2610.51V1174.61C2610.51 1161.17 2601.81 1152.99 2590.36 1152.99C2581.35 1152.99 2575.54 1157.47 2572.86 1163.91H2572.12V1133.38H2563.57V1211ZM2662.29 1211.21H2675.27V1203.41H2662.82C2658.34 1203.41 2654.28 1201.56 2654.28 1195.55V1161.64H2676.53V1154.05H2654.17V1137.8H2645.31V1154.05H2629.07V1161.64H2645.31V1195.97C2645.31 1206.62 2652.8 1211.21 2662.29 1211.21ZM2720.56 1212C2725.57 1212 2729.37 1208.15 2729.37 1203.25C2729.37 1198.34 2725.57 1194.49 2720.56 1194.49C2715.61 1194.49 2711.76 1198.34 2711.76 1203.25C2711.76 1208.15 2715.61 1212 2720.56 1212Z" fill="white"/>
</svg>
