<svg id="图层_1" data-name="图层 1" xmlns="http://www.w3.org/2000/svg" viewBox="0 0 3840 519"><rect width="3840" height="519" rx="64" style="fill:#fff"/><path d="M250.33,306.05c13.5,0,22.41-6.06,22.41-16.55,0-8.23-5-13.87-16.14-16.35l-7.54-1.69c-7.17-1.58-10.6-4.22-10.6-9.07,0-5.17,4.75-8,12-8,6.69,0,11.33,3.05,12.39,8h8.65c-1.11-9.54-9-15.4-20.88-15.4-12.56,0-21.1,6.12-21.1,16,0,8.12,5.12,13.87,15.4,16.14l7.65,1.69c6.48,1.42,10.86,4.58,10.86,9.54,0,5.43-5,8.23-12.76,8.23-7.39,0-12.34-3.06-13.66-8.28h-9.12C229,300.1,237.41,306.05,250.33,306.05Zm43.56,19.2h8.86V295.14h.63c2.69,6.43,9.07,10.91,18.09,10.91,11.44,0,20.83-8.17,20.83-21.62V268.61c0-13.44-9.39-21.62-20.83-21.62-9,0-15.51,4.49-18.2,10.92h-.84v-9.86h-8.54Zm9-43V270.83c0-9.81,7.6-15.66,16.24-15.66,8.44,0,14.24,5.9,14.24,15.29v12.13c0,9.39-5.8,15.29-14.24,15.29C310.45,297.88,302.85,292,302.85,282.22ZM360.44,305h9V270.83c0-9.81,6.8-15.66,15.45-15.66,8.44,0,13.56,5.9,13.56,15.29V305h9V268.61c0-13.44-8.7-21.62-20.14-21.62-9,0-14.82,4.49-17.51,10.92H369V227.38h-8.54Zm67.6,0h47.67v-7.49H457.15V248.05H430.57v7.49h17.62v42H428Zm16.67-77a7.38,7.38,0,1,0,7.38-7.17A7.13,7.13,0,0,0,444.71,228ZM494,305h9V270.83c0-9.81,6.8-15.66,15.45-15.66,8.43,0,13.55,5.9,13.55,15.29V305h9V268.61c0-13.44-8.71-21.62-20.15-21.62-9,0-14.71,4.49-17.4,10.92h-.85v-9.86H494Zm66,0h10.29l13.65-21.73h.64L598.16,305h10.29l-18.83-28.48,18.83-28.47H598.16l-13.65,22.78h-.64l-13.65-22.78H559.93l18.51,28.47Zm157.78,1.05c15.14,0,24.74-9.12,24.74-24.67v-9.76c0-15.56-9.6-24.63-24.74-24.63S693,256.06,693,271.62v9.76C693,296.93,702.58,306.05,717.71,306.05Zm-15.87-25.52v-8.12c0-11.34,6.06-17.61,15.87-17.61s15.88,6.27,15.88,17.61v8.12c0,11.39-6.07,17.72-15.88,17.72S701.84,291.92,701.84,280.53ZM777.67,305h8.86V255.64h22.36v-7.59H786.64v-5c0-6,4.06-7.86,8.54-7.86h12.44v-7.8h-13c-9.49,0-17,4.58-17,15.24v5.43H761.43v7.59h16.24Zm144.65,1.05c11.45,0,20.83-8.17,20.83-21.62V268.61c0-13.44-9.38-21.62-20.83-21.62-9,0-15.29,4.49-18,10.92h-.63V227.38h-9V305h8.54v-9.86h.85C906.82,301.57,913.3,306.05,922.32,306.05Zm-18.61-23.83V270.83c0-9.81,7.59-15.66,16.24-15.66,8.44,0,14.24,5.9,14.24,15.29v12.13c0,9.39-5.8,15.29-14.24,15.29C911.3,297.88,903.71,292,903.71,282.22ZM962.14,305h47.67v-7.49H991.25V229.06H964.67v7.49h17.61v61H962.14Zm84.69,1.05c10.44,0,16.4-6.22,18.46-10.91h.84V305h8.23V267.3c0-12-8.07-20.31-21.52-20.31-12.29,0-20.36,6.33-22.89,16.14h8.65c1.48-5,7.07-8.44,13.13-8.44,9.13,0,14.19,4.85,14.19,12.76v4h-16.46c-14,0-22.14,7.44-22.14,18.14C1027.32,298.62,1034.49,306.05,1046.83,306.05Zm-10.76-17.56c0-6.38,6.17-10,14.19-10h15.66v6c0,7.86-9.23,14-16.35,14C1042,298.57,1036.07,295.09,1036.07,288.49Zm82.21,17.56c13.29,0,22.1-6.75,24.42-18.35h-9.18c-2.11,6.91-7.38,10.55-15.24,10.55-9.81,0-15.87-6.33-15.87-17.72v-8.12c0-11.34,6.06-17.61,15.87-17.61,7.86,0,13.19,3.74,15.24,10.75h9.18c-2.32-11.65-11.13-18.56-24.42-18.56-15.13,0-24.73,9.07-24.73,24.63v9.76C1093.55,296.93,1103.15,306.05,1118.28,306.05Zm46.46-1.05h9V284.22l6.06-6L1200.92,305H1212l-25.73-32.54,24.1-24.41h-11.07l-24.68,25h-1v-44h-9ZM1333,325.25h8.86v-77.2h-8.54v9.86h-.84c-2.69-6.43-9.18-10.92-18.2-10.92-11.44,0-20.83,8.18-20.83,21.62v15.82c0,13.45,9.39,21.62,20.83,21.62,9,0,15.4-4.48,18.09-10.91h.63Zm-30.58-42.66V270.46c0-9.39,5.8-15.29,14.24-15.29,8.65,0,16.24,5.85,16.24,15.66v11.39c0,9.81-7.59,15.66-16.24,15.66C1308.18,297.88,1302.38,292,1302.38,282.59ZM1382,306.05c9,0,14.71-4.48,17.4-10.91h.84V305h8.55V248.05h-9v34.17c0,9.81-6.8,15.66-15.45,15.66-8.44,0-13.55-5.9-13.55-15.29V248.05h-9v36.38C1361.86,297.88,1370.56,306.05,1382,306.05Zm65.39,0c10.44,0,16.4-6.22,18.46-10.91h.84V305h8.23V267.3c0-12-8.07-20.31-21.52-20.31-12.29,0-20.36,6.33-22.89,16.14h8.65c1.48-5,7.07-8.44,13.13-8.44,9.13,0,14.19,4.85,14.19,12.76v4H1450c-14,0-22.15,7.44-22.15,18.14C1427.89,298.62,1435.06,306.05,1447.4,306.05Zm-10.76-17.56c0-6.38,6.17-10,14.19-10h15.66v6c0,7.86-9.23,14-16.35,14C1442.6,298.57,1436.64,295.09,1436.64,288.49ZM1496,305h37.23v-7.49h-18.56V274.84c0-13.82,9.81-19,19.4-19a28.28,28.28,0,0,1,11.76,2.59v-9c-3-1.79-5.9-2.48-10.54-2.48-11.24,0-17.3,5.28-19.78,13.71h-.84V248.05h-17.4v7.49h8.43v42H1496Zm98.09.21h13v-7.8h-12.45c-4.48,0-8.54-1.85-8.54-7.86V255.64h22.25v-7.59H1586V231.8h-8.86v16.25h-16.24v7.59h16.24V290C1577.12,300.62,1584.61,305.21,1594.11,305.21Zm36.07-.16h45.35v-7.8h-34.17v-.64l32.9-41.76v-6.8h-42.82v7.8h32.27v.63l-33.53,42.14Zm86.06,16.4,12.23-35.22h-13.08l-8,35.22Zm112.32,3.8h16c14.35,0,22.68-6.75,22.68-20.14V248.05h-36.18v7.49h27.21v48.88c0,9.28-4.42,13-13.71,13h-16ZM1854.82,228a7.39,7.39,0,1,0,7.39-7.17A7.13,7.13,0,0,0,1854.82,228Zm61.28,78c9,0,14.71-4.48,17.4-10.91h.85V305h8.54V248.05h-9v34.17c0,9.81-6.81,15.66-15.46,15.66-8.43,0-13.55-5.9-13.55-15.29V248.05h-9v36.38C1896,297.88,1904.66,306.05,1916.1,306.05Zm65.76,0c9,0,15.51-4.48,18.19-10.91h.85V305h8.54V227.38h-9v30.53h-.64c-2.69-6.43-9-10.92-18-10.92-11.44,0-20.83,8.18-20.83,21.62v15.82C1961,297.88,1970.42,306.05,1981.86,306.05ZM1970,282.59V270.46c0-9.39,5.8-15.29,14.23-15.29,8.65,0,16.25,5.85,16.25,15.66v11.39c0,9.81-7.6,15.66-16.25,15.66C1975.8,297.88,1970,292,1970,282.59Zm66.44,42.66h17.09c14.34,0,22.67-6.75,22.67-20.14V248.05h-8.54v9.86h-.84c-2.69-6.43-9.18-10.92-18.2-10.92-11.44,0-20.83,8.18-20.83,21.62v11c0,13.45,9.39,21.62,20.83,21.62,9,0,15.4-4.48,18.09-10.91h.63v14.13c0,9.28-4.53,13-13.81,13h-17Zm.32-47.51v-7.28c0-9.39,5.8-15.29,14.24-15.29,8.64,0,16.24,5.85,16.24,15.66v6.54c0,9.81-7.6,15.66-16.24,15.66C2042.56,293,2036.76,287.12,2036.76,277.74Zm83,28.31c12.6,0,21.78-6.53,24.31-17.61h-9.33c-2,6.07-7.7,9.92-15,9.92-9.81,0-15.87-6.44-15.87-17.83v-1.9h40.6V272.2c0-15.72-9.54-25.21-24.73-25.21S2095,256.38,2095,272.15v9.23C2095,296.67,2104.57,306.05,2119.71,306.05Zm-15.87-34.69c.37-10.81,6.38-16.67,15.87-16.67s15.5,5.86,15.87,16.67ZM2226.18,305h8V266.82c0-7.07,3.05-11.65,7.91-11.65,5.27,0,7.22,3.85,7.22,10.7V305h8V266.82c0-7.07,3-11.65,7.85-11.65,5.38,0,7.07,3.79,7.07,10.75V305h8V263.08c0-10.39-4.7-16.09-12.19-16.09-5.74,0-9.91,3.8-11.33,9.18h-.85c-1.21-5.38-5.22-9.18-10.54-9.18s-9.29,3.91-10.39,9.34h-.85v-8.28h-8Zm72.25,20.25h7.64c7.39,0,12.39-4.11,15.93-13.66l23.41-63.54H2336l-15.77,45.3h-.58L2304,248.05h-9.38l20.93,56.9-2.05,5.64c-1.53,4.27-4.28,6.86-9.23,6.86h-5.8ZM2449,305h9l21-56.95h-9.44l-15.82,45.4h-.53l-15.82-45.4H2428Zm71.24,1.05c15.13,0,24.73-9.12,24.73-24.67v-9.76c0-15.56-9.6-24.63-24.73-24.63s-24.73,9.07-24.73,24.63v9.76C2495.55,296.93,2505.14,306.05,2520.28,306.05Zm-15.87-25.52v-8.12c0-11.34,6.06-17.61,15.87-17.61s15.87,6.27,15.87,17.61v8.12c0,11.39-6.06,17.72-15.87,17.72S2504.41,291.92,2504.41,280.53ZM2568,305h8.55l10.07-44.19h.84L2597.54,305h8.54l11.81-56.95h-8.75l-7.7,45.35h-.85l-9.33-45.3h-8.44l-9.33,45.3h-.85L2565,248.05h-8.76Zm85.8,1.05a9.7,9.7,0,1,0-9.81-9.7A9.63,9.63,0,0,0,2653.8,306.05Z" style="fill:#001c3d"/></svg>